<svg width="400" height="300" viewBox="0 0 400 300" fill="none" xmlns="http://www.w3.org/2000/svg">
<path d="M274.25 74.4C276.5 74.4 278.325 72.5756 278.325 70.325C278.325 68.0744 276.5 66.25 274.25 66.25C271.999 66.25 270.175 68.0744 270.175 70.325C270.175 72.5756 271.999 74.4 274.25 74.4Z" fill="#6D6D6D"/>
<path d="M278.575 63.0999C279.624 63.0999 280.475 62.2493 280.475 61.1999C280.475 60.1506 279.624 59.2999 278.575 59.2999C277.525 59.2999 276.675 60.1506 276.675 61.1999C276.675 62.2493 277.525 63.0999 278.575 63.0999Z" fill="#6D6D6D"/>
<path d="M154 38.375C155.077 38.375 155.95 37.5019 155.95 36.425C155.95 35.348 155.077 34.475 154 34.475C152.923 34.475 152.05 35.348 152.05 36.425C152.05 37.5019 152.923 38.375 154 38.375Z" fill="#6D6D6D"/>
<path d="M281.6 266.6C283.422 266.6 284.9 265.123 284.9 263.3C284.9 261.477 283.422 260 281.6 260C279.777 260 278.3 261.477 278.3 263.3C278.3 265.123 279.777 266.6 281.6 266.6Z" fill="#6D6D6D"/>
<path d="M131.425 277.9C132.268 277.9 132.95 277.217 132.95 276.375C132.95 275.533 132.268 274.85 131.425 274.85C130.583 274.85 129.9 275.533 129.9 276.375C129.9 277.217 130.583 277.9 131.425 277.9Z" fill="#6D6D6D"/>
<path d="M150.475 165.25C151.345 165.25 152.05 164.545 152.05 163.675C152.05 162.805 151.345 162.1 150.475 162.1C149.606 162.1 148.9 162.805 148.9 163.675C148.9 164.545 149.606 165.25 150.475 165.25Z" fill="#EC615B"/>
<path d="M153.575 173.275C154.417 173.275 155.1 172.592 155.1 171.75C155.1 170.908 154.417 170.225 153.575 170.225C152.733 170.225 152.05 170.908 152.05 171.75C152.05 172.592 152.733 173.275 153.575 173.275Z" fill="#333333"/>
<path d="M151.75 215.775C153.324 215.775 154.6 214.499 154.6 212.925C154.6 211.351 153.324 210.075 151.75 210.075C150.176 210.075 148.9 211.351 148.9 212.925C148.9 214.499 150.176 215.775 151.75 215.775Z" fill="#333333"/>
<path d="M271.975 53.7999C272.969 53.7999 273.775 52.994 273.775 51.9999C273.775 51.0058 272.969 50.2 271.975 50.2C270.981 50.2 270.175 51.0058 270.175 51.9999C270.175 52.994 270.981 53.7999 271.975 53.7999Z" fill="#333333"/>
<path d="M203.5 56.9499C204.37 56.9499 205.075 56.2448 205.075 55.3749C205.075 54.5051 204.37 53.7999 203.5 53.7999C202.63 53.7999 201.925 54.5051 201.925 55.3749C201.925 56.2448 202.63 56.9499 203.5 56.9499Z" fill="#333333"/>
<path d="M63.075 180.15C63.7377 180.15 64.275 179.613 64.275 178.95C64.275 178.287 63.7377 177.75 63.075 177.75C62.4123 177.75 61.875 178.287 61.875 178.95C61.875 179.613 62.4123 180.15 63.075 180.15Z" fill="#333333"/>
<path d="M277.425 274.85C279.082 274.85 280.425 273.507 280.425 271.85C280.425 270.193 279.082 268.85 277.425 268.85C275.768 268.85 274.425 270.193 274.425 271.85C274.425 273.507 275.768 274.85 277.425 274.85Z" fill="#333333"/>
<path d="M309.55 18C310.419 18 311.125 17.2948 311.125 16.425C311.125 15.5551 310.419 14.85 309.55 14.85C308.68 14.85 307.975 15.5551 307.975 16.425C307.975 17.2948 308.68 18 309.55 18Z" fill="#333333"/>
<path d="M156.525 87.2249C156.275 85.6749 156.05 82.5749 158.525 82.8249C159.425 82.9249 159.925 83.7249 160.925 83.3749C162.8 82.7249 162.375 80.2999 163.15 78.8999C164.425 76.6499 166.9 79.9249 168.8 78.8499C169.425 78.4999 169.575 77.8499 169.55 77.1749C169.5 74.6499 171.725 74.8249 173.55 75.3249C174.025 75.4499 174.225 74.7249 173.75 74.5999C171.9 74.0999 168.825 73.9249 168.75 76.5999C168.725 77.2499 169.075 77.8999 168.125 78.2999C167.825 78.4249 167.325 78.2749 167.05 78.1999C166.4 77.9999 165.825 77.5499 165.15 77.3749C164.275 77.1249 163.425 77.2999 162.825 77.9999C162.075 78.8999 162.1 80.1249 161.75 81.1749C161.375 82.2999 160.65 82.9499 159.425 82.3999C158.925 82.1749 158.475 81.9749 157.9 82.0499C155.325 82.3999 155.45 85.5249 155.775 87.4249C155.875 87.8999 156.6 87.6999 156.525 87.2249Z" fill="#424242"/>
<path d="M159.475 88.675C159.675 87.125 160.925 86.45 162.375 86.45C163.15 86.45 163.925 86.575 164.675 86.3C166.375 85.65 166.05 83.8 166.45 82.35C167.2 79.6 170.675 81.3 172.6 80.85C173.9 80.525 175 79.225 174.45 77.85C174.275 77.4 173.55 77.6 173.725 78.05C174.575 80.125 171.675 80.25 170.45 80.1C169.55 80 168.675 79.85 167.775 80.075C166.35 80.45 165.8 81.5 165.6 82.85C165.425 84.1 165.45 85.475 163.825 85.675C162.95 85.775 162.075 85.525 161.2 85.725C159.8 86.05 158.9 87.225 158.725 88.625C158.65 89.15 159.4 89.15 159.475 88.675Z" fill="#424242"/>
<path d="M211.125 27.275C210.25 28.375 209.325 29.725 209.75 31.2C210.1 32.4 211.05 32.85 212.2 32.775C212.875 32.725 213.575 32.55 214.125 33.15C214.55 33.6 214.275 34.55 214.15 35.05C213.95 35.825 213.575 36.575 213.65 37.4C213.775 38.525 214.675 39.4 215.825 39.15C216.3 39.05 216.1 38.325 215.625 38.425C213.45 38.925 214.95 35.3 215.05 34.425C215.125 33.7 215 32.9 214.45 32.375C213.9 31.85 213.225 31.9 212.525 31.975C211.425 32.1 210.4 31.75 210.35 30.425C210.325 29.425 211.025 28.525 211.625 27.775C211.975 27.45 211.425 26.9 211.125 27.275Z" fill="#424242"/>
<path d="M217.025 26.9C215.85 27.4 215.1 28.625 215.4 29.9C215.55 30.475 215.9 31.025 216.4 31.375C217 31.825 217.7 31.725 218.3 32.1C219.425 32.775 218.525 34.1 218.575 35.15C218.6 35.675 218.725 36.15 219.175 36.475C219.85 37 220.85 36.825 221.125 35.975C221.275 35.525 220.55 35.325 220.4 35.775C219.45 35.65 219.125 35.225 219.4 34.5C219.45 34.25 219.5 34 219.55 33.75C219.6 33.5 219.625 33.25 219.625 33C219.625 32.475 219.475 31.925 219.075 31.55C218.475 31 217.55 31.225 216.9 30.775C215.575 29.85 216.05 28.1 217.4 27.525C217.85 27.35 217.45 26.725 217.025 26.9Z" fill="#424242"/>
<path d="M53.5499 174.675C52.9749 173.775 52.9749 172.675 53.5499 171.75C54.1249 170.85 54.9249 170.825 55.8499 170.475C57.1249 169.95 57.1499 168.625 57.0749 167.425C57.0499 167 57.0249 166.55 57.1499 166.125C57.4749 165.125 58.3249 165.4 59.0999 165.525C59.5499 165.6 59.9749 165.525 60.3499 165.275C60.8249 164.95 61.1249 164.375 61.2749 163.825C61.3999 163.375 61.4249 162.9 61.5249 162.45C61.5749 162.125 61.6749 161.825 61.8249 161.55C62.2249 160.925 62.6999 160.875 63.2749 161.425C63.3999 161.9 64.1249 161.7 63.9999 161.225C63.5499 159.6 61.5499 160.325 61.0499 161.475C60.8249 162 60.7999 162.575 60.6749 163.125C60.5999 163.45 60.5499 163.8 60.3749 164.1C59.9999 164.775 59.2999 164.65 58.6499 164.575C57.8749 164.5 57.2749 164.425 56.7749 165.15C56.1999 165.975 56.3499 166.95 56.3499 167.9C56.3749 169.05 56.1249 169.5 54.9999 169.875C54.5499 170.025 54.1749 170.1 53.7749 170.4C52.3249 171.425 51.9499 173.55 52.8999 175.025C53.1499 175.45 53.7999 175.075 53.5499 174.675Z" fill="#3F3F3F"/>
<path d="M56.6749 176.4C55.6249 176.25 56.0249 175.1 56.4999 174.65C56.8499 174.325 57.3249 174.125 57.7749 173.9C58.3249 173.625 58.8749 173.3 59.2749 172.825C60.3499 171.475 58.7999 169.675 60.2999 168.6C61.7999 167.55 65.8249 167.075 64.6499 164.275C64.4749 163.825 63.8249 164.225 63.9999 164.65C64.8499 166.675 60.7249 167.275 59.6749 168.125C59.2999 168.425 58.9749 168.825 58.8249 169.3C58.5249 170.35 59.3999 171.425 58.6249 172.425C57.7249 173.525 55.7999 173.525 55.3499 175.075C55.0749 175.95 55.5499 177 56.4999 177.15C56.9499 177.2 57.1499 176.475 56.6749 176.4Z" fill="#3F3F3F"/>
<path d="M330.725 118.3C330.4 117.725 330.45 117.1 330.8 116.55C331.35 115.75 332 115.925 332.85 116C333.425 116.05 333.95 116.175 334.5 115.85C335.475 115.25 335.325 114 335.5 113.05C335.9 110.825 337.825 112.85 339.125 112.15C339.6 111.9 339.775 111.425 339.875 110.925C340.05 109.95 340.1 107.05 341.975 108.225C342.375 108.475 342.775 107.825 342.35 107.575C340.675 106.55 339.325 108.25 339.175 109.825C339.075 110.725 339.175 111.6 337.975 111.475C337.55 111.425 337.125 111.2 336.7 111.15C336.025 111.075 335.425 111.275 335.05 111.875C334.625 112.575 334.775 113.45 334.6 114.2C334.225 115.9 332.775 114.95 331.6 115.15C330.025 115.425 329.3 117.325 330.05 118.65C330.3 119.1 330.95 118.725 330.725 118.3Z" fill="#3F3F3F"/>
<path d="M334.45 119.875C334.025 118.725 335.35 117.45 336.5 118.05C336.65 118.125 336.85 118.125 336.95 118C337.525 117.375 337.675 116.65 337.925 115.85C338.375 114.4 339.45 114.2 340.75 113.8C342.025 113.4 343.45 112.35 342.925 110.85C342.75 110.4 342.025 110.6 342.2 111.05C342.925 113.025 339.375 113.175 338.325 113.9C337.05 114.8 337.425 116.425 336.45 117.475C336.6 117.45 336.75 117.425 336.9 117.425C335.225 116.55 333.1 118.275 333.75 120.1C333.9 120.525 334.625 120.35 334.45 119.875Z" fill="#3F3F3F"/>
<path d="M233.475 126.425C233.525 126.425 234.075 127.775 234.3 127.95C234.65 128.225 235.075 128.25 235.5 128.175C236.25 128.05 236.725 127.5 237.375 127.15C238.775 126.35 238.775 127.725 239.325 128.5C239.95 129.425 240.625 128.975 241.35 128.525C241.825 128.225 242.275 128.025 242.7 128.45C242.925 128.675 243.075 129.05 243.25 129.325C243.525 129.725 243.825 130.05 244.275 130.25C244.7 130.45 245.1 129.8 244.65 129.6C243.625 129.15 243.5 127.45 242.275 127.275C241.7 127.2 241.45 127.525 241 127.775C240.45 128.1 240.125 128.325 239.775 127.7C239.625 127.45 239.6 127.1 239.425 126.85C238.625 125.525 237.375 126.25 236.375 126.9C236.2 127.025 236.025 127.15 235.825 127.25C235.4 127.125 234.95 127 234.525 126.875C234.35 126.7 234.35 126.275 234.2 126.05C233.95 125.7 233.7 125.6 233.3 125.675C232.8 125.775 233 126.5 233.475 126.425Z" fill="#3F3F3F"/>
<path d="M239.35 124.025C240.1 122.85 241.825 125.3 242.525 125.6C242.95 125.775 243.35 125.775 243.8 125.65C244 125.6 244.175 125.5 244.35 125.425C245.025 125.15 245.6 125.325 246.15 125.8C246.95 126.475 247.175 127.375 248.325 127.625C249 127.775 249.625 127.575 249.925 126.925C250.125 126.5 249.475 126.1 249.275 126.55C248.575 128.05 246.65 125.1 246.15 124.775C245.225 124.175 244.65 124.675 243.725 124.875C242.25 125.175 241.775 123.525 240.55 123.125C239.825 122.875 239.125 123 238.725 123.675C238.425 124.075 239.075 124.45 239.35 124.025Z" fill="#3F3F3F"/>
<path d="M332.775 167.725C346.05 167.725 359.325 167.725 372.625 167.725C373.1 167.725 373.1 166.975 372.625 166.975C359.35 166.975 346.075 166.975 332.775 166.975C332.3 166.975 332.3 167.725 332.775 167.725Z" fill="#E8E8E8"/>
<path d="M343.649 167.55C343.649 171.425 343.649 175.275 343.649 179.15C343.649 179.625 344.399 179.625 344.399 179.15C344.399 175.275 344.399 171.425 344.399 167.55C344.399 167.075 343.649 167.075 343.649 167.55Z" fill="#E8E8E8"/>
<path d="M362.2 167.175C362.2 161.775 362.2 156.375 362.2 150.975C362.2 150.5 361.45 150.5 361.45 150.975C361.45 156.375 361.45 161.775 361.45 167.175C361.45 167.675 362.2 167.675 362.2 167.175Z" fill="#E8E8E8"/>
<path d="M353.375 151.275C358.4 151.275 363.425 151.275 368.45 151.275C368.925 151.275 368.925 150.525 368.45 150.525C363.425 150.525 358.4 150.525 353.375 150.525C352.9 150.525 352.9 151.275 353.375 151.275Z" fill="#E8E8E8"/>
<path d="M343.5 61.25C343.5 65.9251 343.5 70.6001 343.5 75.2501C343.5 75.7251 344.25 75.7251 344.25 75.2501C344.25 70.5751 344.25 65.9001 344.25 61.25C344.25 60.775 343.5 60.775 343.5 61.25Z" fill="#E8E8E8"/>
<path d="M331.825 76.325C340.85 76.325 349.85 76.325 358.875 76.325C359.35 76.325 359.35 75.5751 358.875 75.5751C349.85 75.5751 340.85 75.5751 331.825 75.5751C331.325 75.5751 331.325 76.325 331.825 76.325Z" fill="#E8E8E8"/>
<path d="M358.625 76.225C358.625 79.325 358.625 82.425 358.625 85.525C358.625 86 359.375 86 359.375 85.525C359.375 82.425 359.375 79.325 359.375 76.225C359.375 75.75 358.625 75.75 358.625 76.225Z" fill="#E8E8E8"/>
<path d="M107.55 46.675C116.375 46.675 125.225 46.675 134.05 46.675C134.525 46.675 134.525 45.925 134.05 45.925C125.225 45.925 116.375 45.925 107.55 45.925C107.075 45.925 107.05 46.675 107.55 46.675Z" fill="#E8E8E8"/>
<path d="M132.95 46.6C132.95 49 132.95 51.4 132.95 53.8C132.95 54.275 133.7 54.275 133.7 53.8C133.7 51.4 133.7 49 133.7 46.6C133.7 46.1 132.95 46.1 132.95 46.6Z" fill="#E8E8E8"/>
<path d="M124.925 46C124.925 42.15 124.925 38.325 124.925 34.475C124.925 34 124.175 34 124.175 34.475C124.175 38.325 124.175 42.15 124.175 46C124.175 46.5 124.925 46.5 124.925 46Z" fill="#E8E8E8"/>
<path d="M55.1248 123.725C61.2248 123.725 67.3248 123.725 73.4248 123.725C73.8998 123.725 73.8998 122.975 73.4248 122.975C67.3248 122.975 61.2248 122.975 55.1248 122.975C54.6498 122.975 54.6498 123.725 55.1248 123.725Z" fill="#E8E8E8"/>
<path d="M66.2998 116.2C66.2998 118.45 66.2998 120.7 66.2998 122.95C66.2998 123.425 67.0498 123.425 67.0498 122.95C67.0498 120.7 67.0498 118.45 67.0498 116.2C67.0498 115.725 66.2998 115.725 66.2998 116.2Z" fill="#E8E8E8"/>
<path d="M61.8994 116.575C65.1494 116.575 68.3994 116.575 71.6494 116.575C72.1244 116.575 72.1244 115.825 71.6494 115.825C68.3994 115.825 65.1494 115.825 61.8994 115.825C61.3994 115.825 61.3994 116.575 61.8994 116.575Z" fill="#E8E8E8"/>
<path d="M172 274.2C180.15 274.2 188.3 274.2 196.45 274.2C196.925 274.2 196.925 273.45 196.45 273.45C188.3 273.45 180.15 273.45 172 273.45C171.5 273.45 171.5 274.2 172 274.2Z" fill="#E8E8E8"/>
<path d="M187.05 273.45C187.05 271.7 187.05 269.95 187.05 268.175C187.05 267.7 186.3 267.7 186.3 268.175C186.3 269.925 186.3 271.675 186.3 273.45C186.3 273.95 187.05 273.95 187.05 273.45Z" fill="#E8E8E8"/>
<path d="M184.775 268.2C188.15 268.2 191.55 268.2 194.925 268.2C195.4 268.2 195.4 267.45 194.925 267.45C191.55 267.45 188.15 267.45 184.775 267.45C184.3 267.45 184.3 268.2 184.775 268.2Z" fill="#E8E8E8"/>
<path d="M55.701 261.05C63.851 261.05 72.001 261.05 80.151 261.05C80.626 261.05 80.626 260.3 80.151 260.3C72.001 260.3 63.851 260.3 55.701 260.3C55.226 260.3 55.226 261.05 55.701 261.05Z" fill="#E8E8E8"/>
<path d="M67 251.25C67 254.125 67 257.025 67 259.9C67 260.375 67.75 260.375 67.75 259.9C67.75 257.025 67.75 254.125 67.75 251.25C67.75 250.775 67 250.775 67 251.25Z" fill="#E8E8E8"/>
<path d="M66.9994 250.125C63.7494 250.125 60.4744 250.125 57.2244 250.125C56.7494 250.125 56.7494 250.875 57.2244 250.875C60.4744 250.875 63.7494 250.875 66.9994 250.875C67.4744 250.875 67.4744 250.125 66.9994 250.125Z" fill="#E8E8E8"/>
<path d="M327.475 239.05C326.65 238.225 326.85 236.625 328.125 236.35C328.8 236.2 329.45 236.625 330.1 236.7C330.6 236.775 331.125 236.725 331.45 236.275C331.95 235.625 331.55 234.875 331.525 234.15C331.475 231.875 334.175 232.025 335.525 232.825C335.825 233 336.15 232.7 336.075 232.4C335.425 229.275 339 227.125 341.45 229.2C341.825 229.5 342.35 228.975 341.975 228.675C338.95 226.125 334.525 228.725 335.35 232.625C335.525 232.475 335.725 232.35 335.9 232.2C334.75 231.5 333.275 231.15 332.05 231.925C331.6 232.2 331.2 232.625 331 233.125C330.85 233.475 330.775 233.8 330.8 234.175C330.825 234.85 331.05 234.8 330.55 235.45C330 236.175 329.95 235.85 329.175 235.675C328.9 235.6 328.65 235.55 328.35 235.575C327.725 235.6 327.15 235.9 326.75 236.35C325.875 237.325 326.1 238.7 326.975 239.575C327.3 239.925 327.825 239.4 327.475 239.05Z" fill="#E8E8E8"/>
<path d="M332.35 239.8C332.075 237.525 335.8 237.5 336.85 235.925C337.125 235.525 337.225 235.075 337.4 234.65C337.725 233.875 338.3 233.375 339.15 233.15C340.525 232.8 341.95 233.425 343.2 233.95C343.65 234.125 343.85 233.4 343.4 233.225C341.1 232.275 338 231.55 336.725 234.35C336.275 235.35 336.125 235.9 335.075 236.425C334.45 236.725 333.8 236.9 333.2 237.25C332.25 237.8 331.5 238.65 331.625 239.8C331.675 240.275 332.425 240.275 332.35 239.8Z" fill="#E8E8E8"/>
<path d="M224.824 167.1C225.324 168.35 225.824 169.625 226.324 170.875C226.374 170.725 226.449 170.6 226.499 170.45C226.224 170.625 225.949 170.8 225.674 171C225.249 170 225.424 169.75 226.224 170.2C226.699 170.5 226.924 171.15 227.024 171.675C227.249 172.875 226.999 174.125 226.599 175.275C226.499 175.575 226.799 175.775 227.049 175.725C228.549 175.425 229.149 177.225 228.849 178.35C228.624 179.175 228.174 179.9 227.724 180.625C227.474 181.025 228.124 181.4 228.374 181C229.174 179.75 230.099 178.2 229.549 176.65C229.124 175.5 228.074 174.775 226.849 175C226.999 175.15 227.149 175.3 227.299 175.45C227.799 174 228.124 172.175 227.499 170.7C227.074 169.725 226.099 168.975 224.999 169.3C224.149 169.55 223.724 170.4 224.124 171.225C224.799 172.6 225.974 171.675 226.849 171.1C226.974 171.025 227.074 170.825 227.024 170.675C226.524 169.425 226.024 168.15 225.524 166.9C225.374 166.475 224.649 166.65 224.824 167.1Z" fill="#E8E8E8"/>
<path d="M76.9747 48.825C76.4997 47.625 78.0997 47.3 78.8497 47.725C79.4247 48.05 79.7997 48.625 80.1497 49.15C80.4747 49.625 80.8247 50.15 80.9997 50.7C81.1997 51.175 81.1747 51.625 80.9247 52.075C80.0497 52.475 79.5997 52.375 79.5747 51.8C79.3497 50.975 80.2247 50.425 80.9747 50.45C81.7497 50.475 82.4747 50.925 82.9997 51.475C83.8997 52.425 84.2247 53.675 84.0997 54.95C84.3247 54.875 84.5747 54.825 84.7997 54.75C84.2997 54.025 84.7747 53.25 85.4497 52.875C86.0247 52.575 86.6747 52.65 87.2247 52.95C88.1247 53.425 88.7497 54.3 89.3247 55.1C89.5997 55.5 90.2497 55.125 89.9747 54.725C89.0247 53.4 87.5997 51.55 85.7247 51.975C84.3497 52.275 83.2497 53.875 84.1497 55.125C84.3747 55.45 84.7997 55.3 84.8497 54.925C85.0747 52.55 83.3247 49.3 80.5247 49.7C79.5247 49.85 78.7997 50.55 78.7997 51.575C78.7997 52.375 79.2997 53.2 80.1497 53.25C81.1497 53.325 81.8247 52.35 81.8747 51.45C81.9497 50.2 80.9747 48.85 80.2247 47.925C79.5247 47.1 78.4997 46.4 77.3997 46.825C76.4997 47.15 75.8997 48.05 76.2747 48.975C76.4247 49.475 77.1497 49.275 76.9747 48.825Z" fill="#E8E8E8"/>
<path d="M208.675 85.5C207.625 84.875 208.375 83.025 209.55 83.8C210.675 84.55 209.175 85.825 208.45 84.95C208.15 84.575 207.625 85.1 207.925 85.475C208.5 86.175 209.6 86.125 210.25 85.55C211 84.875 210.8 83.775 210.025 83.225C209.25 82.675 208.125 82.775 207.65 83.675C207.175 84.525 207.5 85.675 208.325 86.15C208.7 86.375 209.075 85.75 208.675 85.5Z" fill="#E8E8E8"/>
<path d="M288.325 30.825C287.775 30.05 288.725 28.875 289.6 29.225C289.525 29.175 289.45 29.1 289.375 29.05C289.85 29.875 289.15 31 288.225 30.95C288.35 31.05 288.475 31.125 288.575 31.225C288.425 30.8 288.25 30.35 288.1 29.925C287.925 29.475 287.2 29.675 287.375 30.125C287.525 30.55 287.7 31 287.85 31.425C287.9 31.6 288.025 31.7 288.2 31.7C289 31.75 289.7 31.25 290.05 30.55C290.325 30 290.475 28.85 289.8 28.5C288.325 27.775 286.8 29.975 287.675 31.2C287.95 31.6 288.6 31.225 288.325 30.825Z" fill="#E8E8E8"/>
<path d="M308.675 68C308.55 67.425 308.975 66.8 309.55 66.675C310.075 66.575 310.55 67 310.675 67.475C311 68.6 309.525 69.125 308.825 68.35C308.5 68 307.975 68.525 308.3 68.875C309.6 70.325 312.1 68.9 311.3 67.05C310.95 66.225 310.075 65.7 309.2 65.975C308.275 66.275 307.725 67.25 307.925 68.2C308.075 68.675 308.8 68.475 308.675 68Z" fill="#E8E8E8"/>
<path d="M227.525 274.925C226.575 274.475 226.65 273.175 227.525 272.675C228.375 272.2 229.175 272.625 229.95 272.975C230.6 273.275 231.35 273.55 231.925 272.975C232.45 272.475 232.35 271.7 232.375 271.05C232.475 268.525 234.925 269.025 236.6 269.65C237.05 269.825 237.25 269.1 236.8 268.925C235.325 268.35 233.275 267.8 232.1 269.25C231.75 269.675 231.65 270.175 231.625 270.7C231.6 271.05 231.75 271.825 231.55 272.15C231 272.975 230.25 272.225 229.675 271.975C228.575 271.5 227 271.625 226.325 272.775C225.75 273.75 226.1 275.075 227.125 275.55C227.575 275.775 227.95 275.125 227.525 274.925Z" fill="#E8E8E8"/>
<path d="M239.625 216C238.875 225.175 239.275 234.375 240.825 243.45C240.9 243.925 241.625 243.725 241.55 243.25C240.025 234.25 239.625 225.1 240.375 216C240.425 215.525 239.675 215.525 239.625 216Z" fill="#E8E8E8"/>
<path d="M240.125 216.575C244.025 217.925 248.05 218.825 252.15 219.275C256 219.675 260.425 220.1 264.125 218.65C264.575 218.475 264.375 217.75 263.925 217.925C260.325 219.35 255.95 218.925 252.15 218.525C248.125 218.1 244.15 217.175 240.325 215.85C239.85 215.675 239.675 216.4 240.125 216.575Z" fill="#E8E8E8"/>
<path d="M246.075 217.6C244.775 215.575 243.7 213.425 242.95 211.125C242.6 210.025 242.3 208.925 242.075 207.8C241.95 207.125 241.825 206.45 241.75 205.775C241.75 205.7 241.475 203.925 242 204.175C242.25 204.3 242.675 204.075 242.55 203.75C241.175 200.275 240.425 196.625 240.35 192.875C240.225 193 240.1 193.125 239.975 193.25C240.175 193.325 240.35 193.4 240.55 193.475C240.8 193.775 241.275 193.45 241.175 193.1C240.675 191.5 240.35 189.85 240.25 188.15C240.225 187.75 240.3 183.25 240.575 183.325C240.875 183.4 241.075 183.125 241.025 182.875C240.55 180.05 240.325 177.175 240.45 174.325C240.5 172.9 240.625 171.5 240.85 170.1C241.05 168.825 241.15 167.275 242.15 166.35C241.95 166.325 241.75 166.3 241.55 166.275C243.65 170.225 244.825 174.55 245.9 178.85C246.95 183.075 247.875 187.35 248.675 191.65C250.3 200.525 251.325 209.5 251.775 218.525C251.8 219 252.55 219 252.525 218.525C252.075 209.45 251.05 200.4 249.4 191.45C248.575 187 247.625 182.575 246.525 178.175C245.45 173.95 244.275 169.75 242.2 165.875C242.075 165.65 241.775 165.65 241.6 165.8C240.75 166.575 240.5 167.6 240.3 168.675C240.025 170.2 239.825 171.775 239.725 173.325C239.525 176.575 239.725 179.825 240.275 183.05C240.425 182.9 240.575 182.75 240.725 182.6C239.275 182.2 239.45 185.325 239.425 186.025C239.325 188.475 239.7 190.925 240.425 193.275C240.625 193.15 240.85 193.025 241.05 192.9C240.725 192.525 240.45 192.4 239.95 192.45C239.75 192.475 239.575 192.6 239.575 192.825C239.65 196.625 240.4 200.35 241.8 203.9C241.975 203.75 242.175 203.625 242.35 203.475C239.85 202.275 241.3 207.925 241.5 208.775C242.25 212.025 243.6 215.125 245.4 217.925C245.7 218.375 246.35 218 246.075 217.6Z" fill="#E8E8E8"/>
<path d="M250.05 192.625C249.825 191.025 249.775 189.4 249.975 187.8C250.025 187.4 250.975 182.7 251.45 182.9C251.7 183.025 252 182.875 252.025 182.575C252.175 179.375 253.175 176.525 254.35 173.575C255.525 170.65 256.675 167.825 258.625 165.3C258.45 165.3 258.275 165.3 258.1 165.3C259.525 166.925 259.35 169.4 259.425 171.425C259.525 173.7 259.6 175.975 259.625 178.25C259.675 182.725 259.6 187.2 259.4 191.675C258.975 200.825 257.95 209.95 256.4 218.975C256.325 219.45 257.05 219.65 257.125 219.175C258.75 209.775 259.775 200.25 260.2 190.7C260.4 185.9 260.45 181.1 260.35 176.3C260.3 173.9 260.25 171.5 260.075 169.1C259.975 167.525 259.725 165.975 258.625 164.75C258.5 164.6 258.225 164.6 258.1 164.75C256.175 167.25 254.975 170 253.825 172.925C252.55 176.075 251.475 179.125 251.3 182.575C251.5 182.475 251.675 182.35 251.875 182.25C250.35 181.575 249.85 184.825 249.65 185.7C249.1 188.05 249.05 190.425 249.4 192.8C249.375 193.3 250.1 193.1 250.05 192.625Z" fill="#E8E8E8"/>
<path d="M241.175 244.075C249 246.6 257.475 246.475 265.225 243.725C265.675 243.575 265.475 242.85 265.025 243C257.4 245.7 249.075 245.825 241.375 243.35C240.9 243.2 240.7 243.925 241.175 244.075Z" fill="#E8E8E8"/>
<path d="M264.025 218.4C264.325 222.45 264.65 226.5 264.925 230.55C265.2 234.675 265.3 238.85 264.625 242.95C264.55 243.425 265.275 243.625 265.35 243.15C266.025 239.125 265.975 235.075 265.7 231.025C265.425 226.825 265.1 222.6 264.775 218.4C264.75 217.925 264 217.925 264.025 218.4Z" fill="#E8E8E8"/>
<path d="M130.601 250.5C135.701 247.775 140.826 245.05 145.926 242.325C148.326 242.725 151.626 243.25 155.576 243.8C163.476 244.9 176.201 246.675 192.301 247.15C208.401 247.625 220.476 246.6 225.076 246.15C236.151 245.1 242.851 243.675 248.326 242.2C253.301 240.85 257.401 239.375 260.326 238.25C262.726 239.05 265.401 240.125 268.251 241.6C269.876 242.45 271.376 243.325 272.701 244.2C268.001 245.55 261.676 247.275 254.151 249.025C238.301 252.725 226.151 254.475 223.601 254.85C209.026 256.925 188.251 259.85 162.126 256.825C154.001 255.85 143.176 254.075 130.601 250.5Z" fill="white"/>
<path d="M130.325 250.525C130.45 251.575 130.6 252.6 130.725 253.65C132.6 254.175 135.35 254.925 138.75 255.675C145.25 257.125 151.85 258.125 160.475 258.8C192.325 261.3 217.775 259.075 217.775 259.075C230.5 257.95 242.85 256.8 258.8 252.15C264.8 250.4 269.7 248.625 273.2 247.25C272.925 246.075 272.65 244.9 272.375 243.725C271.4 244.125 269.95 244.7 268.175 245.35C256.125 249.75 246.2 251.2 237.35 252.275C217.9 254.675 208.175 255.85 193.9 256.075C177.65 256.35 155.85 255.375 130.325 250.525Z" fill="#161616"/>
<path d="M130.15 251C130.15 251.8 130.15 252.6 130.15 253.4C130.15 253.875 130.9 253.875 130.9 253.4C130.9 252.6 130.9 251.8 130.9 251C130.9 250.5 130.15 250.5 130.15 251Z" fill="#161616"/>
<path d="M130.426 254.1C149.101 259.15 168.601 259.8 187.826 260.075C206.301 260.325 224.901 259.525 243.101 256.15C253.351 254.25 263.451 251.475 273.201 247.7C273.651 247.525 273.451 246.8 273.001 246.975C255.801 253.65 237.526 257.05 219.151 258.475C200.626 259.9 181.926 259.575 163.401 258.45C152.326 257.75 141.351 256.3 130.626 253.4C130.151 253.25 129.951 253.975 130.426 254.1Z" fill="#161616"/>
<path d="M273.2 247.175C273.35 246.125 273.4 245.05 273.3 244C273.25 243.525 272.5 243.525 272.55 244C272.625 245 272.625 246 272.475 246.975C272.4 247.425 273.125 247.65 273.2 247.175Z" fill="#161616"/>
<path d="M130.75 250.925C136 248.425 141.15 245.75 146.2 242.85C146.625 242.6 146.25 241.975 145.825 242.2C140.775 245.075 135.625 247.775 130.375 250.275C129.925 250.475 130.3 251.125 130.75 250.925Z" fill="#161616"/>
<path d="M146 242.5C175.825 248.175 206.825 249.225 236.9 244.925C244.9 243.775 252.85 242 260.25 238.7C260.7 238.5 260.3 237.85 259.875 238.05C253.225 241 246.125 242.725 238.95 243.85C231.65 245 224.275 245.7 216.9 246.175C201.925 247.125 186.875 246.875 171.95 245.45C163.3 244.625 154.725 243.375 146.2 241.775C145.725 241.7 145.525 242.425 146 242.5Z" fill="#161616"/>
<path d="M260.101 238.575C264.551 240.025 268.726 242.05 272.626 244.625C273.026 244.9 273.401 244.25 273.001 243.975C269.051 241.375 264.801 239.325 260.301 237.85C259.826 237.7 259.626 238.425 260.101 238.575Z" fill="#161616"/>
<path d="M130.801 250.525C139.626 253.5 148.826 254.9 158.076 255.65C167.451 256.4 176.901 256.625 186.301 256.625C204.976 256.625 223.701 255.35 242.101 252C252.551 250.1 262.901 247.525 272.976 244.15C273.426 244 273.226 243.275 272.776 243.425C255.051 249.325 236.626 252.775 218.026 254.475C199.526 256.175 180.826 256.275 162.276 255.175C151.676 254.525 141.051 253.2 130.951 249.8C130.551 249.65 130.351 250.375 130.801 250.525Z" fill="#161616"/>
<path d="M145.2 107.75C175.75 100.675 207.2 99.1249 238.45 98.8249C247.3 98.7249 256.15 98.7499 265 98.7499C265.475 98.7499 265.475 97.9999 265 97.9999C233.65 97.9499 202.15 97.9249 171.025 102.25C162.275 103.475 153.6 105.025 145 107.025C144.525 107.15 144.725 107.875 145.2 107.75Z" fill="#161616"/>
<path d="M266.551 98.075C266.876 109.7 267.076 123.175 267.001 138.15C266.951 146.85 266.876 142.7 266.101 178.9C265.651 199.75 265.526 207.6 264.051 219.65C263.101 227.5 261.951 233.95 261.101 238.325C267.551 240.125 273.701 241.825 279.101 243.325C287.451 245.65 289.676 246.275 293.001 246.75C298.151 247.45 304.426 247.55 311.676 246.075C314.351 224.175 315.826 205.5 316.676 191.2C319.726 140.95 316.876 117.8 315.776 109.675C314.276 98.725 312.426 89.725 311.001 83.5C305.651 84.525 301.301 85.625 298.251 86.45C287.776 89.325 279.476 92.7 272.526 95.55C269.951 96.625 267.876 97.5 266.551 98.075Z" fill="white"/>
<path d="M94.2 83.95C94 86.1 93.775 88.75 93.575 91.05C89.425 138.375 87.35 162.05 86.675 177.275C85.975 193.625 85.925 217.325 89.4 246.8C89.675 247.4 90.175 248.225 91.075 248.9C92.25 249.775 93.325 249.75 95.45 250.35C97.125 250.825 98 251.3 98.8 251.6C101.1 252.5 106.25 253.525 112.8 253.275C122.2 252.9 129.425 250.025 134.725 247.85C139.7 245.825 143.675 243.65 146.425 242C144.875 228.075 143.725 213.375 143.075 197.95C141.75 165.15 143.075 135.025 145.8 108.175C144.65 107.725 142.975 107.1 141 106.3C137.6 104.925 129.45 101.6 115.1 94.6C109.425 91.85 102.325 88.275 94.2 83.95Z" fill="white"/>
<path d="M310.851 83.4C311.151 85.05 311.551 87.325 312.001 90.05C312.626 93.925 314.026 103.1 315.05 115.15C316.1 127.7 316.35 138.5 316.375 147.1C316.45 164.55 315.801 177.35 314.101 207.2C313.576 216.5 312.801 230.125 311.826 246.75C312.851 246.675 313.851 246.625 314.876 246.55C315.376 242.4 316.051 236.225 316.575 228.675C316.975 223.225 317.15 219.25 317.325 214.975C318.2 195.375 318.35 195.6 318.65 187.6C319.25 171.825 319.125 159.7 319.025 148.8C318.95 141.275 318.725 134.15 318.275 119.9C317.95 110.2 317.625 101.6 315.425 90.425C314.851 87.575 314.301 85.2 313.901 83.575C312.876 83.525 311.876 83.475 310.851 83.4Z" fill="#161616"/>
<path d="M90.3763 84.4C90.2013 85.275 89.9263 86.625 89.6513 88.275C88.8513 93.05 88.6513 96.65 88.5763 97.825C88.0263 106.325 86.9263 110.475 85.3263 129.35C85.0263 132.8 84.8013 135.825 84.3513 141.9C83.4263 154.3 82.9763 160.5 82.6513 167.5C82.3013 175.325 82.2513 180.85 82.1763 191.9C82.1013 201.45 82.0513 208.35 82.3013 217.375C82.5013 224.575 82.9013 234.35 83.8763 246C85.9013 246.6 87.9013 247.2 89.9263 247.8C89.9013 246.675 89.8263 244.65 89.6763 242.125C89.0763 230.9 88.1013 226.35 87.8763 217C87.8013 214.125 87.8513 212.225 87.8763 209.5C88.1513 189.95 87.8263 181.025 88.0013 168.325C88.3013 147.6 89.7013 131.4 90.9013 117.6C92.0263 104.55 93.3013 93.375 94.4013 84.625C93.0263 84.55 91.7013 84.475 90.3763 84.4Z" fill="#161616"/>
<path d="M265.951 98.4999C266.876 116.85 266.751 135.25 266.501 153.6C266.226 171.55 266.101 189.55 264.726 207.475C263.951 217.675 262.726 227.85 260.826 237.925C260.726 238.4 261.451 238.6 261.551 238.125C264.876 220.5 266.101 202.575 266.651 184.675C267.226 166.4 267.476 148.075 267.451 129.775C267.426 119.35 267.251 108.925 266.726 98.4999C266.676 98.0249 265.926 98.0249 265.951 98.4999Z" fill="#161616"/>
<path d="M266.875 98.5C280.75 91.6249 295.475 86.6749 310.675 83.7499C311.15 83.6499 310.95 82.9249 310.475 83.0249C295.225 85.9749 280.425 90.9749 266.5 97.8499C266.075 98.0749 266.45 98.725 266.875 98.5Z" fill="#161616"/>
<path d="M310.425 83.525C314.55 104.3 315.8 125.525 315.775 146.675C315.725 167.825 314.475 188.925 313.45 210.05C312.85 222.225 312.25 234.375 311.65 246.55C311.625 247.025 312.375 247.025 312.4 246.55C313.475 225 314.6 203.45 315.575 181.875C316.525 160.725 317.125 139.525 315.7 118.4C314.9 106.625 313.475 94.9 311.175 83.35C311.05 82.85 310.325 83.05 310.425 83.525Z" fill="#161616"/>
<path d="M260.951 238.075C262.076 239.375 264.076 239.625 265.651 240.1C267.801 240.75 269.976 241.4 272.126 242.05C276.476 243.35 280.801 244.725 285.201 245.825C293.801 247.925 302.626 248.35 311.351 246.85C311.826 246.775 311.626 246.05 311.151 246.125C302.551 247.6 293.851 247.175 285.401 245.1C281.376 244.125 277.426 242.875 273.476 241.675C271.476 241.075 269.476 240.475 267.476 239.875C266.476 239.575 265.476 239.275 264.476 238.975C263.426 238.65 262.251 238.425 261.501 237.55C261.151 237.2 260.626 237.725 260.951 238.075Z" fill="#161616"/>
<path d="M310.926 83.55C311.851 83.775 312.776 84 313.726 84.225C314.201 84.35 314.401 83.625 313.926 83.5C313.001 83.275 312.076 83.05 311.126 82.825C310.651 82.725 310.451 83.45 310.926 83.55Z" fill="#161616"/>
<path d="M313.676 83.975C316.176 94.075 316.851 104.625 317.576 115C318.326 125.6 318.726 136.225 318.901 146.875C319.201 168 318.476 189.125 317.276 210.225C316.601 222.175 315.751 234.125 314.876 246.075C314.851 246.55 315.601 246.55 315.626 246.075C317.201 224.825 318.626 203.575 319.301 182.275C319.976 161.025 319.926 139.725 318.576 118.475C317.851 106.925 317.201 95.075 314.426 83.8C314.276 83.3 313.551 83.5 313.676 83.975Z" fill="#161616"/>
<path d="M312.051 246.975C313.151 246.875 314.226 246.775 315.326 246.675C315.801 246.625 315.801 245.875 315.326 245.925C314.226 246.025 313.151 246.125 312.051 246.225C311.576 246.275 311.576 247.025 312.051 246.975Z" fill="#161616"/>
<path d="M145.176 107.975C143.501 125.3 142.501 142.675 142.176 160.075C141.851 177.55 142.201 195.05 143.251 212.5C143.826 222.3 144.651 232.075 145.651 241.825C145.701 242.3 146.451 242.3 146.401 241.825C144.601 224.525 143.476 207.15 143.026 189.75C142.576 172.275 142.801 154.775 143.726 137.325C144.251 127.525 144.976 117.75 145.901 107.975C145.976 107.5 145.226 107.5 145.176 107.975Z" fill="#161616"/>
<path d="M94.6752 84.55C110.9 93.575 127.75 101.475 145.05 108.2C145.5 108.375 145.7 107.65 145.25 107.475C128 100.775 111.225 92.9 95.0502 83.9C94.6252 83.65 94.2502 84.3 94.6752 84.55Z" fill="#161616"/>
<path d="M93.9006 84.375C91.1256 105.525 89.2006 126.8 88.1506 148.125C87.1006 169.45 86.9506 190.8 87.6506 212.125C88.0506 224.1 88.7256 236.075 89.6756 248.025C89.7256 248.5 90.4756 248.5 90.4256 248.025C88.7256 226.75 87.9256 205.4 87.9756 184.075C88.0256 162.725 88.9756 141.4 90.7756 120.125C91.8006 108.175 93.1006 96.275 94.6506 84.375C94.7006 83.9 93.9506 83.9 93.9006 84.375Z" fill="#161616"/>
<path d="M89.6508 248.5C103.576 256.075 120.251 254.45 134.401 248.45C138.651 246.65 142.751 244.475 146.701 242.1C147.101 241.85 146.726 241.2 146.326 241.45C133.151 249.425 117.701 255 102.126 252.1C97.9008 251.325 93.8008 249.9 90.0258 247.85C89.6258 247.625 89.2258 248.275 89.6508 248.5Z" fill="#161616"/>
<path d="M84.125 246.425C85.875 247.25 87.675 247.95 89.5 248.575C89.95 248.725 90.15 248 89.7 247.85C87.925 247.25 86.2 246.575 84.5 245.775C84.05 245.575 83.675 246.225 84.125 246.425Z" fill="#161616"/>
<path d="M89.8755 84.55C87.1755 105.5 84.9255 126.5 83.4505 147.575C82.0005 168.55 81.3005 189.575 81.7505 210.6C82.0005 222.5 82.6005 234.4 83.6255 246.25C83.6755 246.725 84.4255 246.725 84.3755 246.25C82.5755 225.225 82.0505 204.125 82.5505 183.025C83.0255 162 84.4755 141 86.5505 120.05C87.7255 108.2 89.1005 96.35 90.6255 84.525C90.7004 84.075 89.9505 84.075 89.8755 84.55Z" fill="#161616"/>
<path d="M90.3007 85.075C91.7507 84.775 93.2007 84.675 94.7007 84.75C95.1757 84.775 95.1757 84.025 94.7007 84C93.1507 83.925 91.6257 84.05 90.1007 84.35C89.6257 84.45 89.8257 85.175 90.3007 85.075Z" fill="#161616"/>
<path d="M275.525 100.2C276.575 129.2 276.525 158.225 275.325 187.225C275 195.35 274.575 203.45 274.05 211.575C274.025 212.05 274.775 212.05 274.8 211.575C276.625 182.625 277.325 153.6 276.9 124.575C276.775 116.45 276.575 108.325 276.275 100.2C276.25 99.725 275.5 99.725 275.525 100.2Z" fill="#161616"/>
<path d="M287.65 89.8C288.65 109.975 289.15 130.2 289.125 150.4C289.125 170.6 288.625 190.825 287.625 211C287.075 222.425 286.35 233.825 285.475 245.225C285.45 245.7 286.2 245.7 286.225 245.225C287.775 225.075 288.825 204.9 289.4 184.7C289.95 164.5 290.025 144.275 289.6 124.075C289.35 112.65 288.95 101.225 288.4 89.8C288.375 89.325 287.625 89.325 287.65 89.8Z" fill="#161616"/>
<path d="M302.2 85.35C303.6 106.325 304.45 127.35 304.675 148.4C304.9 169.525 304.55 190.625 303.6 211.725C303.075 223.55 302.35 235.375 301.425 247.175C301.4 247.65 302.15 247.65 302.175 247.175C303.775 226.2 304.825 205.175 305.25 184.15C305.675 163.05 305.525 141.925 304.775 120.8C304.35 108.975 303.75 97.15 302.95 85.325C302.925 84.85 302.175 84.85 302.2 85.35Z" fill="#161616"/>
<path d="M272.951 220.95C272.376 227.5 271.326 234 269.801 240.4C269.701 240.875 270.401 241.075 270.526 240.6C272.076 234.125 273.126 227.575 273.701 220.95C273.751 220.475 273.001 220.475 272.951 220.95Z" fill="#161616"/>
<path d="M102.875 89.4249C99.8752 110.4 98.6002 131.6 98.4002 152.775C98.2252 174.075 99.1002 195.35 100.4 216.6C101.125 228.625 101.975 240.625 102.825 252.65C102.85 253.125 103.6 253.125 103.575 252.65C102.075 231.475 100.575 210.3 99.7502 189.1C98.9252 167.95 98.8002 146.75 100.025 125.6C100.725 113.575 101.875 101.55 103.575 89.6249C103.675 89.1749 102.95 88.9499 102.875 89.4249Z" fill="#161616"/>
<path d="M117.25 96.425C115.35 116.7 114.075 137.05 113.65 157.425C113.25 177.775 113.725 198.125 115.4 218.425C116.325 229.7 117.625 240.925 119.325 252.1C119.4 252.575 120.125 252.375 120.05 251.9C117 231.75 115.25 211.4 114.6 191.025C113.95 170.925 114.325 150.775 115.425 130.7C116.05 119.275 116.925 107.85 118 96.45C118.05 95.95 117.3 95.95 117.25 96.425Z" fill="#161616"/>
<path d="M131.651 102.4C129.201 121.325 127.776 140.375 127.401 159.45C127.026 178.525 127.676 197.625 129.351 216.625C130.301 227.225 131.551 237.775 133.126 248.3C133.201 248.775 133.926 248.575 133.851 248.1C131.026 229.25 129.226 210.275 128.451 191.25C127.676 172.275 127.951 153.25 129.226 134.275C129.951 123.625 131.001 112.975 132.376 102.375C132.476 101.925 131.726 101.925 131.651 102.4Z" fill="#161616"/>
<path opacity="0.12" d="M296.6 87.05C299.375 98.375 301.625 111.65 302.375 126.525C304.25 164.375 295.35 195.3 287.6 215.15C282.125 223.925 276.675 232.7 271.2 241.475C276.525 243.775 284.425 246.45 294.275 247.25C301.075 247.8 306.975 247.3 311.575 246.55C311.625 245.45 312.45 228.725 312.5 227.625C315.225 171.6 315.4 167.775 315.5 163.925C315.95 148.25 315.875 125.75 313.2 97.675C312.275 92.9 311.35 88.125 310.425 83.375C305.85 84.575 301.225 85.8 296.6 87.05Z" fill="#3F3F3F"/>
<path opacity="0.13" d="M122.125 99.275C121.475 102 120.5 106.075 119.35 111.05C114.25 133.25 110.5 149.575 108.5 164.6C104.95 191.075 101.525 216.725 116.125 237.775C120.375 243.9 125.025 248.025 128.125 250.475C125.125 251.65 121.4 252.725 117.05 253.25C104.95 254.675 95.2504 250.75 90.5004 248.4C88.7004 231.825 87.4504 214.075 87.0504 195.3C86.1504 153.75 89.5254 116.4 94.6754 84.275C103.8 89.275 112.95 94.275 122.125 99.275Z" fill="#3F3F3F"/>
<path d="M95.9008 72.3749C95.5758 72.6249 95.8258 73.5999 96.2758 75.2749C96.4508 75.9249 96.6258 76.4249 96.7258 76.7499C96.5258 78.0999 96.3508 79.4499 96.1508 80.7999C95.7508 80.8499 94.7258 81.0749 93.7758 81.8999C92.9008 82.6749 92.5508 83.5749 92.4258 83.9749C93.2258 84.0499 94.2008 84.2249 95.2508 84.5499C96.7758 85.0249 97.9758 85.6749 98.8508 86.2249C98.8508 86.5249 98.9008 87.0999 99.3008 87.5249C99.6508 87.8749 100.076 87.9249 100.326 87.9749C101.226 88.1249 102.301 88.3249 103.676 88.6249C104.276 88.9749 105.276 89.5499 106.501 90.2249C110.651 92.4749 112.151 92.8499 116.301 95.0499C118.976 96.4749 118.751 96.5249 120.626 97.4249C123.501 98.8249 125.976 99.6499 127.651 100.125C128.351 99.3499 129.476 97.8499 130.101 95.6749C130.601 93.9499 130.576 92.4499 130.476 91.4749C130.901 91.6999 131.576 91.9499 132.351 91.8499C134.351 91.6249 135.626 89.3499 136.026 87.7249C136.376 86.2999 136.051 85.3999 135.776 83.7249C135.151 79.9749 134.601 76.6249 136.151 74.4999C137.451 72.7249 140.126 71.8999 142.276 69.5249C142.476 69.2999 142.851 68.8749 142.726 68.6749C142.501 68.2999 140.751 68.9499 139.901 69.3249C139.351 69.5749 135.226 71.4749 133.976 75.7749C133.776 76.4499 133.751 78.3999 133.726 82.2749C133.701 85.0999 133.751 86.6999 132.626 87.6249C132.051 88.0999 131.201 88.3749 130.426 88.1999C129.276 87.9499 128.726 86.8249 128.226 86.0749C126.926 84.0999 125.076 83.2749 122.801 82.1499C121.026 81.2749 119.501 80.9499 116.426 80.2749C113.526 79.6499 112.651 79.7249 111.401 78.7999C110.001 77.7499 109.226 76.2749 108.826 75.4499C108.426 74.6749 107.801 73.4499 107.526 71.6999C107.376 70.6749 107.401 69.9499 107.151 69.8999C106.701 69.7999 106.476 71.8749 104.951 72.5999C104.026 73.0499 103.426 72.6249 101.801 72.6749C100.751 72.6999 99.5508 72.9249 98.2008 73.5249C97.7508 73.1999 96.3508 72.0499 95.9008 72.3749Z" fill="black"/>
<path d="M96.6502 80.6C96.1252 76.475 99.8752 72.725 104.025 73.15C107.95 73.55 110.55 78.325 110.425 81.9C110.4 82.375 111.15 82.375 111.175 81.9C111.3 77.95 108.35 72.75 104.025 72.4C99.4752 72.025 95.3252 76.05 95.9002 80.6C95.9752 81.05 96.7252 81.075 96.6502 80.6Z" fill="black"/>
<path d="M96.575 83.1999C98.1 86.1749 101.375 88.2749 104.8 87.8249C107.925 87.3999 110.575 84.8749 111.05 81.7499C111.125 81.2749 110.4 81.0749 110.325 81.5499C109.9 84.3999 107.55 86.6999 104.7 87.0749C101.575 87.4999 98.625 85.5499 97.225 82.8249C97 82.3999 96.35 82.7749 96.575 83.1999Z" fill="black"/>
<path d="M99.2753 86.825C99.2003 85.875 101.9 85.475 102.575 85.325C103.8 85.05 105.05 84.9 106.3 84.9C108.625 84.9 110.85 85.5 112.825 86.725C113.225 86.975 113.625 86.325 113.2 86.075C110.65 84.5 107.675 83.95 104.725 84.225C103.175 84.375 101.65 84.7 100.175 85.2C99.3753 85.475 98.4253 85.825 98.5003 86.825C98.5503 87.3 99.3253 87.3 99.2753 86.825Z" fill="black"/>
<path d="M110.025 78.175C111.6 80.075 114.15 80.525 116.425 81.025C119.45 81.725 122.575 82.35 125.225 84.025C130.7 87.475 131.725 95 127.4 99.825C127.075 100.175 127.6 100.725 127.925 100.35C131.775 96.075 131.875 89.525 127.9 85.275C125.8 83.025 122.8 81.85 119.875 81.075C116.9 80.3 112.625 80.175 110.525 77.625C110.25 77.275 109.725 77.8 110.025 78.175Z" fill="black"/>
<path d="M127.525 91.25C126.275 89.6 124.075 89.025 122.15 89.825C119.775 90.8 119.65 93.725 119.925 95.95C119.975 96.425 120.725 96.425 120.675 95.95C120.45 94.2 120.425 91.5 122.225 90.625C123.775 89.85 125.8 90.25 126.85 91.65C127.15 92.025 127.8 91.65 127.525 91.25Z" fill="black"/>
<path d="M120.575 95.6C119.2 94.55 117.775 93.65 116 94.125C115.8 94.175 115.7 94.4 115.75 94.575C116.2 96.325 118.95 97.05 120.4 97.675C122.625 98.65 124.9 99.475 127.2 100.2C127.65 100.35 127.85 99.625 127.4 99.475C125.55 98.9 123.75 98.275 121.95 97.525C120.975 97.125 120.025 96.7 119.075 96.25C118.225 95.85 116.7 95.375 116.45 94.375C116.375 94.525 116.275 94.675 116.2 94.825C117.75 94.4 119.025 95.325 120.175 96.225C120.575 96.55 120.95 95.9 120.575 95.6Z" fill="black"/>
<path d="M98.6003 86.7499C99.5753 88.3499 101.55 88.6249 103.275 88.8749C105.825 89.2499 108.375 89.2499 110.925 88.9749C111.4 88.9249 111.4 88.1749 110.925 88.2249C108.875 88.4499 106.825 88.4999 104.775 88.2999C103.05 88.1249 100.275 88.0249 99.2253 86.3749C99.0003 85.9499 98.3503 86.3249 98.6003 86.7499Z" fill="black"/>
<path d="M92.7749 84.2C93.0999 82.45 94.6249 81.55 96.3249 81.475C96.1999 81.375 96.0749 81.3 95.9749 81.2C96.0999 81.8 96.2749 82.375 96.5249 82.925C96.6999 83.375 97.4249 83.175 97.2499 82.725C97.0249 82.15 96.8499 81.6 96.6999 81C96.6749 80.85 96.4999 80.725 96.3499 80.725C94.3499 80.825 92.4499 81.925 92.0749 84C91.9749 84.475 92.6999 84.675 92.7749 84.2Z" fill="black"/>
<path d="M97.1248 76.4499C96.7498 75.3749 96.4748 74.2499 96.3748 73.0999C96.3748 72.9999 96.3498 72.8999 96.3498 72.7999C96.3248 72.5749 96.3498 72.5999 96.4498 72.8749C96.6748 73.0249 96.8998 73.1999 97.1248 73.3749C97.4998 73.6999 97.8498 74.0499 98.1498 74.4249C98.4748 74.7999 98.9998 74.2499 98.6748 73.8999C98.2498 73.3999 96.4748 71.3499 95.7248 72.1499C95.3498 72.5499 95.6248 73.4749 95.6998 73.9249C95.8248 74.8499 96.0748 75.7749 96.3748 76.6499C96.5748 77.0999 97.2998 76.9249 97.1248 76.4499Z" fill="black"/>
<path d="M105.575 72.95C105.8 72.55 106.025 72.15 106.275 71.75C106.375 71.575 106.475 71.425 106.55 71.25C106.7 71 106.7 70.775 107 70.85C107.35 70.925 107.225 71.75 107.225 72.05C107.225 72.525 107.25 73 107.25 73.475C107.25 73.95 108 73.95 108 73.475C108 72.7 108.025 71.925 107.975 71.15C107.95 70.65 107.775 70.1 107.225 69.925C106.725 69.775 106.375 70.1 106.125 70.475C105.7 71.15 105.325 71.875 104.925 72.55C104.675 73 105.325 73.375 105.575 72.95Z" fill="black"/>
<path d="M129.525 89.3C129.675 91.2 131.8 91.825 133.275 90.9C135.45 89.55 135.925 86.5 135.65 84.2C135.275 81.05 134.525 78.125 135.6 75C136.625 72.025 139.175 69.6 142.4 69.4C142.875 69.375 142.875 68.625 142.4 68.65C138 68.925 135 72.675 134.375 76.825C134 79.3 134.55 81.6 134.875 84.025C135.075 85.625 134.975 87.15 134.25 88.625C133.925 89.25 133.475 89.875 132.875 90.275C131.95 90.85 130.35 90.675 130.25 89.325C130.25 88.825 129.5 88.8 129.525 89.3Z" fill="black"/>
<path d="M129.925 90.65C130.7 92.725 133.4 91.8 134.575 90.6C136.5 88.65 136.075 85.4 135.925 82.925C135.9 82.45 135.15 82.45 135.175 82.925C135.275 84.5 135.425 86.2 135.15 87.775C135.025 88.525 134.75 89.225 134.25 89.825C133.7 90.5 131.3 92.2 130.65 90.45C130.475 90 129.75 90.2 129.925 90.65Z" fill="black"/>
<path d="M142.425 68.6249C139.575 69.7249 136.7 71.2749 135.55 74.2749C134.225 77.7249 135.175 81.475 135.1 85.05C135.1 85.525 135.85 85.525 135.85 85.05C135.925 81.925 135.175 78.7249 135.925 75.6249C136.75 72.2249 139.575 70.5249 142.625 69.3499C143.075 69.1749 142.875 68.4499 142.425 68.6249Z" fill="black"/>
<path d="M141.849 69.05C139.224 70.25 136.824 72.35 135.599 75.025C134.949 76.425 135.049 77.975 135.049 79.5C135.049 81.45 135.124 83.425 135.274 85.375C135.299 85.85 136.049 85.85 136.024 85.375C135.924 83.8 135.849 82.25 135.824 80.675C135.799 79.025 135.574 77.075 136.199 75.525C137.274 72.9 139.699 70.875 142.224 69.7C142.674 69.5 142.299 68.85 141.849 69.05Z" fill="black"/>
<path d="M98.1248 78.0999C98.8248 79.3249 100.6 78.9 100.775 77.55C100.8 77.3 100.425 77.325 100.4 77.55C100.275 78.575 98.9748 78.775 98.4498 77.925C98.3248 77.7 97.9998 77.8999 98.1248 78.0999Z" fill="white"/>
<path d="M103.425 77.1249C104.2 78.4499 106.175 77.9249 106.2 76.3999C106.2 76.1499 105.825 76.1499 105.825 76.3999C105.8 77.5749 104.35 77.9499 103.75 76.9499C103.625 76.7249 103.3 76.8999 103.425 77.1249Z" fill="white"/>
<path d="M101.925 78.7749C102.1 79.4999 101.95 80.2249 101.5 80.8249C101.35 81.0249 101.675 81.1999 101.825 81.0249C102.325 80.3499 102.475 79.4999 102.3 78.6749C102.225 78.4499 101.85 78.5499 101.925 78.7749Z" fill="white"/>
<path d="M102.074 78.75C101.999 79.7 102.524 80.6 103.399 81C103.624 81.1 103.799 80.775 103.599 80.675C102.849 80.325 102.374 79.575 102.449 78.75C102.449 78.5 102.074 78.5 102.074 78.75Z" fill="white"/>
<path d="M95.9744 80.975C98.1744 80.8 99.5744 82.6 101.049 83.9249C101.224 84.0749 101.499 83.8249 101.324 83.6499C99.7744 82.25 98.2744 80.425 95.9744 80.575C95.7494 80.6 95.7494 80.975 95.9744 80.975Z" fill="white"/>
<path d="M100.075 85.375C102.9 83.575 106.25 82.975 109.525 83.7C109.75 83.75 109.85 83.4 109.625 83.35C106.25 82.625 102.8 83.225 99.9002 85.075C99.6752 85.175 99.8752 85.5 100.075 85.375Z" fill="white"/>
<path d="M107.175 88.8C109.5 88.95 111.7 88.225 113.475 86.7C113.65 86.55 113.4 86.275 113.2 86.425C111.5 87.875 109.4 88.575 107.175 88.425C106.95 88.425 106.95 88.8 107.175 88.8Z" fill="white"/>
<path d="M106.5 71.0499C105.95 71.9749 105.825 73.0499 106.15 74.0749C106.225 74.2999 106.575 74.1999 106.5 73.9749C106.2 73.0499 106.3 72.0749 106.8 71.2499C106.95 71.0249 106.625 70.8249 106.5 71.0499Z" fill="white"/>
<path d="M96.6 73.375C97.2 73.75 97.575 74.325 97.725 75C97.775 75.2249 98.125 75.125 98.075 74.9C97.9 74.125 97.45 73.475 96.775 73.05C96.575 72.925 96.4 73.25 96.6 73.375Z" fill="white"/>
<path d="M109.825 77.375C110.3 77.95 110.85 78.45 111.475 78.825C111.675 78.95 111.875 78.625 111.675 78.5C111.075 78.125 110.525 77.65 110.1 77.1C109.925 76.925 109.675 77.2 109.825 77.375Z" fill="white"/>
<path d="M125.25 89.6499C124.725 88.3249 122.2 89.2249 121.375 89.7499C119.9 90.7249 119.25 92.5499 119.8 94.2249C119.875 94.4499 120.225 94.3499 120.15 94.1249C119.725 92.7999 120.075 91.3749 121.125 90.3999C121.575 89.9749 122.175 89.6749 122.775 89.5249C123.2 89.3999 124.65 89.1249 124.875 89.7249C124.975 89.9749 125.325 89.8749 125.25 89.6499Z" fill="white"/>
<path d="M120.1 94.25C118.15 93.425 116.075 93.35 114.05 93.975C113.825 94.05 113.925 94.4 114.15 94.325C116.125 93.7 118.1 93.8 120 94.6C120.225 94.7 120.325 94.325 120.1 94.25Z" fill="white"/>
<path d="M188.775 198.225C187.75 200.675 187.75 202.5 187.6 207.2C187.425 213 186.925 218.775 186.875 224.55C186.825 229.425 186.75 236.8 186.55 246.4C194.55 246.85 203.4 246.95 213 246.475C222.15 246.025 230.6 245.1 238.225 243.95C234.625 231.775 232.25 222.9 230.55 216.025C229.65 212.35 228.325 206.85 224.675 200.425C222.675 196.9 220.6 194.25 219.075 192.475C218.675 192.125 209.85 184.7 199.65 188.2C199.15 188.4 191.725 191.1 188.775 198.225Z" fill="#5E5E5E"/>
<path d="M203.5 212.8C205.175 215.775 206.85 218.75 208.5 221.725C208.725 222.15 209.375 221.775 209.15 221.35C207.475 218.375 205.8 215.4 204.15 212.425C203.925 212 203.275 212.375 203.5 212.8Z" fill="#282828"/>
<path d="M203.3 212.65C207.15 217.45 209.375 222.925 210.575 228.925C211.7 234.6 212.425 240.35 212.85 246.125C212.875 246.6 213.625 246.6 213.6 246.125C213.15 240.2 212.4 234.275 211.25 228.45C210.05 222.425 207.7 216.925 203.85 212.125C203.55 211.725 203 212.275 203.3 212.65Z" fill="#282828"/>
<path opacity="0.19" d="M209.325 187.625C210.2 189.375 211.45 191.95 212.85 195.05C216.925 204.1 221.15 213.65 223.4 225.4C224.325 230.15 225.2 237.025 224.825 245.6C226.925 245.5 229.15 245.325 231.475 245.075C233.8 244.825 236.025 244.525 238.125 244.175C237.475 241.975 236.425 238.475 235.25 234.15C231.975 222.05 231.525 218.275 228.725 210.3C226.65 204.375 224.725 200.35 221.95 196.5C219.45 193.025 217.1 190.85 214.125 189.325C212.275 188.375 210.55 187.9 209.325 187.625Z" fill="#3F3F3F"/>
<path opacity="0.11" d="M203.35 212.925C204.325 216.575 205.175 220.925 205.575 225.825C206.275 234.3 205.375 241.525 204.275 246.925C207.15 246.75 210 246.575 212.875 246.4C212.575 240.725 211.925 235.95 211.3 232.325C209.725 223.1 208.075 219.675 206.75 217.475C205.5 215.45 204.25 213.925 203.35 212.925Z" fill="#3F3F3F"/>
<path d="M171.325 155.625C170.5 156.175 170 157.225 169.025 159.3C168.225 161 167.85 162.325 167.25 164.3C165.6 169.9 165.775 168.95 165.2 171.075C164.45 173.9 163.1 178.85 162.35 185.375C161.625 191.7 161.775 196.575 161.8 197.75C162.075 205.175 163.375 210.7 164.25 214.25C165.8 220.625 167.875 225.925 172 236.5C172.9 238.775 173.65 240.65 174.175 241.95C173.8 242 173.2 242.075 172.475 242.175C168.7 242.625 168.175 242.525 166.65 242.85C164.7 243.275 162.95 243.7 162.275 245.175C161.975 245.85 161.85 246.8 162.225 247.125C162.7 247.525 163.625 246.625 165.225 246.1C166.575 245.675 167.775 245.7 168.6 245.825C167.95 247.1 167.575 248.25 167.35 249.075C166.8 250.975 166.375 252.525 167.075 253.625C167.425 254.175 168.1 254.675 168.65 254.525C168.95 254.45 169.225 254.175 169.975 252.2C170.7 250.225 170.75 249.6 171.35 248.825C171.875 248.175 172.475 247.825 172.875 247.625C172.675 248.25 172.45 249.175 172.35 250.3C172.3 250.975 172.225 251.6 172.35 252.4C172.45 253.125 172.675 254.675 173.825 255.525C174.025 255.675 174.85 256.3 175.35 255.975C175.775 255.725 175.65 255.025 175.825 252.775C175.975 250.875 176.125 250.35 176.25 250.05C176.575 249.175 177.075 248.55 177.45 248.175C177.325 249.975 177.35 251.475 177.4 252.575C177.5 254.35 177.675 255.15 178.25 255.65C178.575 255.925 179.125 256.2 179.575 256C180.025 255.8 180.175 255.175 180.3 254.4C180.85 251.475 180.525 250.625 181.15 249.15C181.4 248.575 181.675 247.875 182.35 247.375C183.775 246.325 185.8 246.95 186.075 247.025C187.275 247.4 187.725 248.05 188.325 247.775C188.825 247.55 189.1 246.825 189.125 246.225C189.15 244.75 187.525 243.625 186.125 242.7C185.425 242.225 184.375 241.6 182.975 241.1C181.75 238.675 180.2 235.15 178.925 230.675C178.075 227.675 177.675 225.375 177.3 223.2C175.975 215.575 176.45 212.65 174.975 205.075C174.625 203.25 174.275 201.8 174.075 200.975C174.175 199.725 174.35 197.775 174.6 195.4C175.425 187.65 175.975 182.8 177.65 177.1C178.975 172.625 180.325 168.95 180.325 168.95C182.025 164.375 182.575 163.75 182.375 162.275C181.675 157.625 174.4 153.575 171.325 155.625Z" fill="white"/>
<path d="M169.4 158C164.95 168.275 162.15 179.25 161.55 190.45C160.925 201.875 162.9 213.05 166.6 223.85C168.7 230.025 171.25 236.025 173.85 242.025C174.05 242.475 174.675 242.075 174.5 241.65C170 231.25 165.6 220.7 163.5 209.55C161.425 198.55 161.85 187.175 164.25 176.25C165.6 170.125 167.55 164.15 170.05 158.4C170.225 157.95 169.6 157.55 169.4 158Z" fill="#161616"/>
<path d="M178.725 172.275C175.575 181.8 173.925 191.775 173.75 201.8C173.75 202.275 174.5 202.275 174.5 201.8C174.675 191.825 176.325 181.95 179.45 172.475C179.6 172.025 178.875 171.825 178.725 172.275Z" fill="#161616"/>
<path d="M171.125 197.25C173.35 200.35 174.25 204.05 174.775 207.75C175.325 211.525 175.575 215.35 176.125 219.125C177.225 226.8 179.025 234.45 182.65 241.325C182.875 241.75 183.525 241.375 183.3 240.95C179.525 233.8 177.75 225.825 176.7 217.875C175.775 210.9 176.05 202.825 171.775 196.875C171.5 196.5 170.85 196.875 171.125 197.25Z" fill="#161616"/>
<path d="M173.75 241.675C171.425 241.8 169.1 242.025 166.825 242.45C165.2 242.775 163.475 243.3 162.35 244.6C161.7 245.375 160.875 247.225 162.3 247.75C162.925 247.975 163.475 247.55 164 247.25C165.3 246.5 166.65 245.725 168.2 246.15C168.675 246.275 168.875 245.55 168.4 245.425C167.125 245.075 165.975 245.375 164.825 245.95C164.475 246.125 164.15 246.3 163.825 246.5C163.625 246.6 163.45 246.725 163.25 246.85C163.025 246.45 162.775 246.05 162.55 245.65C162.6 245.025 163.85 244.3 164.3 244.05C165.525 243.4 166.95 243.175 168.3 242.975C170.125 242.7 171.95 242.525 173.775 242.425C174.25 242.4 174.25 241.65 173.75 241.675Z" fill="#161616"/>
<path d="M171.7 243.9C169.725 244.225 168.1 245.575 167.35 247.4C166.55 249.3 165.875 252.125 166.8 254.075C167.5 255.55 169.225 256.075 169.875 254.275C170.275 253.15 170.2 251.925 170.6 250.8C171.1 249.4 171.95 248.2 173.2 247.375C173.6 247.1 173.225 246.45 172.825 246.725C171.65 247.5 170.775 248.55 170.2 249.825C169.9 250.475 169.675 251.15 169.525 251.85C169.4 252.425 169.325 255.325 167.95 254.475C167.175 254 167.1 252.475 167.125 251.7C167.175 250.55 167.475 249.225 167.85 248.125C168.475 246.275 169.95 244.95 171.875 244.625C172.375 244.55 172.175 243.825 171.7 243.9Z" fill="#161616"/>
<path d="M174.05 245.75C172.5 246.75 171.95 248.925 171.8 250.675C171.65 252.55 172.175 254.575 173.575 255.9C174.4 256.675 175.675 257.075 175.9 255.625C176.275 253.2 175.3 249.775 177.95 248.325C178.375 248.1 178 247.45 177.575 247.675C176.625 248.2 176.025 249.05 175.65 250.075C175.125 251.575 175.425 253.1 175.2 254.65C175.1 255.35 174.9 256.1 174.125 255.375C173.85 255.125 173.6 254.8 173.4 254.475C172.925 253.725 172.65 252.875 172.575 252C172.4 250.25 172.85 247.45 174.45 246.4C174.825 246.125 174.45 245.475 174.05 245.75Z" fill="#161616"/>
<path d="M177.6 247.75C177.125 249.55 176.675 251.425 176.975 253.3C177.1 254.2 177.625 256.4 178.775 256.625C180.075 256.875 180.6 254.575 180.725 253.725C181 251.875 180.65 249.65 182.1 248.225C182.45 247.875 181.925 247.35 181.575 247.7C179.825 249.425 180.425 251.925 179.9 254.125C179.725 254.925 179.225 256.125 178.4 255.2C177.95 254.725 177.825 253.8 177.725 253.175C177.475 251.425 177.9 249.675 178.35 247.975C178.45 247.5 177.725 247.3 177.6 247.75Z" fill="#161616"/>
<path d="M183 241.75C184.475 242.35 186 243 187.15 244.15C187.675 244.675 188.325 245.475 188.475 246.225C188.85 248.3 187.3 246.975 186.725 246.725C185.15 246.025 182.025 246.525 181.125 248.125C180.9 248.55 181.55 248.925 181.775 248.5C182.25 247.625 183.55 247.4 184.45 247.275C185 247.2 185.625 247.15 186.15 247.3C186.75 247.475 187.125 248 187.7 248.175C188.525 248.425 189.15 247.85 189.275 247.05C189.5 245.75 188.375 244.3 187.5 243.45C186.275 242.275 184.7 241.625 183.15 241C182.75 240.85 182.575 241.575 183 241.75Z" fill="#161616"/>
<path opacity="0.13" d="M177.95 164.2C175.075 164.375 173.35 171.725 172.4 175.8C171.325 180.375 170.35 186.675 170.55 195.85C170.725 204.05 171.775 210.3 172.125 212.475C173.7 221.825 176.175 229.675 178.6 235.825C179.4 238.075 180.175 240.325 180.975 242.55C180.525 244.4 180.075 246.3 179.65 248.275C179.1 250.875 178.6 253.425 178.2 255.875C178.675 255.925 179.325 255.9 179.775 255.45C180.35 254.875 180.275 253.95 180.3 253.15C180.325 252.4 180.4 248.775 182.025 247.425C183.025 246.6 184.625 246.6 185.725 247C186.85 247.425 187.35 248.25 188.1 248C188.675 247.825 189.075 247.125 189.15 246.575C189.4 244.75 185.9 242.875 185.325 242.575C184.2 241.975 183.675 241.9 182.95 241.15C182.05 240.2 181.75 239.075 181.625 238.575C179.55 230.675 178.525 231.175 177.125 222.1C176.075 215.25 176.75 215.65 175.675 210.2C174.925 206.35 174.3 204.775 174.1 201.45C173.875 197.8 174.3 194.95 174.75 192.425C176.625 182.1 180.225 169.6 181.1 166.625C180.3 165.375 179.2 164.125 177.95 164.2Z" fill="#3F3F3F"/>
<path d="M228.975 61.425C228.2 61.4 227.6 62.8 227.45 63.175C227.225 63.725 226.875 64.8 227.125 66.325C227.125 66.325 227.275 67.375 227.775 73.725C227.9 75.15 227.925 77.225 227.55 79.825C226.55 82.575 225.6 84.725 224.95 86.125C222.75 90.825 221.275 92.7 218.2 98.65C217.05 100.875 216.95 101.225 215.6 103.975C212.225 110.8 209.75 115.075 207.225 119.65C205 123.65 201.875 129.525 198.2 137.075C198.025 137.725 197.15 141.2 199.175 144.25C201.325 147.475 205.825 148.925 210.175 147.525C210.85 146.575 211.8 145.1 212.675 143.175C213.525 141.3 213.925 139.85 214.2 138.925C214.475 138 215.575 134.875 217.8 128.575C218.5 126.625 219.35 124.3 221.075 119.75C223.7 112.775 225 109.3 225.875 107.125C227.85 102.175 229.35 98.75 232.3 92.1C233.85 88.6 235.75 84.375 237.95 79.575C239.225 78.85 240.975 77.725 242.85 76.1C245.55 73.775 246.9 71.8 249.5 68.05C251.175 65.6 252.45 63.45 252.1 61.3C252.05 61 251.925 60.125 251.45 60C250.85 59.825 250.1 61.025 249.275 62.075C248.425 63.15 247.15 64.55 245.25 66C245.9 64.2 246.55 62.8 247 61.875C248.025 59.775 248.875 58.425 249.4 56.1C249.975 53.625 249.45 53.175 249.3 53.05C248.625 52.55 247.475 53.5 246.8 52.95C246.2 52.425 246.725 51.275 246.25 51C245.775 50.725 244.725 51.55 243.975 52.425C242.675 53.925 242.375 55.375 241.9 56.775C241.45 58.15 240.625 60.025 239.075 62.1C238.7 62.15 238.2 62.175 237.975 61.875C237.725 61.525 238.075 60.95 238.4 60.025C238.475 59.8 238.425 59.925 238.95 57.625C239.15 56.75 239.525 55.125 239.825 53.825C240.25 51.95 240.45 51.175 240.05 50.35C239.975 50.175 239.65 49.5 239.175 49.475C238.625 49.45 238.2 50.325 237.875 51C236.55 53.725 235.875 55.1 235.7 55.575C234.825 57.95 233.65 61.575 233.475 62.825C233.45 62.975 233.4 63.5 233.15 64.175C233.025 64.5 232.95 64.625 232.875 64.825C232.25 66.225 232.775 67.15 232.125 67.65C232.05 67.7 231.675 67.975 231.375 67.875C231.05 67.775 230.9 67.35 230.725 65.925C230.475 63.975 230.625 63.4 230.175 62.55C229.875 62.175 229.5 61.45 228.975 61.425Z" fill="white"/>
<path d="M227.775 73C227.95 71.175 227.675 69.4 227.575 67.575C227.525 66.7 227.525 65.8 227.65 64.925C227.725 64.425 227.825 63.925 227.975 63.45C228.225 62.725 228.25 62.125 229.05 62.1C229.8 62.075 229.75 62.525 229.875 63.15C230 63.7 230.025 64.275 230.05 64.825C230.1 65.6 230.125 66.4 230.3 67.15C230.475 67.925 230.95 68.575 231.825 68.3C232.275 68.15 232.1 67.425 231.625 67.575C230.75 67.825 230.825 64.875 230.775 64.375C230.7 63.575 230.625 62.75 230.325 62C229.9 60.95 228.925 60.425 228.1 61.4C227.025 62.65 226.8 64.9 226.8 66.45C226.8 68.65 227.225 70.8 227.025 73C227 73.475 227.75 73.475 227.775 73Z" fill="#161616"/>
<path d="M232.125 68C233.375 65.575 233.75 62.825 234.475 60.225C235.25 57.425 236.225 54.675 237.675 52.175C238 51.625 238.325 50.85 238.8 50.425C239.725 49.575 239.725 51.2 239.65 51.9C239.5 53.45 239.1 55.025 238.75 56.55C238.425 57.95 237.975 59.3 237.65 60.7C237.475 61.475 237.475 62.15 238.025 62.75C238.35 63.1 238.875 62.575 238.55 62.225C237.925 61.55 238.575 60.2 238.775 59.475C239 58.65 239.225 57.825 239.4 57C239.75 55.475 240.1 53.925 240.325 52.35C240.45 51.525 240.625 50.075 239.9 49.45C239.275 48.925 238.65 49.425 238.225 49.925C236.4 52.2 235.275 55.2 234.375 57.95C233.35 61.125 233.025 64.675 231.475 67.65C231.25 68.05 231.9 68.425 232.125 68Z" fill="#161616"/>
<path d="M238.2 62.825C238.95 62.9 239.225 62.35 239.575 61.75C240.125 60.8 240.625 59.8 241.1 58.825C242.025 56.925 242.675 54.85 243.8 53.075C244.05 52.675 244.35 52.175 244.75 51.875C245.075 51.5 245.5 51.375 246.05 51.55C246.125 51.9 246.175 52.25 246.175 52.6C246.2 53.825 245.8 55.05 245.375 56.2C244.525 58.475 243.575 60.725 242.65 63C242.475 63.45 243.2 63.65 243.375 63.2C243.9 61.9 249.3 50.5 245.775 50.425C245.075 50.4 244.275 51.275 243.875 51.75C243.175 52.575 242.675 53.525 242.225 54.5C241.7 55.675 241.225 56.85 240.675 58C240.35 58.7 239.975 59.425 239.625 60.1C239.4 60.55 238.85 62.1 238.225 62.05C237.725 62.025 237.725 62.775 238.2 62.825Z" fill="#161616"/>
<path d="M247.05 53.625C247.325 52.175 248.9 53.175 249.1 54.1C249.275 54.875 248.975 55.65 248.725 56.375C248.35 57.475 247.925 58.55 247.475 59.6C246.6 61.65 245.575 63.6 244.425 65.525C244.175 65.95 244.825 66.325 245.075 65.9C246.15 64.125 247.1 62.275 247.95 60.4C248.675 58.775 249.55 56.975 249.825 55.2C250 54.075 249.675 52.625 248.425 52.225C247.5 51.925 246.5 52.5 246.325 53.45C246.25 53.9 246.975 54.1 247.05 53.625Z" fill="#161616"/>
<path d="M245.6 66.2C246.55 65.125 247.475 64.05 248.425 62.975C248.925 62.4 249.375 61.775 249.925 61.275C250.1 61.125 250.275 61 250.425 60.85C250.85 61 251.275 61.15 251.725 61.3C251.85 61.525 251.55 62.175 251.475 62.375C250.7 64.75 249.575 67 248.25 69.1C245.575 73.325 241.9 76.875 237.6 79.45C237.175 79.7 237.575 80.35 237.975 80.1C243.325 76.9 247.725 72.2 250.5 66.625C251.175 65.275 251.825 63.85 252.25 62.4C252.5 61.55 252.65 60.4 251.675 59.95C250.725 59.5 249.725 60.375 249.125 61C247.7 62.475 246.4 64.125 245.05 65.675C244.75 66.025 245.275 66.55 245.6 66.2Z" fill="#161616"/>
<path d="M227.125 72.225C227.3 74.525 227.475 76.875 227.1 79.175C226.725 81.45 225.775 83.55 224.725 85.6C222.6 89.75 220.375 93.85 218.2 97.975C213.85 106.225 209.5 114.45 205.15 122.7C202.65 127.425 200.15 132.175 197.65 136.9C197.425 137.325 198.075 137.7 198.3 137.275C207.275 120.25 216.425 103.3 225.25 86.175C226.3 84.15 227.275 82.075 227.7 79.85C228.2 77.325 228.025 74.775 227.825 72.225C227.85 71.75 227.1 71.75 227.125 72.225Z" fill="#161616"/>
<path d="M237.55 79.275C229.55 96.175 222.575 113.475 216.425 131.125C214.625 136.25 212.825 141.375 210.65 146.35C210.45 146.8 211.1 147.175 211.3 146.725C215.025 138.25 217.75 129.375 220.95 120.725C224.225 111.825 227.775 103 231.55 94.3C233.7 89.375 235.9 84.5 238.2 79.65C238.4 79.225 237.75 78.85 237.55 79.275Z" fill="#161616"/>
<path opacity="0.1" d="M248.85 53.325C247.825 53.175 246.45 57.375 245.65 59.475C243.225 65.925 241.175 66.675 235.975 75.425C234.05 78.65 231.4 83.5 228.725 89.825C220.725 106.675 212.75 123.55 204.75 140.4C206.7 142.775 208.625 145.175 210.575 147.55C211.55 144.775 212.975 140.7 214.75 135.775C217.975 126.9 222.15 115.475 228.05 101.575C230.4 96.075 233.65 88.65 237.825 79.925C238.975 79.2 240.575 78.075 242.325 76.525C244.675 74.475 247.775 71.7 249.9 67.175C250.575 65.775 251.425 63.625 251.875 60.8C251.55 60.65 251.075 60.475 250.55 60.575C249.65 60.75 249.175 61.625 248.8 62.225C247.35 64.45 245.225 65.925 244.95 65.75C244.8 65.625 245.225 64.9 246.375 62.55C248.725 57.725 247.75 59 248.675 57.375C249.2 56.45 249.725 55.65 249.55 54.625C249.55 54.175 249.275 53.4 248.85 53.325Z" fill="#3F3F3F"/>
<path opacity="0.13" d="M247.325 70.375C246.075 71.175 244.3 72.35 242.275 73.9C239.95 75.65 237.45 77.55 235.35 79.95C232.5 83.2 231.25 86.425 230.5 88.3C223.625 105.85 215.45 124.9 213.125 130.2C211.85 133.1 209.85 137.475 207.2 142.725C208.4 144.3 209.625 145.875 210.825 147.45C214.275 136.925 218.25 125.9 222.8 114.475C227.7 102.2 232.775 90.725 237.875 80.05C239.25 79.125 240.8 77.95 242.375 76.425C244.6 74.3 246.2 72.15 247.325 70.375Z" fill="#3F3F3F"/>
<path d="M180.851 142.75C179.926 143.375 177.851 144.825 175.726 147.175C173.526 149.6 172.251 151.875 171.201 153.8C170.376 155.275 169.776 156.575 169.351 157.525C170.001 158.775 171.051 160.7 172.501 163C175.076 167.075 177.076 169.275 180.526 173.7C181.976 175.55 184.076 178.325 186.576 181.825C186.976 183.7 187.326 185.675 187.626 187.75C188.226 192 188.451 195.95 188.451 199.5C189.376 200.5 190.976 201.95 193.326 202.975C197.226 204.7 200.776 204.2 202.626 203.9C206.726 203.275 209.526 201.45 211.451 200.175C214.951 197.875 217.326 195.125 218.901 192.85C218.576 188.95 218.151 184.925 217.626 180.75C217.176 177.2 216.676 173.75 216.126 170.4C216.076 167.775 215.826 164.2 214.976 160.05C214.276 156.575 213.426 152.525 210.901 147.725C207.751 141.75 203.826 138.125 202.301 136.8C200.951 135.625 199.726 134.75 198.826 134.125C195.176 136.45 192.026 137.9 189.876 138.775C185.876 140.425 184.001 140.675 180.851 142.75Z" fill="white"/>
<path d="M169.75 157.625C170.525 154.675 172.675 151.925 174.525 149.525C176.475 147.025 178.675 144.75 181.3 142.925C181.7 142.65 181.325 142 180.925 142.275C178.225 144.15 175.95 146.475 173.95 149.05C172.025 151.525 169.85 154.325 169.05 157.4C168.925 157.9 169.65 158.075 169.75 157.625Z" fill="#161616"/>
<path d="M169.2 157.875C174.35 166.875 180.45 175.325 187.375 183.05C187.7 183.4 188.225 182.875 187.9 182.525C181.025 174.85 174.975 166.45 169.85 157.5C169.6 157.075 168.95 157.45 169.2 157.875Z" fill="#161616"/>
<path d="M190.35 139.125C193.15 137.15 196.225 135.675 199.5 134.725C199.975 134.6 199.775 133.875 199.3 134C195.95 134.975 192.825 136.475 189.975 138.475C189.575 138.75 189.95 139.4 190.35 139.125Z" fill="#161616"/>
<path d="M198.874 134.925C210.824 143.25 215.949 157.85 215.374 171.975C215.349 172.45 216.099 172.45 216.124 171.975C216.724 157.55 211.424 142.75 199.249 134.275C198.874 134 198.499 134.65 198.874 134.925Z" fill="#161616"/>
<path d="M185.75 181.575C187.05 184.25 187.2 187.575 187.475 190.475C187.775 193.425 187.875 196.4 187.875 199.375C187.875 199.85 188.625 199.85 188.625 199.375C188.65 196.075 188.5 192.775 188.125 189.5C187.825 186.725 187.625 183.725 186.4 181.175C186.175 180.75 185.55 181.125 185.75 181.575Z" fill="#161616"/>
<path d="M188.35 199.525C192.1 204.125 198.5 205.425 204.075 204C207.175 203.2 210.05 201.675 212.625 199.775C215.2 197.875 217.65 195.675 219.1 192.775C219.325 192.35 218.675 191.975 218.45 192.4C217.05 195.175 214.7 197.3 212.225 199.125C209.825 200.9 207.15 202.35 204.25 203.175C198.8 204.7 192.525 203.525 188.85 199C188.575 198.625 188.05 199.15 188.35 199.525Z" fill="#161616"/>
<path d="M215.65 170.85C216.875 178.175 218.075 185.5 218.5 192.9C218.525 193.375 219.275 193.375 219.25 192.9C218.8 185.425 217.6 178.025 216.375 170.65C216.3 170.175 215.575 170.375 215.65 170.85Z" fill="#161616"/>
<path opacity="0.13" d="M191.3 138.125C194.075 141.4 197.875 146.5 201.05 153.4C205.7 163.5 206.625 172.225 207.325 179.65C207.875 185.3 208.175 193.175 207.075 202.575C209.2 201.65 212.2 200.05 215.1 197.275C216.7 195.725 217.9 194.175 218.8 192.825C217.975 185.85 217.15 178.85 216.325 171.875C216.475 166.125 215.575 161.475 214.725 158.325C212.1 148.575 207.05 142.3 205.35 140.325C203.025 137.6 200.75 135.6 199.075 134.275C196.475 135.575 193.9 136.85 191.3 138.125Z" fill="#3F3F3F"/>
<path opacity="0.14" d="M209.925 146.875C209.475 147 210.525 151.075 211.525 157.1C211.525 157.1 213.05 166.25 213.375 175.1C213.6 180.95 213.3 189.5 210.675 200.125C211.875 199.525 213.35 198.65 214.875 197.425C216.725 195.925 218.05 194.35 218.95 193.1C218.625 183.025 217.775 177.8 216.975 174.85C216.825 174.275 216.425 172.925 216.1 171.025C215.5 167.475 215.8 165.95 215.475 163C215.225 160.65 214.75 159.1 213.875 156.225C212.55 151.9 210.425 146.725 209.925 146.875Z" fill="#3F3F3F"/>
<path d="M180.501 101.625C178.851 102.55 176.751 103.95 174.726 106.075C170.526 110.55 169.176 115.55 168.701 118.025C168.326 117.975 167.301 117.9 166.476 118.55C165.251 119.5 165.226 121.375 165.701 122.475C165.876 122.875 166.126 123.2 166.651 123.85C167.276 124.625 167.676 125.1 168.326 125.375C168.601 125.5 169.226 125.675 170.126 125.475C170.401 126.3 170.851 127.45 171.526 128.775C172.401 130.475 173.726 133 176.376 135.2C177.151 135.85 178.351 136.7 179.976 137.475C180.576 138.25 181.676 139.875 181.801 142.075C182.051 145.95 179.226 149.175 176.551 150.6C171.901 153.075 166.851 150.6 165.001 149.675C164.001 149.175 158.976 146.575 156.876 140.875C154.326 134 157.651 127.125 159.626 123.025C161.626 118.9 162.551 119.175 164.076 115.15C166.101 109.825 165.026 107.95 167.351 103.875C168.251 102.275 170.076 99.075 173.901 97.575C177.176 96.3 180.201 96.95 181.501 97.325C182.576 96.675 184.476 95.75 186.876 95.75C192.576 95.75 196.226 101.15 197.101 102.45C199.701 106.275 198.326 107.45 200.651 112.825C203.576 119.6 206.426 119.2 209.051 125.55C210.326 128.65 212.451 133.775 210.101 138.675C207.676 143.725 202.151 145.2 201.451 145.375C200.176 145.7 196.751 146.55 193.326 144.725C193.001 144.55 188.701 142.2 188.351 138.175C188.226 136.7 188.651 135.325 188.751 135.025C189.276 133.4 190.176 132.35 190.451 132C191.526 130.675 192.826 128.225 193.726 123.35C194.151 123.325 194.851 123.225 195.551 122.825C197.026 121.975 197.726 120.25 197.651 118.75C197.626 118.4 197.526 116.4 196.076 115.725C195.476 115.45 194.851 115.525 194.501 115.6C189.851 110.9 185.176 106.275 180.501 101.625Z" fill="#212121"/>
<path d="M180.5 101.6C177.725 103.225 175.8 105.025 174.575 106.35C170.5 110.775 169.2 115.4 168.925 116.475C168.75 117.15 168.625 117.7 168.575 118.1C168.3 118 167.675 117.825 167.05 118.1C166.1 118.525 165.9 119.675 165.8 120.25C165.55 121.575 166.05 122.625 166.25 123.025C166.525 123.6 166.975 124.525 168.05 125C168.925 125.4 169.75 125.25 170.1 125.175C170.45 126.075 170.95 127.325 171.725 128.75C172.9 131 174 133.075 176.125 134.925C176.95 135.65 178.3 136.65 180.25 137.425C180.65 138.05 181.2 139.025 181.5 140.3C181.75 141.3 181.8 142.15 181.775 142.8C182.425 143.125 183.65 143.625 185.175 143.6C188.1 143.55 190.025 141.725 190.475 141.275C190 139.85 189.575 138.1 189.4 136.075C189.325 135.15 189.3 134.275 189.3 133.475C190.075 132.65 191.025 131.475 191.8 129.9C193.175 127.175 193.4 124.65 193.425 123.175C193.775 123.225 194.475 123.3 195.225 123C196.275 122.575 196.75 121.65 197.025 121.125C197.1 121 198.15 118.85 197.2 116.725C196.975 116.25 196.6 115.375 195.85 115.3C195.3 115.25 194.85 115.675 194.675 115.85C193.65 114.625 191.725 112.35 189.025 109.225C186.7 106.5 185.225 104.8 182.75 103.05C181.85 102.4 181.05 101.925 180.5 101.6Z" fill="white"/>
<path d="M177.05 128.125C176.8 128.7 177.975 129.725 178.525 130.15C179.675 131 180.9 131.125 181.35 131.15C181.875 131.2 183.6 131.325 185.175 130.2C185.55 129.925 186.6 129.2 187 127.85C187.275 126.875 187.2 125.525 186.675 125.3C186.275 125.15 185.9 125.65 185.05 126.25C183.55 127.275 182 127.525 180.675 127.725C178.425 128.075 177.3 127.625 177.05 128.125Z" fill="black"/>
<path d="M169.125 122.35C170.025 126.1 171.475 129.775 173.875 132.825C176 135.55 179.15 138.175 182.825 137.825C186.225 137.5 189 134.85 190.8 132.15C192.925 129 193.95 125.225 193.85 121.425C193.825 120.95 193.075 120.95 193.1 121.425C193.2 124.9 192.3 128.3 190.475 131.25C188.75 134.025 185.9 136.95 182.425 137.1C178.75 137.25 175.725 134.25 173.775 131.45C171.825 128.65 170.625 125.425 169.825 122.125C169.725 121.675 169 121.875 169.125 122.35Z" fill="#161616"/>
<path d="M179.75 137.475C180.8 139.075 181.325 140.825 181.325 142.75C181.325 143.225 182.075 143.225 182.075 142.75C182.075 140.725 181.5 138.8 180.4 137.1C180.15 136.675 179.5 137.05 179.75 137.475Z" fill="#161616"/>
<path d="M181.675 143.05C184.725 144.8 188.675 143.95 190.75 141.15C191.05 140.775 190.4 140.4 190.1 140.775C188.25 143.25 184.7 143.95 182.05 142.4C181.625 142.175 181.25 142.825 181.675 143.05Z" fill="#161616"/>
<path d="M188.875 134.125C188.9 136.4 189.25 138.65 189.975 140.825C190.125 141.275 190.85 141.075 190.7 140.625C190.025 138.5 189.65 136.35 189.625 134.125C189.625 133.625 188.875 133.625 188.875 134.125Z" fill="#161616"/>
<path d="M169.875 124.725C169.55 125.075 168.75 124.95 168.375 124.75C168.075 124.6 167.8 124.375 167.575 124.15C167.075 123.675 166.675 123.1 166.425 122.475C165.925 121.3 165.7 117.925 167.925 118.525C168.4 118.65 168.6 117.925 168.125 117.8C165.375 117.075 164.95 120.725 165.65 122.55C166.2 124.025 168.725 127.075 170.425 125.25C170.725 124.9 170.2 124.375 169.875 124.725Z" fill="#161616"/>
<path d="M195 115.975C195.3 114.975 196.6 116.9 196.75 117.25C197.05 118.05 197.15 118.925 197.025 119.775C196.825 121.475 195.475 123.1 193.6 122.625C193.125 122.5 192.925 123.225 193.4 123.35C196.425 124.125 198.05 120.975 197.775 118.4C197.65 117.275 197.2 115.825 196.125 115.225C195.425 114.85 194.525 114.95 194.275 115.75C194.125 116.25 194.85 116.425 195 115.975Z" fill="#161616"/>
<path d="M172.55 110.675C173.375 109.1 174.825 108.075 176.575 107.825C177.05 107.75 176.85 107.025 176.375 107.1C174.45 107.375 172.8 108.575 171.9 110.3C171.675 110.725 172.325 111.1 172.55 110.675Z" fill="#161616"/>
<path d="M184.1 106.825C186.2 106.325 188.3 107.375 189.25 109.275C189.475 109.7 190.1 109.325 189.9 108.9C188.8 106.675 186.3 105.525 183.9 106.1C183.425 106.225 183.625 106.95 184.1 106.825Z" fill="#161616"/>
<path d="M178.65 109.9C179.125 112.55 179.25 115.275 178.975 117.975C178.875 118.8 178.475 119.975 178.85 120.8C179.25 121.7 180.325 122.475 181 123.175C181.325 123.525 181.875 123 181.525 122.65C181.075 122.175 180.625 121.725 180.175 121.25C179.475 120.525 179.4 120.3 179.55 119.25C179.675 118.3 179.8 117.325 179.85 116.35C179.95 114.125 179.775 111.9 179.375 109.725C179.3 109.225 178.575 109.425 178.65 109.9Z" fill="#161616"/>
<path d="M175.5 116.325C175.125 115.725 174.95 115.075 175 114.375C175 114.225 175.1 113.575 175.225 113.55C175.3 113.55 175.425 114.425 175.45 114.525C175.5 114.85 175.525 115.2 175.525 115.525C175.525 115.625 175.5 116.45 175.5 115.95C175.475 115.225 175.525 114.5 175.55 113.775C175.3 113.8 175.05 113.85 174.825 113.875C174.95 114.65 175.025 115.425 175.025 116.225C175.275 116.225 175.525 116.225 175.775 116.225C175.775 116.125 175.775 116.025 175.775 115.925C175.775 115.45 175.025 115.45 175.025 115.925C175.025 116.025 175.025 116.125 175.025 116.225C175.025 116.7 175.775 116.7 175.775 116.225C175.775 115.375 175.7 114.525 175.55 113.675C175.475 113.25 174.825 113.375 174.825 113.775C174.8 114.575 174.7 115.45 174.8 116.25C174.85 116.625 175.025 116.975 175.45 117.05C176.7 117.3 176.325 114.85 176.225 114.25C176.15 113.775 176.075 113.05 175.625 112.775C175.25 112.55 174.85 112.775 174.625 113.125C174 114.175 174.35 115.725 174.925 116.675C175.1 117.1 175.75 116.725 175.5 116.325Z" fill="#161616"/>
<path d="M187.05 115C186.675 114.4 186.5 113.75 186.55 113.05C186.55 112.9 186.65 112.25 186.775 112.225C186.85 112.225 186.975 113.1 187 113.2C187.05 113.525 187.075 113.875 187.075 114.2C187.075 114.3 187.05 115.125 187.05 114.625C187.025 113.9 187.075 113.175 187.1 112.45C186.85 112.475 186.6 112.525 186.375 112.55C186.5 113.325 186.575 114.1 186.575 114.9C186.825 114.9 187.075 114.9 187.325 114.9C187.325 114.8 187.325 114.7 187.325 114.6C187.325 114.125 186.575 114.125 186.575 114.6C186.575 114.7 186.575 114.8 186.575 114.9C186.575 115.375 187.325 115.375 187.325 114.9C187.325 114.05 187.25 113.2 187.1 112.35C187.025 111.925 186.375 112.05 186.375 112.45C186.35 113.25 186.25 114.125 186.35 114.925C186.4 115.3 186.575 115.65 187 115.725C188.25 115.975 187.875 113.525 187.775 112.925C187.7 112.45 187.625 111.725 187.175 111.45C186.8 111.225 186.4 111.45 186.175 111.8C185.55 112.85 185.9 114.4 186.475 115.35C186.65 115.8 187.3 115.425 187.05 115Z" fill="#161616"/>
<path d="M171.8 118.625C172.275 118.625 172.275 117.875 171.8 117.875C171.325 117.875 171.325 118.625 171.8 118.625Z" fill="#161616"/>
<path d="M174.75 119.175C174.775 119.175 174.8 119.175 174.85 119.175C175.05 119.175 175.225 119 175.225 118.8C175.225 118.6 175.05 118.425 174.85 118.425C174.825 118.425 174.8 118.425 174.75 118.425C174.55 118.425 174.375 118.6 174.375 118.8C174.375 119 174.525 119.175 174.75 119.175Z" fill="#161616"/>
<path d="M172.999 121.475C173.474 121.475 173.474 120.725 172.999 120.725C172.524 120.725 172.499 121.475 172.999 121.475Z" fill="#161616"/>
<path d="M187.2 118.25C187.225 118.25 187.25 118.25 187.3 118.25C187.5 118.25 187.675 118.075 187.675 117.875C187.675 117.675 187.5 117.5 187.3 117.5C187.275 117.5 187.25 117.5 187.2 117.5C187 117.5 186.825 117.675 186.825 117.875C186.825 118.075 186.975 118.25 187.2 118.25Z" fill="#161616"/>
<path d="M189.95 116.4C190.425 116.4 190.425 115.65 189.95 115.65C189.475 115.65 189.475 116.4 189.95 116.4Z" fill="#161616"/>
<path d="M189.575 118.425C189.6 118.425 189.625 118.425 189.675 118.425C189.875 118.425 190.05 118.25 190.05 118.05C190.05 117.85 189.875 117.675 189.675 117.675C189.65 117.675 189.625 117.675 189.575 117.675C189.375 117.675 189.2 117.85 189.2 118.05C189.225 118.25 189.375 118.425 189.575 118.425Z" fill="#161616"/>
<path d="M177.675 128.7C177.275 128.125 176.625 127.3 176.9 126.55C177.225 125.7 178.25 125.825 178.925 125.925C179.75 126.05 180.425 126.2 181.225 125.95C181.875 125.75 182.45 125.325 183.05 125C184.475 124.2 186.15 124.125 186.6 126C187.875 131.125 178.825 132.575 177.425 128.075C177.275 127.625 176.55 127.8 176.7 128.275C178.425 133.8 189.125 131.75 187.25 125.625C186.925 124.6 186.15 123.725 185.05 123.6C183.25 123.425 182.075 125.225 180.35 125.35C179.075 125.45 177.525 124.475 176.5 125.675C175.575 126.75 176.325 128.125 177 129.075C177.3 129.475 177.95 129.1 177.675 128.7Z" fill="#161616"/>
<path d="M176.225 127.275C176.775 128.8 179.525 128.325 180.725 128.15C183.025 127.8 185.125 126.8 186.9 125.325C187.275 125.025 186.75 124.475 186.375 124.8C185.075 125.9 183.575 126.7 181.925 127.15C181.2 127.35 177.375 128.2 176.975 127.1C176.775 126.625 176.05 126.825 176.225 127.275Z" fill="#161616"/>
<path d="M180.675 138.25C183.6 139 187.5 137.15 189.15 134.725C189.425 134.325 188.775 133.95 188.5 134.35C187.05 136.475 183.425 138.175 180.875 137.525C180.4 137.4 180.2 138.125 180.675 138.25Z" fill="#161616"/>
<path d="M180.95 138.475C183.55 140.1 187.825 137.8 189.075 135.325C189.3 134.9 188.65 134.525 188.425 134.95C187.375 137.05 183.55 139.225 181.325 137.85C180.9 137.575 180.525 138.225 180.95 138.475Z" fill="#161616"/>
<path opacity="0.2" d="M191.325 111.975C191.5 112.875 191.725 114.3 191.875 116.025C192.225 120.625 192.825 128.325 188.175 133.45C187.175 134.55 185.05 136.5 181.125 137.6C182.375 137.55 183.9 137.4 185.55 136.975C186.375 136.775 187.125 136.525 187.8 136.25C187.9 138.475 187.975 140.7 188.075 142.925C188.925 142.375 189.75 141.85 190.6 141.3C189.45 138.75 189.45 136.775 189.6 135.525C189.825 133.775 190.475 132.35 191.125 130.925C191.7 129.675 192.3 128.675 192.775 127.975C192.825 128.5 192.95 129.05 193.3 129.575C194.825 131.85 199.6 132.075 202.6 130.125C205.375 128.325 206.725 124.675 206.025 120.925C206.5 121.325 207 121.8 207.475 122.375C207.85 122.825 208.825 124.125 210.175 128.7C210.6 130.125 210.8 130.85 210.925 131.575C211.075 132.575 211.35 134.475 210.825 136.625C209.925 140.325 207.25 142.45 206.45 143.05C205.875 143.475 204.125 144.75 201.5 145.35C200.25 145.625 196.5 146.525 192.975 144.475C191.65 143.7 190.925 143.125 190.525 142.425C190.1 141.65 190.05 140.925 190 140.375C189.775 136.95 189.675 135.225 189.9 134.05C190.575 130.65 192.1 130.3 192.95 126.425C193.25 125.025 193.325 123.85 193.35 123.1C193.675 123.15 194.175 123.2 194.775 123.05C196.025 122.725 196.65 121.7 196.875 121.325C197.775 119.9 198.175 117.35 196.775 116.175C196.575 116 195.875 115.475 194.525 115.575C193.5 114.375 192.425 113.175 191.325 111.975Z" fill="#3F3F3F"/>
<path opacity="0.13" d="M179.475 120.075C180.75 120.45 182.05 120.85 183.325 121.225C183 121.525 182.675 121.8 182.325 122.1C182 122.375 181.7 122.6 181.375 122.85C180.975 122.55 180.4 122.025 179.95 121.225C179.7 120.8 179.55 120.4 179.475 120.075Z" fill="#3F3F3F"/>
<path opacity="0.16" d="M159.425 123.2C156.7 132.825 158.725 140.6 162.8 142.3C166 143.625 171.775 141.75 172.85 138.475C173 138.05 173.15 137.3 172.575 135C172.075 132.975 171.05 129.925 168.75 126.45C168.35 126.2 167.825 125.8 167.325 125.2C166.45 124.125 166.2 122.975 166.125 122.425C166.85 123.175 167.9 124.125 168.575 123.825C169.225 123.525 169.625 122.625 169.4 121.725C169.625 122.875 169.975 124.45 170.625 126.275C171.475 128.7 172.325 131.05 174.3 133.275C175.2 134.3 176.975 135.975 179.975 137.175C180.475 137.8 181.4 139.15 181.7 141.125C181.75 141.425 181.925 142.8 181.475 144.525C181.375 144.925 180.775 147.1 178.8 148.975C176.5 151.175 173.75 151.575 172.85 151.7C166.075 152.6 160.825 146.675 159.9 145.65C158.975 144.6 157.45 142.85 156.575 140.15C155.175 135.85 156.25 131.975 157.025 129.15C157.75 126.5 158.725 124.5 159.425 123.2Z" fill="#3F3F3F"/>
</svg>
