<svg width="94" height="32" viewBox="0 0 94 32" fill="none" xmlns="http://www.w3.org/2000/svg">
<path fill-rule="evenodd" clip-rule="evenodd" d="M1.85177 5.15286C1.80836 5.23695 1.37392 6.0525 0.886378 6.96526C0.398884 7.87798 0 8.63431 0 8.64597C0 8.65764 0.650791 8.67278 1.44625 8.67965L2.89251 8.69206L2.90441 17.7341L2.91626 26.7761H4.86802H6.81974V21.8847V16.9933L8.47764 16.9949L10.1355 16.9965L13.5498 21.8746L16.9641 26.7526L19.182 26.7648C20.4018 26.7716 21.3999 26.7664 21.3999 26.7535C21.3999 26.7404 19.6203 24.1654 17.4452 21.0311C14.3967 16.6381 13.4996 15.3141 13.5297 15.2522C13.5513 15.2081 15.2409 12.9036 17.2845 10.131C19.3281 7.35845 21.0071 5.06975 21.0157 5.04501C21.0256 5.01674 20.22 5.00061 18.8522 5.0016L16.6731 5.0032L13.4093 9.30509L10.1455 13.607H8.48262H6.81974V9.30349V5H4.37526H1.93074L1.85177 5.15286ZM57.615 8.83316V11.3024H56.204H54.7931V12.6663V14.0303H56.2022H57.6114L57.6282 18.9569C57.6463 24.2231 57.6374 24.0152 57.8748 24.7321C58.331 26.1096 59.2846 26.7722 61.0952 26.9696C61.7653 27.0427 63.0384 26.9959 63.7528 26.8721C64.3163 26.7744 65.1436 26.5724 65.2539 26.5057C65.2989 26.4785 65.2611 26.1457 65.0878 25.0425C64.9643 24.2571 64.8556 23.6068 64.8461 23.5973C64.8366 23.5878 64.5814 23.6325 64.2789 23.6966C63.8501 23.7874 63.59 23.8131 63.0983 23.8131C61.8496 23.8131 61.4099 23.504 61.2846 22.5379C61.2589 22.3402 61.2388 20.4318 61.238 18.1104L61.2365 14.0303H63.1414H65.0462V12.6668V11.3035L63.1531 11.2911L61.2601 11.2789L61.2479 8.8214L61.2357 6.36395H59.4254H57.615V8.83316ZM27.6082 10.8369C26.5438 10.9565 25.5925 11.2414 24.5592 11.7498C23.5795 12.2319 23.0712 12.5821 22.4522 13.2012C21.6559 13.9976 21.0195 15.0222 20.6706 16.0694C20.1011 17.779 20.0935 20.0469 20.6517 21.7577C21.0604 23.0104 21.8901 24.2749 22.8495 25.1075C24.2372 26.3117 26.048 27.0365 28.0785 27.2003C29.4572 27.3115 30.9831 27.0752 32.1652 26.5673C33.5529 25.9711 34.6876 25.1586 35.4415 24.2213C36.6578 22.7091 37.2028 21.0632 37.2028 18.9024C37.2028 15.9974 36.0277 13.6947 33.7772 12.1898C32.6852 11.4596 31.3611 10.9976 29.8893 10.8331C29.3942 10.7778 28.115 10.7799 27.6082 10.8369ZM46.3977 10.8384C45.009 11.0132 43.8254 11.6434 43.0015 12.6465L42.6821 13.0353L42.6694 12.1689L42.6566 11.3024H40.9644H39.2723V19.0393V26.7761H41.1066H42.9408V21.7411C42.9408 17.2556 42.9492 16.6694 43.0175 16.369C43.1145 15.9426 43.2168 15.7047 43.474 15.3071C44.1425 14.2738 45.138 13.791 46.4672 13.8556C47.9058 13.9256 48.8507 14.6352 49.1734 15.8881C49.3166 16.444 49.3349 17.1226 49.336 21.9266L49.3373 26.7893L51.1128 26.7548C52.0893 26.7358 52.8914 26.717 52.8953 26.7129C52.8991 26.7089 52.9171 24.2081 52.9351 21.1557C52.9587 17.1765 52.9531 15.4907 52.9156 15.1989C52.7582 13.9758 52.3175 13.0428 51.5303 12.2654C50.7287 11.474 49.8248 11.0443 48.5698 10.8579C48.0388 10.7791 46.9467 10.7693 46.3977 10.8384ZM90.7731 11.003C89.5154 11.2439 88.511 11.9419 87.8688 13.0211L87.6219 13.4361V12.3692V11.3024H85.9052H84.1885V19.0393V26.7761H86.0207H87.853L87.8693 22.3198C87.8851 17.9959 87.8885 17.8509 87.9839 17.4401C88.2685 16.2152 88.7903 15.3599 89.5719 14.8371C89.9747 14.5677 90.353 14.4293 90.8937 14.3537C91.3432 14.2908 92.0186 14.3669 92.8238 14.5712C93.0761 14.6352 93.2864 14.6826 93.2911 14.6764C93.3211 14.6368 94.0172 11.4737 93.9997 11.4562C93.9597 11.4162 93.227 11.2157 92.7381 11.111C92.2701 11.0107 91.0753 10.9451 90.7731 11.003ZM67.4463 16.9816C67.4472 20.3683 67.4662 22.8031 67.4934 23.0135C67.6086 23.904 68.0071 24.8769 68.4998 25.4704C69.2056 26.3206 70.2955 26.8943 71.6543 27.1308C72.3513 27.2521 73.4861 27.2438 74.1049 27.1129C75.1183 26.8984 75.7889 26.608 76.3851 26.1254C76.7234 25.8516 77.1691 25.3643 77.4251 24.9885C77.5014 24.8764 77.505 24.9128 77.5074 25.8237L77.5098 26.7761H79.203H80.8962V19.0393V11.3024H79.0619H77.2276L77.2273 16.1115C77.2271 19.1654 77.2093 21.0321 77.1787 21.2263C77.0558 22.005 76.7629 22.5952 76.2444 23.1084C75.6284 23.7182 74.9243 23.9758 73.8883 23.9703C72.9761 23.9654 72.3265 23.7341 71.8122 23.231C71.5071 22.9324 71.3335 22.6238 71.1958 22.1352C71.0922 21.7674 71.0922 21.7636 71.0774 16.5348L71.0625 11.3024H69.2537H67.4448L67.4463 16.9816ZM30.2185 14.0478C31.4301 14.3674 32.2768 15.0366 32.7844 16.076C33.5376 17.6185 33.5336 20.2516 32.7757 21.7669C32.2956 22.7266 31.446 23.4955 30.5098 23.8175C29.4556 24.1802 27.9432 24.1915 26.9253 23.8445C25.4387 23.3377 24.4719 22.1079 24.1462 20.3091C24.029 19.6619 24.0287 18.1477 24.1456 17.5107C24.4852 15.6616 25.3817 14.5706 26.9505 14.0972C27.4913 13.9341 27.9078 13.8922 28.831 13.908C29.641 13.9219 29.8031 13.9382 30.2185 14.0478Z" fill="#222222"/>
</svg>
