<svg width="400" height="300" viewBox="0 0 400 300" fill="none" xmlns="http://www.w3.org/2000/svg">
<g style="mix-blend-mode:multiply">
<path d="M306.775 251.35C282.7 251.35 258.6 251.35 234.525 251.35C227.725 251.35 220.9 251.35 214.1 251.35C213.625 251.35 213.625 250.6 214.1 250.6C238.175 250.6 262.275 250.6 286.35 250.6C293.15 250.6 299.975 250.6 306.775 250.6C307.25 250.6 307.25 251.35 306.775 251.35Z" fill="#E8E8E8"/>
<path d="M209.25 251.35C184.65 251.35 160.075 251.35 135.475 251.35C128.5 251.35 121.525 251.35 114.55 251.35C114.075 251.35 114.075 250.6 114.55 250.6C139.15 250.6 163.725 250.6 188.325 250.6C195.3 250.6 202.275 250.6 209.25 250.6C209.725 250.6 209.725 251.35 209.25 251.35Z" fill="#E8E8E8"/>
<path d="M191.425 258.225C172.125 258.225 152.85 258.225 133.55 258.225C133.075 258.225 133.075 257.475 133.55 257.475C152.85 257.475 172.125 257.475 191.425 257.475C191.925 257.475 191.925 258.225 191.425 258.225Z" fill="#E8E8E8"/>
<path d="M250.925 259.85C239.725 259.85 228.525 259.85 217.325 259.85C216.85 259.85 216.85 259.1 217.325 259.1C228.525 259.1 239.725 259.1 250.925 259.1C251.4 259.1 251.4 259.85 250.925 259.85Z" fill="#E8E8E8"/>
<path d="M101.6 250.95C92.6998 250.95 83.7998 250.95 74.8998 250.95C74.4248 250.95 74.4248 250.2 74.8998 250.2C83.7998 250.2 92.6998 250.2 101.6 250.2C102.075 250.2 102.075 250.95 101.6 250.95Z" fill="#E8E8E8"/>
<path d="M296.25 203.675C293.05 209.25 292.375 215.975 294.375 222.075C294.45 222.275 294.3 222.475 294.125 222.525C293.375 222.775 292.6 223.1 292.075 223.675C291.4 224.425 291.25 225.925 292.4 226.375C292.625 226.475 292.825 226.8 292.575 227C290.625 228.525 290.4 231.075 290.25 233.375C290.1 235.65 289.875 237.9 289.325 240.1C288.25 244.35 286.15 248.3 282.625 250.975C282.25 251.275 281.875 250.625 282.25 250.325C286.15 247.375 288.15 242.75 289 238.05C289.675 234.4 288.775 229.05 292.075 226.475C292.125 226.675 292.175 226.9 292.25 227.1C291.2 226.675 290.675 225.6 290.9 224.475C291.2 223 292.675 222.225 294 221.8C293.925 221.95 293.825 222.1 293.75 222.25C291.675 215.95 292.4 209 295.7 203.275C295.85 202.875 296.5 203.25 296.25 203.675Z" fill="#E8E8E8"/>
<path d="M296.025 203.075C290.925 206.2 286.85 210.6 283.5 215.5C281.875 217.85 280.4 220.325 279.025 222.825C277.875 224.925 275.25 228.675 277.425 230.9C277.625 231.1 277.525 231.45 277.25 231.525C275.55 231.975 274.85 233.9 274.225 235.375C273.575 236.925 273.05 238.525 272.65 240.15C271.8 243.525 271.45 247 271.6 250.475C271.625 250.95 270.875 250.95 270.85 250.475C270.7 246.475 271.15 242.475 272.3 238.625C272.825 236.875 273.45 235.15 274.25 233.525C274.85 232.3 275.675 231.175 277.05 230.8C277 231 276.95 231.225 276.875 231.425C275.025 229.55 276.05 226.8 277.1 224.775C278.625 221.8 280.3 218.9 282.15 216.125C285.725 210.725 290.075 205.825 295.65 202.425C296.05 202.175 296.425 202.825 296.025 203.075Z" fill="#E8E8E8"/>
<path d="M295.675 203.3C284.275 216.525 277.025 233.1 275.075 250.45C275.025 250.925 274.275 250.925 274.325 250.45C275.875 236.775 280.65 223.5 288.2 212C290.325 208.775 292.65 205.7 295.175 202.775C295.475 202.4 296 202.95 295.675 203.3Z" fill="#E8E8E8"/>
<path d="M293.525 221.05C287.25 223.775 281.975 228.35 278.4 234.175C278.15 234.575 277.5 234.2 277.75 233.8C281.375 227.875 286.75 223.175 293.15 220.4C293.575 220.225 293.95 220.85 293.525 221.05Z" fill="#E8E8E8"/>
<path d="M283.65 214.925C283.45 217.575 283.15 220.175 282.675 222.8C282.6 223.275 281.875 223.075 281.95 222.6C282.4 220.05 282.7 217.5 282.9 214.925C282.95 214.45 283.7 214.45 283.65 214.925Z" fill="#E8E8E8"/>
<path d="M290.15 234.8C284.375 237.4 279.325 241.425 275.525 246.5C275.25 246.875 274.6 246.5 274.875 246.125C278.75 240.95 283.85 236.825 289.775 234.15C290.2 233.975 290.575 234.6 290.15 234.8Z" fill="#E8E8E8"/>
<path d="M280.175 219.175C280.25 213.025 279.275 206.925 277.325 201.1C277.5 201.175 277.7 201.25 277.875 201.325C277.425 201.55 277 201.775 276.55 201.975C276.3 202.1 276 201.95 275.975 201.65C275.875 197.85 274.775 194.225 272.725 191.025C272.95 191 273.175 190.975 273.4 190.925C271.7 195.775 270 200.6 268.3 205.45C267.475 207.8 266.65 210.125 265.825 212.475C265.2 214.25 262.625 219.325 265.9 219.875C266.2 219.925 266.25 220.325 266.075 220.5C264.35 222.35 263.7 224.825 263.375 227.275C263.05 229.8 263 232.35 263.1 234.875C263.325 240.175 264.425 245.375 266.325 250.325C266.5 250.775 265.775 250.975 265.6 250.525C263.575 245.25 262.45 239.625 262.325 233.975C262.225 229.4 262.2 223.55 265.55 220C265.6 220.2 265.65 220.425 265.725 220.625C263.8 220.3 263.325 218.25 263.675 216.575C264.3 213.7 265.625 210.85 266.6 208.075C268.625 202.3 270.675 196.525 272.7 190.725C272.8 190.425 273.2 190.35 273.375 190.625C275.5 193.925 276.65 197.7 276.725 201.625C276.525 201.525 276.35 201.4 276.15 201.3C276.6 201.075 277.025 200.85 277.475 200.65C277.7 200.525 277.95 200.625 278.025 200.875C280 206.775 280.975 212.925 280.9 219.15C280.925 219.65 280.175 219.65 280.175 219.175Z" fill="#E8E8E8"/>
<path d="M274.125 191.7C270.2 211.175 272.875 231.2 269.65 250.75C269.575 251.225 268.85 251.025 268.925 250.55C272.125 231 269.45 210.95 273.4 191.5C273.5 191.025 274.225 191.225 274.125 191.7Z" fill="#E8E8E8"/>
<path d="M279.775 207.625C278.3 214.775 275.025 221.325 271.775 227.825C271.55 228.25 270.9 227.875 271.125 227.45C274.35 221.025 277.575 214.525 279.05 207.45C279.15 206.95 279.875 207.15 279.775 207.625Z" fill="#E8E8E8"/>
<path d="M267.225 207.725C269.05 211.175 270.525 214.8 271.675 218.525C271.825 218.975 271.1 219.175 270.95 218.725C269.825 215.05 268.35 211.5 266.575 208.1C266.35 207.675 267 207.3 267.225 207.725Z" fill="#E8E8E8"/>
<path d="M156.575 250.325C155.85 244.05 155.125 237.775 154.4 231.5C154.525 231.625 154.65 231.75 154.775 231.875C154.025 231.825 153.45 231.975 152.825 232.45C152.575 232.65 152.2 232.525 152.175 232.175C152.1 230.8 152.05 229.45 151.975 228.075C152.125 228.2 152.3 228.325 152.45 228.425C150.625 228.75 149.65 227.05 148.975 225.65C147.95 223.5 146.65 221.625 145.15 219.8C142.425 216.5 139.325 213.275 138.3 208.975C138.55 208.975 138.775 208.975 139.025 208.975C137.625 213.4 136.175 217.9 135.95 222.575C135.775 226.175 136.175 231.4 140.125 232.95C140.35 233.05 140.475 233.275 140.35 233.5C138.175 237.55 143.85 240.3 146.325 242.3C149.1 244.55 151.375 247.35 153.075 250.475C153.3 250.9 152.65 251.275 152.425 250.85C150.25 246.875 147.225 243.75 143.525 241.175C140.975 239.4 137.9 236.5 139.7 233.125C139.775 233.3 139.85 233.5 139.925 233.675C136.275 232.225 135.275 228 135.175 224.45C135.05 219.075 136.7 213.85 138.3 208.775C138.4 208.425 138.925 208.4 139.025 208.775C139.95 212.7 142.7 215.7 145.225 218.7C146.4 220.1 147.55 221.525 148.5 223.075C149.275 224.375 150.3 228.05 152.275 227.7C152.525 227.65 152.725 227.8 152.75 228.05C152.825 229.425 152.875 230.775 152.95 232.15C152.725 232.05 152.525 231.975 152.3 231.875C153.05 231.275 153.825 231.025 154.8 231.075C155.025 231.1 155.15 231.225 155.175 231.45C155.9 237.725 156.625 244 157.35 250.275C157.375 250.8 156.625 250.8 156.575 250.325Z" fill="#E8E8E8"/>
<path d="M139.05 209.975C139.475 217.075 140.8 224.3 144.6 230.425C146.45 233.425 148.9 236.05 150.875 238.975C152.775 241.775 154.2 244.85 155.2 248.075C155.35 248.525 154.625 248.725 154.475 248.275C153.375 244.75 151.75 241.45 149.6 238.45C147.5 235.525 145.075 232.85 143.3 229.7C139.95 223.7 138.725 216.775 138.325 209.975C138.275 209.5 139.025 209.5 139.05 209.975Z" fill="#E8E8E8"/>
<path d="M147.325 221.95C147.275 225.45 146.75 228.9 145.725 232.25C145.575 232.7 144.85 232.525 145 232.05C146 228.775 146.525 225.4 146.575 221.95C146.6 221.475 147.35 221.45 147.325 221.95Z" fill="#E8E8E8"/>
<path d="M140.95 224.4C138.975 223.475 137.225 222.2 135.725 220.625C135.4 220.275 135.925 219.75 136.25 220.1C137.725 221.625 139.4 222.85 141.325 223.75C141.775 223.95 141.375 224.6 140.95 224.4Z" fill="#E8E8E8"/>
<path d="M143.675 250.525C143.9 247.775 144.2 245.025 144.55 242.3C144.6 241.825 145.375 241.825 145.3 242.3C144.95 245.025 144.65 247.775 144.425 250.525C144.4 251 143.65 251 143.675 250.525Z" fill="#E8E8E8"/>
<path d="M135.025 219.725C132.3 214.575 129.975 209.2 128.075 203.675C128.325 203.675 128.55 203.675 128.8 203.675C127.375 209.5 125.975 215.325 124.55 221.15C124.475 221 124.375 220.85 124.3 220.7C125.3 221 126.3 221.3 127.3 221.6C127.475 221.65 127.575 221.8 127.575 221.95C127.625 222.55 127.3 222.9 126.85 223.25C125.8 224.125 125.525 224.825 125.6 226.2C125.675 227.45 125.8 228.675 125.9 229.9C125.975 230.85 125.925 233.3 127.4 233.225C127.625 233.225 127.85 233.475 127.75 233.7C126.625 236.825 127.875 240.05 129.35 242.825C130.8 245.55 132.575 248.075 134.625 250.4C134.95 250.75 134.425 251.3 134.1 250.925C131.825 248.35 129.85 245.5 128.3 242.425C126.925 239.675 125.925 236.525 127 233.5C127.125 233.65 127.25 233.825 127.35 233.975C125 234.1 125.15 230.475 125.025 228.975C124.925 227.6 124.625 226.1 124.85 224.725C124.925 224.275 125.075 223.85 125.35 223.5C125.725 223.025 126.8 222.6 126.75 221.95C126.85 222.075 126.925 222.2 127.025 222.3C126.025 222 125.025 221.7 124.025 221.4C123.825 221.35 123.725 221.15 123.775 220.95C125.2 215.125 126.6 209.3 128.025 203.475C128.125 203.1 128.625 203.15 128.75 203.475C130.625 208.95 132.9 214.225 135.625 219.35C135.9 219.775 135.25 220.15 135.025 219.725Z" fill="#E8E8E8"/>
<path d="M129.05 205.3C126.7 220.275 137.2 233.15 139.9 247.3C140 247.775 139.275 247.975 139.175 247.5C136.45 233.175 125.95 220.275 128.325 205.1C128.4 204.625 129.125 204.825 129.05 205.3Z" fill="#E8E8E8"/>
<path d="M134.15 216.075C133.575 219.05 133.025 222.025 132.45 225.025C132.35 225.5 131.625 225.3 131.725 224.825C132.3 221.85 132.85 218.875 133.425 215.875C133.525 215.4 134.225 215.6 134.15 216.075Z" fill="#E8E8E8"/>
<path d="M129.6 219.9C128.45 218.225 127.15 216.675 125.725 215.225C125.375 214.875 125.925 214.35 126.25 214.7C127.725 216.175 129.05 217.8 130.25 219.525C130.525 219.925 129.875 220.3 129.6 219.9Z" fill="#E8E8E8"/>
<path d="M331.375 180.5C312.975 176.45 293.675 176.925 275.5 181.925C266.225 184.475 257.475 188.45 248.525 191.95C239.7 195.4 230.675 198.275 221.475 200.575C211.2 203.15 200.75 205 190.2 206.125C189.725 206.175 189.725 205.425 190.2 205.375C209.3 203.325 228.15 198.85 246.125 192.05C255.2 188.625 264 184.5 273.3 181.75C282.125 179.15 291.275 177.625 300.475 177.175C310.9 176.65 321.375 177.55 331.55 179.775C332.025 179.875 331.825 180.6 331.375 180.5Z" fill="#E8E8E8"/>
<path d="M231.375 191.625C211.675 196.475 191.2 194.45 171.525 190.5C151.25 186.425 131.425 180.2 110.975 177C99.3748 175.175 87.5748 174.4 75.8498 175.575C75.3748 175.625 75.3748 174.875 75.8498 174.825C96.3498 172.775 116.75 176.75 136.6 181.5C156.6 186.3 176.5 191.95 197.1 193.425C208.525 194.225 220.025 193.675 231.175 190.925C231.65 190.775 231.85 191.5 231.375 191.625Z" fill="#E8E8E8"/>
<path d="M290.9 159.375C279.05 157 267.3 160.85 255.925 163.75C244.4 166.7 232.675 168.05 220.8 166.875C209 165.7 197.6 162.35 186.05 159.8C174.125 157.15 162 155.325 149.825 154.375C136.325 153.3 122.75 153.3 109.225 154.325C108.75 154.35 108.75 153.6 109.225 153.575C133.225 151.775 157.45 153.25 181.05 158C192.925 160.4 204.575 163.95 216.6 165.65C228.875 167.375 241.2 166.625 253.225 163.7C265.6 160.675 278.25 156.1 291.125 158.675C291.575 158.725 291.375 159.45 290.9 159.375Z" fill="#E8E8E8"/>
<path d="M166.275 143.975C152.925 145.35 139.725 142.4 126.8 139.425C120.2 137.9 113.575 136.375 106.875 135.375C99.9498 134.35 92.9248 133.975 85.9248 134.3C78.0248 134.675 70.1999 135.9 62.5499 137.975C62.0749 138.1 61.8749 137.375 62.3499 137.25C75.7249 133.625 89.7498 132.55 103.5 134.175C116.925 135.75 129.875 139.825 143.175 142.075C150.8 143.375 158.525 144 166.25 143.2C166.75 143.175 166.75 143.925 166.275 143.975Z" fill="#E8E8E8"/>
<path d="M327.45 144.9C317.375 146.65 307.45 143.125 297.425 142.575C286.85 141.975 276.325 143.7 265.951 145.425C265.476 145.5 265.276 144.775 265.751 144.7C275.9 143.025 286.15 141.35 296.475 141.775C306.725 142.2 316.975 145.975 327.275 144.175C327.725 144.1 327.925 144.825 327.45 144.9Z" fill="#E8E8E8"/>
<path d="M280.75 286.5C268.8 286.5 256.85 286.5 244.875 286.5C244.4 286.5 244.4 285.75 244.875 285.75C256.825 285.75 268.775 285.75 280.75 285.75C281.225 285.75 281.225 286.5 280.75 286.5Z" fill="#161616"/>
<path d="M252.925 291.25C241.825 291.25 230.725 291.25 219.625 291.25C219.15 291.25 219.15 290.5 219.625 290.5C230.725 290.5 241.825 290.5 252.925 290.5C253.4 290.5 253.4 291.25 252.925 291.25Z" fill="#161616"/>
<path d="M309.65 285.4C315.875 285.4 322.1 285.4 328.325 285.4C328.8 285.4 328.8 286.15 328.325 286.15C322.1 286.15 315.875 286.15 309.65 286.15C309.175 286.15 309.175 285.4 309.65 285.4Z" fill="#161616"/>
<path d="M227.3 272.6C207.775 272.6 188.25 272.6 168.75 272.6C168.275 272.6 168.275 271.85 168.75 271.85C188.275 271.85 207.8 271.85 227.3 271.85C227.775 271.85 227.8 272.6 227.3 272.6Z" fill="#161616"/>
<path d="M133.6 267.1C126.275 267.1 118.95 267.1 111.65 267.1C111.175 267.1 111.175 266.35 111.65 266.35C118.975 266.35 126.3 266.35 133.6 266.35C134.1 266.35 134.1 267.1 133.6 267.1Z" fill="#161616"/>
<path d="M95.55 269.675C84.325 269.675 73.0999 269.675 61.8749 269.675C61.3999 269.675 61.3999 268.925 61.8749 268.925C73.0999 268.925 84.325 268.925 95.55 268.925C96.025 268.925 96.025 269.675 95.55 269.675Z" fill="#161616"/>
<path d="M315.425 263.05C315.525 264.475 315.6 265.875 315.7 267.3C316.475 267.525 317.275 267.775 318.05 268C317.925 269 317.775 270 317.65 271C318.6 271 319.55 271 320.525 271C320.35 272.45 320.15 273.9 319.975 275.35C318.35 275.375 316.7 275.4 315.075 275.45C314.9 276.625 314.7 277.8 314.525 278.975C315.675 278.975 316.875 278.95 318.125 278.875C319.6 278.8 320.975 278.675 322.275 278.5C322.325 280.05 322.4 281.575 322.45 283.125C318.35 283.075 314.25 283 310.15 282.95C310.025 284.025 309.9 285.1 309.775 286.175C302.15 287.025 293.425 287.325 283.875 286.45C281.25 286.2 278.725 285.9 276.3 285.525C276.3 284.3 276.3 283.05 276.3 281.825C277.175 282.175 278.225 282.5 279.45 282.75C281.5 283.15 283.275 283.15 284.625 283.025C284.475 282.05 284.325 281.05 284.175 280.075C283.975 279.425 283.775 278.625 283.725 277.675C283.675 277.05 283.7 276.5 283.725 276C286.1 276.025 288.475 276.05 290.85 276.1C290.9 274.475 290.975 272.825 291.025 271.2C288.825 271.025 286.65 270.825 284.45 270.65C284.4 269.775 284.325 268.925 284.275 268.05C285.375 267.9 286.5 267.75 287.6 267.6C287.65 265.925 287.725 264.275 287.775 262.6C296.975 262.75 306.2 262.9 315.425 263.05Z" fill="#474747"/>
<path d="M114.85 231.475C114.875 232.5 114.9 233.525 114.925 234.525C112.65 234.675 110.375 234.825 108.1 234.95C108.1 235.9 108.1 236.875 108.1 237.825C108.95 238.025 109.8 238.225 110.625 238.425C110.675 239.525 110.75 240.65 110.8 241.75C113.45 241.775 116.1 241.8 118.75 241.825C118.825 242.925 118.925 244.05 119 245.15C115.875 245.2 112.75 245.275 109.65 245.325C109.65 246.675 109.65 248 109.65 249.35C112.825 249.425 116 249.525 119.175 249.6C119.225 250.875 119.3 252.175 119.35 253.45C118.325 253.525 117.3 253.625 116.3 253.7C116.275 254.825 116.25 255.975 116.225 257.1C117.6 257.225 118.975 257.325 120.325 257.45C120.275 258.925 120.2 260.425 120.15 261.9C118.5 261.875 116.825 261.85 115.175 261.825C115.175 263.4 115.175 264.975 115.175 266.55C111.45 266.75 107.575 266.875 103.55 266.9C97.2502 266.925 91.2752 266.7 85.7002 266.3C85.4252 265.1 85.1752 263.775 85.0002 262.375C84.7752 260.6 84.6752 258.95 84.6502 257.475C83.9502 257.35 83.2502 257.25 82.5502 257.125C82.5252 256.05 82.5002 254.975 82.4752 253.9C84.2252 253.875 85.9752 253.85 87.7252 253.825C87.6502 252.4 87.5502 250.975 87.4752 249.55C84.8252 249.475 82.1752 249.375 79.5252 249.3C79.5002 248.05 79.4752 246.8 79.4502 245.55C81.6752 245.55 83.8752 245.55 86.1002 245.55C86.0252 244.525 85.9252 243.5 85.8502 242.5C83.4252 242.35 81.0002 242.2 78.6002 242.075C78.5752 240.825 78.5502 239.575 78.5252 238.325C77.4502 238.325 76.3752 238.325 75.3002 238.325C75.3502 237.2 75.4252 236.05 75.4752 234.925C78.1252 234.975 80.7752 235.05 83.4252 235.1C83.3502 233.725 83.2502 232.35 83.1752 231C86.4002 230.25 90.1502 229.65 94.3752 229.425C102.625 228.925 109.7 230.125 114.85 231.475Z" fill="#666666"/>
<path d="M310.225 282.975C310.2 284.025 310.15 285.1 310.125 286.15C310.125 286.375 309.95 286.5 309.75 286.525C298.725 287.275 287.675 287.2 276.675 286.275C276.525 286.25 276.35 286.175 276.325 286C276 284.625 275.925 283.3 276.075 281.9C276.125 281.425 276.875 281.425 276.825 281.9C276.675 283.225 276.75 284.5 277.05 285.8C276.925 285.7 276.8 285.625 276.7 285.525C287.7 286.425 298.775 286.525 309.775 285.775C309.65 285.9 309.525 286.025 309.4 286.15C309.425 285.1 309.475 284.025 309.5 282.975C309.5 282.5 310.25 282.5 310.225 282.975Z" fill="#161616"/>
<path d="M322.7 278.4C322.7 279.875 322.7 281.35 322.7 282.825C322.7 283.3 321.95 283.3 321.95 282.825C321.95 281.35 321.95 279.875 321.95 278.4C321.95 277.9 322.7 277.9 322.7 278.4Z" fill="#161616"/>
<path d="M321.875 283.5C309.5 283.5 297.125 283.5 284.75 283.5C284.275 283.5 284.275 282.75 284.75 282.75C297.125 282.75 309.5 282.75 321.875 282.75C322.35 282.75 322.35 283.5 321.875 283.5Z" fill="#161616"/>
<path d="M307.65 283.575C307.55 284.4 307.525 285.2 307.575 286.025C307.6 286.5 306.85 286.5 306.825 286.025C306.775 285.2 306.775 284.4 306.9 283.575C306.95 283.1 307.7 283.1 307.65 283.575Z" fill="#161616"/>
<path d="M305.275 283.675C305.125 284.3 305.1 284.925 305.125 285.55C305.15 286.025 304.4 286.025 304.375 285.55C304.325 284.85 304.375 284.15 304.55 283.475C304.65 283.025 305.375 283.225 305.275 283.675Z" fill="#161616"/>
<path d="M284.25 283.075C284 282.1 283.875 281.1 283.9 280.075C283.9 279.6 284.65 279.6 284.65 280.075C284.625 281.025 284.725 281.95 284.975 282.875C285.1 283.325 284.375 283.525 284.25 283.075Z" fill="#161616"/>
<path d="M321.825 278.875C309.475 280.6 297 280.925 284.575 279.85C284.1 279.8 284.1 279.05 284.575 279.1C296.925 280.175 309.35 279.875 321.625 278.15C322.1 278.075 322.3 278.8 321.825 278.875Z" fill="#161616"/>
<path d="M283.975 283.25C281.5 283.475 279.05 283.175 276.675 282.425C276.225 282.275 276.425 281.55 276.875 281.7C279.2 282.45 281.55 282.725 283.975 282.5C284.45 282.475 284.45 283.225 283.975 283.25Z" fill="#161616"/>
<path d="M288.625 283.575C288.625 284.45 288.625 285.3 288.625 286.175C288.625 286.65 287.875 286.65 287.875 286.175C287.875 285.3 287.875 284.45 287.875 283.575C287.875 283.1 288.625 283.1 288.625 283.575Z" fill="#161616"/>
<path d="M282.975 283.075C282.825 284 282.7 284.925 282.55 285.825C282.475 286.3 281.75 286.1 281.825 285.625C281.975 284.7 282.1 283.775 282.25 282.875C282.325 282.4 283.025 282.6 282.975 283.075Z" fill="#161616"/>
<path d="M279.525 282.925C279.45 283.425 279.5 283.925 279.625 284.4C279.75 284.875 279.025 285.075 278.9 284.6C278.725 283.975 278.7 283.35 278.8 282.725C278.875 282.25 279.6 282.45 279.525 282.925Z" fill="#161616"/>
<path d="M319.076 279C319.026 280.325 318.976 281.65 318.926 282.975C318.901 283.45 318.151 283.45 318.176 282.975C318.226 281.65 318.276 280.325 318.326 279C318.351 278.525 319.101 278.525 319.076 279Z" fill="#161616"/>
<path d="M314.1 279.45C314 280.475 313.9 281.5 313.8 282.5C313.75 282.975 313 282.975 313.05 282.5C313.15 281.475 313.25 280.45 313.35 279.45C313.4 278.975 314.15 278.975 314.1 279.45Z" fill="#161616"/>
<path d="M311.225 280.075C311.3 280.675 311.25 281.275 311.075 281.85C310.95 282.325 310.225 282.125 310.35 281.65C310.5 281.125 310.525 280.6 310.475 280.075C310.425 279.6 311.175 279.6 311.225 280.075Z" fill="#161616"/>
<path d="M315.226 275.65C315.201 276.825 315.101 277.975 314.901 279.1C314.826 279.575 314.101 279.375 314.176 278.9C314.376 277.825 314.476 276.725 314.476 275.65C314.476 275.15 315.226 275.15 315.226 275.65Z" fill="#161616"/>
<path d="M314.375 275.7C304.175 275.9 293.975 276.125 283.775 276.325C283.9 276.225 284.025 276.15 284.125 276.05C283.95 277.1 283.95 278.125 284.075 279.2C284.125 279.675 283.375 279.675 283.325 279.2C283.2 278.075 283.225 276.975 283.4 275.85C283.425 275.675 283.6 275.575 283.75 275.575C293.95 275.375 304.15 275.15 314.35 274.95C314.85 274.95 314.85 275.7 314.375 275.7Z" fill="#161616"/>
<path d="M321.025 271.3C320.775 272.625 320.6 273.975 320.45 275.325C320.4 275.8 319.65 275.8 319.7 275.325C319.85 273.9 320.05 272.5 320.3 271.1C320.375 270.625 321.1 270.825 321.025 271.3Z" fill="#161616"/>
<path d="M320.2 271.3C315.35 271.6 310.475 271.4 305.625 271.35C300.725 271.325 295.825 271.275 290.925 271.25C291.05 271.125 291.175 271 291.3 270.875C291.25 272.15 291.2 273.425 291.175 274.7C291.15 275.175 290.4 275.175 290.425 274.7C290.475 273.425 290.525 272.15 290.55 270.875C290.55 270.675 290.725 270.5 290.925 270.5C295.825 270.525 300.725 270.575 305.625 270.6C310.475 270.625 315.35 270.825 320.2 270.55C320.675 270.525 320.675 271.275 320.2 271.3Z" fill="#161616"/>
<path d="M319.876 275.825C318.101 275.775 316.301 275.725 314.526 275.675C314.051 275.65 314.051 274.9 314.526 274.925C316.301 274.975 318.101 275.025 319.876 275.075C320.351 275.075 320.376 275.825 319.876 275.825Z" fill="#161616"/>
<path d="M318.6 267.95C318.45 268.975 318.3 269.975 318.125 271C318.05 271.475 317.325 271.275 317.4 270.8C317.55 269.775 317.7 268.775 317.875 267.75C317.95 267.275 318.675 267.475 318.6 267.95Z" fill="#161616"/>
<path d="M317.925 268.15C306.75 266.45 295.375 266.525 284.225 268.425C283.75 268.5 283.55 267.775 284.025 267.7C295.3 265.8 306.825 265.7 318.125 267.425C318.6 267.5 318.4 268.225 317.925 268.15Z" fill="#161616"/>
<path d="M291.125 271.525C289.575 271.45 288.05 271.375 286.5 271.325C285.75 271.3 284.85 271.45 284.35 270.8C284.05 270.425 284.7 270.05 285 270.425C285.3 270.825 287.525 270.625 287.95 270.65C289 270.7 290.05 270.75 291.1 270.8C291.625 270.8 291.625 271.55 291.125 271.525Z" fill="#161616"/>
<path d="M284.7 267.575C284.85 268.325 284.95 269.075 284.975 269.825C285 270.3 284.25 270.3 284.225 269.825C284.2 269.125 284.125 268.45 283.975 267.775C283.875 267.3 284.6 267.1 284.7 267.575Z" fill="#161616"/>
<path d="M315.275 267.225C315.275 265.8 315.275 264.4 315.275 262.975C315.275 262.5 316.025 262.5 316.025 262.975C316.025 264.4 316.025 265.8 316.025 267.225C316.025 267.725 315.275 267.725 315.275 267.225Z" fill="#161616"/>
<path d="M315.05 263.325C305.925 262.875 296.775 262.7 287.65 262.775C287.175 262.775 287.175 262.025 287.65 262.025C296.775 261.95 305.925 262.125 315.05 262.575C315.525 262.6 315.525 263.35 315.05 263.325Z" fill="#161616"/>
<path d="M288.025 262.7C287.925 264.125 287.825 265.525 287.725 266.95C287.7 267.425 286.95 267.425 286.975 266.95C287.075 265.525 287.175 264.125 287.275 262.7C287.3 262.2 288.05 262.2 288.025 262.7Z" fill="#161616"/>
<path d="M314.425 267.825C314.325 268.75 314.25 269.675 314.15 270.625C314.1 271.1 313.35 271.1 313.4 270.625C313.5 269.7 313.575 268.775 313.675 267.825C313.7 267.35 314.475 267.35 314.425 267.825Z" fill="#161616"/>
<path d="M311.325 267.375C311.35 268.15 311.275 268.9 311.125 269.675C311.05 270.15 310.325 269.95 310.4 269.475C310.525 268.775 310.575 268.075 310.575 267.375C310.575 266.9 311.325 266.9 311.325 267.375Z" fill="#161616"/>
<path d="M306.1 271.775C306 272.8 305.925 273.825 305.825 274.85C305.775 275.325 305.025 275.325 305.075 274.85C305.175 273.825 305.25 272.8 305.35 271.775C305.375 271.3 306.125 271.3 306.1 271.775Z" fill="#161616"/>
<path d="M302.925 271.475C302.825 272.5 302.75 273.525 302.65 274.55C302.6 275.025 301.85 275.025 301.9 274.55C302 273.525 302.075 272.5 302.175 271.475C302.225 271 302.975 271 302.925 271.475Z" fill="#161616"/>
<path d="M297.701 271.35C297.601 272.525 297.501 273.7 297.401 274.875C297.351 275.35 296.601 275.35 296.651 274.875C296.751 273.7 296.851 272.525 296.951 271.35C296.976 270.85 297.726 270.85 297.701 271.35Z" fill="#161616"/>
<path d="M296.251 276.025C296.126 277.2 296.026 278.375 295.901 279.55C295.851 280.025 295.101 280.025 295.151 279.55C295.276 278.375 295.376 277.2 295.501 276.025C295.551 275.55 296.301 275.55 296.251 276.025Z" fill="#161616"/>
<path d="M293 276.125C292.825 277.2 292.8 278.3 292.85 279.4C292.875 279.875 292.125 279.875 292.1 279.4C292.025 278.225 292.075 277.075 292.275 275.925C292.35 275.45 293.075 275.65 293 276.125Z" fill="#161616"/>
<path d="M289.05 275.875C288.95 277 288.95 278.125 289.1 279.25C289.15 279.725 288.4 279.725 288.35 279.25C288.225 278.125 288.2 277 288.3 275.875C288.325 275.4 289.075 275.4 289.05 275.875Z" fill="#161616"/>
<path d="M300.6 280.275C300.675 281 300.725 281.75 300.8 282.475C300.85 282.95 300.1 282.95 300.05 282.475C299.975 281.75 299.925 281 299.85 280.275C299.8 279.8 300.55 279.8 300.6 280.275Z" fill="#161616"/>
<path d="M298.7 280.675C298.45 281.275 298.375 281.85 298.45 282.475C298.5 282.95 297.75 282.95 297.7 282.475C297.625 281.775 297.725 281.1 297.975 280.475C298.15 280.025 298.876 280.225 298.7 280.675Z" fill="#161616"/>
<path d="M300.225 266.65C300.125 267.825 300.1 269 300.075 270.175C300.075 270.65 299.325 270.65 299.325 270.175C299.325 269 299.375 267.825 299.475 266.65C299.5 266.175 300.25 266.175 300.225 266.65Z" fill="#161616"/>
<path d="M297.25 267.05C297.1 267.85 297.05 268.625 297.1 269.45C297.125 269.925 296.375 269.925 296.35 269.45C296.275 268.575 296.35 267.725 296.525 266.85C296.625 266.375 297.35 266.575 297.25 267.05Z" fill="#161616"/>
<path d="M308.401 262.65C308.101 263.825 308.026 265 308.101 266.2C308.151 266.675 307.401 266.675 307.351 266.2C307.251 264.925 307.351 263.675 307.676 262.45C307.801 261.975 308.526 262.175 308.401 262.65Z" fill="#161616"/>
<path d="M305.326 262.65C305.151 263.625 305.001 264.6 304.826 265.575C304.751 266.05 304.026 265.85 304.101 265.375C304.276 264.4 304.426 263.425 304.601 262.45C304.676 261.975 305.401 262.175 305.326 262.65Z" fill="#161616"/>
<path d="M294.475 262.8C294.325 263.775 294.275 264.775 294.325 265.775C294.35 266.25 293.6 266.25 293.575 265.775C293.5 264.7 293.575 263.65 293.75 262.6C293.825 262.125 294.55 262.325 294.475 262.8Z" fill="#161616"/>
<path d="M115.6 262.55C115.575 264 115.55 265.45 115.525 266.875C115.525 267.075 115.35 267.25 115.15 267.25C108.9 267.3 102.675 267.25 96.425 267.075C93.4 267 90.35 266.875 87.325 266.75C86.6 266.725 85.4 266.9 84.975 266.1C84.8 265.775 84.825 265.275 84.825 264.95C84.775 264.2 84.75 263.425 84.725 262.65C84.7 262.175 85.45 262.175 85.475 262.65C85.5 263.25 85.525 263.875 85.55 264.475C85.6 265.35 85.675 265.775 86.6 265.95C87.925 266.2 89.425 266.075 90.775 266.125C93.475 266.225 96.2 266.3 98.9 266.375C104.325 266.5 109.75 266.525 115.15 266.475C115.025 266.6 114.9 266.725 114.775 266.85C114.8 265.4 114.825 263.95 114.85 262.525C114.875 262.075 115.625 262.075 115.6 262.55Z" fill="#161616"/>
<path d="M120.8 257.775C120.75 259.125 120.7 260.475 120.65 261.85C120.625 262.325 119.875 262.325 119.9 261.85C119.95 260.5 120 259.15 120.05 257.775C120.05 257.3 120.8 257.3 120.8 257.775Z" fill="#161616"/>
<path d="M120.1 262.375C108.325 262.375 96.5498 262.375 84.7748 262.375C84.2998 262.375 84.2998 261.625 84.7748 261.625C96.5498 261.625 108.325 261.625 120.1 261.625C120.575 261.625 120.575 262.375 120.1 262.375Z" fill="#161616"/>
<path d="M119.825 257.75C108 257.75 96.1753 257.75 84.3753 257.75C83.9003 257.75 83.9003 257 84.3753 257C96.2003 257 108.025 257 119.825 257C120.3 257 120.3 257.75 119.825 257.75Z" fill="#161616"/>
<path d="M85.0254 257.5C85.0254 259 85.0254 260.5 85.0254 261.975C85.0254 262.45 84.2754 262.45 84.2754 261.975C84.2754 260.475 84.2754 258.975 84.2754 257.5C84.2754 257.025 85.0254 257.025 85.0254 257.5Z" fill="#161616"/>
<path d="M115.95 257.225C115.95 256.1 115.95 254.975 115.95 253.85C115.95 253.375 116.7 253.375 116.7 253.85C116.7 254.975 116.7 256.1 116.7 257.225C116.7 257.7 115.95 257.7 115.95 257.225Z" fill="#161616"/>
<path d="M116.05 254.225C104.7 254.225 93.35 254.225 82 254.225C81.525 254.225 81.525 253.475 82 253.475C93.35 253.475 104.7 253.475 116.05 253.475C116.525 253.475 116.525 254.225 116.05 254.225Z" fill="#161616"/>
<path d="M82.9248 253.85C82.9248 254.925 82.9248 256 82.9248 257.075C82.9248 257.55 82.1748 257.55 82.1748 257.075C82.1748 256 82.1748 254.925 82.1748 253.85C82.1748 253.375 82.9248 253.375 82.9248 253.85Z" fill="#161616"/>
<path d="M84.7754 257.6C84.0754 257.6 83.3754 257.6 82.6754 257.6C82.2004 257.6 82.2004 256.85 82.6754 256.85C83.3754 256.85 84.0754 256.85 84.7754 256.85C85.2754 256.85 85.2754 257.6 84.7754 257.6Z" fill="#161616"/>
<path d="M119.775 249.925C119.775 250.95 119.775 251.975 119.775 253C119.775 253.475 119.025 253.475 119.025 253C119.025 251.975 119.025 250.95 119.025 249.925C119.025 249.45 119.775 249.45 119.775 249.925Z" fill="#161616"/>
<path d="M119.25 250.025C108.65 250.025 98.05 250.025 87.425 250.025C86.95 250.025 86.95 249.275 87.425 249.275C98.025 249.275 108.625 249.275 119.25 249.275C119.75 249.275 119.75 250.025 119.25 250.025Z" fill="#161616"/>
<path d="M87.9746 249.8C87.9746 250.925 87.9746 252.05 87.9746 253.175C87.9746 253.65 87.2246 253.65 87.2246 253.175C87.2246 252.05 87.2246 250.925 87.2246 249.8C87.2246 249.325 87.9746 249.3 87.9746 249.8Z" fill="#161616"/>
<path d="M119.25 253.825C108.825 253.825 98.425 253.825 88 253.825C87.5251 253.825 87.5251 253.075 88 253.075C98.425 253.075 108.825 253.075 119.25 253.075C119.75 253.075 119.75 253.825 119.25 253.825Z" fill="#161616"/>
<path d="M109.351 249.225C109.351 248.15 109.351 247.075 109.351 246C109.351 245.525 110.101 245.525 110.101 246C110.101 247.075 110.101 248.15 110.101 249.225C110.101 249.725 109.351 249.725 109.351 249.225Z" fill="#161616"/>
<path d="M109.6 246.1C99.5498 246.1 89.4998 246.1 79.4748 246.1C78.9998 246.1 78.9998 245.35 79.4748 245.35C89.5248 245.35 99.5748 245.35 109.6 245.35C110.075 245.35 110.075 246.1 109.6 246.1Z" fill="#161616"/>
<path d="M87.7248 249.75C85.2498 249.75 82.7748 249.75 80.2997 249.75C79.8247 249.75 79.8247 249 80.2997 249C82.7748 249 85.2498 249 87.7248 249C88.1998 249 88.1998 249.75 87.7248 249.75Z" fill="#161616"/>
<path d="M79.8252 245.875C79.8252 246.95 79.8252 248.025 79.8252 249.1C79.8252 249.575 79.0751 249.575 79.0751 249.1C79.0751 248.025 79.0751 246.95 79.0751 245.875C79.0751 245.4 79.8252 245.4 79.8252 245.875Z" fill="#161616"/>
<path d="M118.55 245.675C107.7 245.675 96.8747 245.675 86.0247 245.675C85.5497 245.675 85.5497 244.925 86.0247 244.925C96.8747 244.925 107.7 244.925 118.55 244.925C119.05 244.925 119.05 245.675 118.55 245.675Z" fill="#161616"/>
<path d="M118.476 245.175C118.476 244.2 118.476 243.225 118.476 242.225C118.476 241.75 119.226 241.75 119.226 242.225C119.226 243.2 119.226 244.175 119.226 245.175C119.226 245.65 118.476 245.65 118.476 245.175Z" fill="#161616"/>
<path d="M118.7 242.475C107.775 242.475 96.8254 242.475 85.9004 242.475C85.4254 242.475 85.4254 241.725 85.9004 241.725C96.8254 241.725 107.775 241.725 118.7 241.725C119.175 241.725 119.175 242.475 118.7 242.475Z" fill="#161616"/>
<path d="M86.1504 242.1C86.1504 243 86.1504 243.875 86.1504 244.775C86.1504 245.25 85.4003 245.25 85.4003 244.775C85.4003 243.875 85.4003 243 85.4003 242.1C85.4003 241.6 86.1504 241.6 86.1504 242.1Z" fill="#161616"/>
<path d="M110.325 241.8C110.325 240.725 110.325 239.65 110.325 238.575C110.325 238.1 111.075 238.1 111.075 238.575C111.075 239.65 111.075 240.725 111.075 241.8C111.075 242.3 110.325 242.3 110.325 241.8Z" fill="#161616"/>
<path d="M110.425 238.675C99.8248 238.675 89.2249 238.675 78.5999 238.675C78.1249 238.675 78.1249 237.925 78.5999 237.925C89.1999 237.925 99.7998 237.925 110.425 237.925C110.925 237.925 110.925 238.675 110.425 238.675Z" fill="#161616"/>
<path d="M79 238.45C79 238.975 79 239.475 79 240C79 240.475 78.2498 240.475 78.2498 240C78.2498 239.475 78.2498 238.975 78.2498 238.45C78.2498 237.95 79 237.95 79 238.45Z" fill="#161616"/>
<path d="M86.05 242.475C83.575 242.475 81.1 242.475 78.625 242.475C78.15 242.475 78.15 241.725 78.625 241.725C81.1 241.725 83.575 241.725 86.05 241.725C86.525 241.725 86.525 242.475 86.05 242.475Z" fill="#161616"/>
<path d="M79 238.875C79 239.8 79 240.75 79 241.675C79 242.15 78.2498 242.15 78.2498 241.675C78.2498 240.75 78.2498 239.8 78.2498 238.875C78.2498 238.375 79 238.375 79 238.875Z" fill="#161616"/>
<path d="M107.825 237.75C107.825 236.85 107.825 235.975 107.825 235.075C107.825 234.6 108.575 234.6 108.575 235.075C108.575 235.975 108.575 236.85 108.575 237.75C108.575 238.225 107.825 238.225 107.825 237.75Z" fill="#161616"/>
<path d="M108.325 235.325C97.4497 235.325 86.5497 235.325 75.6747 235.325C75.1997 235.325 75.1997 234.575 75.6747 234.575C86.5497 234.575 97.4497 234.575 108.325 234.575C108.8 234.575 108.825 235.325 108.325 235.325Z" fill="#161616"/>
<path d="M75.675 235.325C75.2 235.325 75.2 234.575 75.675 234.575C76.15 234.575 76.15 235.325 75.675 235.325Z" fill="#161616"/>
<path d="M75.7754 234.95C75.7754 235.85 75.7754 236.725 75.7754 237.625C75.7754 238.1 75.0253 238.1 75.0253 237.625C75.0253 236.725 75.0253 235.85 75.0253 234.95C75.0253 234.45 75.7754 234.45 75.7754 234.95Z" fill="#161616"/>
<path d="M78.75 238.55C77.625 238.55 76.5 238.55 75.375 238.55C74.9 238.55 74.9 237.8 75.375 237.8C76.5 237.8 77.625 237.8 78.75 237.8C79.25 237.8 79.25 238.55 78.75 238.55Z" fill="#161616"/>
<path d="M115.301 231.725C115.301 232.7 115.301 233.675 115.301 234.675C115.301 235.15 114.551 235.15 114.551 234.675C114.551 233.7 114.551 232.725 114.551 231.725C114.551 231.225 115.301 231.225 115.301 231.725Z" fill="#161616"/>
<path d="M114.925 235.025C112.25 235.025 109.6 235.025 106.925 235.025C106.45 235.025 106.45 234.275 106.925 234.275C109.6 234.275 112.25 234.275 114.925 234.275C115.4 234.275 115.4 235.025 114.925 235.025Z" fill="#161616"/>
<path d="M114.851 231.65C104.476 229.45 93.7506 229.275 83.3006 231.15C82.8256 231.225 82.6256 230.5 83.1006 230.425C93.6756 228.525 104.526 228.7 115.051 230.925C115.526 231.025 115.326 231.75 114.851 231.65Z" fill="#161616"/>
<path d="M83.4756 231.025C83.4756 232 83.4756 232.975 83.4756 233.975C83.4756 234.45 82.7257 234.45 82.7257 233.975C82.7257 233 82.7257 232.025 82.7257 231.025C82.7257 230.525 83.4756 230.525 83.4756 231.025Z" fill="#161616"/>
<path d="M112.8 231.85C111.025 232.4 109.075 232.175 107.25 232.15C105.2 232.125 103.15 232.075 101.1 232.05C96.9251 231.975 92.7501 231.9 88.5752 231.85C88.1002 231.85 88.1002 231.1 88.5752 231.1C92.6001 231.175 96.6001 231.225 100.625 231.3C102.6 231.325 104.55 231.375 106.525 231.4C108.5 231.425 110.7 231.75 112.625 231.15C113.075 231 113.275 231.725 112.8 231.85Z" fill="#161616"/>
<path d="M109.275 232.125C109.275 232.975 109.275 233.8 109.275 234.65C109.275 235.125 108.526 235.125 108.526 234.65C108.526 233.8 108.526 232.975 108.526 232.125C108.526 231.65 109.275 231.65 109.275 232.125Z" fill="#161616"/>
<path d="M106.725 232.275C106.65 232.875 106.575 233.5 106.5 234.1C106.45 234.575 105.7 234.575 105.75 234.1C105.825 233.5 105.9 232.875 105.975 232.275C106.025 231.8 106.775 231.8 106.725 232.275Z" fill="#161616"/>
<path d="M97.1001 232.15C97.0251 232.9 96.9501 233.65 96.8501 234.4C96.8001 234.875 96.05 234.875 96.1 234.4C96.175 233.65 96.25 232.9 96.35 232.15C96.4 231.675 97.1502 231.65 97.1001 232.15Z" fill="#161616"/>
<path d="M94.125 232.425C94.125 232.975 94.125 233.55 94.125 234.1C94.125 234.575 93.3749 234.575 93.3749 234.1C93.3749 233.55 93.3749 232.975 93.3749 232.425C93.3749 231.925 94.125 231.925 94.125 232.425Z" fill="#161616"/>
<path d="M96.0751 235.35C96.1501 236.175 96.1001 237 95.9751 237.85C95.9001 238.325 95.175 238.125 95.25 237.65C95.375 236.9 95.375 236.125 95.325 235.35C95.3 234.875 96.0501 234.875 96.0751 235.35Z" fill="#161616"/>
<path d="M93.3002 235.35C93.2252 236.025 93.2502 236.7 93.3752 237.35C93.4503 237.825 92.7502 238.025 92.6502 237.55C92.5252 236.825 92.4752 236.075 92.5502 235.35C92.6002 234.875 93.3502 234.875 93.3002 235.35Z" fill="#161616"/>
<path d="M108.7 238.725C108.7 239.75 108.7 240.775 108.7 241.8C108.7 242.275 107.95 242.275 107.95 241.8C107.95 240.775 107.95 239.75 107.95 238.725C107.95 238.25 108.7 238.25 108.7 238.725Z" fill="#161616"/>
<path d="M106.05 238.875C106.05 239.65 105.975 240.425 105.85 241.225C105.775 241.7 105.05 241.5 105.125 241.025C105.225 240.325 105.275 239.6 105.275 238.875C105.3 238.375 106.05 238.375 106.05 238.875Z" fill="#161616"/>
<path d="M102.576 235.375C102.526 236.25 102.451 237.15 102.401 238.025C102.376 238.5 101.625 238.5 101.65 238.025C101.7 237.15 101.776 236.25 101.826 235.375C101.851 234.875 102.601 234.875 102.576 235.375Z" fill="#161616"/>
<path d="M88.3248 235.075C88.2248 235.925 88.1498 236.75 88.0498 237.6C87.9998 238.075 87.2499 238.075 87.2999 237.6C87.3999 236.75 87.4749 235.925 87.5749 235.075C87.6249 234.6 88.3748 234.6 88.3248 235.075Z" fill="#161616"/>
<path d="M81.85 235.225C81.825 235.875 81.8 236.525 81.775 237.2C81.75 237.675 80.9999 237.675 81.0249 237.2C81.0499 236.55 81.0749 235.9 81.0999 235.225C81.1249 234.725 81.875 234.725 81.85 235.225Z" fill="#161616"/>
<path d="M93.2998 238.575C93.2998 239.55 93.2998 240.525 93.2998 241.525C93.2998 242 92.5499 242 92.5499 241.525C92.5499 240.55 92.5499 239.575 92.5499 238.575C92.5499 238.1 93.2998 238.1 93.2998 238.575Z" fill="#161616"/>
<path d="M100.425 238.175C100.425 238.975 100.425 239.775 100.425 240.55C100.425 241.025 99.6749 241.025 99.6749 240.55C99.6749 239.75 99.6749 238.95 99.6749 238.175C99.6749 237.675 100.425 237.675 100.425 238.175Z" fill="#161616"/>
<path d="M115 242.375C115.05 243.35 115 244.3 114.825 245.275C114.75 245.75 114.025 245.55 114.1 245.075C114.25 244.175 114.3 243.275 114.25 242.375C114.225 241.875 114.975 241.875 115 242.375Z" fill="#161616"/>
<path d="M109.825 242.5C109.825 243.35 109.825 244.175 109.825 245.025C109.825 245.5 109.075 245.5 109.075 245.025C109.075 244.175 109.075 243.35 109.075 242.5C109.075 242.025 109.825 242.025 109.825 242.5Z" fill="#161616"/>
<path d="M103.625 242.875C103.5 243.55 103.475 244.2 103.525 244.875C103.575 245.35 102.825 245.35 102.775 244.875C102.7 244.125 102.75 243.4 102.9 242.675C103 242.2 103.725 242.4 103.625 242.875Z" fill="#161616"/>
<path d="M96.9247 242.5C96.9997 243.2 96.9497 243.875 96.8247 244.575C96.7247 245.05 95.9997 244.85 96.0997 244.375C96.2247 243.75 96.2497 243.125 96.1747 242.5C96.1247 242.025 96.8747 242.025 96.9247 242.5Z" fill="#161616"/>
<path d="M90.4756 242.375C90.4756 242.975 90.4756 243.6 90.4756 244.2C90.4756 244.675 89.7256 244.675 89.7256 244.2C89.7256 243.6 89.7256 242.975 89.7256 242.375C89.7256 241.875 90.4756 241.875 90.4756 242.375Z" fill="#161616"/>
<path d="M106.9 246.15C106.85 247.175 106.85 248.2 106.95 249.25C107 249.725 106.25 249.725 106.2 249.25C106.1 248.225 106.075 247.2 106.15 246.15C106.175 245.675 106.925 245.675 106.9 246.15Z" fill="#161616"/>
<path d="M105.251 246.15C105.176 247.225 105.151 248.3 105.201 249.375C105.226 249.85 104.476 249.85 104.451 249.375C104.401 248.3 104.426 247.225 104.501 246.15C104.551 245.675 105.301 245.675 105.251 246.15Z" fill="#161616"/>
<path d="M100.276 245.725C100.326 246.975 100.401 248.25 100.451 249.5C100.476 249.975 99.7255 249.975 99.7005 249.5C99.6505 248.25 99.5755 246.975 99.5255 245.725C99.5005 245.25 100.251 245.25 100.276 245.725Z" fill="#161616"/>
<path d="M99.0005 246C98.8755 247.075 98.8255 248.15 98.9005 249.225C98.9255 249.7 98.1755 249.7 98.1505 249.225C98.0755 248.15 98.1255 247.075 98.2505 246C98.3005 245.525 99.0505 245.525 99.0005 246Z" fill="#161616"/>
<path d="M93.2748 245.875C93.3498 247.05 93.2998 248.175 93.1248 249.325C93.0498 249.8 92.3248 249.6 92.3998 249.125C92.5498 248.05 92.5748 246.95 92.5248 245.85C92.4998 245.4 93.2498 245.4 93.2748 245.875Z" fill="#161616"/>
<path d="M86.8755 245.875C86.7755 246.85 86.6756 247.825 86.5756 248.825C86.5256 249.3 85.7756 249.3 85.8256 248.825C85.9256 247.85 86.0256 246.875 86.1256 245.875C86.1756 245.4 86.9255 245.4 86.8755 245.875Z" fill="#161616"/>
<path d="M84.4749 246.3C84.4249 246.975 84.4248 247.65 84.5248 248.3C84.5998 248.775 83.8748 248.975 83.7998 248.5C83.6748 247.775 83.6498 247.025 83.7248 246.3C83.7748 245.825 84.5249 245.8 84.4749 246.3Z" fill="#161616"/>
<path d="M118.101 250.225C118.101 251.2 118.101 252.175 118.101 253.175C118.101 253.65 117.351 253.65 117.351 253.175C117.351 252.2 117.351 251.225 117.351 250.225C117.351 249.725 118.101 249.725 118.101 250.225Z" fill="#161616"/>
<path d="M116.425 250.075C116.325 251.1 116.25 252.125 116.15 253.15C116.1 253.625 115.35 253.625 115.4 253.15C115.5 252.125 115.575 251.1 115.675 250.075C115.7 249.6 116.45 249.6 116.425 250.075Z" fill="#161616"/>
<path d="M112.575 249.8C112.5 250.7 112.425 251.575 112.35 252.475C112.3 252.95 111.55 252.95 111.6 252.475C111.675 251.575 111.75 250.7 111.825 249.8C111.875 249.325 112.625 249.3 112.575 249.8Z" fill="#161616"/>
<path d="M108.95 249.95C108.825 250.975 108.675 252 108.55 253.025C108.475 253.5 107.725 253.5 107.8 253.025C107.925 252 108.075 250.975 108.2 249.95C108.25 249.475 109 249.475 108.95 249.95Z" fill="#161616"/>
<path d="M96.9248 250.075C96.9248 251.3 96.9248 252.5 96.9248 253.725C96.9248 254.2 96.1748 254.2 96.1748 253.725C96.1748 252.5 96.1748 251.3 96.1748 250.075C96.1748 249.6 96.9248 249.6 96.9248 250.075Z" fill="#161616"/>
<path d="M91.0498 249.8C91.0498 250.825 91.0498 251.85 91.0498 252.875C91.0498 253.35 90.3 253.35 90.3 252.875C90.3 251.85 90.3 250.825 90.3 249.8C90.3 249.325 91.0498 249.3 91.0498 249.8Z" fill="#161616"/>
<path d="M113.6 254.25C113.45 255.15 113.45 256.075 113.625 256.975C113.7 257.45 113 257.65 112.9 257.175C112.7 256.125 112.7 255.1 112.875 254.05C112.975 253.575 113.675 253.775 113.6 254.25Z" fill="#161616"/>
<path d="M111.775 254.55C111.725 255.4 111.65 256.225 111.6 257.075C111.575 257.55 110.825 257.55 110.85 257.075C110.9 256.225 110.975 255.4 111.025 254.55C111.075 254.075 111.825 254.075 111.775 254.55Z" fill="#161616"/>
<path d="M104.625 254.275C104.675 255.3 104.625 256.3 104.45 257.325C104.375 257.8 103.65 257.6 103.725 257.125C103.875 256.175 103.925 255.25 103.875 254.275C103.85 253.8 104.6 253.8 104.625 254.275Z" fill="#161616"/>
<path d="M102.576 254.425C102.526 255.275 102.476 256.1 102.401 256.95C102.376 257.425 101.625 257.425 101.65 256.95C101.7 256.1 101.751 255.275 101.826 254.425C101.851 253.95 102.601 253.95 102.576 254.425Z" fill="#161616"/>
<path d="M100.951 254.55C100.901 255.15 100.851 255.775 100.776 256.375C100.726 256.85 99.9755 256.85 100.025 256.375C100.075 255.775 100.126 255.15 100.201 254.55C100.226 254.075 100.976 254.075 100.951 254.55Z" fill="#161616"/>
<path d="M94.2505 254C94.1755 255.025 94.1005 256.05 94.0255 257.1C94.0005 257.575 93.2505 257.575 93.2755 257.1C93.3505 256.075 93.4255 255.05 93.5005 254C93.5505 253.525 94.3005 253.525 94.2505 254Z" fill="#161616"/>
<path d="M89.5502 254.15C89.5002 255 89.4502 255.825 89.3752 256.675C89.3502 257.15 88.6001 257.15 88.6251 256.675C88.6751 255.825 88.7251 255 88.8001 254.15C88.8251 253.675 89.5752 253.65 89.5502 254.15Z" fill="#161616"/>
<path d="M85.7505 254.175C85.8755 255.05 85.9255 255.925 85.8505 256.8C85.8005 257.275 85.0506 257.275 85.1006 256.8C85.1755 255.975 85.1505 255.175 85.0255 254.375C84.9505 253.9 85.6755 253.7 85.7505 254.175Z" fill="#161616"/>
<path d="M118.375 257.75C118.175 259.15 118.05 260.575 118 262C117.975 262.475 117.225 262.475 117.25 262C117.3 260.5 117.425 259.025 117.65 257.55C117.7 257.075 118.425 257.275 118.375 257.75Z" fill="#161616"/>
<path d="M116.101 257.775C116.226 259.05 116.151 260.275 115.876 261.525C115.776 262 115.051 261.8 115.151 261.325C115.401 260.15 115.476 258.975 115.351 257.775C115.301 257.3 116.051 257.3 116.101 257.775Z" fill="#161616"/>
<path d="M110.275 257.65C110.15 258.85 110.1 260.075 110.1 261.3C110.1 261.775 109.35 261.775 109.35 261.3C109.35 260.075 109.4 258.875 109.525 257.65C109.575 257.175 110.325 257.175 110.275 257.65Z" fill="#161616"/>
<path d="M99.9 257.375C99.7499 258.775 99.7 260.175 99.725 261.575C99.725 262.05 98.975 262.05 98.975 261.575C98.95 260.175 98.9999 258.775 99.1499 257.375C99.1999 256.9 99.95 256.875 99.9 257.375Z" fill="#161616"/>
<path d="M97.9004 258.075C97.9754 259.2 97.8755 260.3 97.6255 261.4C97.5255 261.875 96.8006 261.675 96.9006 261.2C97.1256 260.175 97.2255 259.125 97.1506 258.075C97.1256 257.575 97.8755 257.575 97.9004 258.075Z" fill="#161616"/>
<path d="M95.6501 257.775C95.7251 259.05 95.6751 260.3 95.5251 261.55C95.4751 262.025 94.725 262.025 94.775 261.55C94.9501 260.3 94.9751 259.025 94.9 257.775C94.875 257.3 95.6251 257.3 95.6501 257.775Z" fill="#161616"/>
<path d="M88.7006 257.925C88.6506 259 88.5755 260.075 88.5255 261.15C88.5005 261.625 87.7504 261.625 87.7754 261.15C87.8254 260.075 87.9004 259 87.9504 257.925C87.9754 257.45 88.7256 257.45 88.7006 257.925Z" fill="#161616"/>
<path d="M112.775 262.55C112.775 263.8 112.775 265.075 112.775 266.325C112.775 266.8 112.025 266.8 112.025 266.325C112.025 265.075 112.025 263.8 112.025 262.55C112.025 262.075 112.775 262.075 112.775 262.55Z" fill="#161616"/>
<path d="M107.126 262.4C107.001 263.7 106.976 265.025 107.051 266.325C107.076 266.8 106.326 266.8 106.301 266.325C106.226 265.025 106.251 263.7 106.376 262.4C106.426 261.925 107.176 261.925 107.126 262.4Z" fill="#161616"/>
<path d="M103.65 262.55C103.725 263.725 103.675 264.9 103.55 266.05C103.5 266.525 102.75 266.525 102.8 266.05C102.925 264.875 102.975 263.725 102.9 262.55C102.875 262.075 103.625 262.075 103.65 262.55Z" fill="#161616"/>
<path d="M93.3256 262.55C93.2756 263.775 93.2005 264.975 93.1505 266.2C93.1255 266.675 92.3755 266.675 92.4005 266.2C92.4505 264.975 92.5255 263.775 92.5755 262.55C92.6005 262.075 93.3506 262.075 93.3256 262.55Z" fill="#161616"/>
<path d="M90.8503 263.075C90.6753 264.075 90.7003 265.1 90.8753 266.1C90.9753 266.575 90.2503 266.775 90.1503 266.3C89.9253 265.15 89.9253 264.025 90.1253 262.875C90.2253 262.4 90.9503 262.6 90.8503 263.075Z" fill="#161616"/>
<path d="M290.05 40.4C290.525 43.325 289.225 46.075 287.5 48.35C285.75 50.65 283.375 52.525 280.45 52.95C279.975 53.025 279.775 52.3 280.25 52.225C282.775 51.875 284.875 50.375 286.475 48.45C288.25 46.3 289.8 43.5 289.325 40.625C289.25 40.125 289.975 39.925 290.05 40.4Z" fill="#161616"/>
<path d="M289.4 40.4C288.675 39.85 287.85 39.475 286.95 39.3C286.475 39.2 286.675 38.475 287.15 38.575C288.175 38.775 289.1 39.225 289.925 39.85C290.3 40.175 289.775 40.7 289.4 40.4Z" fill="#161616"/>
<path d="M286.825 39.35C284.6 39.95 282.575 42.55 281.3 44.35C279.975 46.225 278.975 48.3 278.3 50.475C278.15 50.925 277.425 50.75 277.575 50.275C278.35 47.775 279.525 45.4 281.125 43.325C282.475 41.55 284.4 39.225 286.625 38.625C287.1 38.5 287.3 39.225 286.825 39.35Z" fill="#161616"/>
<path d="M280.299 53C279.349 52.525 278.499 51.85 277.824 51C277.524 50.625 278.049 50.1 278.349 50.475C278.974 51.275 279.749 51.9 280.649 52.35C281.124 52.575 280.724 53.2 280.299 53Z" fill="#161616"/>
<path d="M288.225 39.4001C288.3 42.2751 286.7 45.1501 285 47.3751C283.4 49.4751 281.15 51.0751 278.4 51.0251C277.925 51.0251 277.925 50.2751 278.4 50.2751C281.175 50.3251 283.325 48.5251 284.825 46.3501C286.2 44.3251 287.525 41.9251 287.475 39.4001C287.475 38.9251 288.225 38.9251 288.225 39.4001Z" fill="#161616"/>
<path d="M289.025 43.825C288.65 43.375 288.2 43.025 287.675 42.75C287.25 42.55 287.625 41.9 288.05 42.1C288.625 42.375 289.15 42.775 289.55 43.275C289.85 43.65 289.325 44.2 289.025 43.825Z" fill="#161616"/>
<path d="M289.425 42.1251C288.95 41.7751 288.475 41.5251 287.9 41.3751C287.425 41.25 287.625 40.525 288.1 40.65C288.7 40.825 289.275 41.1 289.8 41.4751C290.175 41.7501 289.825 42.4001 289.425 42.1251Z" fill="#161616"/>
<path d="M286.775 48.45C286.25 48.025 285.7 47.6 285.175 47.175C284.8 46.875 285.325 46.35 285.7 46.65C286.225 47.075 286.775 47.5 287.3 47.925C287.7 48.225 287.15 48.75 286.775 48.45Z" fill="#161616"/>
<path d="M285.275 50.1001C284.85 49.7751 284.425 49.4501 284 49.1251C283.85 49.0001 283.75 48.8001 283.875 48.6001C283.975 48.4501 284.225 48.3501 284.4 48.4751C284.825 48.8001 285.25 49.1251 285.675 49.4501C285.825 49.5751 285.925 49.7751 285.8 49.9751C285.7 50.1251 285.45 50.2251 285.275 50.1001Z" fill="#161616"/>
<path d="M282.624 51.975C282.199 51.55 281.749 51.15 281.324 50.725C280.974 50.4 281.499 49.85 281.849 50.2C282.274 50.625 282.724 51.025 283.149 51.45C283.499 51.775 282.974 52.325 282.624 51.975Z" fill="#161616"/>
<path d="M286.7 40.95C286.225 41.375 285.775 41.825 285.3 42.2501C285.325 42.1001 285.35 41.95 285.35 41.8C285.85 42.6001 286.125 43.6251 285.45 44.4251C285.225 44.7001 284.875 44.9251 284.5 45.0001C284.325 45.0251 284.175 45.0001 284 45.0001C283.875 44.9751 283.775 44.9251 283.65 44.9001C282.275 44.6751 282.025 45.2001 282.925 46.4501C283.375 46.6251 283.175 47.3501 282.725 47.1751C281.8 46.8251 281.15 45.8001 281.7 44.8501C281.95 44.4001 282.475 44.0751 282.975 44.0501C283.15 44.0251 283.325 44.0751 283.5 44.0751C284.1 44.4001 284.625 44.1501 285.075 43.3751C285.05 42.9501 284.925 42.5751 284.675 42.2501C284.6 42.1251 284.625 41.9 284.725 41.8C285.2 41.375 285.65 40.925 286.125 40.5C286.525 40.1 287.05 40.625 286.7 40.95Z" fill="#161616"/>
<path d="M282.324 46.9751C281.899 47.4751 281.499 47.9501 281.074 48.4501C280.774 48.8251 280.225 48.2751 280.55 47.9251C280.974 47.4251 281.374 46.9501 281.799 46.4501C282.099 46.0751 282.624 46.6251 282.324 46.9751Z" fill="#161616"/>
<path d="M265.624 35.325C267.824 33.6 269.174 28.7 267.324 26.375C265.149 23.7 260.824 22.55 258.399 25.4C256.374 27.775 256.249 31.5 257.774 34.175C258.699 35.8 260.049 36.575 261.924 36.6C263.549 36.625 265.099 36 266.224 34.8C266.549 34.45 267.074 34.975 266.749 35.325C264.924 37.275 261.649 38 259.224 36.75C256.699 35.425 255.749 31.825 256.049 29.2C256.349 26.55 257.974 23.7 260.724 23C263.374 22.325 267.299 24.225 268.474 26.7C269.199 28.225 268.924 30.05 268.549 31.65C268.174 33.25 267.524 34.775 266.199 35.8C265.799 36.15 265.249 35.625 265.624 35.325Z" fill="#161616"/>
<path d="M263.525 25.925C263.525 25.9 263.55 25.85 263.55 25.825C263.6 25.975 263.675 26.1 263.725 26.25C263.95 26.175 263.975 26.2 263.825 26.4C263.675 26.65 263.575 26.9 263.475 27.175C263.4 27.025 263.3 26.875 263.225 26.725C264.2 27.025 265.425 27.7 265.075 28.925C264.975 29.3 264.725 29.625 264.35 29.75C264.05 29.875 263.875 29.75 263.575 29.725C263.125 29.5 262.65 29.575 262.2 29.975C261.825 31.075 262.125 31.625 263.125 31.7C263.425 31.7 263.575 32.025 263.45 32.275C263.225 32.7 263.05 33.125 262.9 33.575C262.75 34.025 262.025 33.85 262.175 33.375C262.325 32.85 262.525 32.375 262.8 31.9C262.9 32.1 263.025 32.275 263.125 32.475C261.925 32.45 260.775 31.325 261.275 30.075C261.5 29.5 262.025 29.05 262.625 28.925C262.975 28.85 263.275 29 263.6 29C264.225 29 264.4 28.875 264.075 28.275C263.775 27.725 263.6 27.65 263.025 27.475C262.85 27.425 262.7 27.2 262.775 27.025C262.95 26.525 263.125 25.825 263.625 25.575C263.75 25.525 263.9 25.5 264 25.575C264.025 25.6 264.075 25.625 264.1 25.65C264.25 25.75 264.3 25.9 264.275 26.075C264.275 26.1 264.25 26.15 264.25 26.175C264.15 26.575 263.425 26.375 263.525 25.925Z" fill="#161616"/>
<path d="M261.175 23.8C257.375 22.825 255.4 26.925 255.325 30.05C255.3 31.475 255.425 33.075 256.275 34.275C257.2 35.575 258.85 35.975 260.225 36.575C260.675 36.775 260.275 37.425 259.85 37.225C258.2 36.5 256.4 36.025 255.425 34.35C254.5 32.75 254.425 30.625 254.65 28.825C255.05 25.525 257.675 22.125 261.35 23.075C261.825 23.2 261.625 23.925 261.175 23.8Z" fill="#161616"/>
<path d="M257 33.925C256.65 33.85 256.3 33.775 255.95 33.7C255.475 33.6 255.675 32.875 256.15 32.975C256.5 33.05 256.85 33.125 257.2 33.2C257.675 33.3 257.475 34.025 257 33.925Z" fill="#161616"/>
<path d="M256.1 31.0501C255.7 30.9251 255.3 30.8001 254.925 30.6501C254.475 30.5001 254.675 29.7751 255.125 29.9251C255.525 30.0501 255.925 30.1751 256.3 30.3251C256.75 30.4751 256.55 31.2001 256.1 31.0501Z" fill="#161616"/>
<path d="M256.35 28.825C256.1 28.775 255.825 28.725 255.575 28.675C255.375 28.65 255.275 28.4 255.325 28.225C255.375 28.025 255.575 27.925 255.775 27.975C256.025 28.025 256.3 28.075 256.55 28.125C256.75 28.15 256.85 28.4 256.8 28.575C256.75 28.775 256.55 28.85 256.35 28.825Z" fill="#161616"/>
<path d="M257.85 25.675C257.375 25.75 256.925 25.725 256.475 25.575C256.025 25.425 256.225 24.7 256.675 24.85C257 24.95 257.325 25 257.65 24.95C257.85 24.925 258.05 25 258.1 25.2C258.175 25.375 258.05 25.65 257.85 25.675Z" fill="#161616"/>
<path d="M261.999 72.975C265.274 72.025 267.399 68.825 267.449 65.475C267.524 61.65 264.199 58.375 260.399 60.075C257.199 61.5 255.974 65.25 255.874 68.525C255.824 70.1 256.099 72 257.524 72.925C258.999 73.9 260.924 73.525 262.499 73.025C262.949 72.875 263.149 73.6 262.699 73.75C260.149 74.575 256.924 74.625 255.649 71.775C254.424 69.05 255.199 65.15 256.599 62.65C257.999 60.125 260.999 58.175 263.974 59.05C267.074 59.975 268.474 63.35 268.124 66.35C267.749 69.725 265.474 72.775 262.174 73.725C261.724 73.85 261.524 73.125 261.999 72.975Z" fill="#161616"/>
<path d="M263.65 61.9001C263.025 62.575 262.575 63.275 262.25 64.125C262.1 63.975 261.95 63.825 261.8 63.675C263 63.425 263.625 64.45 263.55 65.55C263.525 65.925 263.45 66.375 263.075 66.575C262.8 66.725 262.4 66.625 262.125 66.625C261.825 66.6 261.55 66.575 261.25 66.6C259.925 66.7 259.75 67.275 260.7 68.325C260.95 68.35 261.2 68.625 261.025 68.9C260.575 69.6 260.15 70.325 259.8 71.075C259.6 71.5 258.95 71.125 259.15 70.7C259.525 69.95 259.925 69.225 260.375 68.525C260.475 68.725 260.6 68.9 260.7 69.1C259.65 68.975 258.775 68 259.325 66.925C259.575 66.45 260.05 66.15 260.525 66C260.9 65.875 261.275 65.875 261.65 65.875C261.95 65.9 262.225 65.925 262.525 65.95C263 65.375 262.825 64.875 261.975 64.45C261.725 64.5 261.4 64.275 261.525 64C261.9 63.025 262.4 62.2 263.125 61.4501C263.45 61.0251 263.975 61.5501 263.65 61.9001Z" fill="#161616"/>
<path d="M266.25 60.2251C269.475 63.0001 270.475 67.7751 268.05 71.4001C265.7 74.9251 260.975 75.9501 257.4 73.6501C257 73.4001 257.375 72.7501 257.775 73.0001C261.125 75.1501 265.55 74.1251 267.6 70.7001C269.6 67.3501 268.575 63.2251 265.7 60.7501C265.35 60.4501 265.875 59.9251 266.25 60.2251Z" fill="#161616"/>
<path opacity="0.14" d="M264.249 59.9C264.699 60.9 265.274 62.6 265.199 64.75C265.174 65.4 264.999 69.025 262.374 71.475C260.574 73.15 258.674 73.25 258.749 73.825C258.849 74.45 261.199 74.95 263.324 74.425C265.649 73.85 267.724 72 268.624 69.575C268.849 68.95 269.749 66.45 268.499 63.725C267.224 61 264.724 60.05 264.249 59.9Z" fill="#3F3F3F"/>
<path opacity="0.15" d="M287.824 39.3251C287.724 40.2751 287.474 41.7501 286.824 43.4251C286.174 45.0251 285.049 47.9001 282.124 49.5501C281.399 49.9501 280.024 50.6001 278.024 50.7001C278.199 51.0501 278.624 51.7251 279.424 52.2501C279.949 52.5751 280.424 52.7251 280.774 52.8001C281.799 52.5001 283.349 51.9001 284.949 50.7251C285.974 49.9501 288.349 48.1251 289.374 44.8001C289.949 42.9251 289.899 41.2251 289.699 39.9501C289.099 39.7251 288.474 39.5251 287.824 39.3251Z" fill="#3F3F3F"/>
<path opacity="0.14" d="M260.75 23.25C260 23.65 258.7 24.5 257.8 26.075C256.525 28.25 256.8 30.4 256.925 31.45C257.05 32.4 257.225 33.8 258.275 35.15C258.825 35.875 259.45 36.35 259.9 36.625C259.35 36.6 257.95 36.425 256.8 35.35C255.9 34.5 255.625 33.525 255.325 32.45C254.85 30.75 255 29.375 255.05 28.9C255.25 27.45 255.775 26.425 255.925 26.15C256.4 25.25 257.025 24.1 258.35 23.525C259.325 23.1 260.25 23.175 260.75 23.25Z" fill="#3F3F3F"/>
<path d="M239.575 227.475C240.3 233.025 241.025 238.575 241.75 244.15C255.675 247.2 262.575 249.3 262.425 250.475C262.225 251.9 251.8 251.95 231.1 250.65C230.2 243.2 229.325 235.75 228.425 228.325C232.15 228.05 235.85 227.75 239.575 227.475Z" fill="#161616"/>
<path d="M209.325 131.15C209.075 133.575 208.825 137.6 209.275 142.55C209.95 149.95 211.85 155.325 212.5 157.25C217.825 172.85 220.4 193.325 221.6 203.025C222.45 209.9 223.4 220.175 223.175 232.975C224.575 233.75 229.225 236.125 235.325 235.15C240.975 234.25 244.5 231.075 245.7 229.9C246.325 210.675 244.7 195.275 243 184.5C241.2 172.95 238.625 161.25 235.675 149.45C233.925 142.4 232.175 135.375 230.4 128.325C223.4 129.25 216.35 130.2 209.325 131.15Z" fill="#4C4C4C"/>
<path opacity="0.13" d="M209.576 138.675C210.401 141.95 211.726 146.85 213.526 152.7C219.476 171.85 224.826 181.8 228.851 192.45C232.451 201.95 236.451 215.9 237.601 234.5C236.276 234.925 234.401 235.35 232.151 235.325C228.026 235.275 224.926 233.75 223.401 232.85C223.226 220.55 222.426 210.225 221.576 202.35C220.901 196 220.226 189.8 218.601 181.575C216.651 171.675 215.676 166.725 213.651 160.95C212.276 157.1 210.626 153.175 209.851 147.1C209.476 143.6 209.501 140.675 209.576 138.675Z" fill="#3F3F3F"/>
<path opacity="0.19" d="M219.301 185.025C221.126 189.5 222.876 194.175 224.576 199.05C229.026 211.825 232.351 224 234.801 235.325C233.476 235.45 231.801 235.475 229.851 235.15C226.951 234.675 224.701 233.65 223.251 232.85C223.376 227.875 223.326 222.65 223.076 217.175C222.576 205.35 221.151 194.575 219.301 185.025Z" fill="#3F3F3F"/>
<path d="M193.751 226.325C192.476 230.5 191.201 234.65 189.926 238.825C199.901 245.875 204.576 250 203.926 251.15C203.101 252.625 193.826 249.4 176.101 241.475C178.651 234.375 181.201 227.25 183.776 220.15C187.076 222.2 190.426 224.25 193.751 226.325Z" fill="#161616"/>
<path d="M199.276 125.9C198.226 128.1 196.601 131.8 195.326 136.6C193.426 143.775 193.401 149.475 193.351 151.5C193.051 168 188.476 188.125 186.326 197.625C184.801 204.4 182.176 214.35 177.601 226.325C178.651 227.525 182.226 231.325 188.301 232.525C193.926 233.625 198.326 231.825 199.826 231.125C206.951 213.25 210.676 198.225 212.776 187.525C215.026 176.05 216.576 164.175 217.851 152.075C218.601 144.85 219.351 137.625 220.101 130.425C213.151 128.9 206.201 127.4 199.276 125.9Z" fill="#4C4C4C"/>
<path opacity="0.17" d="M211.9 128.775C208.525 142.9 205.175 157.025 201.85 171.15C197.05 191.525 192.325 211.925 187.675 232.325C186.55 232.1 185.175 231.7 183.725 231C180.8 229.6 178.875 227.675 177.8 226.375C179.525 221.8 181.625 215.75 183.725 208.575C187.8 194.7 189.725 183.7 190.475 179.05C191.85 170.6 192.675 165.525 192.95 158.275C193.125 153.375 192.9 150.95 193.6 145.9C193.9 143.75 194.775 138.375 197.075 131.725C197.925 129.275 198.75 127.25 199.375 125.8C203.525 126.8 207.7 127.8 211.9 128.775Z" fill="#3F3F3F"/>
<path opacity="0.15" d="M193.926 153.2C194.001 171.875 192.526 192.7 188.326 215.05C187.276 220.625 186.126 226 184.851 231.2C184.101 230.975 183.251 230.675 182.376 230.2C180.151 229.05 178.651 227.525 177.751 226.4C180.326 219.175 182.801 211.425 185.001 203.15C189.876 184.95 192.551 168.075 193.926 153.2Z" fill="#3F3F3F"/>
<path d="M227.475 73.6748C230.95 76.4748 232.475 79.9498 233.375 82.0248C236.2 88.4998 235.6 94.4248 235.25 97.5748C234.35 105.65 231.575 106.975 230.2 114.575C229.475 118.65 229.2 124.025 230.775 130.725C229.7 131.675 221.425 138.75 210.45 136.625C203.975 135.375 199.825 131.55 198.2 129.85C197.625 113.725 198.55 100.425 199.65 90.6498C200.925 79.2748 202.25 74.3998 206.425 71.5748C212.275 67.6248 221.725 69.0498 227.475 73.6748Z" fill="white" stroke="black" stroke-width="2" stroke-miterlimit="10"/>
<path opacity="0.14" d="M215.675 68.9249C214.1 72.0749 212.175 76.4749 210.575 81.9499C206.525 95.8249 207.35 107.3 207.775 111.3C208.925 122.55 212.4 131.35 215.2 137.025C213.45 137.075 211.175 136.925 208.6 136.2C203.375 134.725 199.975 131.625 198.375 129.925C198.15 121.3 198.225 114.05 198.375 108.65C198.375 108.65 198.575 100.725 200.025 87.6999C201.025 78.6499 201.725 75.6999 204.15 73.1749C207.7 69.5249 212.85 68.9749 215.675 68.9249Z" fill="#3F3F3F"/>
<path opacity="0.17" d="M201.325 80.7999C201.75 80.8249 201.225 87.1999 201.825 99.0999C202.6 114.5 204.375 120.825 204.95 122.85C206.65 128.65 208.825 133.15 210.4 136.05C209.05 135.95 207.25 135.675 205.3 134.9C201.6 133.425 199.3 130.975 198.2 129.625C198.05 124.65 197.975 117.35 198.375 108.525C199.025 94.2249 200.725 80.7499 201.325 80.7999Z" fill="#3F3F3F"/>
<path d="M232.6 91.3001C234.475 93.1251 235.45 95.0751 235.925 96.2251C237.05 98.9251 237.075 101.225 237.075 102.45C237.075 105.75 236.175 108.125 235.2 110.775C234.5 112.625 233.375 115.175 231.5 118C231.1 118.125 230.5 118.275 229.775 118.3C229.075 118.3 228.525 118.2 228.1 118.075C228.35 116.5 228.575 114.95 228.825 113.375C228.4 113.475 227.75 113.6 226.95 113.725C223.175 114.3 220.1 113.9 218.275 113.65C217.425 113.525 216.225 113.35 214.8 113C214.925 113.95 215.05 114.875 215.15 115.825C213.775 116.6 213.175 116.3 212.975 116.175C212.575 115.925 212.525 115.475 212.025 113.925C211.8 113.2 211.575 112.625 211.45 112.25C210.9 112.025 210.35 111.825 209.775 111.6C209.925 112.125 210.075 112.65 210.2 113.2C209.775 113.3 209.075 113.425 208.25 113.275C207.775 113.2 207.4 113.05 207.1 112.925C206.775 111.75 206.425 110.575 206.1 109.375C205.15 108.35 204.25 107.875 203.575 107.65C202.825 107.375 202.575 107.475 201.975 107.15C200.75 106.45 200.325 105.125 200.25 104.825C200.15 104.5 199.825 103.275 200.4 102.075C200.725 101.4 200.95 101.5 201.625 100.475C202.2 99.6251 202.175 99.3251 202.7 98.3751C202.975 97.9251 203.4 97.2501 204.075 96.5001C203.6 95.1001 203.175 94.4501 202.85 94.1251C202.775 94.0501 202.55 93.8251 202.55 93.5501C202.55 93.3001 202.775 93.0751 203.125 92.8251C203.975 92.2251 204.5 91.8751 205.225 91.9501C206.15 92.0751 206.7 92.8001 206.825 92.9501C207.2 92.3251 207.75 91.4501 208.55 90.5751C211.075 87.8001 214.1 86.7501 215.425 86.3751C220.45 84.9751 224.75 86.8251 227.35 87.9751C228.775 88.5751 230.7 89.4251 232.6 91.3001Z" fill="white"/>
<path d="M235.051 110.375C236.551 106.325 237.151 101.85 235.901 97.65C234.701 93.675 232.026 90.525 228.251 88.8C224.451 87.05 219.851 85.775 215.726 86.825C212.126 87.75 209.026 90.1 207.201 93.35C206.976 93.775 206.326 93.4 206.551 92.975C209.626 87.475 215.951 84.775 222.051 86.025C225.501 86.725 229.251 87.95 231.976 90.225C234.451 92.3 236.126 95.275 236.876 98.4C237.826 102.475 237.226 106.7 235.776 110.575C235.601 111 234.876 110.825 235.051 110.375Z" fill="black"/>
<path d="M213.551 100.725C213.651 99.7 213.601 97.125 212.226 96.925C211.376 96.8 210.826 97.9 209.876 97.825C209.401 97.775 209.401 97.0249 209.876 97.0749C210.526 97.1499 210.976 96.4749 211.551 96.2249C212.101 95.9999 212.626 96.0999 213.076 96.4749C214.226 97.425 214.401 99.35 214.276 100.725C214.251 101.2 213.501 101.2 213.551 100.725Z" fill="black"/>
<path d="M210.425 97.2C209 96.6 208.075 98.15 209.425 98.9C209.875 99.15 210.425 99.3 210.925 99.475C211.925 99.825 212.95 100.175 213.95 100.525C214.4 100.675 214.2 101.4 213.75 101.25C212.45 100.8 211.125 100.375 209.825 99.875C209.15 99.625 208.35 99.275 208.05 98.55C207.325 96.775 209.45 95.975 210.775 96.55C211.225 96.725 210.85 97.375 210.425 97.2Z" fill="black"/>
<path d="M206.176 92.1001C206.851 92.5001 207.626 93.1251 207.426 94.0251C207.351 94.4001 207.101 94.6751 206.751 94.8501C206.226 95.1251 205.701 95.2751 205.201 95.6501C204.826 95.9501 204.301 95.4251 204.676 95.1251C205.126 94.7751 205.601 94.5251 206.101 94.3001C206.476 94.1251 206.801 93.9501 206.601 93.4751C206.451 93.1251 206.076 92.9251 205.776 92.7501C205.376 92.5001 205.751 91.85 206.176 92.1001Z" fill="black"/>
<path d="M206.701 94.625C206.901 95.9 206.051 97.375 204.576 97.075C203.976 96.95 203.601 96.5 203.351 95.975C203.076 95.35 203.026 94.475 202.401 94.1C202.001 93.85 202.376 93.2 202.776 93.45C203.426 93.85 203.626 94.5 203.851 95.175C204.001 95.625 204.176 96.175 204.676 96.325C205.576 96.6 206.101 95.575 205.976 94.825C205.926 94.35 206.651 94.125 206.701 94.625Z" fill="black"/>
<path d="M206.151 93C205.076 91.825 203.626 93.025 202.851 93.875C202.526 94.225 202.001 93.7 202.326 93.35C203.401 92.175 205.326 90.975 206.676 92.475C207.001 92.825 206.476 93.35 206.151 93Z" fill="black"/>
<path d="M207.351 101.1C207.401 101.1 207.401 101.1 207.351 101.1C207.401 101.075 207.401 101.075 207.351 101.1C207.376 101.1 207.401 101.075 207.401 101.05C207.376 101.075 207.376 101.075 207.401 101.05C207.426 101.025 207.426 101 207.401 101.025C207.401 101.05 207.401 101.05 207.401 101C207.401 100.95 207.401 100.95 207.401 101C207.401 100.975 207.401 100.95 207.401 100.925C207.401 100.975 207.401 100.975 207.401 100.925C207.426 100.975 207.426 100.975 207.401 100.925C207.451 100.95 207.351 100.925 207.426 100.95C207.376 100.925 207.376 100.925 207.426 100.95C207.376 100.95 207.376 100.95 207.426 100.95C207.401 100.95 207.376 100.95 207.351 100.95C207.376 100.95 207.401 100.95 207.376 100.95C207.351 100.95 207.351 100.95 207.326 100.975C207.351 100.95 207.351 100.975 207.326 100.975C207.301 101 207.276 101 207.326 100.975C207.301 101 207.301 101.025 207.326 101C207.326 100.975 207.326 100.975 207.326 101.025C207.326 101 207.326 100.975 207.326 100.975C207.351 101.025 207.326 101.025 207.326 100.975C207.351 101 207.351 101.025 207.326 100.975C207.351 101 207.351 101 207.376 101.025C207.326 100.975 207.426 101.05 207.376 101.025C207.401 101.025 207.426 101.05 207.451 101.05C207.401 101.05 207.401 101.05 207.451 101.05C207.426 101.075 207.426 101.05 207.451 101.05C207.851 100.8 208.251 101.45 207.826 101.7C207.426 101.95 206.901 101.775 206.676 101.375C206.426 100.925 206.701 100.4 207.176 100.275C207.601 100.15 208.076 100.375 208.201 100.825C208.301 101.25 208.051 101.725 207.601 101.85C207.076 101.95 206.876 101.225 207.351 101.1Z" fill="black"/>
<path d="M203.876 98.95C203.826 98.975 203.776 99 203.751 99.05C203.776 99 203.726 99.125 203.751 99.075C203.751 99.025 203.751 99.175 203.751 99.1C203.751 99.025 203.776 99.2 203.751 99.1C203.726 99.025 203.801 99.175 203.751 99.1C203.726 99.05 203.801 99.15 203.776 99.125C203.826 99.175 203.876 99.2 203.951 99.175C204.001 99.15 204.026 99.125 204.051 99.1C204.076 99.075 204.076 99.075 204.051 99.1C204.051 99.075 204.076 99.075 204.076 99.05C204.051 99.125 204.076 98.95 204.076 99.025C204.076 99.1 204.051 98.95 204.076 99.025C204.101 99.1 204.051 98.975 204.076 99C204.101 99.05 204.076 99 204.051 98.975C204.076 99 204.076 99 204.051 98.975C204.026 98.95 204.001 98.95 203.976 98.95C204.026 98.975 203.901 98.95 203.876 98.95C204.076 98.9 204.301 99 204.326 99.2C204.376 99.4 204.276 99.625 204.076 99.65C203.751 99.725 203.451 99.525 203.351 99.2C203.276 98.875 203.401 98.525 203.751 98.425C204.076 98.325 204.401 98.575 204.476 98.875C204.576 99.2 204.401 99.525 204.076 99.65C203.901 99.7 203.651 99.575 203.626 99.4C203.576 99.2 203.676 99.025 203.876 98.95Z" fill="black"/>
<path d="M204.276 96.675C203.451 97.625 202.926 98.75 202.701 100C202.601 100.475 201.876 100.275 201.976 99.8C202.226 98.425 202.851 97.2 203.751 96.15C204.076 95.775 204.601 96.325 204.276 96.675Z" fill="black"/>
<path d="M202.451 100.475C202.126 100.775 201.726 101 201.276 101.1C200.801 101.2 200.601 100.475 201.076 100.375C201.401 100.3 201.676 100.175 201.926 99.95C202.276 99.6 202.801 100.125 202.451 100.475Z" fill="black"/>
<path d="M201.2 100.6C202.975 100.775 204.5 101.8 205.125 103.525C205.65 105 205.45 107.175 203.7 107.7C202.175 108.15 200.775 107.05 200.225 105.675C199.675 104.3 199.5 101.575 201 100.7C201.425 100.45 201.8 101.1 201.375 101.35C200.35 101.95 200.55 104.225 200.85 105.175C201.2 106.3 202.225 107.375 203.5 106.95C204.975 106.45 204.8 104.45 204.225 103.325C203.625 102.175 202.475 101.525 201.225 101.375C200.725 101.3 200.7 100.55 201.2 100.6Z" fill="black"/>
<path d="M203.051 104.65C203.051 104.6 203.051 104.55 203.051 104.5C203.051 104.3 203.226 104.125 203.426 104.125C203.626 104.125 203.801 104.3 203.801 104.5C203.801 104.55 203.801 104.6 203.801 104.65C203.801 104.85 203.626 105.025 203.426 105.025C203.226 105.025 203.051 104.875 203.051 104.65Z" fill="black"/>
<path d="M201.051 103.275C201.101 103.225 201.151 103.175 201.176 103.125C201.301 102.975 201.576 102.975 201.701 103.125C201.851 103.275 201.851 103.5 201.701 103.65C201.651 103.7 201.601 103.75 201.576 103.8C201.451 103.95 201.176 103.95 201.051 103.8C200.901 103.65 200.926 103.425 201.051 103.275Z" fill="black"/>
<path d="M209.501 104.125C209.026 104.65 208.176 104.525 207.776 103.975C207.651 103.8 207.751 103.55 207.901 103.45C208.101 103.35 208.301 103.425 208.426 103.575C208.551 103.75 208.851 103.7 208.976 103.55C209.276 103.225 209.826 103.775 209.501 104.125Z" fill="black"/>
<path d="M208.676 104.2C208.126 105.8 206.276 106.575 204.751 105.85C204.326 105.65 204.701 105 205.126 105.2C206.201 105.7 207.551 105.1 207.951 104C208.126 103.55 208.851 103.725 208.676 104.2Z" fill="black"/>
<path d="M203.801 107.1C204.651 107.775 205.526 108.45 206.376 109.125C206.751 109.425 206.226 109.95 205.851 109.65C205.001 108.975 204.126 108.3 203.276 107.625C202.876 107.35 203.426 106.825 203.801 107.1Z" fill="black"/>
<path d="M206.501 109.45C206.951 110.6 207.301 111.775 207.551 112.975C207.651 113.45 206.926 113.65 206.826 113.175C206.576 111.975 206.226 110.8 205.776 109.65C205.601 109.2 206.326 109 206.501 109.45Z" fill="black"/>
<path d="M235.976 109.7C235.376 112.2 234.376 114.6 232.901 116.725C232.476 117.35 231.976 118.225 231.251 118.525C230.326 118.925 229.051 118.6 228.101 118.45C227.951 118.425 227.801 118.225 227.826 118.1C227.976 116.525 228.226 114.975 228.551 113.425C228.651 112.95 229.376 113.15 229.276 113.625C228.951 115.1 228.726 116.6 228.576 118.1C228.476 117.975 228.401 117.85 228.301 117.75C229.376 117.925 230.601 118.2 231.476 117.4C232.151 116.775 232.726 115.7 233.176 114.9C234.151 113.2 234.826 111.4 235.276 109.5C235.376 109.025 236.101 109.225 235.976 109.7Z" fill="black"/>
<path d="M228.625 113.725C226.25 114.25 223.825 114.5 221.4 114.45C219.35 114.4 216.65 114.35 214.85 113.3C214.425 113.05 214.8 112.4 215.225 112.65C217.05 113.7 219.825 113.675 221.875 113.7C224.075 113.725 226.275 113.475 228.45 113C228.9 112.9 229.1 113.625 228.625 113.725Z" fill="black"/>
<path d="M215.101 111.825C215.301 112.975 215.551 114.175 215.576 115.35C215.601 116.1 215.201 116.5 214.451 116.525C213.826 116.55 212.576 116.5 212.201 115.95C211.901 115.475 211.826 114.65 211.676 114.125C211.501 113.525 211.301 112.9 211.126 112.3C210.976 111.825 211.701 111.65 211.851 112.1C212.226 113.325 212.576 114.525 212.926 115.75C212.851 115.675 212.751 115.575 212.676 115.5C213.101 115.625 213.601 115.8 214.051 115.775C214.801 115.75 214.851 115.35 214.776 114.725C214.676 113.825 214.551 112.925 214.376 112.025C214.301 111.55 215.026 111.35 215.101 111.825Z" fill="black"/>
<path d="M211.601 112.6C210.351 112.275 209.251 111.625 208.351 110.675C208.026 110.325 208.551 109.8 208.876 110.15C209.676 111 210.651 111.575 211.801 111.875C212.251 112 212.076 112.725 211.601 112.6Z" fill="black"/>
<path d="M210.376 111.575C210.601 112.2 210.701 112.825 210.676 113.475C210.676 113.675 210.501 113.85 210.301 113.85C209.476 113.85 208.651 113.75 207.826 113.6C207.351 113.5 207.551 112.8 208.026 112.875C208.776 113.025 209.526 113.075 210.301 113.1C210.176 113.225 210.051 113.35 209.926 113.475C209.951 112.875 209.876 112.325 209.676 111.775C209.476 111.325 210.201 111.125 210.376 111.575Z" fill="black"/>
<path d="M228.976 91.725C225.726 90.45 222.326 89.75 218.851 89.6C218.376 89.575 218.376 88.825 218.851 88.85C222.401 88.975 225.876 89.7 229.176 91C229.626 91.175 229.426 91.9 228.976 91.725Z" fill="black"/>
<path d="M228.801 90.8251C228.826 90.8001 228.826 90.8001 228.851 90.7751C228.826 90.9251 228.801 91.0751 228.801 91.2251C228.501 90.5251 226.951 90.3751 226.301 90.2501C225.451 90.0751 224.601 89.9251 223.751 89.8001C221.851 89.5001 219.926 89.3001 218.026 89.1751C217.551 89.1501 217.551 88.4 218.026 88.425C220.251 88.5751 222.451 88.825 224.651 89.2C225.801 89.4 228.901 89.5751 229.451 90.8501C229.526 91.0001 229.526 91.1751 229.401 91.3001C229.376 91.3251 229.376 91.3251 229.351 91.3501C229.001 91.6751 228.451 91.1501 228.801 90.8251Z" fill="black"/>
<path opacity="0.12" d="M207.401 92.2C207.501 94.925 208.351 96.35 209.151 97.125C209.576 97.55 209.751 97.55 211.376 98.875C213.676 100.725 213.826 101.125 213.901 101.4C214.176 102.725 212.751 103.325 212.651 104.875C212.526 106.65 214.251 108.15 215.176 108.925C219.801 112.9 229.201 112.075 230.751 111.925C230.401 114.025 230.051 116.125 229.676 118.2C229.226 118.325 228.601 118.425 228.326 118.1C228.051 117.8 228.226 117.3 228.426 116.275C228.701 114.825 228.826 114.075 228.626 113.75C228.076 112.9 225.726 113.7 223.701 114.05C221.776 114.375 218.951 114.45 215.276 113.275C215.201 114.125 215.151 114.95 215.076 115.8C214.226 115.8 213.401 115.8 212.551 115.8C212.251 114.7 211.976 113.6 211.676 112.5C211.101 112.175 210.526 111.85 209.926 111.525C210.051 112.175 210.176 112.825 210.301 113.45C209.401 113.425 208.501 113.375 207.601 113.35C207.576 112.625 207.376 111.125 206.351 109.675C205.976 109.15 205.301 108.225 204.126 107.75C203.376 107.45 203.151 107.625 202.376 107.275C202.026 107.125 201.076 106.6 200.451 105.525C199.851 104.5 199.501 102.85 200.251 101.75C200.651 101.175 200.901 101.4 201.601 100.675C202.376 99.875 202.201 99.45 203.151 97.675C203.801 96.45 204.026 96.4 204.026 95.925C203.976 94.725 202.451 94.35 202.576 93.5C202.701 92.475 205.051 92.075 205.176 92.05C206.101 91.95 206.876 92.075 207.401 92.2Z" fill="#3F3F3F"/>
<path opacity="0.14" d="M208.076 98.0001C208.176 98.5501 208.426 99.4751 209.151 100.325C209.551 100.8 210.051 101.375 210.901 101.475C211.826 101.6 212.551 101.05 212.726 100.9C211.151 99.9251 209.626 98.9751 208.076 98.0001Z" fill="#3F3F3F"/>
<path d="M212.325 111.475C212.85 111.775 213.25 112.425 213.2 112.975C213.075 114.15 210.8 114.7 210.875 114.95C210.95 115.175 212.575 114.475 214.3 115.1C214.575 115.2 215.475 115.525 215.55 116.1C215.6 116.55 215.1 116.675 214.975 117.4C214.875 117.9 215.1 117.95 215.125 118.85C215.15 119.45 215.15 119.825 214.925 120.2C214.625 120.675 214.275 120.575 214 121.025C213.675 121.55 214.1 121.875 213.85 122.525C213.6 123.2 212.875 123.625 212.3 123.775C211.65 123.95 211.3 123.725 211.1 123.975C210.8 124.35 211.5 125 211.25 125.625C211.025 126.175 210.2 126.325 209.9 126.35C207.825 126.5 206 121.75 205.9 121.475C205.125 121.475 204.2 121.4 203.2 121.15C200.875 120.55 199.4 119.225 197.6 117.625C196.675 116.8 195.525 115.75 194.325 114.1C192.7 111.85 191.975 109.85 191.325 108.075C190.775 106.525 189.975 104.175 189.725 101.025C189.5 97.7751 190 95.3501 190.45 93.2251C191.575 87.9751 193.6 84.4251 194.075 83.6251C194.15 83.5001 195.65 81.5501 198.65 77.6501C200.175 75.6751 201.55 73.9501 203.175 74.0251C203.35 74.0251 203.675 74.0501 204.05 74.2751C205.225 74.9501 205.325 76.9001 205.25 78.7001C204.975 84.9001 202.8 89.4001 202.8 89.4001C201.025 93.0501 199.6 94.0001 198.95 97.4001C198.6 99.1751 198.6 100.825 198.625 101.15C198.625 102.425 198.675 104.125 199.35 106.175C199.725 107.25 200.55 109.675 202.875 111.625C204.275 112.8 205.275 113.65 206.55 113.5C208.325 113.3 209.8 111.3 211.525 111.275C211.725 111.275 212.025 111.3 212.325 111.475Z" fill="white"/>
<path d="M204.126 74.05C197.826 77.95 193.126 84.225 191.201 91.4C189.051 99.4249 190.501 107.725 195.301 114.5C197.676 117.85 201.151 121.1 205.526 120.925C206.001 120.9 206.001 121.65 205.526 121.675C201.801 121.825 198.676 119.65 196.301 116.975C193.601 113.925 191.501 110.15 190.401 106.225C188.151 98.1499 189.901 89.1749 194.551 82.25C196.951 78.7 200.076 75.675 203.726 73.425C204.176 73.15 204.551 73.8 204.126 74.05Z" fill="black"/>
<path d="M199.575 105.85C200.925 109.075 203.05 112.45 206.775 113.075C207.25 113.15 207.05 113.875 206.575 113.8C202.6 113.125 200.325 109.5 198.875 106.05C198.675 105.625 199.4 105.425 199.575 105.85Z" fill="black"/>
<path d="M206.625 113.025C208.325 112.725 211.275 109.65 213 111.35C213.625 111.975 213.55 113.025 213.175 113.75C212.625 114.825 211.425 115.2 210.35 115.475C209.875 115.6 209.675 114.875 210.15 114.75C211.1 114.525 212.25 114.225 212.6 113.175C212.8 112.8 212.725 112.45 212.4 112.175C212.25 111.65 211.9 111.475 211.35 111.7C210.95 111.775 210.575 111.95 210.225 112.125C209.075 112.7 208.125 113.525 206.825 113.75C206.35 113.85 206.15 113.125 206.625 113.025Z" fill="black"/>
<path d="M205.926 121.075C206.751 122.275 207.551 123.5 208.376 124.7C208.576 124.975 208.751 125.25 209.001 125.5C209.226 125.775 209.526 125.975 209.876 126.1C210.226 125.575 210.551 125.05 210.901 124.525C210.751 124.075 209.701 123.475 209.351 123.15C208.976 122.825 209.526 122.3 209.876 122.625C210.601 123.275 211.926 124 211.976 125.1C212.001 125.95 211.351 126.75 210.526 126.875C209.501 127.025 208.676 126.325 208.101 125.575C207.076 124.275 206.226 122.825 205.276 121.45C205.001 121.05 205.651 120.675 205.926 121.075Z" fill="black"/>
<path d="M210.325 114.725C211.775 115.15 213.25 114.8 214.7 115.05C215.45 115.175 216.1 115.575 216.025 116.425C215.775 118.825 212.475 118.45 210.9 118.1C210.425 118 210.625 117.275 211.1 117.375C211.825 117.55 212.575 117.7 213.325 117.65C214.275 117.575 216.325 116.375 214.35 115.75C213.675 115.55 212.775 115.725 212.1 115.7C211.425 115.7 210.775 115.625 210.125 115.425C209.65 115.3 209.85 114.575 210.325 114.725Z" fill="black"/>
<path d="M214.751 117.5C215.851 118.275 215.951 120 214.901 120.875C213.651 121.9 211.751 121.25 210.476 120.625C210.051 120.4 210.426 119.75 210.851 119.975C211.676 120.4 212.776 120.825 213.726 120.6C214.801 120.375 215.376 118.85 214.351 118.15C213.976 117.875 214.351 117.225 214.751 117.5Z" fill="black"/>
<path d="M214.3 121.075C214.625 122.05 214.2 123.2 213.35 123.8C212.275 124.55 210.925 124.175 209.95 123.425C209.575 123.125 209.95 122.475 210.325 122.775C211.025 123.3 211.975 123.75 212.8 123.25C213.475 122.85 213.8 122 213.55 121.275C213.425 120.825 214.15 120.625 214.3 121.075Z" fill="black"/>
<path d="M203.725 73.025C206.925 77.575 205.825 83.4 203.775 88.15C201.2 94.125 196.85 100.125 198.175 106.975C198.275 107.45 197.55 107.65 197.45 107.175C196.3 101.2 199.275 95.75 201.825 90.575C204.4 85.35 206.825 78.725 203.075 73.4C202.8 73 203.45 72.625 203.725 73.025Z" fill="black"/>
<path d="M198.875 98.7499C199 101.425 199.325 104.075 199.85 106.7C199.95 107.175 199.225 107.375 199.125 106.9C198.6 104.2 198.25 101.5 198.125 98.7499C198.1 98.2749 198.85 98.2749 198.875 98.7499Z" fill="black"/>
<path opacity="0.12" d="M199.35 77.2749C198.1 79.6999 196.6 83.2249 195.65 87.6749C194.4 93.5749 194.75 98.2999 194.975 100.425C195.5 105.325 195.95 109.55 199.125 113.725C200.45 115.5 203.15 119.05 207.625 120.225C210.675 121 213.75 120.475 214.125 121.675C214.3 122.3 213.725 123.1 213.125 123.475C212.325 123.95 211.25 123.875 210.325 123.25C211.225 123.875 211.65 124.75 211.45 125.375C211.275 125.925 210.65 126.225 210.225 126.275C208.175 126.55 206.125 121.825 205.975 121.475C205.175 121.5 203.975 121.45 202.625 121.025C199.825 120.175 198.125 118.3 196.25 116.225C195.475 115.375 194.075 113.775 192.775 111.425C189.45 105.35 189.725 99.2499 189.875 96.9999C190.3 89.5999 193.425 84.4999 194.25 83.2499C195.95 80.4499 197.9 78.5249 199.35 77.2749Z" fill="#3F3F3F"/>
<path opacity="0.11" d="M189.726 98.625C190.626 101.425 192.026 104.8 194.201 108.35C197.976 114.525 202.501 118.575 205.726 121C204.901 121.05 203.651 121.025 202.251 120.675C197.501 119.425 194.976 115.275 193.976 113.625C192.676 111.475 192.176 109.675 191.301 106.575C190.376 103.325 189.951 100.55 189.726 98.625Z" fill="#3F3F3F"/>
<path d="M229.35 75C229.75 74.525 233.025 76.65 235.25 78.325C237.95 80.35 240.275 82.1 242.5 85.275C245.45 89.475 246.35 93.55 246.65 95.225C246.875 96.525 247.575 101.075 246.025 106.625C244.725 111.3 242.525 114.125 239.8 117.625C238.05 119.9 236.7 121.15 234.825 121.975C233.1 122.75 231.525 122.9 230.475 122.9C229.925 123.7 229.3 124.6 228.6 125.6C228 126.45 227.65 126.925 227.05 127.475C226.475 128 225.575 128.775 224.875 128.5C224.5 128.375 224.3 127.975 223.95 127.35C223.6 126.7 223.675 126.575 223.425 126.325C222.9 125.775 222.35 126.125 221.65 125.7C220.95 125.25 221.275 124.65 220.4 123.425C219.725 122.475 219.35 122.55 219.15 121.875C218.95 121.125 219.4 120.875 219.25 119.9C219.1 118.925 218.55 118.6 218.725 118.25C218.925 117.875 219.7 118.025 220.8 118.05C222.8 118.075 224.525 117.575 224.525 117.325C224.525 117.05 222.75 117.3 221.825 116.175C221.3 115.525 221.075 114.425 221.525 113.9C222.05 113.25 223.425 113.575 225.15 114C227.475 114.575 227.6 115.05 228.575 115.15C231.575 115.425 234.275 111.125 235.2 109.65C235.7 108.875 237.25 106.25 237.8 102.5C238.35 98.725 237.625 95.6 237.075 93.275C236.925 92.6 236.975 92.925 235.925 89.325C234.075 82.925 234.2 82.95 233.75 81.85C231.9 77.4 228.95 75.45 229.35 75Z" fill="white"/>
<path d="M230.025 74.75C237.575 78.075 243.8 84.4 246.25 92.375C248.925 101 246.75 109.975 241.15 116.95C238.45 120.3 234.825 123.075 230.4 123.325C229.925 123.35 229.925 122.6 230.4 122.575C234.35 122.35 237.625 119.925 240.125 117C242.825 113.825 245 109.925 245.975 105.875C247.975 97.75 245.5 89.05 239.975 82.85C237.1 79.625 233.55 77.125 229.6 75.375C229.2 75.2 229.575 74.575 230.025 74.75Z" fill="black"/>
<path d="M237.151 107C235.601 110.85 233.101 114.525 228.851 115.575C228.376 115.7 228.176 114.975 228.651 114.85C232.626 113.875 234.976 110.4 236.426 106.8C236.601 106.375 237.326 106.55 237.151 107Z" fill="black"/>
<path d="M228.7 115.525C227.2 115.425 226 114.675 224.6 114.225C223.675 113.925 222.1 113.6 221.925 114.875C221.7 116.425 223.675 116.75 224.8 116.875C225.275 116.925 225.275 117.675 224.8 117.625C223.675 117.5 222.425 117.325 221.65 116.425C221.05 115.7 220.85 114.575 221.5 113.825C223.225 111.825 226.775 114.65 228.7 114.775C229.175 114.825 229.175 115.575 228.7 115.525Z" fill="black"/>
<path d="M230.675 123.125C229.7 124.575 228.8 126.125 227.725 127.5C227.075 128.35 226.2 129.15 225.05 129.075C224.2 129 223.4 128.35 223.4 127.45C223.375 126.275 224.875 125.375 225.625 124.7C225.975 124.375 226.525 124.9 226.15 125.225C225.725 125.6 224.675 126.275 224.475 126.775C224.45 127.2 224.45 127.6 224.425 128.025C225.2 128.4 225.85 128.35 226.35 127.875C226.75 127.575 227.025 127.225 227.325 126.8C228.275 125.475 229.125 124.1 230.025 122.75C230.3 122.325 230.95 122.7 230.675 123.125Z" fill="black"/>
<path d="M224.925 117.575C223.5 118.1 222 118.025 220.525 118.275C220.275 118.3 220.025 118.35 219.775 118.425C219.65 118.8 219.525 119.175 219.425 119.55C219.525 120 220.925 120.125 221.225 120.125C222.175 120.15 223.1 119.85 224 119.6C224.475 119.475 224.65 120.175 224.2 120.325C222.75 120.75 218.525 121.7 218.375 119.05C218.325 118.125 219.225 117.775 219.975 117.625C221.55 117.3 223.2 117.425 224.725 116.875C225.175 116.7 225.375 117.425 224.925 117.575Z" fill="black"/>
<path d="M220.251 120.775C219.726 121.175 219.551 121.9 219.876 122.45C220.201 123 220.826 123.15 221.426 123.15C222.451 123.125 223.476 122.65 224.376 122.175C224.801 121.95 225.176 122.6 224.751 122.825C223.376 123.575 221.201 124.525 219.726 123.45C218.576 122.6 218.776 120.925 219.851 120.125C220.276 119.825 220.651 120.475 220.251 120.775Z" fill="black"/>
<path d="M221.301 123.85C221.051 124.7 221.626 125.575 222.476 125.8C223.401 126.05 224.326 125.575 225.026 125.025C225.401 124.725 225.926 125.25 225.551 125.55C224.551 126.35 223.226 126.925 221.951 126.4C220.876 125.95 220.201 124.775 220.551 123.65C220.701 123.175 221.426 123.375 221.301 123.85Z" fill="black"/>
<path opacity="0.11" d="M234.25 77.5999C235.7 79.6749 237.525 82.6749 239.05 86.5499C241.525 92.8499 241.875 98.1499 241.95 100.075C242.175 105.6 242.3 108.825 240.375 112.275C237.925 116.675 233.55 118.85 228.075 121.55C225.275 122.925 222.875 123.825 221.25 124.35C221.25 124.5 221.25 125.575 222.025 126.15C222.875 126.75 224.35 126.525 225.275 125.375C224.075 126.15 223.525 127.2 223.825 127.825C224.075 128.4 225.05 128.7 225.85 128.5C227.4 128.075 227.25 125.9 229.55 123.8C230.075 123.325 230.55 123 230.9 122.8C232.375 122.65 234.9 122.15 237.4 120.45C237.85 120.15 239.55 118.925 241.875 115.425C243.35 113.2 245.175 110.425 246.25 106.25C246.6 104.9 248.3 97.6999 245.025 89.9249C244.7 89.1249 243.85 87.2749 242.35 85.1249C239.55 81.1749 236.325 78.8499 234.25 77.5999Z" fill="#3F3F3F"/>
<path d="M232.65 37.225C235.4 39.175 236.275 41.95 237.975 47.425C240.125 54.325 241.675 59.3 239.025 63.175C236.4 66.975 230.625 68.325 224.65 67.35C224.275 67.5 223.75 67.775 223.375 68.275C222.875 68.95 222.95 69.625 222.8 70.7C222.6 72.125 222.45 73.325 221.75 73.825C220.6 74.675 218.175 73.5 216.775 72.425C214.6 70.775 213.675 68.575 213.3 67.675C209.425 58.1 207.5 53.325 208.55 48.8C208.85 47.525 209.825 43.55 213.3 40.225C218.375 35.425 227.25 33.4 232.65 37.225Z" fill="white"/>
<path d="M236.45 42.95C239.5 49.35 238.4 58.8 233.15 63.85C228.65 68.15 221.05 67.75 216.9 63.2C216.575 62.85 217.1 62.3 217.425 62.675C221.425 67.05 228.725 67.325 232.9 63.05C237.65 58.2 238.675 49.35 235.825 43.35C235.6 42.9 236.25 42.525 236.45 42.95Z" fill="#161616"/>
<path d="M223.775 66.425C223.8 69.025 223.25 71.525 222.175 73.9C221.975 74.35 221.325 73.95 221.525 73.525C222.55 71.275 223.05 68.9 223.025 66.425C223.025 65.95 223.775 65.95 223.775 66.425Z" fill="#161616"/>
<path d="M222.2 74.0749C219.7 75.5249 216.525 73.2999 214.725 71.6249C214.375 71.2999 214.9 70.7749 215.25 71.0999C216.75 72.4999 219.7 74.6749 221.8 73.4499C222.25 73.1999 222.625 73.8499 222.2 74.0749Z" fill="#161616"/>
<path d="M232.35 55.9C228.5 58.35 223.3 55 221.4 51.55C221.175 51.125 221.825 50.75 222.05 51.175C223.75 54.275 228.475 57.475 231.975 55.25C232.374 55 232.749 55.65 232.35 55.9Z" fill="#161616"/>
<path d="M222.95 50.8999C222.3 51.2249 221.8 51.7499 221.6 52.4499C221.45 52.8999 220.725 52.7249 220.875 52.2499C221.15 51.3749 221.75 50.6499 222.575 50.2499C223 50.0499 223.375 50.6999 222.95 50.8999Z" fill="#161616"/>
<path d="M229.925 41.9751C230.85 44.5751 231.975 47.1001 233.325 49.5001C233.55 49.9251 232.925 50.3001 232.675 49.8751C231.3 47.4001 230.15 44.8251 229.2 42.1501C229.05 41.7251 229.775 41.5251 229.925 41.9751Z" fill="#161616"/>
<path d="M233.225 50.175C232.45 51.25 231.225 51.875 229.9 51.775C229.425 51.75 229.425 51 229.9 51.025C230.95 51.1 231.95 50.65 232.575 49.8C232.85 49.4 233.5 49.775 233.225 50.175Z" fill="#161616"/>
<path d="M233.3 46.2499C233.375 45.6749 233.3 45.0999 233.075 44.5749C233.325 44.5749 233.55 44.5749 233.8 44.5749C233.6 45.2499 233.7 45.9249 234.075 46.5249C233.85 46.5499 233.625 46.5749 233.4 46.6249C233.5 46.1499 233.475 45.6749 233.325 45.1999C233.175 44.7499 233.9 44.5499 234.05 44.9999C234.25 45.5999 234.275 46.1999 234.125 46.8249C234.05 47.1499 233.6 47.1749 233.45 46.9249C232.975 46.1749 232.85 45.2499 233.1 44.3999C233.2 44.0249 233.7 44.0749 233.825 44.3999C234.1 45.0749 234.15 45.7749 234.05 46.4749C233.95 46.9249 233.25 46.7249 233.3 46.2499Z" fill="#161616"/>
<path d="M223.725 44.675C223.975 44.05 223.875 43.4 223.4 42.95C223.6 42.9 223.825 42.85 224.025 42.775C223.85 43.5 223.95 44.2 224.325 44.85C224.1 44.875 223.875 44.9 223.65 44.95C223.75 44.475 223.7 44.05 223.55 43.5999C223.4 43.1499 224.125 42.95 224.275 43.4C224.475 43.975 224.5 44.55 224.375 45.15C224.3 45.475 223.85 45.5 223.7 45.25C223.225 44.425 223.1 43.5 223.325 42.5999C223.4 42.3249 223.75 42.25 223.95 42.425C224.6 43.075 224.825 44.05 224.475 44.9C224.25 45.325 223.525 45.125 223.725 44.675Z" fill="#161616"/>
<path d="M234.575 42.275C234.15 41.35 232.975 41.025 232.175 41.625C231.775 41.9 231.4 41.25 231.8 40.975C232.925 40.15 234.675 40.625 235.225 41.9C235.425 42.35 234.775 42.725 234.575 42.275Z" fill="#161616"/>
<path d="M236.325 48.3C236.375 48.35 236.425 48.4 236.475 48.45C236.625 48.6 236.625 48.825 236.475 48.975C236.325 49.125 236.1 49.125 235.95 48.975C235.9 48.925 235.85 48.875 235.8 48.825C235.65 48.675 235.65 48.45 235.8 48.3C235.95 48.15 236.175 48.15 236.325 48.3Z" fill="#161616"/>
<path d="M234.125 48.2C234.125 48.2 234.125 48.175 234.125 48.2C234.125 48.25 234.1 48.3 234.075 48.375C234.075 48.375 234.075 48.375 234.075 48.35C234.1 48.425 234.1 48.475 234.125 48.55C234.3 48.75 234.475 48.75 234.65 48.55C234.675 48.475 234.675 48.425 234.7 48.35C234.7 48.35 234.7 48.35 234.7 48.375C234.675 48.3 234.675 48.25 234.65 48.175C234.65 48.175 234.65 48.175 234.65 48.2C234.725 48.375 234.7 48.6 234.525 48.725C234.375 48.825 234.1 48.775 234 48.6C233.925 48.425 233.925 48.25 234.05 48.1C234.125 48.025 234.25 47.975 234.375 47.975C234.5 47.975 234.625 48.025 234.7 48.1C234.85 48.25 234.825 48.425 234.75 48.6C234.675 48.775 234.4 48.825 234.225 48.725C234.075 48.6 234.05 48.375 234.125 48.2Z" fill="#161616"/>
<path d="M235.425 50.825C235.4 50.825 235.35 50.825 235.325 50.825C234.85 50.825 234.85 50.075 235.325 50.075C235.35 50.075 235.4 50.075 235.425 50.075C235.9 50.075 235.9 50.825 235.425 50.825C235.4 50.825 235.35 50.825 235.325 50.825C234.85 50.825 234.85 50.075 235.325 50.075C235.35 50.075 235.4 50.075 235.425 50.075C235.9 50.075 235.9 50.825 235.425 50.825Z" fill="#161616"/>
<path d="M224.625 47.125C224.625 47.075 224.625 47.025 224.65 46.975C224.675 46.775 224.8 46.6 225.025 46.6C225.2 46.6 225.425 46.775 225.4 46.975C225.4 47.025 225.4 47.075 225.375 47.125C225.35 47.325 225.225 47.5 225 47.5C224.825 47.5 224.6 47.35 224.625 47.125Z" fill="#161616"/>
<path d="M222.925 46.725C222.875 46.725 222.825 46.725 222.775 46.725C222.575 46.725 222.4 46.55 222.4 46.35C222.4 46.15 222.575 45.975 222.775 45.975C222.825 45.975 222.875 45.975 222.925 45.975C223.125 45.975 223.3 46.15 223.3 46.35C223.3 46.55 223.15 46.725 222.925 46.725Z" fill="#161616"/>
<path d="M223.775 48.075C223.775 48.125 223.775 48.175 223.775 48.225C223.775 48.425 223.6 48.6 223.4 48.6C223.2 48.6 223.025 48.425 223.025 48.225C223.025 48.175 223.025 48.125 223.025 48.075C223.025 47.875 223.2 47.7 223.4 47.7C223.6 47.725 223.775 47.875 223.775 48.075Z" fill="#161616"/>
<path d="M225.325 40.7C224.175 40.15 222.8 40.3 221.8 41.125C221.425 41.425 220.9 40.9 221.275 40.6C222.55 39.55 224.225 39.35 225.7 40.075C226.15 40.275 225.75 40.925 225.325 40.7Z" fill="#161616"/>
<path d="M214.225 44.625C213.925 44.325 213.625 44.05 213.3 43.75C213.1 43.775 212.9 43.8 212.7 43.825C212.25 43.925 211.9 44.15 211.575 44.425C210.85 45.05 210.475 45.95 210.4 46.9C210.25 48.475 210.875 50.575 212.775 50.525C213.25 50.525 213.25 51.275 212.775 51.275C209.625 51.35 209 47.175 210.2 44.975C210.8 43.85 212 42.975 213.325 43C214.35 43.025 215.4 43.7 214.975 44.825C214.775 45.25 214.05 45.075 214.225 44.625Z" fill="#161616"/>
<path d="M231.65 33.425C232.15 33.55 233.925 34 236.025 35.675C240.55 39.325 241.875 45.075 242.3 46.975C243.125 50.725 242.25 50.85 243.2 53.9C244.5 58.1 246.35 58.5 247.775 62.175C248.25 63.375 250.325 68.725 247.875 73.15C245.375 77.65 239.45 78.95 235.35 78.525C230.625 78.05 225.225 74.95 223.95 70.125C223.6 68.825 223.625 67.625 223.725 66.75C224.9 66.825 227.025 66.825 229.425 65.875C230.05 65.625 232.4 64.625 234.45 62.175C236.2 60.1 236.825 58.075 237.275 56.6C237.7 55.15 238.65 51.85 237.7 47.725C236.825 43.975 234.875 41.6 234.475 41.125C232.05 38.275 229.2 37.1 227.85 36.65C226.65 38.2 225.475 39.35 224.6 40.125C222.7 41.8 220.675 43.575 217.675 44.15C216.55 44.375 215.625 44.375 215.025 44.325C214.875 44.1 214.425 43.525 213.625 43.3C212.3 42.925 211.175 43.925 210.975 44.1C210.2 44.775 210 45.625 209.85 46.15C209.75 46.525 209.45 47.8 210.05 49.15C210.2 49.475 210.425 49.95 210.9 50.35C211.8 51.125 212.925 51.075 213.25 51.05C214.175 52.05 215.45 53.7 216.425 55.975C218.025 59.725 217.825 63.025 217.775 63.925C217.6 66.175 217.3 70.325 213.975 73.1C209.8 76.6 204.225 75.075 203.575 74.9C197.125 73.05 195.025 66.475 194.85 65.85C193.075 59.925 196.15 54.725 197.65 52.2C199.725 48.675 200.75 49.075 205.375 43.925C212.15 36.375 212.2 33.025 216.225 31.5C218.375 30.7 221.975 30.275 227.75 33.3C228.6 33.175 230.025 33.05 231.65 33.425Z" fill="#262626"/>
<path d="M223.275 67.1999C221.8 67.0249 220.25 65.9999 219.075 65.1249C218.7 64.8499 219.075 64.1999 219.45 64.4749C220 64.8999 220.6 65.2499 221.225 65.5749C221.875 65.9249 222.55 66.3499 223.3 66.4499C223.75 66.4999 223.75 67.2499 223.275 67.1999Z" fill="#161616"/>
<path d="M223.05 67.525C222.1 67.375 221.25 66.825 220.425 66.35C219.625 65.875 218.9 65.35 218.25 64.675C217.925 64.325 218.45 63.8 218.775 64.15C219.85 65.3 221.675 66.55 223.25 66.825C223.725 66.9 223.525 67.625 223.05 67.525Z" fill="#161616"/>
<path opacity="0.25" d="M207.55 41.8999C206.075 44.3749 204.1 48.1249 202.525 53.0249C200.6 58.9999 199.45 62.4749 201.35 65.1999C203.225 67.8999 207.5 68.9749 211.075 67.7749C214.65 66.5749 217.175 63.2499 217.4 59.3499C217.725 60.7749 218.075 63.1999 217.525 66.1249C217.15 68.0499 216.675 70.4999 214.6 72.5499C212.125 74.9999 208.975 75.2499 207.825 75.3499C206.65 75.4499 203.55 75.5249 200.45 73.5999C197.375 71.6999 196.15 68.9749 195.65 67.8749C194.275 64.7749 194.475 62.0249 194.6 60.6249C194.925 56.6749 196.625 53.9249 197.4 52.6749C197.725 52.1499 198.475 50.9999 202.075 47.2999C204.3 44.9749 206.2 43.1249 207.55 41.8999Z" fill="#3F3F3F"/>
<path opacity="0.15" d="M247.325 61.4249C247.625 62.4499 248.075 64.6499 247.2 67.0499C245.775 70.9749 241.325 73.7999 236.775 73.1249C233.05 72.5749 229.925 69.7749 228.825 65.9749C227.075 66.1999 225.325 66.4499 223.55 66.6749C223.5 67.5249 223.55 68.8249 224.025 70.2999C224.875 72.9999 226.575 74.5749 227.3 75.2249C230.625 78.1999 234.625 78.4249 236.2 78.4999C238.275 78.5999 241.65 78.7999 244.75 76.4999C247.35 74.5999 248.325 72.0249 248.6 71.1249C250.2 66.2749 247.725 62.0999 247.325 61.4249Z" fill="#3F3F3F"/>
<path opacity="0.15" d="M216.2 51.025C217.15 54.425 218.425 59 221.35 61.675C222.6 62.825 225.575 64.9 231.775 64.475C231.025 65 229.35 66 226.975 66.225C224.6 66.45 222.775 65.775 221.95 65.4C221.025 68.175 220.075 70.95 219.15 73.7C217.825 72.95 216.5 72.225 215.175 71.475C216.075 70.075 217.775 67 217.875 62.825C218.025 55.975 213.75 51.45 212.85 50.55C212.5 50.5 211.275 50.225 210.5 49.15C209.475 47.7 209.9 45.6 211.075 44.475C211.3 44.25 212.3 43.3 213.3 43.55C214.9 43.9 215.1 47.025 216.2 51.025Z" fill="#3F3F3F"/>
</g>
</svg>
