<svg width="400" height="300" viewBox="0 0 400 300" fill="none" xmlns="http://www.w3.org/2000/svg">
<path d="M340.4 242.275C338.7 240.15 337.425 237.75 336.35 235.275C335.825 234.05 335.325 232.775 334.85 231.525C334.625 230.925 334.375 230.35 334.2 229.75C334 229.125 333.925 228.8 334.225 228.2C334.225 227.775 334.4 227.6 334.725 227.65C335 227.575 335.175 227.7 335.275 228.025C335.525 228 335.775 227.95 336 227.925C334.5 223.4 333.525 218.725 333.1 214C332.9 211.7 332.825 209.375 332.875 207.05C332.9 205.975 332.95 204.9 333.05 203.8C333.075 203.375 333.025 202.175 333.275 201.825C333.55 201.75 333.8 201.675 334.075 201.625C334.525 201.25 334.875 201.25 335.1 201.65C335.375 201.875 335.55 202.275 335.725 202.575C340.3 210.175 343.35 218.75 344.825 227.475C345.675 232.5 346 237.575 345.775 242.675C345.75 243.15 346.5 243.15 346.525 242.675C346.925 232.55 345.25 222.375 341.575 212.925C340.65 210.575 339.625 208.275 338.475 206.025C337.95 204.975 337.375 203.95 336.8 202.95C336.325 202.125 335.85 201.125 335.05 200.575C333.5 199.525 332.6 201.025 332.425 202.4C332.1 205 332.05 207.65 332.125 210.275C332.3 216.35 333.35 222.35 335.25 228.1C335.375 228.5 336 228.45 335.975 228C335.975 227 334.85 226.575 334 227C332.5 227.725 333.35 229.8 333.75 230.9C335.3 235.1 336.975 239.25 339.8 242.775C340.175 243.2 340.7 242.65 340.4 242.275Z" fill="#E8E8E8"/>
<path d="M344.8 223.575C345 220.25 345.425 216.95 346.15 213.675C346.5 212.15 346.875 210.625 347.35 209.125C347.575 208.375 347.825 207.625 348.075 206.9C348.2 206.525 348.325 206.15 348.475 205.8C348.525 205.65 348.575 205.5 348.65 205.35C348.75 204.825 349.1 204.525 349.675 204.425C349.625 204.85 350.3 204.925 350.4 204.525C350.9 202.875 354.95 192.25 357.425 194.075C358.15 194.6 358.35 195.825 358.475 196.65C358.675 197.8 358.85 198.975 358.975 200.125C359.2 202.1 359.35 204.075 359.4 206.075C359.625 214.2 358.4 222.375 355.8 230.1C354.3 234.525 352.35 238.75 350 242.775C349.75 243.2 350.4 243.575 350.65 243.15C355.375 235.1 358.4 226.15 359.6 216.925C360.2 212.275 360.35 207.575 360 202.9C359.825 200.675 359.575 198.45 359.175 196.25C358.95 195.05 358.4 193.275 356.975 193.05C355.1 192.75 353.65 195.85 352.9 197.1C351.525 199.375 350.475 201.8 349.7 204.325C349.95 204.35 350.2 204.4 350.425 204.425C350.575 203.225 349.075 203.15 348.475 203.925C348.025 204.5 347.825 205.35 347.6 206.025C347.175 207.2 346.8 208.4 346.45 209.6C345.125 214.15 344.35 218.825 344.075 223.55C344.025 224.05 344.775 224.05 344.8 223.575Z" fill="#E8E8E8"/>
<path d="M333.05 201.55C338.5 214.275 341.925 227.8 343.175 241.575C343.225 242.05 343.975 242.05 343.925 241.575C342.65 227.65 339.2 214.025 333.7 201.15C333.5 200.725 332.85 201.125 333.05 201.55Z" fill="#E8E8E8"/>
<path d="M332.9 218.025C335.5 219.325 337.9 220.95 340.075 222.85C340.425 223.175 340.975 222.65 340.6 222.325C338.35 220.375 335.925 218.725 333.25 217.375C332.85 217.175 332.45 217.825 332.9 218.025Z" fill="#E8E8E8"/>
<path d="M339.85 210.7C339.15 212.075 338.625 213.525 338.3 215.05C338.2 215.525 338.925 215.725 339.025 215.25C339.35 213.8 339.825 212.4 340.5 211.075C340.725 210.65 340.075 210.275 339.85 210.7Z" fill="#E8E8E8"/>
<path d="M356.2 194.65C354.575 209.175 352.8 224.175 345.725 237.225C345.5 237.65 346.15 238.025 346.375 237.6C353.525 224.425 355.3 209.325 356.95 194.65C357 194.175 356.25 194.175 356.2 194.65Z" fill="#E8E8E8"/>
<path d="M346.85 208.875C348.85 213.575 350.325 218.45 351.3 223.45C351.4 223.925 352.125 223.725 352.025 223.25C351.025 218.175 349.5 213.25 347.5 208.5C347.3 208.05 346.675 208.425 346.85 208.875Z" fill="#E8E8E8"/>
<path d="M354.375 212.65C356.25 210.275 358.125 207.9 360 205.55C360.3 205.175 359.775 204.65 359.475 205.025C357.6 207.4 355.725 209.775 353.85 212.125C353.55 212.475 354.075 213.025 354.375 212.65Z" fill="#E8E8E8"/>
<path d="M43.7 238.95C42.075 237.2 40.425 235.4 39.1 233.4C38.475 232.425 37.9 231.425 37.45 230.35C37.2 229.75 36.025 226.55 37.65 227.2C38.05 227.35 38.225 226.825 38.025 226.575C36.375 224.475 35.275 222.025 34.325 219.55C33.425 217.2 32.55 214.825 31.725 212.45C30.825 209.85 30.05 207.175 29.75 204.45C29.525 202.3 29.3 199.35 30.85 197.575C33.125 195 35.425 199.25 36.5 200.85C37.95 203 39.375 205.2 40.75 207.4C43.475 211.875 45.95 216.525 47.775 221.475C49.85 227.125 51 233.1 50.725 239.125C50.7 239.6 51.45 239.6 51.475 239.125C52.025 226.925 46.8 215.55 40.425 205.45C38.85 202.975 37.275 200.475 35.55 198.1C34.575 196.775 33.025 195.4 31.275 196.275C29.675 197.05 29.075 199.125 28.925 200.75C28.65 203.7 29.225 206.7 30.025 209.525C30.925 212.725 32.15 215.825 33.3 218.925C34.375 221.825 35.575 224.65 37.5 227.1C37.625 226.9 37.75 226.675 37.875 226.475C37.225 226.225 36.65 226.3 36.1 226.7C36 226.775 35.9 226.9 35.925 227.025C36.475 232.075 39.9 235.95 43.2 239.5C43.5 239.85 44.025 239.325 43.7 238.95Z" fill="#E8E8E8"/>
<path d="M45.75 215.175C44.975 208.175 45.9 201.15 48.45 194.575C48.25 194.625 48.025 194.675 47.825 194.75C48.6 195.45 49.125 196.25 49.425 197.25C49.525 197.6 50.05 197.625 50.15 197.25C51.85 191.35 54.325 185.725 57.575 180.5C57.35 180.475 57.125 180.45 56.9 180.4C58.85 185.375 60.075 190.625 60.475 195.975C60.825 200.775 60.95 206.3 58.025 210.375C57.875 210.575 58.025 210.875 58.25 210.925C60.5 211.45 59.825 215 59.625 216.6C59.325 219.25 58.875 221.9 58.3 224.5C57.2 229.525 55.6 234.45 53.575 239.175C53.375 239.625 54.025 240 54.225 239.55C56.6 234.05 58.375 228.3 59.5 222.425C60 219.725 60.575 216.875 60.625 214.125C60.65 212.55 60.25 210.575 58.475 210.175C58.55 210.35 58.625 210.55 58.7 210.725C61.625 206.65 61.575 201.2 61.275 196.4C60.925 190.825 59.675 185.35 57.65 180.175C57.525 179.875 57.15 179.8 56.975 180.075C53.7 185.35 51.2 191.025 49.475 197C49.725 197 49.95 197 50.2 197C49.85 195.875 49.275 194.975 48.4 194.175C48.175 193.975 47.875 194.075 47.775 194.35C45.2 200.975 44.275 208.1 45.05 215.15C45.05 215.65 45.8 215.65 45.75 215.175Z" fill="#E8E8E8"/>
<path d="M31.125 197.45C34.6 204.325 38.15 211.175 41.475 218.125C44.725 224.975 47.6 232.05 49.15 239.5C49.25 239.975 49.975 239.775 49.875 239.3C48.325 231.925 45.525 224.95 42.3 218.15C38.95 211.05 35.3 204.075 31.75 197.05C31.55 196.65 30.9 197.025 31.125 197.45Z" fill="#E8E8E8"/>
<path d="M57.0501 181.45C56.5251 188.875 54.2251 195.975 52.5251 203.175C50.8251 210.375 49.6501 217.7 49.0001 225.075C48.9501 225.55 49.7001 225.55 49.7501 225.075C50.4251 217.45 51.6751 209.875 53.4751 202.45C55.1751 195.5 57.2751 188.625 57.8001 181.45C57.8251 180.95 57.0751 180.95 57.0501 181.45Z" fill="#E8E8E8"/>
<path d="M30.725 211.775C34.5 213.05 37.95 215 41.025 217.55C41.4 217.85 41.925 217.325 41.55 217.025C38.375 214.4 34.825 212.4 30.925 211.05C30.45 210.875 30.25 211.6 30.725 211.775Z" fill="#E8E8E8"/>
<path d="M47.6 195.175C48.45 199.7 49.7 204.15 51.325 208.45C51.5 208.9 52.225 208.7 52.05 208.25C50.425 203.925 49.2 199.5 48.325 194.975C48.225 194.5 47.525 194.7 47.6 195.175Z" fill="#E8E8E8"/>
<path d="M50.2999 226.725C52.9999 223.175 55.7749 219.6 59.7249 217.375C60.1499 217.15 59.7749 216.5 59.3499 216.725C55.2999 219.025 52.4249 222.7 49.6499 226.35C49.3749 226.725 50.0249 227.1 50.2999 226.725Z" fill="#E8E8E8"/>
<path d="M310.3 243.625C331.325 243.625 352.375 243.625 373.4 243.625C374.375 243.625 374.375 242.125 373.4 242.125C352.375 242.125 331.325 242.125 310.3 242.125C309.325 242.125 309.325 243.625 310.3 243.625Z" fill="black"/>
<path d="M81.925 238.625C65.425 238.625 48.925 238.625 32.425 238.625C31.45 238.625 31.45 240.125 32.425 240.125C48.925 240.125 65.425 240.125 81.925 240.125C82.875 240.125 82.875 238.625 81.925 238.625Z" fill="black"/>
<path d="M249.975 255.825C272.775 255.825 295.575 255.825 318.375 255.825C324.875 255.825 331.35 255.825 337.85 255.825C338.825 255.825 338.825 254.325 337.85 254.325C315.05 254.325 292.25 254.325 269.45 254.325C262.95 254.325 256.475 254.325 249.975 254.325C249.025 254.325 249 255.825 249.975 255.825Z" fill="black"/>
<path d="M303.95 244.025C231.2 242.575 158.45 241.125 85.7 239.675C72.675 239.425 63.575 226.7 67.525 214.3L112.45 72.95C115 64.925 122.45 59.425 130.875 59.375C198.2 58.9 265.525 58.4 332.85 57.925C345.15 57.825 354.475 69.05 352.1 81.125L323.425 228.275C321.65 237.575 313.425 244.225 303.95 244.025Z" fill="#474747" stroke="black" stroke-width="6" stroke-miterlimit="10"/>
<path d="M302.55 242.8C229.8 241.425 157.05 240.075 84.3 238.7C71.275 238.45 62.175 226.45 66.125 214.75L111.05 81.3251C113.6 73.7501 121.05 68.5751 129.475 68.5001C196.8 68.0501 264.125 67.5751 331.45 67.1251C343.75 67.0501 353.075 77.6251 350.7 89.0251L322.025 227.95C320.25 236.7 312.025 242.975 302.55 242.8Z" fill="white" stroke="black" stroke-width="6" stroke-miterlimit="10"/>
<path d="M321.2 231.675C318.8 236.95 314.175 240.925 308.6 242.475C308.125 242.6 308.325 243.325 308.8 243.2C314.55 241.6 319.375 237.475 321.85 232.05C322.025 231.625 321.4 231.225 321.2 231.675Z" fill="black"/>
<path d="M132.8 64.9001C132.05 64.8251 131.775 64.0251 131.975 63.3751C132.25 62.5501 133.05 62.3751 133.8 62.7501C134.325 63.0251 134.6 63.6751 134.375 64.2501C134.125 64.8751 133.4 65.0751 132.8 64.8501C132.35 64.6751 132.15 65.4001 132.6 65.5751C133.575 65.9501 134.775 65.4501 135.125 64.4251C135.475 63.3251 134.775 62.2501 133.725 61.9251C132.55 61.5751 131.525 62.1251 131.225 63.3501C130.975 64.4751 131.675 65.5251 132.8 65.6501C133.275 65.7001 133.275 64.9501 132.8 64.9001Z" fill="black"/>
<path d="M131.925 64.3001C132.225 65.0751 133.325 65.325 133.975 64.85C134.4 64.525 134.6 63.9 134.4 63.35C134.175 62.75 133.525 62.4 132.95 62.5C132.15 62.65 131.625 63.5751 131.925 64.3001Z" fill="white"/>
<path d="M141.25 64.675C140.5 64.6 140.225 63.8 140.425 63.15C140.7 62.325 141.5 62.15 142.25 62.525C142.775 62.8 143.05 63.45 142.825 64.025C142.575 64.65 141.85 64.85 141.25 64.625C140.8 64.45 140.6 65.175 141.05 65.35C142.025 65.725 143.225 65.225 143.575 64.2C143.925 63.1 143.225 62.025 142.175 61.7C141 61.35 139.975 61.9 139.675 63.125C139.425 64.25 140.125 65.3 141.25 65.425C141.725 65.475 141.725 64.725 141.25 64.675Z" fill="black"/>
<path d="M140.375 64.075C140.675 64.85 141.775 65.1 142.425 64.625C142.85 64.3 143.05 63.675 142.85 63.1249C142.625 62.5249 141.975 62.1749 141.4 62.2749C140.6 62.4249 140.075 63.3499 140.375 64.075Z" stroke="black" stroke-miterlimit="10"/>
<path d="M132.3 62.7499C132.65 63.5249 133.05 64.2749 133.525 64.9999C133.775 65.3999 134.425 65.0249 134.175 64.6249C133.725 63.8999 133.325 63.1499 132.95 62.3749C132.75 61.9499 132.1 62.3249 132.3 62.7499Z" fill="black"/>
<path d="M132.375 65.0001C132.725 64.7001 133.05 64.3751 133.4 64.0751C133.7 63.8001 134 63.4751 134.375 63.2751C134.8 63.0501 134.425 62.4001 134 62.6251C133.625 62.8251 133.325 63.1501 133 63.4501C132.625 63.8001 132.225 64.1501 131.85 64.5001C131.5 64.8001 132.025 65.3251 132.375 65.0001Z" fill="black"/>
<path d="M225.225 81.8751C223 89.0251 220.75 96.2001 218.525 103.35C217.15 107.8 220.425 112.3 225.075 112.375C256.1 112.75 287.1 113.1 318.125 113.475C321.525 113.525 324.45 111.075 325.05 107.725C326.375 100.125 327.725 92.5251 329.05 84.9251C329.8 80.6751 326.525 76.7751 322.2 76.7751C292.075 76.8501 261.95 76.9251 231.85 77.0001C228.825 77.0001 226.125 78.9751 225.225 81.8751Z" fill="white" stroke="black" stroke-width="3" stroke-miterlimit="10"/>
<path d="M106.175 181.55C101.85 193.975 97.525 206.4 93.2 218.825C90.525 226.525 96.875 234.375 105.875 234.475C165.925 235.1 226 235.75 286.05 236.375C292.65 236.45 298.325 232.225 299.45 226.4C302.05 213.225 304.625 200.025 307.225 186.85C308.675 179.45 302.325 172.7 293.95 172.7C235.625 172.825 177.3 172.95 118.975 173.075C113.1 173.1 107.925 176.525 106.175 181.55Z" fill="white" stroke="black" stroke-width="3" stroke-miterlimit="10"/>
<path d="M234.625 124.7C230.6 136.75 226.575 148.8 222.55 160.85C222.4 161.3 223.125 161.5 223.275 161.05C227.3 149 231.325 136.95 235.35 124.9C235.5 124.425 234.775 124.225 234.625 124.7Z" fill="#E8E8E8"/>
<path d="M235.1 124.775C245.55 124.225 256.05 123.375 266.525 123.375C276.95 123.375 287.35 124.275 297.725 125.175C298.2 125.225 298.2 124.475 297.725 124.425C287.35 123.525 276.95 122.65 266.525 122.625C256.05 122.625 245.55 123.475 235.1 124.025C234.625 124.05 234.6 124.8 235.1 124.775Z" fill="#E8E8E8"/>
<path d="M297.6 125.15C294.8 137.1 291.975 149.025 289.175 160.975C289.075 161.45 289.8 161.65 289.9 161.175C292.7 149.225 295.525 137.3 298.325 125.35C298.425 124.9 297.7 124.7 297.6 125.15Z" fill="#E8E8E8"/>
<path d="M223 162.15C240.15 161.225 257.325 161 274.5 161.525C279.4 161.675 284.275 161.875 289.175 162.15C289.65 162.175 289.65 161.425 289.175 161.4C272.025 160.45 254.85 160.25 237.675 160.775C232.775 160.925 227.9 161.125 223 161.4C222.525 161.425 222.5 162.175 223 162.15Z" fill="#E8E8E8"/>
<path d="M256.3 160.875C267 155.3 279.225 154.475 291.05 153.75C291.525 153.725 291.525 152.975 291.05 153C279.1 153.75 266.75 154.6 255.925 160.225C255.475 160.45 255.85 161.1 256.3 160.875Z" fill="#E8E8E8"/>
<path d="M273.375 137.075C274.55 142.8 275.15 148.625 275.175 154.475C275.175 154.95 275.925 154.95 275.925 154.475C275.875 148.55 275.275 142.675 274.1 136.875C274 136.4 273.275 136.6 273.375 137.075Z" fill="#E8E8E8"/>
<path d="M273.1 136.95C271.575 139.175 270.075 141.425 268.55 143.65C268.775 143.725 269.025 143.775 269.25 143.85C269.125 141.6 269.7 139.5 270.975 137.65C271.25 137.25 270.6 136.875 270.325 137.275C268.975 139.225 268.35 141.5 268.475 143.85C268.5 144.225 268.95 144.35 269.175 144.05C270.7 141.825 272.2 139.575 273.725 137.35C274.025 136.925 273.375 136.55 273.1 136.95Z" fill="#E8E8E8"/>
<path d="M270.575 136.75C269.725 136.375 268.875 136.2 267.95 136.25C267.4 136.275 265.175 136.95 265.5 136.125C265.625 135.8 266.325 135.375 266.6 135.15C267.125 134.725 267.675 134.325 268.25 134C269.525 133.275 270.95 132.925 272.4 133.15C272.875 133.225 273.075 132.5 272.6 132.425C269.7 131.975 266.675 133.55 264.8 135.725C264.3 136.3 264.375 137.1 265.2 137.35C265.65 137.475 266.15 137.3 266.575 137.2C267.8 136.925 269 136.825 270.2 137.35C270.625 137.6 271 136.95 270.575 136.75Z" fill="#E8E8E8"/>
<path d="M273.075 132.375C274.025 130.125 275.9 128.475 278.225 127.775C278.1 127.575 277.975 127.35 277.85 127.15C277 128.25 276.5 129.45 276.325 130.825C276.275 131.3 277.025 131.3 277.075 130.825C277.225 129.65 277.675 128.6 278.375 127.675C278.575 127.4 278.4 126.925 278 127.05C275.4 127.825 273.375 129.675 272.325 132.175C272.175 132.625 272.9 132.825 273.075 132.375Z" fill="#E8E8E8"/>
<path d="M276.875 131.275C278.825 130.15 281.125 130.125 283.1 131.2C283.1 130.975 283.1 130.775 283.1 130.55C281.525 131.3 280.025 132.2 278.6 133.2C278.2 133.475 278.575 134.125 278.975 133.85C280.4 132.85 281.9 131.95 283.475 131.2C283.725 131.075 283.7 130.675 283.475 130.55C281.25 129.325 278.675 129.35 276.5 130.625C276.075 130.875 276.45 131.525 276.875 131.275Z" fill="#E8E8E8"/>
<path d="M278.325 133.9C279.95 134.8 281.525 136.275 281.075 138.325C281.3 138.3 281.525 138.275 281.75 138.225C280.7 136.55 278.9 135.6 276.925 135.675C276.45 135.7 276.45 136.45 276.925 136.425C278.65 136.35 280.2 137.15 281.1 138.6C281.25 138.85 281.725 138.85 281.775 138.5C282.275 136.125 280.625 134.3 278.675 133.225C278.275 133.025 277.9 133.675 278.325 133.9Z" fill="#E8E8E8"/>
<path d="M276.275 136.3C277.425 142.3 277.85 148.375 277.525 154.475C277.5 154.95 278.25 154.95 278.275 154.475C278.6 148.325 278.175 142.15 277 136.1C276.9 135.625 276.175 135.825 276.275 136.3Z" fill="#E8E8E8"/>
<path d="M275.45 148.075C276.275 148.175 277.05 148.025 277.8 147.7C278.25 147.5 277.85 146.85 277.425 147.05C276.8 147.35 276.125 147.425 275.45 147.325C274.975 147.25 274.975 148 275.45 148.075Z" fill="#E8E8E8"/>
<path d="M226.25 151.925C230.35 152.175 234.5 152.25 238.575 152.725C240.575 152.95 242.5 153.55 244.475 153.85C246.4 154.125 248.275 153.85 250.2 153.5C258.625 152.025 267.1 152.825 275.525 153.725C276 153.775 276 153.025 275.525 152.975C267.375 152.1 259.1 151.25 250.95 152.6C248.65 152.975 246.475 153.425 244.15 153.025C242.275 152.7 240.475 152.2 238.6 151.975C234.525 151.5 230.375 151.425 226.275 151.175C225.775 151.125 225.775 151.875 226.25 151.925Z" fill="#E8E8E8"/>
<path d="M274.575 142.9C274.675 143.325 275.1 143.425 275.5 143.35C276.275 143.225 277.075 142.95 277.825 142.725C278.3 142.6 278.1 141.875 277.625 142C277.175 142.125 276.725 142.25 276.275 142.35C276.075 142.4 275.85 142.45 275.65 142.525C275.55 142.55 275.45 142.575 275.35 142.6C275.175 142.575 275.175 142.6 275.3 142.675C275.2 142.225 274.475 142.425 274.575 142.9Z" fill="#E8E8E8"/>
<path d="M242.9 133.35C240.425 132.55 243.65 128.3 245.375 130.2C246 130.875 245.975 132.05 245.4 132.75C244.75 133.55 243.625 133.675 242.75 133.175C242.325 132.925 241.95 133.575 242.375 133.825C243.65 134.55 245.375 134.275 246.175 133C246.9 131.825 246.7 130 245.425 129.275C242.65 127.725 239.325 133 242.725 134.1C243.175 134.225 243.375 133.5 242.9 133.35Z" fill="#E8E8E8"/>
<path d="M300.7 127.325C308.775 127.75 316.775 128.7 324.725 130.2C325.2 130.3 325.4 129.575 324.925 129.475C316.925 127.95 308.85 126.975 300.7 126.55C300.225 126.55 300.225 127.3 300.7 127.325Z" fill="#E8E8E8"/>
<path d="M300.575 129.5C308.275 130.325 316 131.2 323.675 132.125C324.15 132.175 324.15 131.425 323.675 131.375C315.975 130.45 308.275 129.575 300.575 128.75C300.1 128.7 300.1 129.45 300.575 129.5Z" fill="#E8E8E8"/>
<path d="M300.325 131.75C304.975 132.525 309.65 133.025 314.35 133.175C314.825 133.2 314.825 132.45 314.35 132.425C309.725 132.25 305.1 131.8 300.525 131.025C300.05 130.95 299.85 131.675 300.325 131.75Z" fill="#E8E8E8"/>
<path d="M297.525 145.225C303.85 146.125 310.2 146.875 316.55 147.475C317.025 147.525 317.025 146.775 316.55 146.725C310.25 146.125 303.975 145.375 297.725 144.5C297.25 144.425 297.05 145.15 297.525 145.225Z" fill="#E8E8E8"/>
<path d="M297.05 147.375C302.075 148.25 307.1 148.975 312.15 149.575C312.625 149.625 312.625 148.875 312.15 148.825C307.15 148.25 302.2 147.525 297.25 146.65C296.775 146.55 296.575 147.275 297.05 147.375Z" fill="#E8E8E8"/>
<path d="M296.525 150.55C302.825 151.8 309.175 152.65 315.575 153.05C316.05 153.075 316.05 152.325 315.575 152.3C309.25 151.875 302.95 151.05 296.725 149.825C296.25 149.725 296.05 150.45 296.525 150.55Z" fill="#E8E8E8"/>
<path d="M117 182.725C128.5 183.3 140.05 182.7 151.55 182.525C163.05 182.35 174.525 182.3 186.025 182.325C209.1 182.375 232.15 182.8 255.225 183.325C268.225 183.625 281.2 183.975 294.2 184.3C294.675 184.325 294.675 183.575 294.2 183.55C271.15 182.95 248.075 182.325 225 181.95C201.925 181.575 178.875 181.4 155.8 181.7C142.875 181.85 129.9 182.625 117 181.95C116.5 181.95 116.5 182.7 117 182.725Z" fill="#E8E8E8"/>
<path d="M116.55 94.675C118.05 94.9 119.1 93.875 122.075 91.675C126.55 88.35 127.5 88.25 128.175 88.3C128.5 88.325 129.1 88.425 131.925 90.55C136.05 93.65 136.3 94.6 137.65 94.675C140.1 94.775 140.45 91.675 143.375 91.4C146.025 91.15 146.85 93.575 150.125 93.45C152.65 93.375 154.125 91.825 154.35 92.15C154.625 92.575 152.25 95.85 148.825 96.375C146.3 96.75 145.75 95.275 143.3 95.625C139.9 96.125 139.25 99.225 136.75 99C135.275 98.85 135.075 97.75 132.525 96C131.175 95.075 128.825 93.475 126.25 93.275C121.525 92.925 119.075 97.5 116.225 96.175C114.85 95.55 114.075 93.85 114.25 93.65C114.375 93.45 115.25 94.475 116.55 94.675Z" fill="#282828"/>
<path d="M233.675 81.8501C232.15 88.7751 230.275 95.6251 228.075 102.375C227.925 102.825 228.65 103.025 228.8 102.575C231 95.8251 232.875 88.9751 234.4 82.0501C234.5 81.5751 233.775 81.3751 233.675 81.8501Z" fill="#E8E8E8"/>
<path d="M228.525 102.95C231.1 103.25 233.675 103.125 236.275 103.075C238.975 103 241.675 102.95 244.4 102.875C249.8 102.75 255.225 102.6 260.625 102.475C261.1 102.475 261.1 101.725 260.625 101.725C255.225 101.85 249.8 102 244.4 102.125C241.775 102.2 239.15 102.25 236.525 102.325C233.85 102.4 231.2 102.525 228.525 102.225C228.05 102.15 228.05 102.9 228.525 102.95Z" fill="#E8E8E8"/>
<path d="M237.825 88.8249C236.875 93.2749 236.075 97.75 235.4 102.25C235.325 102.725 236.05 102.925 236.125 102.45C236.8 97.95 237.6 93.475 238.55 89.0249C238.65 88.5499 237.925 88.3499 237.825 88.8249Z" fill="#E8E8E8"/>
<path d="M238.4 89.2251C239.725 89.3001 241.025 89.4251 242.325 89.6751C242.25 89.5251 242.15 89.3751 242.075 89.2251C240.9 93.4501 239.9 97.7251 239.075 102.025C238.975 102.5 239.7 102.7 239.8 102.225C240.625 97.9251 241.625 93.6501 242.8 89.4251C242.85 89.2501 242.75 89.0001 242.55 88.9751C241.175 88.7251 239.825 88.5751 238.425 88.5001C237.9 88.4501 237.9 89.2001 238.4 89.2251Z" fill="#E8E8E8"/>
<path d="M244.85 93.075C244.475 96.125 243.975 99.125 243.35 102.125C243.25 102.6 243.975 102.8 244.075 102.325C244.725 99.275 245.225 96.175 245.6 93.075C245.65 92.6 244.9 92.6 244.85 93.075Z" fill="#E8E8E8"/>
<path d="M245.225 93.125C246.625 93.075 248.05 93.1 249.45 93.2C249.325 93.05 249.2 92.875 249.1 92.725C248.55 95.7 248.075 98.675 247.675 101.675C247.6 102.15 248.35 102.15 248.425 101.675C248.825 98.75 249.275 95.85 249.825 92.925C249.875 92.675 249.725 92.475 249.475 92.45C248.075 92.35 246.65 92.35 245.25 92.375C244.725 92.375 244.725 93.125 245.225 93.125Z" fill="#E8E8E8"/>
<path d="M253.975 86.2751C253.1 91.5001 252.075 96.7251 250.95 101.9C250.85 102.375 251.575 102.575 251.675 102.1C252.8 96.9251 253.825 91.7001 254.7 86.4751C254.8 86.0001 254.075 85.8001 253.975 86.2751Z" fill="#E8E8E8"/>
<path d="M254.575 85.9001C254.575 85.9501 254.575 85.9751 254.575 86.0251C254.575 86.2251 254.75 86.4001 254.95 86.4001C255.15 86.4001 255.325 86.2251 255.325 86.0251C255.325 85.9751 255.325 85.9501 255.325 85.9001C255.325 85.7001 255.15 85.5251 254.95 85.5251C254.75 85.5501 254.575 85.7001 254.575 85.9001Z" fill="#E8E8E8"/>
<path d="M254.75 86.5251C255.9 86.7751 257 86.9001 258.175 86.8751C258.05 86.7251 257.925 86.5501 257.825 86.4001C256.85 91.6251 255.95 96.8751 255.1 102.125C255.025 102.6 255.75 102.8 255.825 102.325C256.675 97.0751 257.575 91.8251 258.55 86.6001C258.6 86.3751 258.45 86.1251 258.2 86.1251C257.1 86.1251 256.05 86.0251 254.975 85.8001C254.475 85.7001 254.275 86.4001 254.75 86.5251Z" fill="#E8E8E8"/>
<path d="M266.175 84.8251C274.675 84.7251 283.15 84.7751 291.65 85.0001C292.125 85.0001 292.125 84.25 291.65 84.25C283.15 84.05 274.675 84 266.175 84.075C265.7 84.075 265.7 84.8251 266.175 84.8251Z" fill="#E8E8E8"/>
<path d="M266.75 87.8751C272.025 88.2251 277.325 88.1501 282.6 87.6501C283.075 87.6001 283.075 86.8501 282.6 86.9001C277.325 87.4001 272.025 87.4751 266.75 87.1251C266.275 87.1001 266.275 87.8501 266.75 87.8751Z" fill="#E8E8E8"/>
<path d="M265.6 91.6501C272.85 91.5251 280.1 91.6501 287.35 92.0251C287.825 92.0501 287.825 91.3001 287.35 91.2751C280.1 90.875 272.85 90.75 265.6 90.9C265.125 90.9 265.125 91.6501 265.6 91.6501Z" fill="#E8E8E8"/>
<path d="M304.5 103.25C301.95 102.925 300.725 100.375 300 98.2C299.325 96.15 299.075 94 299.85 91.95C301.2 88.35 304.875 85.45 308.575 84.625C312.425 83.75 316.325 85.8 318.175 89.225C320.125 92.825 319.45 97.45 317.175 100.725C314.375 104.75 308.475 105.2 304.375 103.075C303.95 102.85 303.575 103.5 304 103.725C307.925 105.75 313.35 105.65 316.675 102.475C319.925 99.375 320.975 93.85 319.275 89.75C317.65 85.875 313.55 83.175 309.3 83.725C305.1 84.275 300.875 87.475 299.275 91.4C298.2 94.075 298.65 96.875 299.7 99.475C300.6 101.675 302.025 103.675 304.525 104C304.975 104.05 304.975 103.3 304.5 103.25Z" fill="#E8E8E8"/>
<path d="M305.55 85.625C306.725 88.65 307.8 91.725 308.825 94.825C308.975 95.275 309.7 95.075 309.55 94.625C308.525 91.525 307.45 88.475 306.275 85.425C306.1 85 305.375 85.175 305.55 85.625Z" fill="#E8E8E8"/>
<path d="M309.6 95.2501C312.55 93.2001 315.475 91.0751 318.325 88.9001C318.7 88.6001 318.325 87.9501 317.95 88.2501C315.075 90.4251 312.175 92.5501 309.225 94.6001C308.825 94.8751 309.2 95.5251 309.6 95.2501Z" fill="#E8E8E8"/>
<path d="M309.475 95.275C312.825 95.125 316.125 94.575 319.35 93.625C319.8 93.5 319.625 92.775 319.15 92.9C316 93.825 312.775 94.375 309.475 94.5C309 94.55 309 95.3 309.475 95.275Z" fill="#E8E8E8"/>
<path d="M308.875 95.0251C306.875 97.6001 304.9 100.175 302.9 102.75C302.6 103.125 303.25 103.5 303.55 103.125C305.55 100.55 307.525 97.9751 309.525 95.4001C309.825 95.0251 309.175 94.6501 308.875 95.0251Z" fill="#E8E8E8"/>
<path d="M117.5 181.45C116.875 181.275 117.25 180.45 117.525 180.175C117.825 179.875 118.575 179.9 118.975 179.9C119.7 179.875 120.425 179.9 121.175 179.875C122.675 179.875 124.175 179.85 125.675 179.85C128.675 179.825 131.675 179.825 134.675 179.8C140.6 179.775 146.5 179.725 152.425 179.7C164.35 179.625 176.25 179.575 188.175 179.55C211.925 179.475 235.65 179.475 259.4 179.6C265.9 179.65 272.425 179.65 278.925 179.925C282.15 180.05 285.375 180.25 288.6 180.55C290.2 180.7 291.825 180.875 293.425 181.075C293.95 181.15 294.475 181.2 295 181.3C295.425 181.375 295.675 181.3 295.825 181.7C296.225 182.65 294.95 183.625 294.175 183.675C293.7 183.7 293.7 184.45 294.175 184.425C295.85 184.3 297.025 182.6 296.4 181C296.35 180.875 296.275 180.75 296.15 180.75C284.225 178.975 272.15 178.975 260.125 178.9C247.7 178.825 235.3 178.8 222.875 178.775C197.975 178.775 173.05 178.875 148.15 179C141.15 179.05 134.15 179.075 127.15 179.125C125.475 179.125 123.825 179.15 122.15 179.15C120.75 179.15 119.1 178.925 117.75 179.325C116.45 179.7 115.6 181.75 117.3 182.225C117.75 182.3 117.95 181.575 117.5 181.45Z" fill="#E8E8E8"/>
<path d="M115.65 185.85C113.15 194.875 110.1 203.75 106.475 212.4C106.3 212.85 107.025 213.05 107.2 212.6C110.825 203.95 113.875 195.075 116.375 186.05C116.5 185.575 115.775 185.375 115.65 185.85Z" fill="#E8E8E8"/>
<path d="M115.9 186.6C122.325 187.375 128.95 186.85 135.4 186.775C135.875 186.775 135.875 186.025 135.4 186.025C128.95 186.125 122.325 186.625 115.9 185.85C115.4 185.8 115.425 186.55 115.9 186.6Z" fill="#E8E8E8"/>
<path d="M134.6 186.725C132.475 194.575 130.225 202.375 127.85 210.175C127.7 210.65 128.425 210.825 128.575 210.375C130.95 202.6 133.2 194.775 135.325 186.925C135.45 186.45 134.725 186.25 134.6 186.725Z" fill="#E8E8E8"/>
<path d="M106.825 212.775C110.35 212.75 113.85 212.725 117.375 212.7C119.1 212.7 120.8 212.675 122.525 212.675C124.05 212.675 125.575 212.725 127.075 212.375C127.55 212.275 127.35 211.55 126.875 211.65C125.3 212.025 123.65 211.925 122.025 211.925C120.3 211.925 118.6 211.95 116.875 211.95C113.525 211.975 110.175 212 106.825 212C106.35 212.025 106.35 212.775 106.825 212.775Z" fill="#E8E8E8"/>
<path d="M138.525 186.9C155.425 186.425 172.35 186.45 189.25 187C189.725 187.025 189.725 186.275 189.25 186.25C172.35 185.7 155.425 185.65 138.525 186.15C138.05 186.15 138.05 186.9 138.525 186.9Z" fill="#E8E8E8"/>
<path d="M137.825 191.3C147.625 191.275 157.425 191.275 167.25 191.25C167.725 191.25 167.725 190.5 167.25 190.5C157.45 190.525 147.65 190.525 137.825 190.55C137.325 190.55 137.325 191.3 137.825 191.3Z" fill="#E8E8E8"/>
<path d="M127.75 211.9C128.2 211.15 128.525 210.35 128.7 209.525C128.8 209.05 128.075 208.85 127.975 209.325C127.8 210.1 127.525 210.85 127.1 211.525C126.85 211.925 127.5 212.3 127.75 211.9Z" fill="#E8E8E8"/>
<path d="M221.55 189.1C219.55 198.65 217.625 208.2 215.75 217.75C215.65 218.225 216.375 218.425 216.475 217.95C218.35 208.4 220.275 198.85 222.275 189.3C222.375 188.825 221.65 188.625 221.55 189.1Z" fill="#E8E8E8"/>
<path d="M215.9 218.375C226.175 218.65 236.425 218.925 246.7 219.2C256.85 219.475 267 219.9 277.15 219.9C277.625 219.9 277.625 219.15 277.15 219.15C267 219.15 256.85 218.7 246.7 218.45C236.425 218.175 226.175 217.9 215.9 217.625C215.425 217.6 215.425 218.35 215.9 218.375Z" fill="#E8E8E8"/>
<path d="M216.65 218.3C219.75 214.95 222.85 211.575 225.95 208.225C225.775 208.225 225.6 208.225 225.425 208.225C226.45 209.5 227.65 210.55 229.05 211.4C229.475 211.65 229.85 211 229.425 210.75C228.075 209.95 226.925 208.925 225.95 207.7C225.825 207.55 225.55 207.575 225.425 207.7C222.325 211.05 219.225 214.425 216.125 217.775C215.8 218.125 216.325 218.65 216.65 218.3Z" fill="#E8E8E8"/>
<path d="M229.25 211.15C232.575 207.225 235.925 203.325 239.25 199.4C239.55 199.025 239.025 198.5 238.725 198.875C235.4 202.8 232.05 206.7 228.725 210.625C228.4 210.975 228.925 211.5 229.25 211.15Z" fill="#E8E8E8"/>
<path d="M238.725 199.025C239.4 199.925 240.075 200.8 240.75 201.7C240.9 201.9 241.125 201.95 241.35 201.775C244.4 199.275 247.375 196.65 250.25 193.95C250.6 193.625 250.075 193.1 249.725 193.425C246.85 196.125 243.875 198.75 240.825 201.25C241.025 201.275 241.225 201.3 241.425 201.325C240.75 200.425 240.075 199.55 239.4 198.65C239.075 198.25 238.425 198.625 238.725 199.025Z" fill="#E8E8E8"/>
<path d="M249.45 194.275C253.625 197.575 257.65 201.05 261.55 204.65C261.9 204.975 262.425 204.45 262.075 204.125C258.175 200.5 254.15 197.05 249.975 193.75C249.6 193.45 249.075 193.975 249.45 194.275Z" fill="#E8E8E8"/>
<path d="M262 204.55C267.15 201.275 270.85 196.225 275.875 192.775C276.275 192.5 275.9 191.85 275.5 192.125C270.475 195.575 266.775 200.625 261.625 203.9C261.225 204.15 261.6 204.8 262 204.55Z" fill="#E8E8E8"/>
<path d="M271.5 193.55C273.075 193.275 274.6 192.875 276.125 192.4C275.975 192.25 275.825 192.1 275.675 191.95C275.4 193.2 275.15 194.45 274.875 195.7C274.775 196.175 275.5 196.375 275.6 195.9C275.875 194.65 276.125 193.4 276.4 192.15C276.45 191.875 276.225 191.6 275.95 191.7C274.425 192.175 272.9 192.575 271.325 192.85C270.85 192.925 271.05 193.65 271.5 193.55Z" fill="#E8E8E8"/>
<path d="M230.75 191.075C229.875 200 228.975 208.925 228.1 217.85C228.05 218.325 228.8 218.325 228.85 217.85C229.725 208.925 230.625 200 231.5 191.075C231.525 190.6 230.775 190.6 230.75 191.075Z" fill="#E8E8E8"/>
<path d="M241.85 189.5C240.925 199.075 240.175 208.675 239.625 218.275C239.6 218.75 240.35 218.75 240.375 218.275C240.925 208.675 241.675 199.075 242.6 189.5C242.625 189 241.875 189.025 241.85 189.5Z" fill="#E8E8E8"/>
<path d="M262.8 189.225C261.825 199.225 261.125 209.225 260.7 219.275C260.675 219.75 261.425 219.75 261.45 219.275C261.875 209.25 262.575 199.225 263.55 189.225C263.6 188.75 262.85 188.75 262.8 189.225Z" fill="#E8E8E8"/>
<path d="M250.275 185.575C249.625 196.725 248.975 207.85 248.325 219C248.3 219.475 249.05 219.475 249.075 219C249.725 207.85 250.375 196.725 251.025 185.575C251.05 185.075 250.3 185.075 250.275 185.575Z" fill="#E8E8E8"/>
<path d="M172.35 191.175C177.425 191.625 182.5 190.5 187.575 191.125C188.05 191.175 188.05 190.425 187.575 190.375C182.5 189.75 177.425 190.875 172.35 190.425C171.85 190.4 171.875 191.15 172.35 191.175Z" fill="#E8E8E8"/>
<path d="M93.625 146.075C102.475 144.775 111 148.325 118.85 152.025C126.125 155.475 133.325 159 141.4 160.025C158.65 162.175 175.175 154.925 191.4 150.35C200.925 147.675 210.8 145.8 220.725 147.05C221.2 147.1 221.2 146.35 220.725 146.3C203.15 144.075 186.55 151.475 170 156.05C161.6 158.375 152.9 160.125 144.15 159.55C135.375 158.975 127.65 155.425 119.825 151.7C111.6 147.775 102.75 144 93.425 145.375C92.95 145.425 93.175 146.15 93.625 146.075Z" fill="#E8E8E8"/>
<path d="M140.975 152.9C163 154.075 183.4 144.25 204.475 139.525C210.55 138.175 216.725 137.225 222.975 137.1C223.45 137.1 223.45 136.35 222.975 136.35C200.975 136.85 180.85 146.975 159.45 150.85C153.35 151.95 147.175 152.5 140.975 152.175C140.5 152.1 140.5 152.85 140.975 152.9Z" fill="#E8E8E8"/>
<path d="M98.5999 127.325C108.575 128.025 117.675 132.475 126.875 135.95C136.225 139.475 145.975 141.45 155.975 141.2C161.7 141.05 167.4 140.225 172.95 138.775C173.425 138.65 173.225 137.925 172.75 138.05C162.675 140.7 152.1 141.2 141.825 139.425C132.025 137.725 123.2 133.45 113.925 130.125C108.975 128.35 103.875 126.95 98.5999 126.6C98.0999 126.55 98.1249 127.3 98.5999 127.325Z" fill="#E8E8E8"/>
<path d="M166.425 79.25C166.225 80.5 165.9 81.725 165.45 82.925C165.35 83.175 165.6 83.4 165.8 83.4C181.725 84.1 197.65 84.25 213.575 83.825C214.05 83.8 214.05 83.05 213.575 83.075C197.65 83.5 181.7 83.375 165.8 82.65C165.925 82.8 166.05 82.975 166.15 83.125C166.6 81.925 166.925 80.725 167.125 79.45C167.225 78.975 166.5 78.775 166.425 79.25Z" fill="#E8E8E8"/>
<path d="M166.925 79.5251C182.95 79.7251 198.95 79.9251 214.975 80.1251C215.45 80.1251 215.45 79.3751 214.975 79.3751C198.95 79.1751 182.95 78.9751 166.925 78.7751C166.45 78.7501 166.45 79.5001 166.925 79.5251Z" fill="#E8E8E8"/>
<path d="M214.9 79.675C214.4 80.85 214.025 82.075 213.825 83.35C213.75 83.825 214.475 84.025 214.55 83.55C214.75 82.35 215.075 81.175 215.55 80.05C215.725 79.6 215.075 79.225 214.9 79.675Z" fill="#E8E8E8"/>
<path d="M37.7999 223.15C33.525 224.175 29.225 225.2 24.95 226.225C27.175 240.275 28.925 247.275 30.15 247.175C31.2 247.1 31.8749 241.85 32.1749 231.425C34.5499 230.6 36.9249 229.8 39.2999 228.975C38.7999 227.05 38.2999 225.1 37.7999 223.15Z" fill="#161616" stroke="#161616" stroke-width="3" stroke-miterlimit="10"/>
<path d="M67.025 170.775C66.475 172.425 65.65 175.05 64.8 178.375C63.025 185.3 62.95 188.25 61.15 197.05C59 207.525 57.9 209.325 57.2 210.35C54.025 214.9 49.625 216.975 47.225 218.1C41.425 220.825 36.025 221.075 32.825 220.95C32.7 222.425 32.575 226.025 34.725 229.65C35.8 231.45 37.075 232.675 38.05 233.45C41.275 233.625 46.825 233.5 53.075 231.075C55.75 230.05 62.575 227.3 67.775 220.475C71.775 215.225 72.875 210.1 74.1 204.35C76.475 193.275 73.525 191.6 76.475 182.2C78.25 176.5 80.3 173.7 78.85 171.6C77.125 169.025 71.7 169.7 67.025 170.775Z" fill="#4C4C4C"/>
<path opacity="0.09" d="M67.325 170.8C67.075 173.475 66.7 177.175 66.175 181.575C65.7 185.45 65.175 189.65 64.325 194.55C62.85 202.95 62.1 207.15 60.5 210.65C59.1 213.7 56.4 219.35 50.2 223.625C43.75 228.05 37.075 228.475 34.1 228.5C33.75 227.7 33.4 226.675 33.175 225.5C32.85 223.8 32.85 222.325 32.95 221.225C34.875 221.25 37.525 221.1 40.6 220.425C45.95 219.225 49.525 217.05 50.45 216.475C52.725 215.05 55.1 213.575 57.05 210.675C58.375 208.725 58.925 206.95 59.825 203.25C61.15 197.8 61.825 195.1 62.375 191.1C62.975 186.475 64.3 179.725 67.325 170.8Z" fill="#3D3D3D"/>
<path opacity="0.12" d="M32.9999 221.15C32.8999 222.25 32.8499 223.75 33.1999 225.475C33.4499 226.75 33.8249 227.8 34.1749 228.625C37.5999 227.9 48.3749 225.15 55.0499 215.3C57.0249 212.375 58.1999 209.5 58.9249 207.025C58.2499 208.6 57.0749 210.9 54.9999 213.125C51.4249 216.95 47.3249 218.35 44.3749 219.35C41.8749 220.225 37.9749 221.225 32.9999 221.15Z" fill="#3D3D3D"/>
<path d="M65.2 246.1C63.25 251.475 61.3 256.85 59.35 262.25C73.05 263.85 80.025 264.075 80.275 262.875C80.475 261.95 76.425 260.125 68.175 257.45C69.3 254.125 70.45 250.8 71.575 247.475C69.45 247.025 67.325 246.55 65.2 246.1Z" fill="#161616" stroke="#161616" stroke-width="3" stroke-miterlimit="10"/>
<path d="M85.525 173.625C85.8 177.325 86.05 182.375 86 188.325C85.875 204.75 83.65 217.075 83 220.425C81.325 229.2 78.425 240.525 73.2 253.175C71.55 253.25 67.475 253.2 63.4 250.65C60.9 249.075 59.35 247.175 58.5 245.9C60.025 243 61.9 239.175 63.725 234.5C66.95 226.25 68.35 219.675 69.25 215.35C71.275 205.625 72.3 200.775 71.475 195.575C70.675 190.65 69.375 189.8 69.575 185.6C69.625 184.675 70.25 173.9 77 171.85C80.475 170.825 83.925 172.625 85.525 173.625Z" fill="#4C4C4C"/>
<path opacity="0.14" d="M79.6 171.75C81.825 172.7 81.1 178.95 80.9 180.6C78.225 204.15 81.9 191.475 78.675 206C74.25 225.95 68.275 245.125 66.175 251.725C65.675 251.725 64.975 251.675 64.225 251.325C63.525 251 63.375 250.575 62.525 249.9C61.6 249.175 61.275 249.225 60.575 248.725C59.95 248.275 59.175 247.475 58.625 246C59.925 243.45 61.475 240.175 63.05 236.225C65.05 231.225 66.15 227.425 67.35 223.325C67.35 223.325 71.1 210.4 71.775 200.525C71.9 198.55 71.8 197.2 71.65 196.225C71.425 194.675 71.1 193.9 70.6 192.05C70.475 191.575 69.775 188.875 69.55 186.85C68.925 180.875 72.1 176.075 73.6 174.35C74.125 173.725 74.825 173.05 75.825 172.525C76.2 172.35 78.375 171.225 79.6 171.75Z" fill="#3D3D3D"/>
<path opacity="0.11" d="M73.875 212.425C73.45 218.5 72.025 220.3 67.875 235.225C66.05 241.775 64.7 247.15 63.825 250.6C63.125 250.325 62.25 249.875 61.35 249.175C60 248.125 59.2 246.975 58.75 246.175C60 243.6 61.675 239.925 63.3 235.35C63.95 233.55 64.375 232.175 64.775 230.925C70.475 212.65 71.375 207.1 71.65 203.3C71.875 200.075 71.7 197.475 71.65 196.65C71.4 193.2 70.8 190.825 70.8 190.825C70.8 190.825 74.7 200.625 73.875 212.425Z" fill="#3D3D3D"/>
<path d="M42.275 162.45C42.325 162.375 42.575 162.4 43.075 162.45C43.925 162.525 44.2 162.65 44.75 162.7C45.275 162.725 45.975 162.775 46.175 162.45C46.45 162.025 45.575 161.2 44.35 159.425C42.25 156.425 42.35 155.375 42.525 154.9C42.575 154.775 42.725 154.3 43.05 154.225C43.475 154.125 43.95 154.7 44.4 155.275C45.15 156.2 45.45 156.925 45.525 156.875C45.675 156.825 44.8 154.95 45 152.65C45.05 152.025 45.15 151.125 45.6 151C46 150.875 46.6 151.375 47.075 152.175C47.075 152.075 47.2 150.7 47.675 150.6C48.05 150.525 48.475 151.25 48.9 151.95C49.25 152.525 49.475 153.05 49.6 153.4C49.575 152.7 49.95 152.125 50.475 151.95C51.05 151.775 51.575 152.225 51.6 152.25C52.175 152.775 52.125 153.7 52.125 154.025C52.075 155.45 52.225 157.85 52.55 161.35C53.2 161.1 54.15 160.65 55.2 159.95C56.275 159.225 57.4 158.275 60.175 154.95C61.25 153.65 61.8 153 62.75 151.725C66.175 147.15 68.2 144.45 70.25 140.625C70.9 139.4 71.95 137.325 74.125 135.475C74.825 134.875 76.2 133.75 77 134.175C77.575 134.475 77.625 135.425 77.6 136.825C77.575 139.875 77.55 141.375 77.025 143.45C75.825 148.25 73.6 151.6 73.1 152.35C71.125 155.25 69.15 156.925 66.6 159.1C63.95 161.35 61.75 163.2 58.275 164.6C56 165.5 54.2 165.825 52.3 166.175C49.15 166.725 47.525 167 45.9 166.3C43.575 165.3 42 162.825 42.275 162.45Z" fill="white"/>
<path d="M76.9 133.825C74.2 134.2 72.6 136.725 71.15 138.8C69.3 141.45 67.55 144.175 65.75 146.85C63.95 149.55 62.075 152.2 59.95 154.675C58.925 155.85 57.875 157 56.725 158.05C55.45 159.25 54.05 160.625 52.375 161.2C51.925 161.35 52.125 162.075 52.575 161.925C55.2 161.05 57.425 158.55 59.25 156.575C61.35 154.3 63.225 151.825 65 149.275C66.8 146.675 68.525 144 70.275 141.375C71.925 138.925 73.875 135 77.1 134.55C77.575 134.475 77.375 133.775 76.9 133.825Z" fill="black"/>
<path d="M53.2499 166.575C56.4499 166.275 59.1499 164.8 61.8249 163.1C64.4749 161.425 66.9999 159.5 69.2499 157.3C72.1499 154.5 74.5999 151.175 76.2249 147.45C77.8249 143.725 78.575 139.65 78.05 135.6C78 135.125 77.25 135.125 77.3 135.6C78.15 142.375 75.4499 149.1 71.0999 154.25C69.1499 156.55 66.8749 158.575 64.4749 160.375C61.1749 162.825 57.4249 165.45 53.2249 165.85C52.7749 165.875 52.7749 166.625 53.2499 166.575Z" fill="black"/>
<path d="M53.25 165.8C51.775 165.775 50.35 166.125 48.9 166.225C47.225 166.35 45.825 165.85 44.45 164.925C43.9 164.55 43.3 164.1 42.95 163.5C42.225 162.225 43.725 162.975 44.25 163.125C45.1 163.375 45.875 163.275 46.525 162.7C46.9 162.375 46.35 161.85 46 162.175C44.875 163.175 42.775 160.95 42.025 162.225C41.45 163.2 42.775 164.6 43.425 165.125C44.55 166.05 45.925 166.8 47.4 166.975C49.35 167.2 51.3 166.525 53.25 166.575C53.725 166.55 53.725 165.8 53.25 165.8Z" fill="black"/>
<path d="M46.575 162.275C46.075 160.6 44.95 159.3 44.05 157.825C43.925 157.625 42.425 154.9 42.925 154.675C43.8 154.275 45.05 156.8 45.225 157.3C45.375 157.75 46.1 157.55 45.95 157.1C45.55 155.95 44.85 154.875 43.8 154.175C43.25 153.8 42.45 153.525 42.2 154.375C41.875 155.525 42.725 157.075 43.3 158.025C44.2 159.5 45.375 160.775 45.875 162.475C46 162.95 46.725 162.75 46.575 162.275Z" fill="black"/>
<path d="M46.1749 157.075C45.9499 156.15 45.6499 155.2 45.4999 154.25C45.3999 153.675 45.3749 153.1 45.4249 152.525C45.4999 151.775 45.6499 151.025 46.2499 151.9C47.1749 153.275 47.4749 155.15 47.9249 156.7C48.0499 157.175 48.7749 156.975 48.6499 156.5C48.2749 155.175 47.9749 153.775 47.4249 152.5C47.1499 151.875 46.5249 150.475 45.6499 150.475C44.7499 150.475 44.7249 151.875 44.6749 152.5C44.5499 154.125 45.0499 155.675 45.4499 157.225C45.5499 157.75 46.2749 157.55 46.1749 157.075Z" fill="black"/>
<path d="M47.925 153.525C47.8 153 47.55 152.125 47.75 151.6C48.125 150.625 48.675 152.375 48.825 152.75C49.375 154.075 49.675 155.475 49.75 156.9C49.775 157.375 50.525 157.375 50.5 156.9C50.4 155.525 50.175 154.2 49.7 152.925C49.425 152.15 49.025 150.775 48.275 150.35C46.575 149.375 47.05 153.125 47.175 153.75C47.3 154.2 48.025 154 47.925 153.525Z" fill="black"/>
<path d="M50.45 154.4C50.425 154.15 50.25 152.8 50.55 152.55C51.375 151.825 51.6 153.15 51.7 153.55C51.875 154.4 51.85 155.35 51.925 156.225C52.05 158.025 52.175 159.8 52.3 161.6C52.325 162.075 53.075 162.075 53.05 161.6C52.925 159.8 52.8 158.025 52.675 156.225C52.6 154.975 52.7 153.325 52.05 152.2C51.7 151.6 51.1 151.05 50.4 151.5C49.5 152.1 49.625 153.7 49.75 154.6C49.8 155.075 50.525 154.875 50.45 154.4Z" fill="black"/>
<path opacity="0.09" d="M77.1749 134.7C77.0499 134.7 77.1499 136.675 76.3749 139.425C75.7749 141.525 74.7999 143.525 71.6499 147.675C68.7499 151.5 66.6499 154.275 62.9999 157.525C58.9999 161.1 56.9999 162.875 54.2499 163.55C48.2999 165.025 42.8249 161.6 42.2999 162.75C42.0249 163.375 43.5249 164.625 44.0999 165.05C44.8249 165.575 46.2249 166.4 49.5249 166.45C53.0499 166.5 55.7499 165.65 56.3499 165.45C62.6999 163.35 66.8749 159.2 69.0999 156.9C72.0499 153.9 74.4499 151.45 76.0249 147.35C78.5499 140.975 77.4249 134.7 77.1749 134.7Z" fill="#3D3D3D"/>
<path opacity="0.13" d="M76.675 144.35C76.5 144.25 75.45 146 73.95 148.075C73.95 148.075 70.35 153.075 65.7 157.325C63.15 159.65 58.5 163.25 51.125 166.075C52.65 166.175 54.925 166.125 57.45 165.275C58.25 165 60.25 164.25 65.075 160.05C68.925 156.7 71.075 154.85 73.225 151.6C75.55 148.125 76.925 144.475 76.675 144.35Z" fill="#3D3D3D"/>
<path d="M79.8 131.075C78.225 131.625 77.25 132.6 76.225 133.625C73.375 136.5 72.35 139.75 71.55 142.375C69.15 150.275 67.925 154.2 67.375 157.65C66.725 161.575 66.175 166.775 66.35 172.925C67.65 173.825 69.5 174.975 71.85 175.975C74.55 177.125 76.975 178.15 80.1 177.9C81.35 177.8 83.5 177.45 85.9 175.975C86.025 174.35 86.3 171.825 87.025 168.85C88.275 163.575 89.625 162.05 91.825 155.5C93.55 150.325 94.4 147.675 94.275 144.5C94.175 142.275 93.975 137.925 90.7 134.525C88.2 131.95 83.725 129.7 79.8 131.075Z" fill="white"/>
<path d="M78.675 131.25C75.675 133.05 73.85 136.05 72.35 139.125C70.75 142.45 69.55 145.95 68.675 149.55C66.85 157.05 66.4 164.825 66.1 172.525C66.075 173 66.825 173 66.85 172.525C67.125 165.175 67.55 157.8 69.2 150.6C70 147.075 71.1 143.6 72.625 140.3C74.1 137.075 75.925 133.75 79.05 131.9C79.45 131.65 79.075 131 78.675 131.25Z" fill="black"/>
<path d="M88.3499 132.875C91.1749 135.075 93.1249 138.175 93.7499 141.7C94.4499 145.725 93.4749 149.825 92.1249 153.6C90.8249 157.25 89.1249 160.725 87.9499 164.425C86.7749 168.05 86.05 171.825 85.75 175.625C85.7 176.1 86.4499 176.1 86.4999 175.625C86.8499 171.35 87.7499 167.125 89.1999 163.1C90.5749 159.25 92.3999 155.575 93.5749 151.65C94.6249 148.125 95.1749 144.3 94.2999 140.65C93.5249 137.35 91.5749 134.425 88.9 132.375C88.5 132.05 87.9749 132.575 88.3499 132.875Z" fill="black"/>
<path d="M66.2499 173.025C69.2749 175.725 73.0249 177.5 77.0499 178.075C80.2499 178.525 84.3749 178.55 86.4749 175.675C86.7499 175.275 86.0999 174.9 85.8249 175.3C83.7249 178.15 79.0749 177.775 76.0249 177.15C72.5749 176.45 69.3999 174.825 66.7749 172.5C66.4249 172.175 65.8999 172.7 66.2499 173.025Z" fill="black"/>
<path opacity="0.11" d="M83.0249 131.175C83.8749 132.65 80.7249 135.375 78.2999 139.625C76.7499 142.325 76.1499 144.675 74.9749 149.375C72.2249 160.375 72.7499 172.875 72.9749 176.5C70.8249 175.35 68.6999 174.225 66.5499 173.075C66.6499 170.625 66.8499 167.125 67.2499 162.925C67.8999 156.275 68.2749 152.65 69.5499 147.95C70.6749 143.875 71.7749 140.075 74.7749 136C76.7249 133.35 78.7999 131.525 80.2999 130.375C81.2499 130.325 82.5749 130.4 83.0249 131.175Z" fill="#3D3D3D"/>
<path opacity="0.15" d="M73.4751 138.725C73.8001 138.825 72.4751 144.05 70.3501 155.6C68.9501 163.175 68.6251 165.9 69.7501 169.275C71.2001 173.6 74.1251 176.225 73.5751 176.8C73.2251 177.15 71.7251 176.65 66.5501 172.775C66.4251 167.325 66.7751 159.8 68.9501 151.175C70.6751 144.35 73.1251 138.6 73.4751 138.725Z" fill="#3D3D3D"/>
<path d="M96.8 120.875C97.975 121.95 97.825 124.05 97.6 127.1C97.45 129.225 97.375 130.3 96.65 131.325C95.15 133.45 91.75 134.425 89.075 133.225C88.75 133.075 87.1 132.3 86.2 130.425C84.9 127.725 86.25 125.025 86.525 124.525C88.625 120.6 94.7 118.925 96.8 120.875Z" fill="#333333"/>
<path d="M96.85 107.05C97.8 107.25 98.375 108.575 99.525 111.25C100.5 113.525 100.95 115.375 101.15 116.25C101.475 117.775 101.65 119.075 101.725 120.05C101.05 120.25 100.375 120.425 99.7 120.625C99.55 121.5 99.225 122.8 98.575 124.25C97.675 126.25 96.925 127.975 95.175 128.775C93.15 129.7 90.975 128.875 90.25 128.525C89.975 129.225 89.575 130.025 89.05 130.875C88.675 131.475 88.275 131.975 87.925 132.4C85.65 132.975 84.6 132.375 84.2 132.075C82.1 130.525 82.275 125.525 85.5 119.875C85.325 119.6 85.05 119.2 84.7 118.75C83.975 117.85 83.725 117.825 83.4 117.3C83.3 117.15 82.525 115.825 83.15 114.625C83.45 114.05 84.075 113.55 84.775 113.5C85.625 113.425 85.9 114.1 86.625 114.3C87.875 114.675 89.25 113.325 92.675 110.1C95.55 107.4 96.125 106.9 96.85 107.05Z" fill="white"/>
<path d="M99.2499 111.15C100.425 114.1 101.175 117.175 101.45 120.35C101.475 120.7 102.05 120.7 102.025 120.35C101.75 117.125 101 114 99.7999 111C99.6749 110.65 99.1249 110.8 99.2499 111.15Z" fill="black"/>
<path d="M101.6 120.1C100.925 120.175 100.25 120.275 99.575 120.35C99.225 120.4 99.225 120.95 99.575 120.925C100.25 120.85 100.925 120.75 101.6 120.675C101.95 120.6 101.95 120.05 101.6 120.1Z" fill="black"/>
<path d="M99.4249 120.6C98.9749 123.1 97.9499 125.525 96.2749 127.45C94.2749 129.8 91.0999 128.575 88.6499 127.575C88.3249 127.425 88.1749 127.975 88.4999 128.125C90.7999 129.075 94.0999 130.375 96.1749 128.375C98.2249 126.425 99.4499 123.5 99.9499 120.75C100.025 120.4 99.4999 120.25 99.4249 120.6Z" fill="black"/>
<path d="M89.875 128.65C89.35 129.85 88.7 130.975 87.95 132.05C87.75 132.35 88.225 132.625 88.425 132.325C89.175 131.25 89.825 130.1 90.35 128.925C90.5 128.6 90.025 128.325 89.875 128.65Z" fill="black"/>
<path d="M88.4499 128.2C88.8249 128.6 89.2499 128.95 89.7249 129.2C90.0499 129.375 90.3249 128.9 89.9999 128.725C89.5499 128.475 89.1749 128.175 88.8249 127.8C88.5999 127.525 88.1999 127.925 88.4499 128.2Z" fill="black"/>
<path d="M97.1499 115.225C96.9999 114.925 97.0249 114.55 97.2249 114.3C97.0749 114.25 96.8999 114.225 96.7499 114.175C96.8249 114.6 96.8249 115 96.7999 115.425C96.8999 115.325 96.9999 115.225 97.0749 115.15C97.0999 115.2 97.1249 115.25 97.1749 115.3C97.2499 114.95 96.6999 114.8 96.6249 115.15C96.5499 115.45 96.7499 115.725 97.0749 115.725C97.2499 115.725 97.3499 115.6 97.3499 115.45C97.3999 114.975 97.3749 114.525 97.2999 114.05C97.2749 113.85 96.9499 113.775 96.8249 113.925C96.4499 114.4 96.3749 115 96.6749 115.525C96.8249 115.825 97.3249 115.55 97.1499 115.225Z" fill="black"/>
<path d="M95.65 111.85C96 110.975 97 110.725 97.775 111.225C98.075 111.425 98.35 110.925 98.05 110.75C96.95 110.025 95.6 110.5 95.1 111.7C94.975 112.05 95.525 112.2 95.65 111.85Z" fill="black"/>
<path d="M94.5 116.35C94.4 116.35 94.275 116.35 94.175 116.35C94.15 116.3 94.15 116.25 94.125 116.2C94.175 116.025 94.25 115.975 94.4 116.025C94.425 116.05 94.475 116.1 94.5 116.125C94.5 116.125 94.5 116.125 94.5 116.1C94.425 115.975 94.25 115.925 94.125 116C94 116.075 93.95 116.25 94.025 116.375C94.125 116.5 94.275 116.575 94.425 116.55C94.575 116.5 94.7 116.375 94.7 116.2C94.7 115.825 94.175 115.725 94 116.025C93.925 116.15 93.975 116.325 94.1 116.4C94.25 116.525 94.425 116.475 94.5 116.35Z" fill="black"/>
<path d="M95.75 117.5C95.7 117.55 95.625 117.625 95.55 117.675C95.55 117.675 95.55 117.675 95.575 117.675C95.525 117.675 95.475 117.675 95.425 117.675C95.425 117.675 95.4 117.675 95.4 117.65C95.375 117.625 95.325 117.575 95.3 117.55V117.575C95.3 117.5 95.275 117.425 95.275 117.35C95.3 117.325 95.325 117.3 95.35 117.275C95.225 117.375 95.175 117.525 95.25 117.65C95.325 117.775 95.525 117.85 95.625 117.75C95.8 117.625 95.925 117.375 95.725 117.2C95.65 117.125 95.525 117.075 95.4 117.125C95.275 117.15 95.225 117.225 95.175 117.35C95.125 117.5 95.225 117.65 95.375 117.7C95.55 117.75 95.7 117.65 95.75 117.5Z" fill="black"/>
<path d="M93.775 117.525C93.75 117.525 93.75 117.525 93.725 117.525C93.375 117.525 93.35 118.1 93.725 118.1C93.75 118.1 93.75 118.1 93.775 118.1C94.15 118.1 94.15 117.525 93.775 117.525Z" fill="black"/>
<path d="M96.0249 121.225C96.4249 122.45 97.0499 123.55 98.2999 124.025C98.6249 124.15 98.7749 123.625 98.4499 123.475C97.4249 123.075 96.8999 122.05 96.5749 121.05C96.4499 120.725 95.9249 120.875 96.0249 121.225Z" fill="black"/>
<path d="M95.9499 121.525C96.0999 121.3 96.3499 121.175 96.6499 121.125C96.7999 121.1 96.8749 120.9 96.8499 120.775C96.7999 120.6 96.6499 120.55 96.4999 120.575C96.0749 120.625 95.7249 120.875 95.4749 121.225C95.2499 121.525 95.7249 121.825 95.9499 121.525Z" fill="black"/>
<path d="M85.325 118.275C83.8 118.825 82.975 116.475 83.25 115.375C83.4 114.8 83.8 114.125 84.4 113.95C85.225 113.7 85.975 114.35 86.5 114.85C86.75 115.1 87.15 114.7 86.9 114.45C86.225 113.8 85.4 113.175 84.4 113.375C83.5 113.55 82.95 114.4 82.725 115.225C82.325 116.75 83.55 119.5 85.475 118.825C85.825 118.7 85.675 118.15 85.325 118.275Z" fill="black"/>
<path d="M94.875 107.6C94.575 107.95 94.125 108.525 93.6 109.275C91.7 112.05 91.875 113.175 90.55 113.975C89.525 114.6 87.95 114.8 86.75 114.3C85.85 113.925 85.6 113.35 84.825 113.375C83.975 113.4 83.175 114.1 82.85 114.925C82.45 115.9 82.85 116.8 83.125 117.375C83.375 117.9 83.725 118.675 84.475 118.85C84.95 118.95 85.375 118.775 85.6 118.65C85.575 118.925 85.525 119.35 85.5 119.875C85.375 122.05 85.625 123.55 85.725 124.525C85.975 126.875 86.2 128.75 85.5 130.525C84.425 133.175 81.75 134.35 80.775 134.775C76.625 136.6 72.775 135.075 72.25 134.85C71.425 134.5 67.475 132.875 66.5 129.175C65.9 126.95 66.575 124.7 66.85 123.75C66.975 123.35 67.3 122.35 67.95 121.2C69.375 118.65 71.425 117.1 72.85 116.225C73.325 114.5 74.125 112.025 75.525 109.2C77.1 106 77.975 104.225 79.975 102.575C83.15 99.9499 86.75 99.6249 87.925 99.5499C88.525 99.4999 91.475 99.3249 94.975 100.75C97.45 101.75 100.35 102.95 101.55 105.925C102.925 109.4 100.975 112.85 100.6 113.5C100.5 113.075 100.3 112.425 99.875 111.8C99.25 110.875 98.55 110.5 97.5 109.775C96.825 109.25 95.925 108.575 94.875 107.6Z" fill="#333333"/>
<path d="M84.5749 132.3C85.6499 132.925 86.8999 133.075 88.0999 132.675C88.5499 132.525 88.3499 131.8 87.8999 131.95C86.8999 132.275 85.8749 132.175 84.9499 131.65C84.5249 131.425 84.1499 132.075 84.5749 132.3Z" fill="black"/>
<path opacity="0.14" d="M83.3999 117.35C83.5999 117.925 84.1249 118.325 84.6999 118.4C85.3249 118.475 85.9499 118.175 86.2749 117.625C86.1499 118.45 86.0249 120.125 86.7999 121.975C87.8499 124.525 89.8999 125.725 90.7999 126.25C92.9999 127.5 95.0999 127.575 96.1249 127.55C95.8999 127.95 95.3999 128.6 94.5499 129.025C92.5249 130.025 90.3999 128.675 90.2749 128.6C89.7249 129.8 89.1499 130.675 88.6999 131.3C88.0749 132.15 87.8249 132.35 87.6499 132.425C86.4499 133.125 84.8749 132.4 84.4249 132.175C83.9249 132.65 83.1999 133.25 82.2499 133.825C81.4499 134.3 79.2999 135.55 76.3249 135.575C76.3249 135.575 72.3249 135.575 69.0999 132.875C67.8499 131.825 67.3249 130.9 67.1749 130.6C67.0499 130.35 66.5249 129.35 66.3999 127.725C66.1249 124.6 67.4749 121.95 68.2249 120.75C69.5749 118.6 71.2999 117.325 72.3999 116.65C72.3249 116.925 71.3999 120.8 73.4499 122.675C76.0249 125 81.8499 122.8 83.1249 119.45C83.4499 118.625 83.4499 117.85 83.3999 117.35Z" fill="#111111"/>
<path opacity="0.07" d="M86.45 124.275C86.25 124.375 86.725 125.675 87.175 126.6C87.9 128.125 88.8 129.25 89.45 129.925C89.625 129.475 89.8 129.025 89.975 128.6C90.55 128.85 91.625 129.2 92.975 129.125C93.875 129.075 94.6 128.85 95.1 128.65C91.25 128.575 89.3 127.4 88.225 126.325C87.35 125.45 86.65 124.175 86.45 124.275Z" fill="#3D3D3D"/>
<path d="M148.55 101.2C148.2 101 148.125 100.525 148.075 100.2C147.9 99.025 148.775 98.075 148.925 97.875C149.85 96.85 150.375 97.375 151.25 96.425C151.9 95.725 151.85 95.15 152.85 94.225C153.5 93.6 153.725 93.675 153.775 93.7C154.125 93.85 153.825 94.625 154.175 95.825C154.475 96.825 154.85 96.825 154.975 97.675C155 97.9 155.175 99.025 154.5 99.675C154.2 99.975 153.8 100.05 152.975 100.2C152.025 100.375 151.9 100.275 151.25 100.4C149.675 100.7 149.125 101.525 148.55 101.2Z" fill="white"/>
<path d="M148.475 100.15C144.7 104.05 140.925 107.975 137.15 111.875C136.675 112.425 136.65 113.25 137.075 113.8C137.55 114.4 138.4 114.55 139.075 114.125C142.95 109.625 146.8 105.1 150.675 100.6C149.95 100.45 149.225 100.3 148.475 100.15Z" fill="black"/>
<path d="M134.825 121.5C134.95 121.825 134.55 122.5 132.375 123.95C131.75 123.825 131.225 123.475 131.125 123.025C130.975 122.275 132.05 121.65 132.525 121.425C133.4 121.025 134.65 121.05 134.825 121.5Z" fill="black"/>
<path d="M90.8498 131.8C89.4998 132.1 87.1248 132.675 86.0248 134.625C85.2998 135.9 85.4498 137.25 85.4998 137.725C85.7498 139.85 87.2248 141.625 88.8998 142.4C90.9498 143.325 93.0748 142.625 94.1498 142.25C103.5 139.025 108.175 137.425 110.075 136.475C115.575 133.7 121.7 130.575 128.675 124.775C130.475 123.275 131.9 121.95 132.9 121C133.3 121.225 134.2 121.65 135.275 121.525C136.15 121.425 136.725 121.025 137.575 120.425C138.175 120 138.875 119.5 139.5 118.575C140.1 117.7 140.3 116.925 140.475 116.275C140.65 115.55 141 114.25 140.55 113.975C140.225 113.775 139.875 114.325 139 114.35C138.925 114.35 137.85 114.35 137.375 113.675C136.925 113.05 137.4 112.475 137 111.975C136.575 111.425 135.475 111.475 134.775 111.675C133.15 112.175 132.375 113.975 131.875 114.925C130.5 117.65 128.525 119.125 124.85 121.9C122 124.05 119.45 125.05 116.025 126.425C114.675 126.975 112.1 127.975 108.7 128.8C102.975 130.15 98.4498 130.1 90.8498 131.8Z" fill="white"/>
<path d="M86.7499 134.375C89.3249 131.8 93.3749 131.7 96.7749 131.225C100.75 130.675 104.725 130.075 108.625 129.15C115.55 127.55 122.425 124.875 127.85 120.175C129.275 118.925 130.6 117.55 131.7 115.975C132.7 114.55 134.6 110.35 136.95 112.35C137.325 112.65 137.85 112.125 137.475 111.825C136.575 111.05 135.375 111 134.325 111.525C132.85 112.275 132.175 113.925 131.3 115.25C129.025 118.7 125.575 121.35 122.025 123.375C114.55 127.625 105.95 129.15 97.5499 130.375C93.7499 130.925 89.1499 130.975 86.2499 133.85C85.8749 134.175 86.3999 134.7 86.7499 134.375Z" fill="black"/>
<path d="M86.1999 133.475C84.5249 136.325 84.8499 140.1 87.6499 142.125C90.9999 144.55 95.6999 142.25 99.1249 141.075C107.2 138.275 114.9 134.475 122.05 129.775C126.025 127.175 129.8 124.275 133.375 121.15C133.75 120.825 133.2 120.3 132.85 120.625C121.625 130.425 108 138.175 93.5499 142.05C91.0749 142.725 88.4999 142.575 86.8999 140.325C85.4999 138.4 85.6749 135.85 86.8499 133.875C87.0999 133.45 86.4499 133.075 86.1999 133.475Z" fill="black"/>
<path d="M140.075 113.45C140.2 114.025 140.325 114.65 140.275 115.25C140.175 116.075 139.775 116.35 139.475 117.025C139.35 117.325 139.325 117.625 139.225 117.925C139.025 118.6 138.75 118.75 138.275 119.15C137.75 119.575 137.45 120.075 137 120.55C136.275 121.325 135.85 121.075 134.95 120.975C134.3 120.9 133.625 120.8 132.975 120.725C132.5 120.675 132.5 121.425 132.975 121.475C134.05 121.625 135.875 122.25 136.875 121.725C137.275 121.525 137.5 121.15 137.75 120.8C138.075 120.35 138.375 119.975 138.875 119.725C139.125 119.6 139.25 119.7 139.475 119.5C139.75 119.275 139.825 118.9 139.9 118.575C140.075 117.775 140.325 117.25 140.675 116.55C141.2 115.525 141.025 114.375 140.8 113.3C140.7 112.775 139.975 112.975 140.075 113.45Z" fill="black"/>
<path d="M137 112.05C136.425 112.9 136.875 114.125 137.775 114.525C138.825 115 140 114.3 140.525 113.375C140.775 112.95 140.125 112.575 139.875 113C139.55 113.575 138.875 114.1 138.2 113.875C137.6 113.7 137.275 112.95 137.65 112.425C137.9 112.025 137.25 111.65 137 112.05Z" fill="black"/>
<path d="M137.475 112.4C141.25 108.475 144.975 104.5 148.65 100.475C148.975 100.125 148.45 99.575 148.125 99.95C144.45 103.975 140.725 107.95 136.95 111.875C136.6 112.2 137.125 112.75 137.475 112.4Z" fill="black"/>
<path d="M140.5 113.2C144.1 109.05 147.675 104.9 151.275 100.75C151.6 100.375 151.05 99.85 150.75 100.225C147.15 104.375 143.575 108.525 139.975 112.675C139.65 113.05 140.175 113.575 140.5 113.2Z" fill="black"/>
<path d="M134.525 121.4C134.05 121.875 133.575 122.375 133.1 122.85C132.95 123 132.725 123.325 132.55 123.425C131.925 123.75 131.6 123.125 131.375 122.725C131.125 122.3 130.475 122.675 130.725 123.1C131.1 123.725 131.725 124.525 132.55 124.275C133 124.15 133.325 123.7 133.625 123.375C134.1 122.9 134.575 122.4 135.05 121.925C135.4 121.575 134.85 121.05 134.525 121.4Z" fill="black"/>
<path d="M151.075 100.65C152.575 101.325 154.4 100.925 155.175 99.375C155.55 98.625 155.575 97.725 155.3 96.95C154.825 95.7 153.1 94.6 154.625 93.3C155 92.975 154.45 92.45 154.1 92.775C153.225 93.525 152.975 94.675 153.55 95.675C154.1 96.65 154.975 97.2 154.7 98.475C154.4 99.975 152.8 100.6 151.475 100C151 99.8 150.625 100.45 151.075 100.65Z" fill="black"/>
<path d="M148.6 99.825C148.75 98.725 149.15 98 150.125 97.45C150.625 97.175 151.15 96.95 151.6 96.6C152.525 95.85 152.8 94.475 153.9 93.925C154.325 93.7 153.95 93.075 153.525 93.275C152.9 93.575 152.525 94.05 152.175 94.65C151.625 95.525 151.125 96.1 150.2 96.575C148.7 97.35 148.075 98.125 147.85 99.825C147.8 100.3 148.55 100.3 148.6 99.825Z" fill="black"/>
<path d="M148.475 100.55C149.175 100.275 149.9 100.375 150.5 100.825C150.875 101.125 151.25 100.475 150.875 100.175C150.125 99.5999 149.125 99.4749 148.25 99.8249C147.825 99.9999 148.025 100.725 148.475 100.55Z" fill="black"/>
<path d="M150.95 97.1C151.925 96.775 152.925 96.75 153.925 97C154.4 97.1251 154.6 96.4 154.125 96.275C153 96 151.85 96.025 150.75 96.375C150.3 96.525 150.5 97.25 150.95 97.1Z" fill="#5222D0"/>
<path d="M150.525 97.1C152.35 96.325 152.9 94.2 154.6 93.25C154.45 93.05 154.3 92.85 154.15 92.65C152.85 93.825 154 95.425 154.325 96.725C154.5 96.575 154.7 96.45 154.875 96.3C153.925 95.9 152.975 95.725 151.95 95.8C152.05 96 152.175 96.175 152.275 96.375C152.625 95.7 153.05 95.1 153.525 94.5C153.325 94.375 153.1 94.25 152.9 94.125C152.7 94.65 152.45 95.3 152.55 95.85C152.575 96 152.75 96.125 152.9 96.125C153.5 96.1 153.65 95.275 153.85 94.825C153.625 94.75 153.375 94.7 153.15 94.625C153.2 95 153.325 95.45 153.275 95.85C153.325 95.75 153.4 95.625 153.45 95.525C153.275 95.625 152.6 95.55 152.3 95.625C151.8 95.725 151.375 95.9 150.925 96.15C150.6 96.325 150.75 96.875 151.125 96.85C151.75 96.8 152.375 96.725 153 96.675C153.475 96.625 153.475 95.875 153 95.925C152.375 95.975 151.75 96.05 151.125 96.1C151.2 96.325 151.25 96.575 151.325 96.8C151.85 96.525 152.425 96.325 153.025 96.3C153.25 96.275 153.6 96.375 153.8 96.225C154.25 95.9 153.95 95.125 153.9 94.65C153.85 94.325 153.375 94.075 153.2 94.45C153.175 94.525 152.775 95.375 152.9 95.375C153.025 95.475 153.15 95.55 153.25 95.65C153.175 95.275 153.475 94.65 153.6 94.325C153.725 93.975 153.2 93.675 152.975 93.95C152.45 94.575 152 95.25 151.6 95.975C151.475 96.2 151.625 96.575 151.925 96.55C152.825 96.475 153.65 96.6 154.475 96.95C154.775 97.075 155.125 96.875 155.025 96.525C154.775 95.525 153.675 94.05 154.65 93.175C154.975 92.875 154.55 92.375 154.2 92.575C152.525 93.525 151.925 95.65 150.125 96.425C149.7 96.65 150.1 97.275 150.525 97.1Z" fill="#282828"/>
<path d="M154.175 92.475C153.125 93.125 152.475 94.1001 151.7 95.0251C151.225 95.6001 150.7 95.9501 150.175 96.4501C149.975 96.6251 149.8 96.7251 149.8 97.0001C149.8 97.0501 149.825 97.1251 149.9 97.1501C151.475 97.8251 153.225 96.0251 154.775 97.3001C154.875 97.3751 155 97.3751 155.075 97.2501C155.525 96.6001 154.525 95.9751 154.15 95.5751C154.025 95.4501 153.775 95.5751 153.825 95.7501C153.9 96.0001 153.875 95.9751 154.05 96.1751C154.2 96.3751 154.525 96.1751 154.375 95.9751C154.325 95.8501 154.25 95.7501 154.2 95.6251C154.1 95.6751 154 95.7501 153.875 95.8001C154.05 95.9751 154.975 96.7001 154.75 97.0251C154.85 97.0001 154.95 97.0001 155.05 96.9751C154.525 96.5501 153.925 96.3501 153.225 96.3751C152.825 96.4001 152.425 96.4751 152.025 96.5501C151.7 96.6251 151.4 96.7001 151.075 96.7251C150.725 96.7751 150.3 96.9751 150.575 96.5001C150.725 96.2501 151.175 96.0251 151.375 95.8251C151.675 95.5251 151.95 95.2001 152.2 94.8501C152.85 94.0501 153.45 93.25 154.325 92.7C154.575 92.675 154.375 92.35 154.175 92.475Z" fill="#282828"/>
<path d="M150.325 97.275C151.075 97.375 151.8 97.125 152.55 97.025C153.175 96.95 153.675 97.05 154.25 97.25C154.575 97.375 154.775 97.45 155.125 97.4C155.25 97.375 155.325 97.3 155.3 97.175C155.25 96.85 155.175 96.675 155 96.4C154.875 96.2 154.55 96.4 154.675 96.6C154.85 96.8 154.925 97.025 154.95 97.275C155 97.2 155.075 97.125 155.125 97.05C154.425 97.125 153.725 96.625 153 96.625C152.15 96.65 151.275 97.05 150.425 96.925C150.175 96.875 150.075 97.225 150.325 97.275Z" fill="#282828"/>
<path d="M153.875 93.125C154 92.95 154.15 92.8 154.35 92.7C154.4 92.675 154.575 92.55 154.625 92.6C154.7 92.65 154.5 92.8 154.45 92.825C154.15 93.075 153.95 93.4 153.8 93.75C153.7 93.975 154.075 94.075 154.15 93.85C154.3 93.5 154.55 93.275 154.825 93C155 92.85 155.1 92.625 154.925 92.4C154.55 91.9 153.825 92.55 153.575 92.875C153.45 93.05 153.725 93.325 153.875 93.125Z" fill="#282828"/>
<path d="M154.725 92.3001C154.3 92.5751 154 93.0001 153.875 93.5001C153.825 93.7251 154.175 93.8251 154.225 93.6001C154.325 93.2001 154.55 92.8751 154.9 92.6251C155.125 92.4751 154.925 92.1501 154.725 92.3001Z" fill="#282828"/>
<path d="M86.4999 134.325C87.2999 132.75 90.1999 132.15 91.7999 131.95C92.2749 131.875 92.0749 131.15 91.5999 131.225C89.7999 131.475 86.7749 132.175 85.8499 133.95C85.6499 134.375 86.2999 134.775 86.4999 134.325Z" fill="black"/>
<path opacity="0.13" d="M85.6499 137.95C87.8999 137.8 91.1749 137.5 95.0499 136.75C106.15 134.625 114.05 130.5 118.875 127.95C122.875 125.825 128.175 122.65 134 118.075C136.55 117.25 138.125 116.125 139.125 115.225C139.8 114.625 140.3 114.025 140.55 114.15C140.95 114.375 140.325 116.45 139.475 117.95C138.725 119.3 137.85 120.075 137.575 120.325C136.875 120.925 136.475 121.35 135.8 121.525C134.55 121.85 133.425 121.175 133.05 120.925C132.125 121.65 130.775 122.725 129.1 124C122.35 129.125 118.95 131.7 114.475 134.15C110.35 136.4 106.9 137.75 100.175 140.35C99.5499 140.6 98.7249 140.875 97.0749 141.425C92.6749 142.9 91.6249 143.075 90.3999 142.85C89.8999 142.75 88.6749 142.525 87.5499 141.55C86.0749 140.225 85.7499 138.525 85.6499 137.95Z" fill="#3D3D3D"/>
<path opacity="0.19" d="M105.475 138.125C105.425 138.05 105.85 137.7 115.225 131.75C127.575 123.9 126.7 124.6 128 123.65C133.4 119.65 135.8 116.95 137.05 117.75C137.9 118.3 138.05 120.3 137.125 121.175C136.325 121.95 134.65 121.875 133.15 120.775C130.125 123.475 125.625 127.15 119.7 130.875C112.7 135.2 105.65 138.425 105.475 138.125Z" fill="#3D3D3D"/>
</svg>
