<svg width="400" height="300" viewBox="0 0 400 300" fill="none" xmlns="http://www.w3.org/2000/svg">
<g style="mix-blend-mode:multiply">
<path d="M357.3 254.05C360.725 251.25 364.3 248.575 367.475 245.5C368.95 244.075 370.325 242.525 371.375 240.75C371.925 239.85 372.375 238.875 372.7 237.875C372.975 237.05 373.25 235.775 372.05 235.65C371.6 235.6 371.125 235.7 370.7 235.825C370.225 235.95 370.025 235.225 370.5 235.1C371.925 234.75 373.975 234.85 373.75 236.85C373.475 239.1 372 241.4 370.65 243.125C367.15 247.625 362.2 251 357.825 254.575C357.45 254.875 356.925 254.35 357.3 254.05Z" fill="#E8E8E8"/>
<path d="M370.374 235.225C371.824 233.5 372.949 231.5 373.599 229.325C373.899 228.35 374.024 227.35 374.324 226.4C374.524 225.8 374.899 225.25 374.349 224.725C374.099 224.5 373.724 224.35 373.449 224.15C372.599 223.575 372.124 222.9 373.174 222.175C373.774 221.775 374.524 221.7 375.174 221.375C376.049 220.9 376.724 220.125 377.224 219.3C378.274 217.6 378.849 215.6 379.474 213.725C380.224 211.5 380.949 209.225 381.599 206.975C382.899 202.425 383.974 197.825 384.849 193.2C384.924 193.35 385.024 193.5 385.099 193.65C380.399 192.1 375.724 196.075 372.374 198.9C368.924 201.8 365.824 205.125 363.099 208.725C357.474 216.225 353.549 224.875 351.099 233.9C349.599 239.425 348.649 245.1 348.124 250.8C348.074 251.275 347.324 251.275 347.374 250.8C349.199 231.125 356.449 211.2 371.974 198.225C375.524 195.275 380.324 191.3 385.274 192.925C385.474 193 385.574 193.175 385.524 193.375C384.599 198.325 383.424 203.225 381.999 208.075C381.324 210.35 380.624 212.6 379.849 214.825C379.224 216.625 378.649 218.55 377.549 220.125C377.124 220.725 376.649 221.275 376.049 221.7C375.324 222.225 374.474 222.275 373.749 222.725C372.799 223.3 374.174 223.75 374.674 224.1C375.049 224.375 375.399 224.7 375.474 225.2C375.574 225.95 374.924 226.825 374.749 227.525C374.499 228.6 374.274 229.65 373.874 230.7C373.149 232.55 372.124 234.25 370.849 235.775C370.599 236.125 370.074 235.6 370.374 235.225Z" fill="#E8E8E8"/>
<path d="M381.074 197.225C370.624 209.025 362.499 222.8 357.199 237.65C355.724 241.775 354.499 245.975 353.474 250.225C353.349 250.7 352.649 250.5 352.749 250.025C356.449 234.625 363.099 219.95 372.299 207.025C374.849 203.425 377.599 199.975 380.524 196.675C380.874 196.35 381.399 196.875 381.074 197.225Z" fill="#E8E8E8"/>
<path d="M379.374 213.675C378.174 213.975 376.999 214.375 375.849 214.85C375.399 215.025 375.199 214.3 375.649 214.125C376.799 213.65 377.974 213.25 379.174 212.95C379.624 212.825 379.824 213.55 379.374 213.675Z" fill="#E8E8E8"/>
<path d="M370.574 230.275C368.949 230.225 367.599 231.075 366.274 231.875C365.074 232.6 363.899 233.325 362.749 234.125C360.374 235.775 358.224 237.725 356.799 240.275C356.574 240.7 355.924 240.325 356.149 239.9C357.649 237.25 359.899 235.2 362.374 233.5C363.674 232.6 365.049 231.75 366.424 230.95C367.724 230.175 369.049 229.525 370.599 229.55C371.049 229.525 371.049 230.275 370.574 230.275Z" fill="#E8E8E8"/>
<path d="M360.624 225.775C361.299 221.725 361.274 217.625 360.549 213.6C360.474 213.125 361.199 212.925 361.274 213.4C362.024 217.575 362.049 221.8 361.349 225.975C361.274 226.45 360.549 226.25 360.624 225.775Z" fill="#E8E8E8"/>
<path d="M361.899 208.65C361.374 203.7 360.324 198.75 358.574 194.1C357.099 190.175 354.899 186.325 351.124 184.225C351.324 184.125 351.499 184 351.699 183.9C351.299 190.85 347.224 197.025 347.049 204C346.949 203.875 346.874 203.75 346.774 203.65C347.724 203.9 348.674 204.15 349.624 204.4C349.899 204.475 349.999 204.825 349.799 205.025C348.649 206.125 348.424 207.675 348.374 209.2C348.349 210 347.924 213.875 348.849 214.125C349.074 214.2 349.199 214.475 349.074 214.675C346.299 219.125 347.574 224.4 348.349 229.2C349.149 234.15 349.249 239.15 348.674 244.1C348.624 244.575 347.874 244.575 347.924 244.1C348.574 238.525 348.249 233.05 347.299 227.55C346.524 223.1 345.899 218.325 348.399 214.275C348.474 214.45 348.549 214.65 348.624 214.825C347.949 214.65 347.724 214.125 347.624 213.475C347.449 212.275 347.574 210.95 347.599 209.75C347.624 207.85 347.824 205.875 349.274 204.5C349.324 204.7 349.374 204.925 349.449 205.125C348.499 204.875 347.549 204.625 346.599 204.375C346.449 204.325 346.324 204.175 346.324 204.025C346.499 197.025 350.549 190.875 350.974 183.925C350.999 183.65 351.274 183.45 351.549 183.6C355.274 185.675 357.524 189.35 359.074 193.225C361.049 198.15 362.149 203.425 362.699 208.7C362.699 209.125 361.949 209.125 361.899 208.65Z" fill="#E8E8E8"/>
<path d="M352.824 187.65C355.499 197.775 356.874 208.225 356.899 218.7C356.899 219.175 356.149 219.175 356.149 218.7C356.124 208.275 354.774 197.925 352.124 187.85C351.974 187.375 352.699 187.175 352.824 187.65Z" fill="#E8E8E8"/>
<path d="M59.299 172.675C57.699 177.825 56.499 183.075 55.749 188.425C55.374 191.125 55.099 193.875 54.974 196.6C54.924 197.3 54.899 198.025 54.874 198.725C54.849 199.15 54.974 199.85 54.824 200.25C54.674 200.625 54.149 200.875 53.849 201.125C53.324 201.55 52.799 201.975 52.299 202.4C52.274 202.2 52.249 202 52.224 201.8C52.924 202.225 53.599 202.425 54.424 202.45C54.599 202.45 54.724 202.575 54.774 202.725C55.499 204.975 54.974 207.35 53.349 209.1C53.249 208.875 53.174 208.675 53.074 208.45C55.674 208.35 55.724 211.35 55.474 213.2C55.124 215.775 54.624 218.35 53.899 220.85C52.449 225.75 50.024 230.4 46.049 233.75C45.674 234.05 45.149 233.525 45.524 233.225C48.874 230.4 51.124 226.6 52.574 222.475C53.249 220.525 53.774 218.525 54.174 216.525C54.499 214.85 56.124 209.1 53.074 209.2C52.724 209.225 52.599 208.8 52.799 208.55C54.224 207 54.674 204.9 54.024 202.925C54.149 203.025 54.274 203.1 54.374 203.2C53.424 203.2 52.624 202.975 51.799 202.45C51.624 202.325 51.524 202.025 51.724 201.85C52.649 201.1 53.924 200.45 54.074 199.2C54.224 197.875 54.174 196.5 54.274 195.175C54.449 192.7 54.699 190.225 55.074 187.75C55.824 182.575 56.999 177.475 58.549 172.475C58.724 172 59.449 172.2 59.299 172.675Z" fill="#E8E8E8"/>
<path d="M58.0743 173.8C59.0993 172.45 57.1743 171.45 56.0493 171.725C54.9243 172.025 53.9994 172.925 53.2244 173.725C51.7994 175.175 50.6744 176.875 49.6994 178.65C47.6744 182.3 45.9744 186.2 44.4744 190.075C41.3994 198.05 39.2744 206.4 38.1494 214.85C37.5244 219.65 37.1994 224.475 37.1994 229.3C37.1994 229.775 36.4494 229.775 36.4494 229.3C36.4494 219.25 37.8244 209.225 40.5244 199.575C41.8494 194.875 43.4744 190.275 45.3994 185.775C47.1744 181.625 49.0744 177.175 52.1244 173.775C53.3494 172.4 55.4243 170.275 57.4743 171C58.7243 171.425 59.5493 173.025 58.6993 174.175C58.4243 174.55 57.7743 174.2 58.0743 173.8Z" fill="#E8E8E8"/>
<path d="M40.0746 201.275C38.7996 197 37.3245 192.825 35.6495 188.7C34.7745 186.575 33.8495 184.45 32.8495 182.375C32.3745 181.4 31.8995 180.4 31.3995 179.425C31.0745 178.8 30.0995 176.05 29.0745 176.3C28.7745 176.375 28.5745 176.125 28.6245 175.85C28.8745 174.3 27.1245 172.975 26.1995 171.95C25.3745 171.05 24.5745 170.15 23.7495 169.25C22.0495 167.4 20.3745 165.55 18.6745 163.675C18.8745 163.625 19.0995 163.575 19.2995 163.5C16.7245 169.875 17.3995 176.85 18.8995 183.4C19.6745 186.75 20.6495 190.075 21.4745 193.425C22.0495 195.75 22.6745 199.275 25.5245 199.775C25.7245 199.8 25.8245 200.05 25.7745 200.225C25.0495 203.2 27.0495 205.95 28.3745 208.45C29.6245 210.8 30.7745 213.225 31.8245 215.7C33.8745 220.525 35.4995 225.5 36.7245 230.575C36.8495 231.05 36.1245 231.25 35.9995 230.775C34.6495 225.15 32.7995 219.675 30.4245 214.4C29.2995 211.9 28.0495 209.45 26.7245 207.05C25.5245 204.875 24.4245 202.575 25.0245 200.05C25.0995 200.2 25.1995 200.35 25.2745 200.5C22.8495 200.075 21.7995 197.625 21.1745 195.475C20.1495 191.875 19.2245 188.175 18.3495 184.525C16.6745 177.575 15.7745 170.1 18.5245 163.3C18.6245 163.05 18.9495 162.9 19.1495 163.125C21.2745 165.45 23.3995 167.8 25.5245 170.125C26.5245 171.225 27.5995 172.275 28.5245 173.45C29.1245 174.25 29.4495 175 29.2995 176C29.1495 175.85 28.9995 175.7 28.8495 175.55C30.6495 175.1 31.5245 178.05 32.1245 179.225C33.3245 181.6 34.4495 184 35.4745 186.425C37.5245 191.175 39.2745 196.075 40.7495 201.025C40.9495 201.525 40.2246 201.725 40.0746 201.275Z" fill="#E8E8E8"/>
<path d="M20.5239 170.15C28.324 184.7 36.274 199.7 38.149 216.325C38.199 216.8 37.449 216.8 37.399 216.325C35.524 199.825 27.599 184.925 19.8739 170.525C19.6239 170.1 20.2739 169.725 20.5239 170.15Z" fill="#E8E8E8"/>
<path d="M53.0491 180.15C46.9741 196.225 43.3491 213.175 42.2741 230.325C42.2491 230.8 41.4991 230.8 41.5241 230.325C42.5991 213.1 46.2241 196.1 52.3242 179.95C52.4992 179.525 53.2241 179.7 53.0491 180.15Z" fill="#E8E8E8"/>
<path d="M368.949 172.1C353.699 169.375 337.949 169.525 322.749 172.55C315.224 174.05 307.849 176.225 300.749 179.075C293.324 182.05 286.199 185.625 278.924 188.925C251.474 201.375 222.099 209.525 192.174 213.075C175.199 215.1 158.049 215.625 140.999 214.675C140.524 214.65 140.524 213.9 140.999 213.925C171.599 215.65 202.424 212.525 232.074 204.75C246.949 200.85 261.524 195.775 275.599 189.6C282.899 186.4 290.024 182.8 297.349 179.675C304.349 176.7 311.574 174.3 318.974 172.6C335.399 168.85 352.549 168.425 369.149 171.4C369.624 171.45 369.424 172.175 368.949 172.1Z" fill="#E8E8E8"/>
<path d="M232.949 204.2C218.724 204.925 204.999 199.8 191.624 195.7C177.624 191.425 163.574 187.275 149.499 183.225C135.499 179.2 121.499 174.975 107.274 171.75C93.0991 168.55 78.6491 167.025 64.1241 166.6C47.9491 166.1 31.7741 166.825 15.6241 167.575C15.1491 167.6 15.1491 166.85 15.6241 166.825C44.1491 165.525 73.0491 164.25 101.249 169.725C115.549 172.5 129.549 176.75 143.549 180.725C157.624 184.75 171.674 188.875 185.699 193.1C193.474 195.45 201.224 198 209.049 200.15C216.849 202.3 224.849 203.85 232.974 203.45C233.424 203.425 233.424 204.175 232.949 204.2Z" fill="#E8E8E8"/>
<path d="M293.65 178.55C283.775 181.4 273.525 179.425 263.675 177.525C253.125 175.5 242.475 174.125 231.725 173.7C210.425 172.9 189.25 175.95 168.025 176.8C156.275 177.275 144.475 177 132.875 175.075C132.4 175 132.6 174.275 133.075 174.35C153.95 177.825 175.15 175.75 196.1 174.175C206.575 173.375 217.075 172.7 227.6 172.875C238.025 173.05 248.45 174.05 258.75 175.875C270.15 177.875 282 181.175 293.475 177.85C293.925 177.7 294.125 178.425 293.65 178.55Z" fill="#E8E8E8"/>
<path d="M249.4 226.725C246.2 225.4 242.75 224.725 239.275 224.825C236.05 224.925 233.15 225.975 230.025 226.625C227.7 227.125 225.375 227.125 223.5 225.475C222.775 224.85 222.15 224.2 221.1 224.525C220.325 224.75 219.675 225.275 218.95 225.6C218.1 226 217.225 226.15 216.325 225.975C214.175 225.55 212.55 223.775 210.675 222.75C207.5 221.05 204.45 223.325 201.35 224.15C194.9 225.875 188 225.35 181.4 225.275C173.275 225.2 165.125 225.25 157.05 224.25C156.575 224.2 156.575 223.45 157.05 223.5C164.3 224.375 171.625 224.425 178.925 224.5C185.875 224.575 193.225 225.225 200.075 223.675C201.675 223.325 203.175 222.8 204.7 222.175C206.025 221.625 207.4 221.1 208.85 221.3C211.125 221.6 212.825 223.4 214.75 224.5C215.75 225.075 216.85 225.475 218 225.15C219.25 224.775 220.275 223.675 221.65 223.625C222.95 223.6 223.575 224.65 224.525 225.325C225.85 226.25 227.525 226.275 229.075 226.025C232.375 225.5 235.45 224.225 238.825 224.075C242.5 223.9 246.175 224.575 249.6 226C250.05 226.175 249.85 226.9 249.4 226.725Z" fill="#E8E8E8"/>
<path d="M233.449 204.425C232.999 204.5 232.574 204.6 232.124 204.675C231.649 204.775 231.474 204.125 231.924 203.95C232.199 203.85 232.474 203.75 232.774 203.65C233.174 203.5 233.449 204.15 233.074 204.325C230.774 205.525 228.374 206.475 225.874 207.15C225.399 207.275 225.199 206.55 225.674 206.425C228.124 205.775 230.449 204.85 232.699 203.675C232.799 203.9 232.899 204.125 232.999 204.35C232.724 204.45 232.449 204.55 232.149 204.65C232.074 204.4 232.024 204.175 231.949 203.925C232.399 203.85 232.824 203.75 233.274 203.675C233.724 203.6 233.924 204.325 233.449 204.425Z" fill="#E8E8E8"/>
<path d="M267.049 239.075C267.599 238.425 268.099 237.75 268.524 237C268.724 236.625 268.974 236.225 269.099 235.8C269.274 235.525 269.299 235.2 269.199 234.875C269.274 234.525 269.174 234.25 268.924 234.05C268.549 233.025 268.999 231.95 269.249 230.9C269.624 229.25 269.999 227.6 270.374 225.95C270.574 225.075 270.774 224.225 270.949 223.35C271.049 222.95 271.124 222.575 271.224 222.175C271.374 221.475 271.524 221.15 270.999 220.575C270.749 220.05 270.374 219.95 269.874 220.35C269.649 220.575 269.424 220.8 269.199 221.025C268.949 221.35 268.774 221.725 268.574 222.075C268.224 222.725 267.874 223.375 267.549 224.025C266.774 225.575 266.099 227.175 265.524 228.8C264.424 231.85 263.674 235 263.224 238.225C263.099 238.075 262.974 237.9 262.874 237.75C262.824 237.8 262.799 237.875 262.749 237.925C262.624 237.45 263.349 237.25 263.474 237.725C263.574 238.175 263.349 238.5 262.874 238.5C262.599 238.5 262.474 238.275 262.524 238.025C263.099 233.9 264.174 229.875 265.824 226.05C266.599 224.25 267.424 222.25 268.574 220.65C269.199 219.775 270.324 218.975 271.399 219.6C272.624 220.3 272.049 222.025 271.799 223.1C271.299 225.3 270.799 227.5 270.324 229.7C270.099 230.75 269.624 231.925 269.574 233C269.549 233.875 270.274 234.275 270.149 235.15C269.899 236.775 268.674 238.425 267.649 239.625C267.274 239.95 266.749 239.425 267.049 239.075Z" fill="#E8E8E8"/>
<path d="M264.749 228.325C265.124 226.075 265.074 223.775 264.549 221.55C264.424 220.975 264.249 220.425 264.049 219.875C263.699 218.925 263.199 219.025 262.699 219.725C262.049 220.65 261.549 221.675 261.174 222.725C259.649 227.075 260.324 231.75 260.974 236.175C261.049 236.65 260.324 236.85 260.249 236.375C259.424 230.8 258.574 224.475 261.949 219.5C262.324 218.95 262.824 218.025 263.599 218.15C264.424 218.3 264.699 219.425 264.924 220.075C265.824 222.8 265.974 225.7 265.499 228.5C265.374 229 264.649 228.8 264.749 228.325Z" fill="#E8E8E8"/>
<path d="M263.4 222.575C262.65 226.475 262.375 230.4 262.5 234.35C262.525 234.825 261.775 234.825 261.75 234.35C261.6 230.325 261.925 226.325 262.675 222.375C262.775 221.9 263.475 222.1 263.4 222.575Z" fill="#E8E8E8"/>
<path d="M355.349 169.275C356.074 167.675 357.699 166.55 358.724 165.15C359.849 163.6 360.799 161.925 361.724 160.275C361.799 160.45 361.874 160.65 361.949 160.825C356.924 159.925 354.024 164.875 353.049 169.05C352.949 169.525 352.224 169.325 352.324 168.85C353.399 164.225 356.699 159.15 362.149 160.1C362.399 160.15 362.474 160.45 362.374 160.65C361.449 162.325 360.524 164 359.374 165.525C358.349 166.925 356.699 168.1 355.999 169.65C355.799 170.1 355.149 169.725 355.349 169.275Z" fill="#E8E8E8"/>
<path d="M353.174 165.25C352.799 161.325 349.049 158.875 347.599 155.4C347.774 155.475 347.974 155.55 348.149 155.625C346.474 156.7 347.724 160.6 348.199 162.1C348.899 164.3 350.049 166.3 351.524 168.05C351.824 168.425 351.299 168.95 350.999 168.575C349.149 166.4 347.824 163.875 347.149 161.1C346.724 159.35 345.924 156.175 347.774 154.975C347.999 154.825 348.249 155 348.324 155.2C349.824 158.8 353.524 161.15 353.924 165.25C353.974 165.725 353.224 165.725 353.174 165.25Z" fill="#E8E8E8"/>
<path d="M131.175 176.6C131.4 176.025 131.625 175.45 131.85 174.875C131.975 174.6 132.075 174.3 132.2 174.025C132.35 173.825 132.35 173.6 132.225 173.375C132 173.575 131.55 173.45 131.575 173.1C131.7 171.85 131.825 170.575 131.95 169.325C131.975 169.025 132.275 167.85 132.1 167.625C131.325 166.55 130.8 168.325 130.725 168.6C130.05 170.9 130.075 173.55 130.1 175.925C130.1 176.4 129.35 176.4 129.35 175.925C129.325 173.975 129.425 172.05 129.7 170.125C129.875 168.9 130.075 167.125 131.275 166.4C132.05 165.925 132.7 166.425 132.85 167.25C133 168.05 132.75 169 132.675 169.775C132.575 170.875 132.45 171.975 132.35 173.075C132.125 172.975 131.925 172.9 131.7 172.8C132.125 172.4 132.775 172.475 133.025 173.025C133.2 173.4 133.05 173.8 132.925 174.175C132.625 175.05 132.225 175.9 131.9 176.775C131.725 177.25 131 177.05 131.175 176.6Z" fill="#E8E8E8"/>
<path d="M129.5 172.525C129.6 169.025 128.875 165.6 127.35 162.425C127.55 162.45 127.75 162.475 127.95 162.5C126.325 163.85 127.4 167.5 127.675 169.25C128.05 171.6 128.525 173.95 129.125 176.25C129.25 176.725 128.525 176.925 128.4 176.45C127.675 173.65 127.125 170.8 126.725 167.925C126.475 166.075 125.75 163.35 127.425 161.95C127.6 161.8 127.9 161.8 128.025 162.025C129.6 165.3 130.375 168.85 130.275 172.5C130.225 173 129.475 173 129.5 172.525Z" fill="#E8E8E8"/>
<path d="M260.7 249.05C259.125 247.45 256.675 249.6 254.85 249.5C253.975 249.45 253.175 249.125 252.375 248.85C251.3 248.5 250.275 248.375 249.15 248.475C244.7 248.85 240.374 249.175 235.899 248.875C235.424 248.85 235.424 248.1 235.899 248.125C238.324 248.275 240.724 248.325 243.15 248.225C245.6 248.125 248.15 247.525 250.575 247.7C251.55 247.775 252.45 248.1 253.375 248.4C254.725 248.825 255.75 248.75 257.05 248.275C258.475 247.75 260.075 247.325 261.25 248.525C261.575 248.875 261.05 249.4 260.7 249.05Z" fill="#E8E8E8"/>
<path d="M307.924 255.125C306.174 253.225 303.099 253.1 301.249 254.9C301.224 254.7 301.199 254.5 301.174 254.3C302.474 254.925 303.799 255.2 305.224 255.125C305.699 255.1 305.699 255.85 305.224 255.875C303.649 255.95 302.199 255.65 300.774 254.95C300.549 254.85 300.524 254.525 300.699 254.35C302.849 252.275 306.424 252.375 308.449 254.575C308.774 254.95 308.249 255.475 307.924 255.125Z" fill="#E8E8E8"/>
<path d="M377.599 261.875C378.874 261.775 380.149 262.15 381.124 263.025C381.724 263.575 382.574 264.6 381.799 265.325C380.924 266.125 378.824 265.6 377.799 265.5C375.924 265.3 374.099 264.95 372.274 264.475C371.799 264.35 371.999 263.625 372.474 263.75C374.674 264.325 376.899 264.7 379.174 264.85C379.624 264.875 380.099 264.925 380.549 264.925C381.674 264.875 381.149 264.025 380.599 263.55C379.774 262.8 378.699 262.525 377.599 262.625C377.099 262.65 377.124 261.9 377.599 261.875Z" fill="#E8E8E8"/>
<path d="M341.875 241.25C341.825 241.05 341.675 240.925 341.475 240.925C341.3 240.9 341.125 240.875 340.975 240.85C340.575 240.8 340.2 240.825 339.8 240.875C339.025 240.975 338.325 241.25 337.65 241.675C337.625 241.45 337.6 241.225 337.55 241C338.475 241.325 339.4 241.4 340.375 241.25C340.85 241.175 341.05 241.9 340.575 241.975C339.475 242.15 338.425 242.075 337.35 241.725C337.05 241.625 336.975 241.225 337.25 241.05C338.55 240.225 340.25 239.825 341.775 240.25C342.6 240.475 343.25 241.75 342.075 242C341.6 242.075 341.4 241.35 341.875 241.25Z" fill="#E8E8E8"/>
<path d="M321.174 69.325C327.124 67.225 331.374 61.45 332.024 55.2C332.699 48.75 329.074 42.6 323.624 39.3C317.749 35.75 309.399 35.725 304.574 41.1C302.099 43.825 300.574 47.55 299.674 51.075C298.749 54.7 298.599 58.725 300.674 62C302.774 65.275 306.524 67.1 310.049 68.475C313.774 69.95 318.249 71.1 321.899 68.8C322.299 68.55 322.674 69.2 322.274 69.45C318.999 71.5 315.049 70.975 311.549 69.825C308.124 68.7 304.499 67.125 301.849 64.575C295.924 58.9 298.349 49.525 302.049 43.3C303.999 40 306.924 37.575 310.649 36.575C314.199 35.625 317.999 35.95 321.374 37.325C327.574 39.875 332.424 45.825 332.824 52.625C333.274 60.125 328.449 67.55 321.374 70.05C320.924 70.225 320.724 69.5 321.174 69.325Z" fill="#E8E8E8"/>
<path d="M133.2 214.45C116.15 213.375 99.1995 211.075 82.4995 207.55C77.6745 206.525 72.8745 205.4 68.0995 204.175C67.6245 204.05 67.8245 203.325 68.2995 203.45C84.8495 207.675 101.7 210.725 118.7 212.5C123.525 213 128.35 213.4 133.175 213.7C133.675 213.725 133.675 214.475 133.2 214.45Z" fill="#E8E8E8"/>
<path d="M172.275 232.5C170.075 232.875 167.825 232.85 165.65 232.325C164.3 232 163.325 231.475 161.925 231.925C161.05 232.2 160.224 232.3 159.324 232.125C158.324 231.925 157.399 231.425 156.549 230.875C155.624 230.25 154.699 229.375 153.574 229.15C152.274 228.9 151.099 229.925 149.849 230.2C148.949 230.4 148.024 230.375 147.124 230.225C146.649 230.15 146.849 229.425 147.324 229.5C148.899 229.775 150.124 229.375 151.549 228.75C152.149 228.475 152.724 228.325 153.399 228.375C155.424 228.6 156.824 230.5 158.699 231.175C159.899 231.6 160.875 231.45 162.05 231.075C162.95 230.8 163.6 230.95 164.475 231.225C166.95 232 169.475 232.225 172.025 231.8C172.525 231.7 172.75 232.425 172.275 232.5Z" fill="#E8E8E8"/>
<path d="M296.15 265.025C276.725 265.025 257.3 265.025 237.875 265.025C236.9 265.025 236.9 263.525 237.875 263.525C257.3 263.525 276.725 263.525 296.15 263.525C297.125 263.525 297.125 265.025 296.15 265.025Z" fill="#161616"/>
<path d="M233.699 264.575C231.424 264.575 229.149 264.575 226.874 264.575C225.899 264.575 225.899 263.075 226.874 263.075C229.149 263.075 231.424 263.075 233.699 263.075C234.674 263.075 234.674 264.575 233.699 264.575Z" fill="#161616"/>
<path d="M221.824 264.35C221.099 264.35 220.349 264.35 219.624 264.35C218.649 264.35 218.649 262.85 219.624 262.85C220.349 262.85 221.099 262.85 221.824 262.85C222.799 262.85 222.799 264.35 221.824 264.35Z" fill="#161616"/>
<path d="M358.825 270.525C344.45 270.525 330.1 270.525 315.725 270.525C314.75 270.525 314.75 269.025 315.725 269.025C330.1 269.025 344.45 269.025 358.825 269.025C359.775 269.025 359.775 270.525 358.825 270.525Z" fill="#161616"/>
<path d="M311.549 270.525C307.799 270.525 304.074 270.525 300.324 270.525C299.349 270.525 299.349 269.025 300.324 269.025C304.074 269.025 307.799 269.025 311.549 269.025C312.499 269.025 312.499 270.525 311.549 270.525Z" fill="#161616"/>
<path d="M293.949 270.075C293.724 270.075 293.499 270.075 293.299 270.075C292.899 270.075 292.524 269.725 292.549 269.325C292.574 268.925 292.874 268.575 293.299 268.575C293.524 268.575 293.749 268.575 293.949 268.575C294.349 268.575 294.724 268.925 294.699 269.325C294.674 269.725 294.374 270.075 293.949 270.075Z" fill="#161616"/>
<path d="M366.724 270.725C366.199 270.725 365.699 270.725 365.174 270.725C364.199 270.725 364.199 269.225 365.174 269.225C365.699 269.225 366.199 269.225 366.724 269.225C367.699 269.225 367.699 270.725 366.724 270.725Z" fill="#161616"/>
<path d="M168.624 243.25C148.474 243.25 128.324 243.25 108.149 243.25C107.174 243.25 107.174 241.75 108.149 241.75C128.299 241.75 148.449 241.75 168.624 241.75C169.599 241.75 169.599 243.25 168.624 243.25Z" fill="#161616"/>
<path d="M100.249 242.375C81.9994 242.375 63.7494 242.375 45.4994 242.375C44.5244 242.375 44.5244 240.875 45.4994 240.875C63.7494 240.875 81.9994 240.875 100.249 240.875C101.199 240.875 101.199 242.375 100.249 242.375Z" fill="#161616"/>
<path d="M40.6496 241.925C39.1746 241.925 37.7247 241.925 36.2497 241.925C35.2747 241.925 35.2747 240.425 36.2497 240.425C37.7247 240.425 39.1746 240.425 40.6496 240.425C41.6246 240.425 41.6246 241.925 40.6496 241.925Z" fill="#161616"/>
<path d="M59.9992 233.575C55.8242 233.575 51.6492 233.575 47.4741 233.575C46.4991 233.575 46.4991 232.075 47.4741 232.075C51.6492 232.075 55.8242 232.075 59.9992 232.075C60.9742 232.075 60.9742 233.575 59.9992 233.575Z" fill="#161616"/>
<path d="M43.2992 233.35C42.2742 233.35 41.2493 233.35 40.2243 233.35C39.2493 233.35 39.2493 231.85 40.2243 231.85C41.2493 231.85 42.2742 231.85 43.2992 231.85C44.2492 231.85 44.2492 233.35 43.2992 233.35Z" fill="#161616"/>
<path d="M180.725 247.65C175.375 247.65 170.025 247.65 164.675 247.65C163.7 247.65 163.7 246.15 164.675 246.15C170.025 246.15 175.375 246.15 180.725 246.15C181.675 246.15 181.675 247.65 180.725 247.65Z" fill="#161616"/>
<path d="M158.949 247.425C156.674 247.425 154.399 247.425 152.124 247.425C151.149 247.425 151.149 245.925 152.124 245.925C154.399 245.925 156.674 245.925 158.949 245.925C159.924 245.925 159.924 247.425 158.949 247.425Z" fill="#161616"/>
<path d="M149.05 251.175C147.5 251.175 145.975 251.175 144.425 251.175C143.45 251.175 143.45 249.675 144.425 249.675C145.975 249.675 147.5 249.675 149.05 249.675C150.025 249.675 150.025 251.175 149.05 251.175Z" fill="#161616"/>
<path d="M255.525 125.825C256.425 124.7 253.025 124 252.475 123.775C251.4 123.3 250.725 122.425 250.475 121.275C250.225 120.1 250.475 118.85 250.125 117.7C249.6 116 247.65 116.1 246.2 116.175C245.225 116.225 245.25 114.725 246.2 114.675C247.85 114.575 249.75 114.625 250.9 115.975C251.925 117.175 251.725 118.8 251.85 120.275C251.95 121.6 252.45 122.25 253.75 122.625C254.5 122.85 255.25 122.975 255.875 123.45C257.025 124.275 257.5 125.725 256.575 126.875C256 127.65 254.925 126.575 255.525 125.825Z" fill="#161616"/>
<path d="M250.199 127.075C250.874 126.275 249.324 125.475 248.824 125.175C248.149 124.775 247.574 124.4 247.074 123.8C246.049 122.575 245.374 120.25 243.524 120.15C242.574 120.1 242.549 118.6 243.524 118.65C246.599 118.8 246.849 122 248.949 123.5C249.849 124.125 250.924 124.475 251.499 125.475C252.024 126.375 251.924 127.35 251.274 128.125C250.649 128.875 249.574 127.8 250.199 127.075Z" fill="#161616"/>
<path d="M133.05 46.15C133.15 47.75 134.4 49.675 132.9 51.025C131.6 52.175 129.975 51.325 128.5 51.425C126.875 51.55 127.575 53.05 127.775 54.15C127.925 54.975 128 55.875 127.625 56.675C127.025 57.925 125.4 58.725 124.2 57.825C123.45 57.25 124.2 55.95 124.95 56.525C126.175 57.45 126.425 55.225 126.3 54.55C126.175 53.825 125.925 53.1 125.9 52.35C125.875 51.3 126.425 50.475 127.4 50.125C128.6 49.7 129.675 50.175 130.875 50.15C133.05 50.1 131.6 47.45 131.525 46.15C131.475 45.175 132.975 45.175 133.05 46.15Z" fill="#161616"/>
<path d="M124.45 47.875C125.075 49.225 125.675 50.825 124.675 52.175C124.3 52.675 123.8 52.975 123.2 53.075C122.8 53.125 122.275 52.95 121.925 53.1C121.35 53.325 121.025 54 121.3 54.6C121.725 55.475 120.425 56.225 120 55.35C119.475 54.225 119.675 52.925 120.675 52.1C121.225 51.65 121.725 51.65 122.4 51.575C124.225 51.4 123.725 49.875 123.15 48.65C122.75 47.775 124.05 47 124.45 47.875Z" fill="#161616"/>
<path d="M44.7743 99.725C45.3243 98.3 43.9994 96.25 42.3244 96.775C41.0494 97.2 40.4744 99.1 41.3244 100.15C41.9244 100.9 40.8744 101.95 40.2744 101.2C38.7244 99.325 39.4994 96.05 41.9243 95.325C44.5993 94.525 47.1743 97.575 46.1994 100.1C45.8744 101.025 44.4243 100.625 44.7743 99.725Z" fill="#161616"/>
<path d="M336.624 159.075C336.774 157.3 334.524 156.3 333.574 157.975C332.774 159.425 334.349 160.7 335.724 160.225C336.624 159.9 337.024 161.35 336.124 161.675C333.349 162.675 330.724 159.525 332.399 157.025C334.199 154.35 338.374 155.925 338.099 159.075C338.049 160.025 336.549 160.05 336.624 159.075Z" fill="#161616"/>
<path d="M327.925 89C328.5 89.95 328.55 91.175 327.8 92.05C327.425 92.475 326.9 92.75 326.35 92.85C325.575 92.975 325 92.55 324.325 92.875C323.65 93.225 323.8 93.65 323.725 94.35C323.7 94.775 323.675 95.175 323.625 95.6C323.575 96.05 323.525 96.5 323.2 96.85C322.9 97.175 322.525 97.3 322.1 97.375C321.8 97.425 321.5 97.4 321.175 97.4C320.925 97.4 320.65 97.4 320.4 97.45C319.925 97.575 319.725 97.9 319.775 98.375C320.15 98.65 319.8 99.3 319.4 99.025C318.65 98.475 318.9 97.625 319.55 97.075C319.85 96.825 320.175 96.7 320.575 96.65C321.875 96.475 322.625 96.975 322.925 95.15C323.075 94.25 322.75 92.375 323.675 91.775C324.1 91.5 324.475 91.625 324.9 91.8C325.575 92.075 326.125 92.3 326.825 91.875C327.775 91.3 327.8 90.175 327.275 89.325C327.025 88.975 327.675 88.6 327.925 89Z" fill="#5E5E5E"/>
<path d="M317.825 91.975C318.325 92.85 318.925 94.175 318.15 95.075C317.65 95.675 316.8 95.6 316.15 95.975C315.125 96.55 314.65 97.75 314.85 98.875C314.925 99.35 314.2 99.55 314.125 99.075C313.925 97.95 314.175 96.85 314.95 96C315.275 95.625 315.7 95.35 316.15 95.15C316.675 94.925 317.575 94.65 317.75 94C317.875 93.525 317.375 92.725 317.175 92.35C316.95 91.925 317.6 91.55 317.825 91.975Z" fill="#5E5E5E"/>
<path d="M177.1 170.925C177.95 169.175 176.35 167.125 174.45 167.8C172.475 168.5 172.55 171.2 174.425 171.95C174.875 172.125 174.675 172.85 174.225 172.675C171.8 171.7 171.475 168.225 174 167.175C176.6 166.075 178.9 168.9 177.725 171.325C177.525 171.75 176.875 171.35 177.1 170.925Z" fill="#494949"/>
<path d="M269.175 165C270.775 164.675 268.2 162.95 267.925 162.775C267.525 162.5 267.15 162.2 266.95 161.725C266.275 160.2 267.5 157.15 264.8 157C264.325 156.975 264.325 156.225 264.8 156.25C265.85 156.3 266.625 156.875 267.1 157.775C267.875 159.225 266.95 161.2 268.45 162.2C269.3 162.775 270.2 163.15 270.3 164.275C270.35 164.95 270.075 165.55 269.375 165.7C268.9 165.825 268.7 165.1 269.175 165Z" fill="#7F7F7F"/>
<path d="M264.374 162.825C265.074 161.85 264.674 160.475 263.499 160.1C262.699 159.85 262.099 159.975 261.649 159.15C261.199 158.3 261.274 157.3 260.774 156.425C260.149 155.3 259.099 154.525 257.899 154.15C257.449 154 257.624 153.275 258.099 153.425C259.224 153.775 260.199 154.4 260.924 155.325C261.299 155.8 261.624 156.35 261.824 156.95C262.099 157.75 261.974 158.825 262.874 159.25C263.424 159.525 263.974 159.375 264.499 159.775C264.849 160.025 265.099 160.4 265.249 160.775C265.599 161.6 265.524 162.475 264.999 163.2C264.749 163.6 264.099 163.225 264.374 162.825Z" fill="#7F7F7F"/>
<path d="M289.799 47.85C290.249 46.95 288.324 47.275 288.249 47.3C287.974 47.4 287.699 47.625 287.449 47.775C287.049 48 286.599 48.225 286.124 48.25C285.499 48.275 284.974 48 284.574 47.55C283.424 46.15 283.849 42.525 281.149 43.6C280.349 43.925 279.449 44.4 278.574 44C277.874 43.675 277.724 42.975 277.824 42.275C277.874 41.925 278.274 41.225 278.174 40.875C277.974 40.2 277.349 40.15 276.874 40.375C276.649 40.475 276.449 40.625 276.199 40.7C275.449 40.975 274.724 40.925 274.274 40.225C274.024 39.825 274.674 39.45 274.924 39.85C275.424 40.65 277.424 39 278.324 39.5C279.049 39.875 279.024 40.625 278.849 41.325C278.649 42.15 278.149 43.35 279.674 43.325C280.349 43.325 280.974 42.75 281.624 42.625C282.399 42.475 283.099 42.675 283.599 43.275C284.849 44.75 284.374 48.6 287.274 47.025C288.124 46.575 288.824 46.125 289.774 46.55C290.499 46.875 290.849 47.5 290.474 48.225C290.224 48.65 289.599 48.275 289.799 47.85Z" fill="#303030"/>
<path d="M260.024 68.25C261.149 67.975 261.299 66.525 260.749 65.675C259.974 64.475 258.149 64.55 256.924 64.775C254.874 65.15 252.974 65.95 250.899 65.175C248.899 64.425 247.399 62.8 245.149 62.75C242.799 62.7 240.574 63.725 238.199 63.65C234.049 63.525 230.274 61.475 226.299 60.525C223.949 59.95 221.649 59.9 219.299 60.5C217.049 61.075 214.949 62 212.699 62.55C210.349 63.15 208.024 63.05 205.649 62.85C203.049 62.65 200.374 62.45 198.024 63.8C198.074 63.65 198.149 63.525 198.199 63.375C199.449 67.05 203.499 68.55 207.074 68.75C211.549 69 215.899 67.375 220.399 67.55C224.949 67.725 228.799 70.5 233.274 70.925C237.849 71.375 242.174 69.2 246.724 69.325C251.349 69.45 257.374 71.975 261.024 67.85C261.349 67.5 261.874 68.025 261.549 68.375C258.674 71.6 254.124 71.025 250.299 70.45C247.474 70.025 244.899 70 242.074 70.55C239.674 71.025 237.274 71.675 234.824 71.725C229.874 71.85 225.699 68.65 220.824 68.325C215.899 68 211.124 69.975 206.199 69.425C202.524 69.025 198.699 67.3 197.449 63.55C197.399 63.4 197.474 63.2 197.624 63.125C202.024 60.55 207.324 62.975 212.049 61.9C214.649 61.3 217.074 60.15 219.699 59.6C221.974 59.1 224.224 59.225 226.474 59.775C228.874 60.35 231.149 61.3 233.499 62.025C236.199 62.85 238.774 63.1 241.574 62.525C243.799 62.05 245.849 61.675 247.949 62.725C248.924 63.225 249.824 63.9 250.824 64.35C252.524 65.1 254.149 64.65 255.874 64.225C257.699 63.8 260.449 63.5 261.474 65.525C262.124 66.8 261.674 68.625 260.174 68.975C259.749 69.075 259.549 68.35 260.024 68.25Z" fill="#E8E8E8"/>
<path d="M364.124 106.775C360.724 106.325 357.499 108.075 354.124 107.65C352.749 107.475 351.474 106.875 350.199 106.35C349.599 106.1 348.974 105.875 348.324 105.725C347.099 105.45 345.999 105.775 344.799 106.025C341.449 106.75 337.699 105.95 334.349 105.475C332.699 105.25 331.074 105 329.424 104.725C327.549 104.4 325.674 103.9 323.799 103.7C321.824 103.5 319.499 104.375 320.299 106.8C320.974 108.875 323.499 109.475 325.399 109.625C328.699 109.875 331.974 108.925 335.274 109.55C338.349 110.125 341.099 111.725 344.074 112.6C345.724 113.1 347.374 113.3 349.074 113.075C350.774 112.825 352.374 112.4 354.124 112.525C357.674 112.75 361.449 114.825 364.999 114C367.174 113.5 368.299 111.5 367.249 109.425C366.224 107.425 363.874 106.9 361.824 106.9C361.349 106.9 361.349 106.15 361.824 106.15C364.699 106.15 368.099 107.4 368.399 110.7C368.674 113.75 365.674 115 363.099 114.9C361.224 114.825 359.374 114.275 357.549 113.85C355.174 113.3 352.999 113.1 350.599 113.55C348.824 113.875 347.174 114.05 345.374 113.7C343.524 113.35 341.774 112.6 340.049 111.9C338.299 111.2 336.524 110.475 334.649 110.2C332.449 109.875 330.249 110.225 328.049 110.35C325.174 110.525 320.599 110.4 319.549 107C319.174 105.775 319.449 104.35 320.524 103.55C321.574 102.775 322.999 102.825 324.224 102.975C328.724 103.6 333.149 104.625 337.699 105.125C340.249 105.4 342.699 105.725 345.199 105.125C347.224 104.625 348.824 104.975 350.724 105.75C351.724 106.15 352.699 106.6 353.749 106.8C355.049 107.05 356.399 106.875 357.699 106.65C359.824 106.25 361.899 105.7 364.049 105.975C364.599 106.075 364.599 106.825 364.124 106.775Z" fill="#E8E8E8"/>
<path d="M59.4997 136.5C64.2247 138.15 69.7497 134.25 73.1497 131.3C73.1997 131.5 73.2497 131.725 73.3247 131.925C70.9247 130.95 68.3997 130.9 65.8497 131.05C63.3247 131.175 60.7997 131.35 58.2747 131.425C52.8997 131.575 47.4997 131.45 42.1497 131.05C39.3747 130.85 36.6247 130.575 33.8747 130.25C32.5247 130.075 30.8997 129.75 29.6247 130.375C27.8497 131.275 27.9997 133.225 29.6997 133.975C30.5747 134.35 31.5247 134.475 32.4497 134.65C33.8997 134.9 35.3497 135.175 36.7997 135.425C39.4497 135.9 42.0997 136.375 44.7747 136.85C46.2997 137.125 47.8247 137.4 49.3497 137.675C50.7747 137.925 52.2497 138.3 53.7247 138.325C56.2247 138.35 58.0997 136.15 60.5997 136.425C61.0747 136.475 61.0747 137.225 60.5997 137.175C59.1747 137 58.0497 137.775 56.8247 138.35C55.8247 138.825 54.8497 139.075 53.7497 139.075C50.8747 139.05 47.8997 138.175 45.0747 137.65C42.0247 137.1 38.9497 136.55 35.8997 136C34.4497 135.75 32.9997 135.475 31.5497 135.225C30.5747 135.05 29.5497 134.825 28.6997 134.25C27.2747 133.275 27.2247 131.475 28.4247 130.3C30.2997 128.45 33.5247 129.425 35.7997 129.675C41.9497 130.35 48.1497 130.7 54.3497 130.675C57.7497 130.675 61.1497 130.55 64.5497 130.325C67.5747 130.15 70.6497 130 73.4997 131.15C73.7247 131.25 73.8996 131.575 73.6746 131.775C70.0746 134.9 64.3247 138.925 59.2997 137.175C58.8497 137.075 59.0247 136.35 59.4997 136.5Z" fill="#E8E8E8"/>
<path d="M174.15 268.575C174.375 267.15 172.35 267.375 171.55 267.65C170.925 267.85 170.325 268.1 169.675 268.175C168.125 268.375 166.6 267.85 165.15 267.375C163.75 266.9 162.275 266.375 160.775 266.525C158.975 266.7 157.525 268.175 157.8 270.075C158.1 272.05 160.125 272.975 161.925 272.425C163.15 272.05 164.225 271.275 165.5 271.075C168.2 270.675 171.025 273.025 173.625 271.775C174.05 271.575 174.45 272.2 174 272.425C172.45 273.175 170.9 272.825 169.325 272.375C168.325 272.1 167.275 271.75 166.225 271.775C165 271.8 164 272.4 162.925 272.85C161.4 273.5 159.8 273.625 158.45 272.525C157.3 271.6 156.8 270.125 157.15 268.7C158.2 264.575 162.95 265.85 165.8 266.8C167.15 267.25 168.575 267.675 170.025 267.375C170.95 267.175 171.825 266.6 172.825 266.625C174.025 266.65 175.1 267.525 174.9 268.775C174.8 269.25 174.075 269.05 174.15 268.575Z" fill="#E8E8E8"/>
<path d="M202.975 260.25C201.775 259.125 200.125 258.65 198.5 259C197.825 259.15 195.95 259.65 197.125 260.55C197.75 261.025 199.125 260.975 199.875 260.975C200.35 260.975 200.35 261.725 199.875 261.725C198.775 261.725 196.85 261.675 196.025 260.8C195.325 260.05 196.125 259.225 196.8 258.85C198.95 257.6 201.725 258.075 203.5 259.725C203.85 260.05 203.325 260.575 202.975 260.25Z" fill="#E8E8E8"/>
<path d="M216.874 276.825C217.074 276.75 217.249 276.675 217.449 276.6C217.474 276.8 217.499 277 217.524 277.2C215.999 276.1 214.274 276.9 212.649 277.275C211.274 277.6 210.074 277.45 208.724 277.125C207.049 276.725 205.349 276.475 203.624 276.375C202.824 276.325 202.024 276.3 201.224 276.275C200.474 276.25 198.599 275.875 199.249 277.15C200.024 278.675 202.274 278.725 203.649 278.275C204.824 277.9 205.924 277.35 207.174 277.65C208.474 277.95 209.574 278.775 210.924 279.05C212.724 279.425 214.499 279.25 216.224 278.625C216.674 278.475 216.874 279.175 216.424 279.35C214.724 279.95 212.949 280.15 211.149 279.85C209.124 279.5 207.324 277.925 205.224 278.5C203.724 278.925 202.499 279.6 200.899 279.125C199.874 278.825 198.424 277.925 198.224 276.775C197.974 275.425 199.649 275.475 200.524 275.5C202.549 275.55 204.599 275.65 206.624 275.95C207.724 276.125 208.774 276.425 209.849 276.625C211.174 276.875 212.249 276.625 213.524 276.275C215.024 275.85 216.574 275.6 217.924 276.55C218.124 276.7 218.174 276.95 217.999 277.15C217.624 277.575 217.224 277.675 216.699 277.575C216.199 277.475 216.399 276.75 216.874 276.825Z" fill="#E8E8E8"/>
<path d="M113.624 262.5C112.174 261.9 110.649 261.575 109.074 261.6C107.449 261.625 106.074 262.25 104.524 262.6C102.249 263.15 100.549 261.75 98.699 260.675C95.774 258.95 92.874 260.075 89.824 260.7C87.649 261.15 85.324 261.225 83.449 259.9C83.049 259.625 83.424 258.975 83.824 259.25C86.174 260.95 89.074 260.125 91.649 259.5C94.074 258.925 96.474 258.6 98.749 259.85C99.749 260.4 100.674 261.125 101.724 261.6C103.324 262.325 104.624 261.75 106.174 261.3C108.699 260.575 111.374 260.775 113.799 261.775C114.274 261.95 114.074 262.675 113.624 262.5Z" fill="#E8E8E8"/>
<path d="M287.449 139.4C285.224 138.55 281.324 143.125 279.399 146.125C276.449 150.65 275.974 154.6 274.524 163.75C273.974 167.3 273.074 172.925 271.849 180.025C269.649 182.175 268.824 184.275 268.499 185.575C268.049 187.25 267.924 189.4 268.499 189.6C269.124 189.825 270.224 187.725 270.674 187.925C271.274 188.2 269.324 191.575 270.499 193.125C271.699 194.7 276.199 194.45 278.549 192.125C280.749 189.95 279.874 187.175 280.224 180.55C280.349 178.3 280.699 172.175 282.574 166.125C284.874 158.75 287.274 158.375 288.624 151.85C289.574 147.25 289.849 140.325 287.449 139.4Z" fill="white" stroke="#161616" stroke-width="2" stroke-miterlimit="10"/>
<path opacity="0.15" d="M284.149 145.85C282.774 145.55 280.374 151.775 280.224 152.125C278.024 157.875 279.074 160.325 278.099 168.8C277.299 175.7 276.849 179.625 274.624 184.475C272.474 189.125 269.974 191.85 270.924 193.1C271.874 194.375 275.599 193.15 278.524 191.975C278.799 191.35 279.199 190.375 279.524 189.175C280.349 186.25 280.299 183.925 280.299 182.8C280.299 182.175 280.324 174.925 281.749 168.6C282.524 165.225 282.874 165.725 283.774 162.225C285.749 154.625 285.674 146.175 284.149 145.85Z" fill="#6D6C6C"/>
<path opacity="0.17" d="M280.775 157.95C280.5 160.55 280.15 164.425 280 169.15C279.775 176.425 280.125 182.475 280.325 182.475C280.5 182.475 280.275 178.125 281.225 172.175C281.85 168.225 282.775 165.025 283.475 162.9C283 162.425 282.425 161.775 281.9 160.875C281.25 159.725 280.925 158.675 280.775 157.95Z" fill="#6D6C6C"/>
<path d="M282.5 246.625C283.15 247.825 283.25 249.125 281.75 260.45C281.575 261.85 281.4 263 281.3 263.8C277.475 264.4 272.075 264.875 265.675 264.25C261.8 263.875 257.275 263.45 257.025 261.975C256.825 260.775 259.45 258.625 271.45 254.525C272 250.525 272.575 246.525 273.125 242.525C280.15 243 281.975 245.7 282.5 246.625Z" fill="#161616"/>
<path d="M297.575 175.35C295.225 178.55 291.875 183.15 287.95 188.775C278.65 202.075 274 208.725 272.375 213.175C267.575 226.35 268.825 239.15 269.3 243.5C269.575 246 269.925 248.05 270.2 249.45C272.1 250.175 274.825 250.975 278.15 251.25C281.125 251.5 283.675 251.225 285.55 250.9C286.125 247.5 286.6 243.675 286.825 239.525C287.15 233.35 286.85 227.825 286.275 223.1C292.7 218.175 296.85 213.1 299.375 209.575C306.125 200.05 307.925 191.8 309 186.5C310.525 179.15 309.475 177.15 308.5 176.1C305.25 172.725 298.2 175.15 297.575 175.35Z" fill="white" stroke="#161616" stroke-width="2" stroke-miterlimit="10"/>
<path opacity="0.19" d="M296.85 196.45C294.275 198.625 290.925 201.85 287.675 206.275C286.775 207.525 283.05 212.85 279.775 221.4C275.275 233.25 274.9 244.3 275.1 250.55C276.2 250.95 277.75 251.375 279.6 251.525C282.075 251.7 284.1 251.275 285.4 250.875C286.2 246 286.8 240.375 286.85 234.125C286.875 230.075 286.7 226.3 286.375 222.85C287 222.5 299.075 215.7 298.925 204.325C298.9 201.15 297.9 198.45 296.85 196.45Z" fill="#6D6C6C"/>
<path opacity="0.15" d="M293.625 215.6C293.075 214.85 286.2 216.95 283.475 222.05C281.425 225.875 283.075 228.825 283 234.275C282.95 238.35 281.9 244.15 277.375 251.175C280 251.125 282.625 251.075 285.275 251.025C286 246.375 286.575 241.075 286.725 235.25C286.85 230.65 286.7 226.4 286.4 222.525C287.375 222.025 288.625 221.25 289.95 220.1C291.425 218.8 294.025 216.15 293.625 215.6Z" fill="#6D6C6C"/>
<path d="M326.675 244.65C328.575 245.875 328.9 247.575 330.625 251.325C331.825 253.925 333.625 257.4 336.4 261.35C334.825 263.125 332.2 265.6 328.35 267.425C323.075 269.925 315.675 271.125 314.525 268.95C313.3 266.6 319.725 261.025 321.65 259.375C321.125 258.2 320.275 256.325 319.225 254.05C316.45 248.1 315.9 247.225 316.35 246.15C317.4 243.6 323.225 242.45 326.675 244.65Z" fill="#161616"/>
<path d="M318.65 169.7C320.15 173.825 321.675 177.95 323.175 182.05C325.65 189.2 324.575 194.15 323.775 196.525C322.9 199.15 321.375 201.4 318.35 205.875C316 209.325 313.875 212.1 312.325 214.025C315.425 217.25 318.95 221.425 322.275 226.675C326.75 233.775 329.4 240.45 331.025 245.675C329.55 246.8 327.325 248.225 324.4 249.3C321.125 250.5 318.225 250.775 316.25 250.8C312.775 248.125 308.025 243.95 303.6 237.825C300.125 233.05 295.45 226.625 293.95 217.625C291.4 202.3 299.725 189.825 302.7 185.375C308.075 177.3 314.525 172.4 318.65 169.7Z" fill="white" stroke="#161616" stroke-width="2" stroke-miterlimit="10"/>
<path d="M308.126 178.7C306.201 181.375 304.301 184.075 302.476 186.8C302.251 186.675 302.051 186.55 301.826 186.425C303.451 184.25 304.901 181.925 306.151 179.5C306.326 179.675 306.501 179.85 306.676 180.025C305.651 180.725 305.076 181.775 304.451 182.8C303.726 184 302.976 185.2 302.251 186.4C300.826 188.725 299.401 191.075 297.976 193.4C297.751 193.275 297.551 193.15 297.326 193.025C299.501 189.625 301.676 186.225 303.876 182.825C304.126 182.425 304.776 182.8 304.526 183.2C301.826 187.7 299.101 192.175 296.401 196.675C296.151 197.1 295.501 196.725 295.751 196.3C297.726 192.95 299.676 189.575 301.651 186.225C301.851 186.375 302.051 186.525 302.251 186.675C299.426 189.8 298.926 194.35 295.851 197.275C295.501 197.6 294.976 197.075 295.326 196.75C298.401 193.85 298.901 189.275 301.726 186.15C302.026 185.825 302.526 186.25 302.326 186.6C300.351 189.95 298.401 193.325 296.426 196.675C296.201 196.55 296.001 196.425 295.776 196.3C298.476 191.8 301.201 187.325 303.901 182.825C304.126 182.95 304.326 183.075 304.551 183.2C302.376 186.6 300.201 190 298.001 193.4C297.751 193.8 297.101 193.425 297.351 193.025C298.951 190.4 300.551 187.775 302.151 185.175C303.326 183.225 304.401 180.7 306.351 179.375C306.676 179.15 307.026 179.575 306.876 179.9C305.626 182.325 304.201 184.625 302.551 186.825C302.276 187.2 301.626 186.85 301.901 186.45C303.726 183.7 305.601 181 307.551 178.35C307.751 177.925 308.401 178.3 308.126 178.7Z" fill="white"/>
<path opacity="0.2" d="M306.55 179.8C307.85 181.675 309.65 184.775 310.425 188.85C312.8 201.2 302.8 206.675 305.025 217.5C306.2 223.2 309.175 222.675 315.825 234.525C319.2 240.55 321.35 245.85 322.625 249.45C324.25 248.95 326.025 248.3 327.9 247.45C329 246.95 330.025 246.45 330.95 245.925C329.475 241.325 327.25 235.775 323.9 229.825C320.1 223.1 315.925 217.85 312.4 213.975C313.375 212.725 314.825 210.825 316.5 208.45C321.125 201.9 323.475 198.55 324.25 194.7C325.125 190.45 324.4 186.825 323.9 184.375C323.15 180.675 321.875 177.775 320.85 175.8C316.1 177.125 311.325 178.475 306.55 179.8Z" fill="#6D6C6C"/>
<path opacity="0.17" d="M312.426 178.275C315.251 181.5 318.951 186.8 318.651 193.2C318.201 203.225 308.301 207.05 309.726 215.275C310.126 217.55 313.276 221.2 319.601 228.425C323.076 232.4 326.026 235.575 328.051 237.7C326.501 233.9 324.251 229.35 321.001 224.55C318.126 220.3 315.176 216.9 312.551 214.225C313.326 213.05 314.701 210.95 316.426 208.35C322.451 199.3 323.626 197.875 324.301 194.725C325.101 191.025 324.576 187.9 324.176 185.575C323.451 181.25 321.926 177.925 320.776 175.825C318.001 176.625 315.201 177.45 312.426 178.275Z" fill="#6D6C6C"/>
<path d="M299.494 134.775C303.044 136.875 309.794 141.5 314.944 150C321.494 160.825 321.494 171.4 321.269 175.5C320.044 175.9 318.794 176.3 317.519 176.675C308.994 179.225 300.744 180.95 292.944 182.05C292.294 179.825 291.594 177.575 290.844 175.25C289.719 171.825 288.544 168.55 287.344 165.425C283.194 163.275 281.744 160.5 281.269 159.35C279.344 154.85 281.169 150.15 283.144 145.075C284.244 142.225 284.819 140.775 286.194 139.225C290.494 134.35 297.594 134.65 299.494 134.775Z" fill="#B5B5B5"/>
<path opacity="0.27" d="M291.076 140.7C297.901 141.6 301.551 144.7 303.026 146.15C311.351 154.375 308.476 168.25 307.701 172C307.001 175.375 305.951 178.075 305.126 179.9C310.401 178.475 315.651 177.025 320.926 175.6C321.251 171.775 321.576 161.95 315.901 151.475C310.626 141.775 303.051 136.8 299.676 134.85C299.201 134.875 298.726 134.925 298.251 134.95C297.526 135.8 296.651 136.7 295.576 137.625C293.976 139.025 292.401 140 291.076 140.7Z" fill="#6D6C6C"/>
<path opacity="0.2" d="M312.95 146.975C313.65 150.65 314.225 155.975 313.475 162.275C312.575 169.675 310.2 175.4 308.35 179C312.65 177.9 316.975 176.8 321.275 175.725C321.475 172.275 321.375 167.1 319.725 161.15C317.925 154.65 315.025 149.9 312.95 146.975Z" fill="#6D6C6C"/>
<path d="M101.6 229.575C103.175 233.1 102.875 236.4 102.625 237.95C97.7 240.125 93.325 241.125 89.975 241.625C88.875 241.8 75.2751 243.725 73.9501 240C73.6251 239.075 74.15 238.125 74.675 237.2C77.6 232.075 85 231.775 86 231.75C86.275 226.425 89.7 222.475 93.2 222.2C98.15 221.825 101.25 228.8 101.6 229.575Z" fill="#161616"/>
<path d="M95.1003 143.575C91.8503 148.25 87.4753 155.525 84.3003 165.175C79.1253 180.9 79.9753 194.1 80.5503 201.575C81.0503 208.225 82.4003 217.675 86.1753 228.575C87.2003 229.225 91.7253 231.925 97.4504 230.7C100.85 229.975 103.15 228.175 104.25 227.175C102.225 222.725 99.7754 216.025 98.8503 207.675C97.8253 198.575 99.0753 191.45 100.725 182.3C104.475 161.625 109.65 153.775 105.175 148C103.025 145.2 99.3503 143.95 95.1003 143.575Z" fill="white" stroke="#161616" stroke-width="2" stroke-miterlimit="10"/>
<path opacity="0.16" d="M93.3251 155C91.6251 163.275 90.2751 172.775 89.7501 183.325C88.8501 202.05 90.8751 218.2 93.5001 230.775C94.6251 230.925 97.3501 231.1 100.25 229.65C101.975 228.775 103.15 227.625 103.825 226.825C100.7 219.625 99.5752 213.5 99.1252 209.375C98.4252 202.9 99.0002 197.7 100.075 188C100.7 182.325 101.425 177.675 101.95 174.5C99.0752 168.025 96.2001 161.5 93.3251 155Z" fill="#6D6C6C"/>
<path opacity="0.22" d="M98.7997 167.45C96.6497 173.05 93.4247 183.725 94.5247 197.3C95.5747 210.375 100.175 220.1 103.1 225.25C98.1997 211.1 97.9497 202.425 98.6997 197.05C98.8997 195.675 99.7497 190.225 100.725 182.2C101.125 178.875 101.425 176.15 101.6 174.4C100.65 172.075 99.7246 169.75 98.7997 167.45Z" fill="#6D6C6C"/>
<path d="M137.775 218.75C139.85 219.775 140.475 221.45 143.325 226.875C145.225 230.475 146.825 233.35 147.875 235.2C144.675 237.5 139.6 240.525 132.825 242.125C128.825 243.075 120.5 244.4 119.55 242.125C118.5 239.6 127.05 233.775 130.65 231.425C126.95 227.825 126.775 222.6 129.275 219.925C131.4 217.65 135.25 217.5 137.775 218.75Z" fill="#161616"/>
<path d="M101.525 143.05C93.2751 150.325 102.925 174.575 110.85 193.975C114.275 202.35 119.625 214.475 127.5 228.65C128.875 228.85 133 229.25 137.4 226.875C141.825 224.5 143.75 220.775 144.325 219.55C142.025 215.575 139.25 210.225 136.6 203.7C135.55 201.125 131.025 189.625 128.475 173.375C127.475 166.95 126.575 158.475 126.7 148.4C125.225 146.9 117 138.825 107.275 140.675C105.8 140.95 103.375 141.425 101.525 143.05Z" fill="white" stroke="#161616" stroke-width="2" stroke-miterlimit="10"/>
<path d="M98.8502 153.05C98.8752 153.925 98.9002 154.8 98.9002 155.675C98.6502 155.675 98.4002 155.675 98.1502 155.675C98.2752 154.275 98.2002 152.95 97.9252 151.575C98.1752 151.55 98.4252 151.5 98.6502 151.475C98.5002 154.425 99.1752 157.525 99.7002 160.425C100.225 163.35 100.925 166.25 101.75 169.1C101.5 169.175 101.275 169.225 101.025 169.3C99.6502 164.1 98.5002 158.875 97.5502 153.575C97.4752 153.1 98.2002 152.9 98.2752 153.375C99.2252 158.65 100.375 163.9 101.75 169.1C101.875 169.575 101.15 169.775 101.025 169.3C100.15 166.3 99.4502 163.225 98.9002 160.15C98.4002 157.35 97.7502 154.325 97.9002 151.475C97.9252 151.075 98.5502 150.95 98.6252 151.375C98.9252 152.8 99.0002 154.225 98.8752 155.675C98.8252 156.15 98.1252 156.175 98.1252 155.675C98.1002 154.8 98.0753 153.925 98.0753 153.05C98.0753 152.575 98.8252 152.575 98.8502 153.05Z" fill="white"/>
<path d="M102.025 167.525C102 169.45 101.95 171.375 101.925 173.3C101.925 173.775 101.175 173.775 101.175 173.3C101.2 171.375 101.25 169.45 101.275 167.525C101.3 167.025 102.05 167.025 102.025 167.525Z" fill="white"/>
<path opacity="0.19" d="M112.425 150.825C112.35 155.85 112.625 162.7 114.1 170.65C115.675 179.075 118.075 185.6 121.575 195.425C124.425 203.475 125.8 205.875 128.7 214.8C130.475 220.225 131.725 224.775 132.525 227.825C133.9 227.65 136.75 227.075 139.6 224.95C142.25 222.975 143.6 220.625 144.2 219.4C139.6 211.325 136.675 204.25 134.825 199.1C129.1 183.175 127.75 169.325 126.975 160.8C126.65 157.25 126.475 154.3 126.4 152.375C121.75 151.85 117.075 151.35 112.425 150.825Z" fill="#6D6C6C"/>
<path opacity="0.24" d="M114.999 151.55C116.949 160.125 119.199 166.875 120.974 171.6C122.424 175.5 124.649 180.75 129.074 191.225C130.699 195.1 131.524 197.025 131.924 197.9C134.374 203.4 138.299 211.125 144.574 220.225C138.949 210.125 132.499 195.725 129.074 177.575C127.349 168.425 126.724 160.075 126.649 152.85C126.674 152.825 126.674 152.825 114.999 151.55Z" fill="#6D6C6C"/>
<path d="M107.1 90.0749C106.7 91.0499 106 92.4749 104.725 93.9249C103.8 94.9749 102.625 96.3249 100.875 96.8499C97.475 97.8999 94.175 95.1999 93.725 94.8249C90.425 96.7749 87.125 98.725 83.8501 100.675C83.5501 104.75 83.525 110.9 85.125 118.075C86.65 124.9 88.125 125.725 89.325 132.35C91.15 142.3 89.8 151.175 90.25 151.2C90.325 151.2 90.425 151 90.625 149.925C103.5 150.9 116.375 151.875 129.25 152.85C129.625 145.125 129.575 138.625 129.425 133.825C129.225 126.325 128.625 117.25 126.125 106.725C124.35 99.1999 122.95 96.6499 120.825 94.6499C116.225 90.2749 109.925 89.9999 107.1 90.0749Z" fill="#686868"/>
<path opacity="0.3" d="M92.1998 95.725C92.6248 100.3 93.4248 107.1 94.9498 115.25C95.3998 117.7 96.6748 124.45 97.6998 127.75C98.9498 131.8 103.825 143.375 127.675 152.775C120.4 151.925 112.9 151.175 105.225 150.55C100.425 150.15 95.6748 149.8 90.9998 149.525C89.3498 143.65 87.8248 137 86.7248 129.65C85.0498 118.525 84.7248 108.475 84.9998 100C87.3998 98.575 89.7998 97.15 92.1998 95.725Z" fill="#3F3F3F"/>
<path d="M102.4 73.65C103.425 78.15 103.975 82.65 107.075 88.425C107.825 89.825 108.55 90.95 109.025 91.65C107.975 92.875 104.25 96.85 98.1253 97.75C94.6253 98.25 91.7503 97.55 90.1253 97.025C90.1503 95.425 90.1003 93.625 89.9003 91.675C89.6003 88.75 89.0253 86.2 88.4003 84.075C85.3753 83.675 82.3753 83.3 79.3503 82.9C78.7503 81.575 78.1753 80.25 77.5753 78.925C76.7503 78.9 75.9253 78.875 75.1003 78.825C75.7253 77 76.6753 74.15 77.7503 70.575C79.8003 63.875 79.7503 62.925 80.8503 61.425C83.8753 57.325 90.6753 54.675 95.1253 56.9C98.9254 58.775 100.125 63.65 102.4 73.65Z" fill="white" stroke="#161616" stroke-width="2" stroke-miterlimit="10"/>
<path d="M75.1757 78.5001C76.6507 78.5251 78.1257 78.4251 79.6007 78.2001C80.0757 78.1251 80.2757 78.8501 79.8007 78.9251C78.2757 79.1501 76.7257 79.2751 75.1757 79.2501C74.6758 79.2501 74.6758 78.5001 75.1757 78.5001Z" fill="#161616"/>
<path d="M74.1504 66.6C75.4504 65.875 77.0504 66.3 77.9004 67.5C78.1754 67.9 77.5254 68.275 77.2504 67.875C76.6254 67 75.4504 66.75 74.5254 67.25C74.1004 67.475 73.7254 66.825 74.1504 66.6Z" fill="#161616"/>
<path d="M74.8253 71.25C74.6753 70.675 74.7253 70.075 75.0003 69.525C75.2003 69.125 75.6503 68.7 76.1503 68.875C76.6754 69.075 76.6254 69.775 76.5504 70.225C76.4503 70.775 76.1504 71.25 75.7503 71.625C75.5253 71.825 75.1003 71.7 75.1003 71.35C75.1003 70.725 75.2503 70.125 75.5253 69.55C75.7253 69.125 76.3753 69.5 76.1753 69.925C75.9503 70.375 75.8503 70.85 75.8503 71.35C75.6253 71.25 75.4253 71.175 75.2003 71.075C75.6003 70.725 75.8504 70.225 75.8254 69.675C75.8004 69.625 75.8253 69.575 75.8753 69.575C75.8253 69.6 75.7753 69.65 75.7503 69.7C75.6503 69.825 75.6003 69.95 75.5503 70.1C75.4503 70.4 75.4503 70.7 75.5253 71.025C75.6753 71.525 74.9503 71.725 74.8253 71.25Z" fill="#161616"/>
<path d="M81.7 67.6251C83.1999 67.1501 84.7998 67.7501 85.6748 69.0501C85.9498 69.4501 85.2998 69.8251 85.0248 69.4251C84.3248 68.4001 83.0749 67.9751 81.8999 68.3501C81.45 68.4751 81.25 67.7751 81.7 67.6251Z" fill="#161616"/>
<path d="M81.3 71.925C81.25 71.225 81.525 70.15 82.25 69.85C83.2001 69.475 83.2001 70.8 83.0751 71.375C82.9501 71.95 82.5001 72.975 81.725 72.55C81.425 72.375 81.375 72.05 81.475 71.725C81.65 71.25 81.925 70.775 82.175 70.325C82.375 70.475 82.5751 70.625 82.7751 70.775C82.6501 70.875 82.6001 70.975 82.5501 71.125C82.425 71.6 81.7 71.4 81.825 70.925C81.9 70.65 82.025 70.425 82.25 70.225C82.5751 69.925 83.0251 70.3 82.8501 70.675C82.7501 70.85 82.6751 71.05 82.5751 71.225C82.5001 71.375 82.425 71.675 82.3 71.775C82.275 71.95 82.2 71.95 82.15 71.8C82.2 71.75 82.225 71.675 82.25 71.6C82.3251 71.45 82.3751 71.275 82.4001 71.1C82.4501 70.925 82.4251 70.75 82.4501 70.6C82.4501 70.475 82.4501 70.475 82.4501 70.575C82.3751 70.65 82.325 70.725 82.275 70.8C82.075 71.125 82.025 71.475 82.05 71.85C82.1 72.425 81.35 72.425 81.3 71.925Z" fill="#161616"/>
<path d="M79.7505 63.1001C79.9755 61.7251 80.5005 59.5001 81.9755 57.1751C82.5005 56.3501 83.6005 54.6251 85.4005 53.4501C88.8005 51.225 94.0256 51.4 97.8256 54.1251C101.551 56.8001 103.401 61.5751 102.576 66.3501C94.9756 65.2751 87.3505 64.2001 79.7505 63.1001Z" fill="#4C4C4C"/>
<path d="M67.3007 60.6501C79.0257 62.1251 90.7258 63.6001 102.451 65.0751C103.876 65.2501 103.876 67.5001 102.451 67.3251C90.7258 65.8501 79.0257 64.3751 67.3007 62.9001C65.8757 62.7251 65.8507 60.4751 67.3007 60.6501Z" fill="#161616"/>
<path d="M94.9754 66.0501C92.9004 66.8001 91.7004 68.2251 90.3254 69.9251C87.3754 73.5001 88.2504 74.8251 86.1754 77.0501C82.8754 80.6001 79.5254 78.5 76.6004 81.975C74.1004 84.925 74.4254 88.9 74.5254 89.825C74.6254 90.7 75.0754 94.25 77.9754 96.7C80.5004 98.8 83.9004 99.3 84.1004 98.825C84.1754 98.65 83.9004 98.225 82.0254 96.975C82.5754 97.35 83.4254 97.825 84.5254 98.025C85.8004 98.25 87.0254 98.025 87.0254 97.85C87.0254 97.7 86.3504 97.7 85.8254 97.15C85.5004 96.825 85.3754 96.425 85.3004 96.1C86.3254 96.775 87.6004 97.35 88.8504 96.975C92.2004 95.95 92.8004 88.525 93.0004 86.0501C93.6504 78.0751 91.3504 73.7001 94.1254 70.9001C94.3504 70.6751 95.4754 69.5251 96.7254 69.7501C98.3004 70.0501 99.4754 72.4751 98.9754 74.0751C98.5254 75.4501 96.9754 75.8501 97.0754 76.1001C97.2254 76.4251 99.8754 75.9251 102.075 74.1501C102.875 73.5001 103.55 72.9751 103.875 72.0251C104.475 70.3751 103.775 68.4751 102.85 67.3501C100.9 65.0501 97.2254 65.2251 94.9754 66.0501Z" fill="#161616" stroke="#161616" stroke-width="2" stroke-miterlimit="10"/>
<path opacity="0.22" d="M98.0749 76.3501C97.5749 76.4001 96.8749 76.4251 96.8249 76.2501C96.7999 76.1751 96.9749 76.0501 96.9749 76.0501C96.9749 76.0251 96.3749 76.8001 95.6499 76.9001C95.2999 76.9501 94.9749 76.8251 94.7999 76.7251C96.1249 79.3751 97.5249 82.7501 98.5999 86.7751C99.6249 90.5501 100.1 93.9501 100.325 96.7751C101.5 96.5001 103.2 95.9751 105.05 94.8251C106.925 93.6751 108.175 92.3501 108.925 91.4001C107.175 88.8251 106.175 86.5751 105.575 85.0251C105.15 83.9001 105 83.1751 104 79.9001C103.275 77.5001 102.7 75.5251 102.3 74.2001C102.1 74.3751 101.775 74.6501 101.35 74.9501C100.8 75.3751 99.6249 76.1751 98.0749 76.3501Z" fill="#6D6C6C"/>
<path d="M89.6755 52.1001C92.7255 52.7001 95.0005 55.1251 95.3505 58.0251C95.7505 61.4501 93.2505 63.8001 93.0005 64.0001C96.2505 64.4001 99.4755 64.8001 102.726 65.2001C102.776 64.4501 102.801 63.4251 102.601 62.2251C101.976 58.4001 99.7255 56.0251 99.2755 55.5251C98.5255 54.7501 95.8505 52.2251 91.9005 52.0001C90.9755 51.9251 90.2005 52.0001 89.6755 52.1001Z" fill="#383838"/>
<path d="M84.6008 100.425C82.6008 100.125 80.5508 103.6 79.6008 105.2C74.1008 114.55 76.4008 125.35 77.1008 128.5C77.6508 130.975 78.6758 135.35 81.8758 140.175C84.9258 144.825 88.5258 147.7 90.8258 149.275C94.6758 150.75 101.676 152.775 110.101 151.4C113.026 150.925 115.576 150.125 117.701 149.275C121.301 149.5 124.901 149.7 128.501 149.925C129.076 149.825 129.876 149.675 130.826 149.325C131.976 148.9 133.076 148.475 133.076 148.075C133.076 147.625 131.826 146.925 125.726 145.975C126.026 146.025 130.026 146.8 132.701 144C135.201 141.4 135.351 136.95 133.451 135.2C131.851 133.725 129.251 134.375 124.501 135.65C119.801 136.9 116.026 138.6 113.276 140.05C112.226 140.525 104.051 144.05 96.5758 139.75C90.8758 136.475 88.9758 130.6 88.5258 128.975C86.7258 122.525 90.0008 120.25 88.8258 110.925C88.6758 109.325 87.6008 100.85 84.6008 100.425Z" fill="white" stroke="#161616" stroke-width="2" stroke-miterlimit="10"/>
<path d="M134.401 140.775C131.501 141 128.726 141.7 126.076 142.9C125.651 143.1 125.251 142.45 125.701 142.25C128.476 140.975 131.376 140.225 134.401 140C134.876 140 134.876 140.75 134.401 140.775Z" fill="#161616"/>
<path d="M134.576 137.725C131.251 137.625 128.426 139.65 125.326 140.6C124.876 140.75 124.676 140.025 125.126 139.875C128.276 138.9 131.151 136.875 134.576 136.975C135.051 137 135.076 137.75 134.576 137.725Z" fill="#161616"/>
<path d="M131.376 135.075C128.651 135.3 126.251 136.6 123.901 137.925C123.476 138.15 123.101 137.525 123.526 137.275C126.001 135.9 128.501 134.575 131.376 134.325C131.876 134.275 131.876 135.025 131.376 135.075Z" fill="#161616"/>
<path opacity="0.18" d="M87.6507 105.025C89.1257 110.95 85.2007 114.95 83.8757 121.725C83.6507 122.925 81.8757 132.65 87.0757 139.55C92.8757 147.25 104.376 147.525 106.626 147.6C112.501 147.75 114.726 146.025 123.926 146.5C124.801 146.55 132.801 147 132.876 148.125C132.901 148.725 130.676 149.4 129.001 149.625C126.801 149.925 125.651 149.425 122.851 149.2C121.651 149.1 119.926 149.025 117.801 149.2C115.251 150.25 111.951 151.275 108.001 151.675C106.926 151.775 103.576 152.075 99.2757 151.45C99.2757 151.45 95.6757 150.95 92.8257 149.95C85.7507 147.5 78.7507 137.175 76.7757 125.925C74.5507 113.25 79.5007 103.7 82.2757 101.575C82.6507 101.275 83.7257 100.45 84.8507 100.725C86.6757 101.125 87.4257 104.1 87.6507 105.025Z" fill="#6D6C6C"/>
<path opacity="0.17" d="M77.1007 112.55C77.5007 112.55 77.5007 117.325 78.6007 123.325C79.2757 126.975 80.6507 134.4 83.9757 139.575C89.9007 148.8 102.001 150.875 106.601 151.425C102.651 151.975 96.5756 152.1 90.6506 148.95C77.8007 142.1 76.5507 125.575 76.3257 122.575C75.9757 117.525 76.7007 112.55 77.1007 112.55Z" fill="#6D6C6C"/>
<path d="M292.975 207.15C282.625 197.95 272.225 188.8 261.775 179.725C242.075 162.6 222.2 145.7 202.125 129C203.7 124.325 205.725 116.225 204.525 106.375C204.15 103.25 200.95 80.225 179.85 68.325C178.1 67.325 153.875 54.225 131.175 68.675C116.2 78.2 108.45 95.575 110.275 112.55C112.975 137.775 135.375 148.95 136.675 149.575C152.825 157.275 172.25 155 186.725 143.75C208.475 161.65 230.175 179.575 251.85 197.55C261.35 205.425 270.825 213.3 280.3 221.2C282.275 220.25 285.55 218.35 288.5 214.875C290.975 211.975 292.275 209.075 292.975 207.15Z" fill="#161616"/>
<path d="M156.9 146.35C135.002 146.35 117.25 129.337 117.25 108.35C117.25 87.3632 135.002 70.35 156.9 70.35C178.798 70.35 196.55 87.3632 196.55 108.35C196.55 129.337 178.798 146.35 156.9 146.35Z" fill="white" stroke="#161616" stroke-width="2" stroke-miterlimit="10"/>
<path d="M153.675 72.45C160.925 87.8 168.55 103 176.525 118C178.775 122.225 181.05 126.45 183.35 130.65C183.575 131.075 182.925 131.45 182.7 131.025C174.525 116.125 166.7 101.05 159.25 85.775C157.15 81.475 155.075 77.15 153 72.8C152.8 72.4 153.45 72.025 153.675 72.45Z" fill="#E8E8E8"/>
<path d="M141.45 76.175C149.4 88.725 156.95 101.5 164.125 114.5C164.35 114.925 163.7 115.3 163.475 114.875C156.3 101.875 148.75 89.1 140.8 76.55C140.55 76.15 141.2 75.775 141.45 76.175Z" fill="#E8E8E8"/>
<path d="M165.449 118.9C168.749 125.325 172.274 131.65 176.049 137.825C176.299 138.25 175.649 138.625 175.399 138.2C171.649 132.025 168.099 125.7 164.799 119.275C164.574 118.85 165.224 118.45 165.449 118.9Z" fill="#E8E8E8"/>
<path d="M151.575 100.15C155.775 108.05 159.95 115.95 164.15 123.85C164.375 124.275 163.725 124.65 163.5 124.225C159.3 116.325 155.125 108.425 150.925 100.525C150.7 100.1 151.35 99.725 151.575 100.15Z" fill="#E8E8E8"/>
<path opacity="0.08" d="M158.075 70.225C160.85 71.225 179.125 78.075 184.975 96.425C185.65 98.55 187.75 105.4 186.175 113.325C183.15 128.425 168.05 140.65 148.299 144.75C149.799 145.25 151.899 145.85 154.5 146.175C170.2 148.15 182.375 137.45 183.8 136.175C186.9 133.35 196.475 123.75 196.65 108.55C196.675 107.225 196.6 92.225 185.225 81.4C178.6 75.1 170.85 72.8 167.6 71.875C163.8 70.8 160.475 70.4 158.075 70.225Z" fill="#6D6C6C"/>
<path d="M304.375 147.35C302.575 147.125 299.875 147.1 297.9 148.7C293.65 152.15 296.925 159.65 294.825 167.575C293.7 171.825 290.725 177.55 282.075 183.225C278.65 184.95 275.8 186.25 273.825 187.15C271 188.425 269.2 189.15 269.225 190.125C269.25 191.1 271.025 191.825 272.3 192.25C270.775 193.675 270 195.475 270.525 196.85C270.925 197.925 272.025 198.45 273.25 199.05C274.65 199.75 275.825 199.9 277.175 200.075C279.7 200.4 280.95 200.55 282.1 200.075C283.875 199.325 284.675 197.675 285.85 195.3C286.5 194 287.3 191.975 287.725 189.35C290.55 188.05 294.6 185.8 298.625 182.025C300.2 180.55 314.8 166.55 310.2 154.45C309.5 152.75 308.025 150 304.375 147.35Z" fill="white" stroke="#161616" stroke-width="2" stroke-miterlimit="10"/>
<path d="M282.026 196.975C281.401 198.35 280.451 199.5 279.226 200.425C278.851 200.725 278.476 200.075 278.851 199.775C279.951 198.95 280.801 197.85 281.376 196.6C281.576 196.175 282.226 196.55 282.026 196.975Z" fill="#161616"/>
<path d="M279.026 196.575C278.276 198.025 277.151 199.225 275.776 200.125C275.376 200.375 275.001 199.725 275.401 199.475C276.676 198.675 277.701 197.55 278.401 196.2C278.601 195.775 279.251 196.15 279.026 196.575Z" fill="#161616"/>
<path d="M275.875 194.875C275.175 196.35 273.975 197.525 272.5 198.225C272.075 198.425 271.675 197.775 272.125 197.575C273.5 196.925 274.575 195.875 275.225 194.5C275.45 194.05 276.075 194.425 275.875 194.875Z" fill="#161616"/>
<path opacity="0.2" d="M303.75 147.4C304.3 149.875 304.9 153.775 304.375 158.475C303 170.375 295.3 178.225 294.025 179.5C287.675 185.8 283.525 184.95 281 190.575C280.325 192.075 279.125 195.475 275.875 197.25C274.6 197.925 273.4 198.175 272.6 198.275C273.025 198.625 273.725 199.1 274.65 199.5C276.2 200.175 277.55 200.2 279.675 200.225C281.25 200.25 282.05 200.25 282.75 199.925C284.225 199.25 284.925 197.85 285.2 197.15C286.2 194.45 287.175 191.75 288.175 189.05C293.05 186.55 299.95 182.1 305.4 174.475C307.675 171.3 311.475 165.85 311.15 159.3C311 156.325 310.05 154.25 309.825 153.75C308.05 150.075 305.1 148.175 303.75 147.4Z" fill="#6D6C6C"/>
<path opacity="0.32" d="M310.826 160.825C310.676 160.775 309.726 163.775 307.851 167.275C303.276 175.925 296.676 181.225 291.951 184.925C289.801 186.6 287.976 187.85 286.826 188.625C285.426 190.975 284.626 193 284.151 194.475C283.751 195.7 283.526 196.8 282.601 197.95C281.651 199.2 280.426 199.9 279.526 200.3C280.201 200.325 281.226 200.275 282.301 199.775C284.351 198.825 285.251 196.85 286.201 194.75C286.751 193.55 287.401 191.75 287.751 189.425C300.801 182.825 305.701 174.5 307.551 170.55C309.451 166.5 311.026 160.925 310.826 160.825Z" fill="#6D6C6C"/>
<path d="M290.125 124.525C291.9 125.225 290.85 128.725 293.7 131.9C295.1 133.475 296.8 134.225 297.975 134.65C297.225 135.775 295.75 137.6 293.325 139.05C291.6 140.1 289.95 140.6 288.8 140.825C288.425 140.15 287.8 139.1 287.025 137.85C284.25 133.475 283.25 133 283.1 131.55C282.725 128 287.85 123.625 290.125 124.525Z" fill="white" stroke="#161616" stroke-width="2" stroke-miterlimit="10"/>
<path d="M290.449 131.275C289.424 133.325 288.349 135.35 286.649 136.925C286.299 137.25 285.774 136.725 286.124 136.4C287.774 134.875 288.799 132.875 289.799 130.9C290.024 130.475 290.674 130.85 290.449 131.275Z" fill="#161616"/>
<path d="M291.2 129.925C290.05 132.175 288.8 134.4 286.6 135.775C286.225 136 285.85 135.5 286.15 135.175C286.875 134.4 287.625 133.625 288.325 132.85C288.5 133.025 288.675 133.2 288.85 133.375C288.425 133.825 287.975 134.25 287.475 134.6C287.3 134.725 286.75 134.975 286.65 135.125C286.5 135.375 286.65 135.775 286.725 136.025C286.475 136.1 286.25 136.15 286 136.225C285.975 136.1 285.975 135.975 285.95 135.875C285.9 135.55 286.3 135.2 286.575 135.5C286.575 135.225 286.65 134.95 286.825 134.725C287.05 134.85 287.25 134.975 287.475 135.1C287.2 135.475 286.925 135.85 286.65 136.225C286.45 136.075 286.25 135.925 286.05 135.775C286.275 135.525 286.45 135.275 286.625 135C286.85 134.675 287.475 134.875 287.3 135.3C287.15 135.625 287.1 135.75 286.875 136.025C286.575 136.4 286.05 135.875 286.35 135.5C286.425 135.375 286.5 135.25 286.575 135.1C286.8 135.2 287.025 135.3 287.25 135.4C287.025 135.725 286.8 136.025 286.55 136.325C286.275 136.65 285.7 136.225 285.95 135.875C286.225 135.5 286.5 135.125 286.775 134.75C287.05 134.35 287.625 134.7 287.425 135.125C287.175 135.625 286.675 136.8 286 136.05C286.2 135.925 286.425 135.8 286.625 135.675C286.65 135.8 286.65 135.925 286.675 136.025C286.75 136.5 286.075 136.7 285.95 136.225C285.775 135.625 285.35 135.35 285.85 134.75C286.075 134.475 286.45 134.35 286.725 134.175C287.3 133.8 287.8 133.35 288.275 132.85C288.6 132.5 289.125 133.025 288.8 133.375C288.075 134.15 287.35 134.925 286.625 135.7C286.475 135.5 286.325 135.3 286.175 135.1C288.25 133.8 289.4 131.65 290.5 129.525C290.775 129.1 291.425 129.5 291.2 129.925Z" fill="#161616"/>
<path d="M267.125 117.9C267.625 120.125 268.65 123.425 271 126.825C275.125 132.8 280.725 135.325 283.125 136.25C284.5 135.725 286.3 134.8 288 133.225C292.65 128.9 293 122.975 293.05 121.45C293.55 121.325 294.275 121.05 294.9 120.45C296.5 118.9 296.875 115.825 295.4 114.55C293.725 113.1 290.525 114.875 290.175 115.05C289.4 115.475 288.85 116 288.5 116.4C287.125 112.25 283.825 109.125 279.9 108.475C274.55 107.6 268.7 111.5 267.125 117.9Z" fill="white" stroke="#161616" stroke-width="2" stroke-miterlimit="10"/>
<path d="M273.175 123.875C274.175 126.125 275.65 128.05 277.55 129.625C277.925 129.925 277.4 130.45 277.025 130.15C275.05 128.55 273.55 126.575 272.525 124.25C272.325 123.8 272.975 123.425 273.175 123.875Z" fill="#161616"/>
<path d="M278.501 127.95C278.601 128.8 278.301 129.625 277.726 130.25C277.401 130.6 276.876 130.075 277.201 129.725C277.651 129.225 277.826 128.625 277.751 127.95C277.701 127.475 278.451 127.475 278.501 127.95Z" fill="#161616"/>
<path d="M280.024 123.675C279.374 122.775 278.599 121.975 277.724 121.25C277.924 121.125 278.149 121 278.349 120.875C278.674 121.875 279.374 122.675 280.299 123.175C280.149 123.375 279.999 123.575 279.849 123.775C279.274 123.075 278.699 122.4 278.124 121.7C277.824 121.325 278.349 120.8 278.649 121.175C279.224 121.875 279.799 122.55 280.374 123.25C280.649 123.575 280.299 124.05 279.924 123.85C278.824 123.25 278.024 122.275 277.624 121.1C277.499 120.7 277.974 120.525 278.249 120.725C279.174 121.475 279.974 122.325 280.649 123.3C280.949 123.7 280.299 124.075 280.024 123.675Z" fill="#161616"/>
<path d="M271.725 125.875C271.4 125.325 270.975 124.85 270.5 124.425C270.7 124.3 270.925 124.175 271.125 124.05C271.35 124.8 271.8 125.475 272.45 125.95C272.275 126.1 272.075 126.225 271.9 126.375C271.75 125.975 271.525 125.6 271.25 125.275C270.95 124.9 271.475 124.375 271.775 124.75C272.125 125.2 272.4 125.65 272.6 126.175C272.725 126.475 272.3 126.8 272.05 126.6C271.25 126 270.675 125.225 270.4 124.275C270.275 123.9 270.75 123.675 271.025 123.9C271.55 124.35 272 124.9 272.375 125.5C272.65 125.9 272 126.275 271.725 125.875Z" fill="#161616"/>
<path d="M282.599 121.825C282.224 122.7 282.024 123.6 282.024 124.525C282.024 124.775 281.649 124.775 281.649 124.525C281.649 123.525 281.874 122.55 282.274 121.625C282.374 121.4 282.699 121.6 282.599 121.825Z" fill="#161616"/>
<path d="M283.65 121.175C283.4 121.575 283.225 121.975 283.075 122.4C283 122.625 282.65 122.525 282.725 122.3C282.875 121.825 283.075 121.4 283.325 120.975C283.45 120.775 283.775 120.975 283.65 121.175Z" fill="#161616"/>
<path d="M277.874 119.125C276.949 118.85 276.074 119.475 276.049 120.45C276.049 120.8 275.474 120.825 275.474 120.45C275.524 119.125 276.724 118.225 278.024 118.575C278.374 118.675 278.224 119.225 277.874 119.125Z" fill="#161616"/>
<path d="M271.174 122.8C270.774 122.55 270.299 122.525 269.874 122.775C269.574 122.975 269.274 122.475 269.599 122.3C270.174 121.95 270.899 121.95 271.449 122.325C271.749 122.525 271.474 123 271.174 122.8Z" fill="#161616"/>
<path d="M283.375 129.225C282.775 130.3 281.75 131.075 280.55 131.4C280.075 131.525 279.875 130.8 280.35 130.675C281.375 130.4 282.2 129.775 282.725 128.85C282.975 128.425 283.625 128.8 283.375 129.225Z" fill="#161616"/>
<path d="M288.525 117.4C287.975 116.45 286.65 114.425 284.1 113.025C282.35 112.05 280.7 111.775 279.7 111.675C279.15 112.4 278.25 113.35 276.925 113.95C273.8 115.375 271.275 113.5 269.425 114.75C268.45 115.4 267.475 116.975 267.85 121.275C266.2 122.975 265.1 123.075 264.5 122.95C262 122.45 260.2 116.825 261.775 112.725C262.25 111.5 262.875 110.8 268.175 106.575C275.65 100.625 276.575 100.275 277.55 100.05C282.7 98.85 287.25 101.45 288.025 101.9C289.025 102.475 289.25 102.75 294.975 108.775C299.425 113.45 299.85 113.875 300.25 115.025C301.3 117.925 301.1 122.125 298.425 125.2C295.9 128.075 292.5 128.5 291.625 128.6C292 127.75 292.4 126.55 292.6 125.075C292.85 123.175 292.6 121.6 292.375 120.575C292.55 120.45 293.55 119.625 293.625 118.225C293.675 117.2 293.2 115.9 292.1 115.475C290.875 115 289.2 115.725 288.525 117.4Z" fill="#232323"/>
<path d="M289.6 104.825C290.625 102.8 293.625 102.5 294.15 102.45C298.325 102.025 301.675 105.75 303.65 107.925C307.15 111.8 306.15 112.95 309.55 117.625C314.05 123.825 317.425 124.1 318.125 128.375C318.175 128.7 318.8 133 315.95 135.6C313.5 137.85 309.55 137.875 306.95 136.525C303.425 134.7 303.725 131.025 301.175 124.85C296.175 112.8 287.625 108.725 289.6 104.825Z" fill="#232323"/>
<path opacity="0.12" d="M285.575 113.925C286.375 115.925 287.325 119.1 287.275 123.075C287.2 129.425 284.6 134.075 283.3 136.075C284.725 135.475 287.1 134.2 289.175 131.7C290.025 130.675 292.025 128.25 292.55 124.525C292.8 122.85 292.65 121.45 292.5 120.5C292.65 120.375 293.675 119.45 293.625 118C293.6 117.05 293.1 115.775 292.025 115.4C290.825 114.975 289.175 115.75 288.525 117.425C288.275 116.925 287.925 116.3 287.4 115.65C286.75 114.875 286.1 114.325 285.575 113.925Z" fill="#6D6C6C"/>
<path opacity="0.13" d="M289.975 132.225C290.175 132.675 290.4 133.125 290.675 133.575C291.925 135.675 293.55 137.075 294.825 137.925C295.275 137.65 295.875 137.225 296.475 136.575C297.125 135.875 297.525 135.175 297.75 134.675C296.775 134.375 294.35 133.45 292.7 131.025C292.125 130.15 291.775 129.3 291.575 128.6C291.05 129.825 290.525 131.025 289.975 132.225Z" fill="#6D6C6C"/>
<path opacity="0.18" d="M292.174 120.075C292.049 121.8 291.724 124.05 290.874 126.575C289.699 130 287.999 132.525 286.699 134.125C287.999 133.075 289.549 131.5 290.799 129.3C291.624 127.825 292.849 125.7 292.699 122.8C292.649 121.675 292.399 120.725 292.174 120.075Z" fill="#6D6C6C"/>
<path opacity="0.32" d="M288.35 102.525C289.4 103.55 295.95 110.15 295.05 119.525C294.675 123.525 293.075 126.55 291.925 128.325C292.725 128.275 294.275 128.1 295.95 127.125C297.625 126.15 298.575 124.875 299 124.225C299.325 123.7 299.725 122.85 299.975 121.775C299.975 121.775 300.425 119.675 299.6 117.075C298.725 114.225 294.775 108.675 288.35 102.525Z" fill="#111111"/>
<path opacity="0.33" d="M301.875 106.575C301.3 106.95 304.475 113.625 307.975 119.45C311.125 124.675 312.675 126.125 312.9 129.325C313.125 132.65 311.725 135.5 310.475 137.425C311.1 137.475 313.45 137.55 315.5 135.925C316.625 135.025 317.225 133.975 317.5 133.325C318.1 131.575 318.625 129.025 317.575 126.625C316.875 125 316.05 124.875 313.475 122.275C311.2 119.975 308.95 117.7 307.3 114.325C306.45 112.6 306.15 111.35 304.7 109.4C303.75 108.1 302.2 106.35 301.875 106.575Z" fill="#111111"/>
</g>
</svg>
