<svg width="400" height="300" viewBox="0 0 400 300" fill="none" xmlns="http://www.w3.org/2000/svg">
<g style="mix-blend-mode:multiply">
<path d="M85.1245 236.55C85.5995 236.275 86.0995 236 86.5745 235.725C86.9995 235.5 86.6245 234.85 86.1995 235.075C85.7245 235.35 85.2245 235.625 84.7495 235.9C84.3245 236.15 84.6995 236.8 85.1245 236.55Z" fill="#161616"/>
<path d="M78.4246 239.775C82.9996 237.825 87.5746 235.875 92.1496 233.925C96.7246 231.975 101 230.05 106.125 230.575C110.8 231.05 115.4 232.825 119.775 234.475C124.35 236.2 128.825 238.15 133.175 240.35C134.025 240.775 134.8 239.475 133.925 239.05C127.025 235.6 119.8 232.55 112.4 230.375C108.825 229.325 105.075 228.625 101.35 229.15C97.6246 229.675 94.1246 231.45 90.6996 232.925C86.3496 234.775 81.9996 236.625 77.6746 238.5C76.7746 238.85 77.5496 240.15 78.4246 239.775Z" fill="#161616"/>
<path d="M120.825 250.725C141.75 250.725 162.65 250.725 183.575 250.725C189.55 250.725 195.525 250.725 201.5 250.725C202.475 250.725 202.475 249.225 201.5 249.225C180.575 249.225 159.675 249.225 138.75 249.225C132.775 249.225 126.8 249.225 120.825 249.225C119.85 249.225 119.85 250.725 120.825 250.725Z" fill="#161616"/>
<path d="M188 255.625C214.225 255.625 240.45 255.625 266.675 255.625C274.15 255.625 281.6 255.625 289.075 255.625C290.05 255.625 290.05 254.125 289.075 254.125C262.85 254.125 236.625 254.125 210.4 254.125C202.925 254.125 195.475 254.125 188 254.125C187.05 254.125 187.05 255.625 188 255.625Z" fill="#161616"/>
<path d="M225.05 250.15C254.35 250.15 283.625 250.15 312.925 250.15C321.25 250.15 329.575 250.15 337.9 250.15C338.875 250.15 338.875 248.65 337.9 248.65C308.6 248.65 279.325 248.65 250.025 248.65C241.7 248.65 233.375 248.65 225.05 248.65C224.075 248.65 224.075 250.15 225.05 250.15Z" fill="#161616"/>
<path d="M136.349 242.25C140.799 243.825 145.224 245.5 149.599 247.275C150.499 247.65 150.874 246.2 149.999 245.825C145.624 244.05 141.199 242.375 136.749 240.8C135.849 240.475 135.449 241.925 136.349 242.25Z" fill="#161616"/>
<path d="M80.8492 254.375C92.3492 254.375 103.874 254.375 115.374 254.375C116.349 254.375 116.349 252.875 115.374 252.875C103.874 252.875 92.3492 252.875 80.8492 252.875C79.8992 252.875 79.8992 254.375 80.8492 254.375Z" fill="#161616"/>
<path d="M183.5 270.6C198.15 270.6 212.8 270.6 227.45 270.6C228.425 270.6 228.425 269.1 227.45 269.1C212.8 269.1 198.15 269.1 183.5 269.1C182.525 269.1 182.525 270.6 183.5 270.6Z" fill="#161616"/>
<path d="M59.6747 254.475C55.6997 251.85 52.7247 248.05 50.5997 243.825C49.3997 241.475 48.4747 239.025 47.6997 236.525C47.3497 235.45 46.7747 234.15 46.6997 233.025C46.6747 232.525 46.4997 232.6 47.0247 232.575C47.2997 232.575 47.6997 232.775 47.9497 232.85C48.6497 233.05 49.3247 233.275 50.0247 233.475C50.4997 233.625 50.6747 232.9 50.2247 232.75C49.3747 232.5 48.5247 232.225 47.6747 231.975C47.2997 231.85 46.7247 231.575 46.2997 231.725C45.5997 231.95 45.8247 232.675 45.9497 233.225C46.7247 236.275 47.7247 239.275 48.9747 242.15C51.2247 247.3 54.5747 251.975 59.2997 255.125C59.6997 255.4 60.0747 254.75 59.6747 254.475Z" fill="#E8E8E8"/>
<path d="M49.6002 232.625C45.8752 223.525 45.7252 213.6 45.6002 203.9C45.3752 204 45.1752 204.075 44.9502 204.175C45.6502 204.875 46.3752 205.6 47.0752 206.3C47.4252 206.65 47.9502 206.1 47.6002 205.775C46.9002 205.075 46.1752 204.35 45.4752 203.65C45.2502 203.425 44.8252 203.6 44.8252 203.925C44.9252 213.675 45.1002 223.675 48.8502 232.85C49.0502 233.275 49.7752 233.075 49.6002 232.625Z" fill="#E8E8E8"/>
<path d="M47.75 205.575C47.8 199.4 48.475 193.25 49.825 187.225C49.65 187.3 49.45 187.375 49.275 187.45C56.425 192.525 59.225 201.55 61.825 209.5C64.875 218.85 67.3 228.475 68.35 238.275C68.65 241 68.825 243.725 68.9 246.475C68.975 249.325 69.125 252.3 68.35 255.075C68.225 255.55 68.95 255.75 69.075 255.275C69.725 252.875 69.7 250.35 69.675 247.9C69.65 245.4 69.525 242.9 69.3 240.4C68.85 235.375 68.05 230.375 66.975 225.45C65.85 220.3 64.45 215.225 62.825 210.225C61.45 205.95 60.025 201.625 58.1 197.55C56.1 193.375 53.45 189.525 49.65 186.825C49.45 186.7 49.15 186.825 49.1 187.05C47.75 193.15 47.05 199.35 47 205.6C47 206.075 47.75 206.075 47.75 205.575Z" fill="#E8E8E8"/>
<path d="M64.8752 218.025C68.5502 207.175 76.5002 198.5 81.0502 188.075C80.8252 188 80.5752 187.95 80.3502 187.875C80.8002 192.75 81.1752 197.65 81.5252 202.55C81.7002 205 81.8252 207.45 81.9752 209.9C82.0252 211.05 82.1002 212.175 82.1502 213.325C82.2002 214.2 82.2502 214.425 81.5752 215C81.1002 215.4 80.4502 215.7 79.9002 216.05C79.5002 216.3 79.8752 216.95 80.2752 216.7C81.1002 216.175 81.9502 215.65 82.7752 215.125C82.8752 215.05 82.9752 214.925 82.9502 214.8C82.5252 205.825 81.9252 196.825 81.1002 187.875C81.0752 187.55 80.5752 187.3 80.4002 187.675C75.8002 198.175 67.8502 206.9 64.1502 217.8C64.0002 218.3 64.7252 218.475 64.8752 218.025Z" fill="#E8E8E8"/>
<path d="M79.8755 216.675C83.3755 216.475 81.0755 224.025 80.6755 225.875C80.0255 228.925 79.2505 231.95 78.3505 234.925C76.5255 240.95 74.1506 246.775 71.3006 252.375C71.0756 252.8 71.7255 253.175 71.9505 252.75C75.2505 246.275 77.9005 239.5 79.8505 232.5C80.8255 228.975 81.6255 225.4 82.2255 221.8C82.5505 219.8 83.1255 215.725 79.9005 215.925C79.4005 215.95 79.4005 216.7 79.8755 216.675Z" fill="#E8E8E8"/>
<path d="M80.0755 188.95C78.2005 204.2 71.5506 218.225 67.5506 232.925C67.4256 233.4 68.1506 233.6 68.2756 233.125C72.3006 218.35 78.9255 204.25 80.8255 188.95C80.8755 188.45 80.1255 188.475 80.0755 188.95Z" fill="#E8E8E8"/>
<path d="M48.9998 187.35C54.8248 204.75 59.5248 222.525 63.0498 240.525C64.0498 245.625 64.9498 250.775 65.7748 255.9C65.8498 256.375 66.5748 256.175 66.4998 255.7C63.6498 237.575 59.6248 219.625 54.4248 202.025C52.9498 197.025 51.3748 192.05 49.7248 187.125C49.5748 186.7 48.8498 186.9 48.9998 187.35Z" fill="#E8E8E8"/>
<path d="M45.35 210.25C51.925 214.275 57.15 220.175 60.375 227.175C60.575 227.625 61.225 227.225 61.025 226.8C57.75 219.7 52.4 213.7 45.725 209.6C45.325 209.35 44.925 210 45.35 210.25Z" fill="#E8E8E8"/>
<path d="M47.2253 237.025C53.7503 239.325 60.8753 241.975 64.4253 248.35C64.6503 248.775 65.3003 248.4 65.0753 247.975C61.4003 241.425 54.1253 238.675 47.4253 236.3C46.9753 236.125 46.7753 236.85 47.2253 237.025Z" fill="#E8E8E8"/>
<path d="M56.2998 195.8C55.6998 199.625 55.3498 203.45 55.2998 207.325C55.2998 207.8 56.0498 207.8 56.0498 207.325C56.0998 203.525 56.4248 199.75 57.0248 196C57.0998 195.525 56.3748 195.325 56.2998 195.8Z" fill="#E8E8E8"/>
<path d="M69.4498 207.25C70.0998 211.75 70.7248 216.25 71.3748 220.775C71.4498 221.25 72.1748 221.05 72.0998 220.575C71.4498 216.075 70.8248 211.575 70.1748 207.05C70.0998 206.55 69.3748 206.775 69.4498 207.25Z" fill="#E8E8E8"/>
<path d="M75.9251 210.1C78.3251 207.95 80.3751 205.475 82.0001 202.675C82.2501 202.25 81.6001 201.875 81.3501 202.3C79.7501 205.025 77.7501 207.475 75.4001 209.575C75.0251 209.9 75.5751 210.425 75.9251 210.1Z" fill="#E8E8E8"/>
<path d="M300.725 248.175C298.425 241.4 297.125 234.375 296.825 227.225C296.625 227.325 296.45 227.45 296.25 227.55C297.5 228.275 298.725 229.025 299.975 229.75C300.25 229.9 300.625 229.65 300.525 229.325C299.4 226.15 299.2 222.75 300.05 219.475C300.925 216.175 302.85 213.175 304.475 210.2C307.85 203.975 311.25 197.75 314.625 191.525C314.4 191.5 314.175 191.475 313.95 191.425C314.75 196.35 315.55 201.3 316.35 206.225C316.75 208.65 317.15 211.075 317.525 213.5C317.725 214.7 318.275 216.225 317.55 217.325C316.95 218.225 315.85 218.725 314.875 219.15C314.55 219.3 314.7 219.725 314.975 219.825C316.05 220.275 317.35 220.85 317.875 221.95C318.45 223.2 317.75 225 317.425 226.3C316.8 228.85 316.05 231.375 315.175 233.875C313.4 238.9 311.125 243.7 308.4 248.275C308.15 248.7 308.8 249.075 309.05 248.65C312.175 243.375 314.725 237.775 316.6 231.925C317.05 230.5 317.475 229.05 317.85 227.6C318.2 226.225 318.675 224.75 318.8 223.325C319 221 317 219.9 315.15 219.125C315.175 219.35 315.2 219.575 315.25 219.8C316.725 219.15 318.45 218.225 318.625 216.425C318.725 215.25 318.35 213.95 318.175 212.825C317.95 211.375 317.7 209.925 317.475 208.45C316.55 202.7 315.6 196.975 314.675 191.225C314.625 190.9 314.125 190.875 314 191.125C310.375 197.775 306.75 204.425 303.125 211.1C301.525 214.05 299.75 216.975 299.1 220.325C298.5 223.4 298.775 226.55 299.825 229.5C300 229.35 300.2 229.225 300.375 229.075C299.125 228.35 297.9 227.6 296.65 226.875C296.4 226.725 296.075 226.9 296.075 227.2C296.35 234.4 297.675 241.525 300 248.35C300.15 248.825 300.875 248.625 300.725 248.175Z" fill="#E8E8E8"/>
<path d="M317.901 208.225C323.101 202.775 328.276 197.275 333.376 191.725C333.176 191.6 332.951 191.475 332.751 191.35C331.951 195.3 331.601 199.35 331.801 203.375C331.901 205.45 332.201 207.475 332.451 209.525C332.576 210.45 332.676 211.4 332.701 212.325C332.726 212.825 332.801 213.6 332.251 213.925C331.801 214.175 330.676 214.125 330.126 214.175C329.851 214.2 329.576 214.6 329.851 214.825C332.776 217.15 330.251 221.4 329.026 224C327.701 226.825 326.276 229.575 324.726 232.275C321.576 237.775 317.951 243 313.926 247.9C313.626 248.275 314.151 248.8 314.451 248.425C318.901 243.025 322.851 237.225 326.251 231.125C327.976 228.025 329.576 224.825 330.976 221.575C331.976 219.225 332.726 216.175 330.401 214.325C330.301 214.55 330.226 214.75 330.126 214.975C331.526 214.825 333.276 215.05 333.451 213.325C333.651 211.025 333.026 208.575 332.776 206.3C332.226 201.4 332.476 196.45 333.476 191.6C333.551 191.25 333.126 190.95 332.851 191.225C327.726 196.775 322.576 202.275 317.376 207.725C317.026 208.05 317.551 208.575 317.901 208.225Z" fill="#E8E8E8"/>
<path d="M329.85 196.05C326.175 203.575 325.525 212.225 322.95 220.125C320.225 228.525 316.375 236.5 312.25 244.275C312.025 244.7 312.675 245.075 312.9 244.65C316.9 237.075 320.65 229.325 323.375 221.2C324.725 217.15 325.725 213.05 326.65 208.875C327.575 204.625 328.575 200.35 330.5 196.425C330.7 196 330.075 195.625 329.85 196.05Z" fill="#E8E8E8"/>
<path d="M313.1 196C312.4 212.15 305.975 227.325 304.6 243.375C304.55 243.85 305.3 243.85 305.35 243.375C306.725 227.325 313.15 212.15 313.85 196C313.85 195.525 313.1 195.525 313.1 196Z" fill="#E8E8E8"/>
<path d="M300.525 216.4C302.1 220.8 304.05 225.025 306.375 229.075C306.625 229.5 307.275 229.125 307.025 228.7C304.725 224.7 302.8 220.525 301.25 216.2C301.1 215.75 300.375 215.95 300.525 216.4Z" fill="#E8E8E8"/>
<path d="M308.075 202.45C308.975 205.85 309.85 209.25 310.75 212.65C310.875 213.125 311.6 212.925 311.475 212.45C310.575 209.05 309.7 205.65 308.8 202.25C308.675 201.775 307.95 201.975 308.075 202.45Z" fill="#E8E8E8"/>
<path d="M315.401 200.55C314.276 202.625 313.176 204.725 312.051 206.8C311.826 207.225 312.476 207.6 312.701 207.175C313.826 205.1 314.926 203 316.051 200.925C316.276 200.5 315.626 200.125 315.401 200.55Z" fill="#E8E8E8"/>
<path d="M320.751 204.075C321.126 209.575 321.676 215.075 322.426 220.55C322.501 221.025 323.201 220.825 323.151 220.35C322.426 214.95 321.876 209.525 321.501 204.075C321.476 203.6 320.726 203.6 320.751 204.075Z" fill="#E8E8E8"/>
<path d="M326.351 209.6C326.601 208.15 327.976 207.025 328.926 205.95C329.901 204.85 330.901 203.75 331.876 202.65C332.201 202.3 331.676 201.75 331.351 202.125C330.151 203.45 328.976 204.775 327.776 206.1C326.901 207.075 325.876 208.025 325.626 209.375C325.551 209.875 326.276 210.075 326.351 209.6Z" fill="#E8E8E8"/>
<path d="M46.5251 182.375C53.1751 182.075 59.3751 179.65 65.8251 178.275C72.975 176.75 80.0751 177.5 87.125 179.15C94.0251 180.775 100.825 182.875 107.675 184.675C114.55 186.5 121.425 188.225 128.325 189.875C156.1 196.525 184.225 201.875 212.5 205.9C228.35 208.15 244.275 209.975 260.225 211.375C260.7 211.425 260.7 210.675 260.225 210.625C231.625 208.1 203.175 204.225 174.95 199C160.825 196.375 146.75 193.45 132.775 190.15C118.95 186.9 105.25 183.175 91.5501 179.475C84.1251 177.475 76.4251 175.85 68.7251 176.95C61.2251 178.025 54.1751 181.25 46.5501 181.575C46.0501 181.625 46.0501 182.375 46.5251 182.375Z" fill="#E8E8E8"/>
<path d="M166.75 198.775C189.25 196.6 211.55 192.65 233.425 186.925C244.425 184.05 255.225 180.55 266.05 177.075C271.275 175.4 276.575 173.825 281.975 172.825C287.8 171.725 293.675 171.475 299.6 171.85C306.175 172.275 312.75 173.125 319.3 173.85C325.875 174.575 332.475 175.275 339.05 176C339.525 176.05 339.525 175.3 339.05 175.25C327.3 173.975 315.55 172.55 303.775 171.425C298.025 170.875 292.25 170.65 286.525 171.375C281.125 172.025 275.8 173.35 270.6 174.9C259.725 178.125 249.025 181.925 238.075 184.925C227.15 187.925 216.125 190.475 205 192.575C192.35 194.975 179.575 196.8 166.75 198.025C166.275 198.075 166.275 198.825 166.75 198.775Z" fill="#E8E8E8"/>
<path d="M171.601 235.275C190.851 235.15 205.776 221.125 222.701 214.05C227.626 212 232.801 210.5 238.126 210.1C238.601 210.075 238.601 209.325 238.126 209.35C219.076 210.775 204.626 224.85 187.376 231.35C182.326 233.25 177.026 234.475 171.601 234.525C171.101 234.525 171.101 235.275 171.601 235.275Z" fill="#E8E8E8"/>
<path d="M240.525 208.925C261.5 204.4 277.15 188.425 296.125 179.525C301.6 176.95 307.4 175.025 313.425 174.225C313.9 174.15 313.9 173.4 313.425 173.475C291.95 176.325 275.775 192.325 257.2 201.925C251.85 204.7 246.225 206.95 240.325 208.225C239.85 208.3 240.05 209.025 240.525 208.925Z" fill="#E8E8E8"/>
<path d="M220.825 103.475C230.1 99.2 240.575 107.6 249.675 102.275C250.1 102.025 249.725 101.375 249.3 101.625C240.3 106.9 229.75 98.55 220.45 102.825C220 103.025 220.375 103.675 220.825 103.475Z" fill="#E8E8E8"/>
<path d="M176.925 56.8501C187.05 54.7001 197.15 57.8751 206.875 60.5501C216.575 63.2251 226.35 64.8751 236.425 64.6751C242.1 64.5501 247.75 63.9001 253.3 62.7751C253.775 62.6751 253.575 61.9501 253.1 62.0501C242.825 64.1501 232.2 64.5251 221.8 63.0751C211.825 61.6751 202.425 58.0001 192.55 56.2251C187.3 55.2751 181.95 55.0251 176.725 56.1501C176.275 56.2251 176.475 56.9501 176.925 56.8501Z" fill="#E8E8E8"/>
<path d="M60.1497 86.2748C69.2497 81.1498 79.8247 80.7248 89.5247 84.3498C94.4247 86.1748 99.0997 88.4248 104.15 89.8248C108.975 91.1748 113.95 91.9748 118.95 92.2498C124.7 92.5498 130.475 92.0998 136.15 90.9748C136.625 90.8748 136.425 90.1498 135.95 90.2498C125.425 92.3748 114.475 91.9748 104.15 89.0498C99.0247 87.5998 94.2747 85.2998 89.2997 83.4748C84.6247 81.7748 79.7747 80.8998 74.7997 81.1998C69.5247 81.5248 64.3997 83.0248 59.7997 85.6248C59.3497 85.8498 59.7247 86.4998 60.1497 86.2748Z" fill="#E8E8E8"/>
<path d="M301.2 83.2999C296.675 78.3749 295 71.2749 296.375 64.7749C297.075 61.4999 298.525 58.3499 300.775 55.8249C302.275 54.1249 303.975 53.1999 306.2 52.7749C308.425 52.3499 310.7 52.0749 312.975 52.0499C320.9 51.9999 328.6 56.7249 330.675 64.6749C331.725 68.7249 330.95 72.7249 329 76.3499C327.1 79.8249 324.525 83.1749 321.075 85.1999C314.525 89.0249 305.575 87.9249 300.2 82.5749C299.85 82.2249 299.325 82.7749 299.675 83.0999C304.75 88.1249 312.775 89.5749 319.35 86.8749C323.025 85.3749 325.85 82.5499 328.05 79.2999C330.475 75.7249 332.225 71.6999 331.875 67.2999C331.225 59.1249 324.55 52.8749 316.65 51.5749C314.325 51.1999 311.95 51.2499 309.625 51.5249C307.525 51.7499 305.175 51.9499 303.25 52.8999C300.025 54.4749 297.825 58.1999 296.6 61.4249C293.75 68.9249 295.25 77.8999 300.7 83.8249C301 84.1749 301.525 83.6499 301.2 83.2999Z" fill="#E8E8E8"/>
<path d="M86.2751 160.925C97.5501 159.375 108.375 163.9 118.925 167.225C124.125 168.875 129.425 170.325 134.875 170.725C140.625 171.15 146.125 170.075 151.55 168.225C157.325 166.25 162.9 163.8 168.9 162.6C174.5 161.475 180.225 161.25 185.925 161.525C197.525 162.1 208.875 164.675 220.3 166.525C232.55 168.475 245.2 169.6 257.325 166.25C257.8 166.125 257.6 165.4 257.125 165.525C234.6 171.75 211.675 162.8 189.175 161C183.65 160.55 178.05 160.525 172.525 161.25C166.625 162.025 161.1 163.9 155.55 165.975C149.875 168.1 144.125 170.05 137.975 170.1C132.325 170.125 126.8 168.85 121.425 167.225C109.95 163.8 98.3501 158.525 86.0751 160.225C85.6001 160.275 85.8251 161 86.2751 160.925Z" fill="#E8E8E8"/>
<path d="M173.525 150.45C178.075 148.05 182.925 145.925 188.075 145.3C193.225 144.675 198.15 145.975 202.975 147.625C207.775 149.25 212.5 150.9 217.475 151.9C222.325 152.875 227.25 153.4 232.2 153.475C242.35 153.625 252.325 151.775 261.85 148.275C271.425 144.75 280.475 139.95 289.875 136.025C300.55 131.55 312.05 128.175 323.725 129.425C324.2 129.475 324.2 128.725 323.725 128.675C302.625 126.425 284.05 138.575 265.3 146.15C255.575 150.075 245.45 152.525 234.95 152.725C229.775 152.825 224.575 152.425 219.475 151.525C214.4 150.625 209.55 149.125 204.7 147.425C199.475 145.6 194.125 143.95 188.525 144.525C183.075 145.075 177.975 147.3 173.15 149.825C172.725 150.025 173.1 150.675 173.525 150.45Z" fill="#E8E8E8"/>
<path d="M120.626 101.8C129.001 96.7748 138.851 100.45 147.351 103.1C156.151 105.85 165.326 107.15 174.576 106.7C179.776 106.45 184.926 105.65 189.951 104.375C190.426 104.25 190.226 103.525 189.751 103.65C180.451 106.025 170.751 106.65 161.226 105.425C156.351 104.8 151.601 103.65 146.901 102.15C142.576 100.775 138.251 99.2748 133.701 98.7248C129.101 98.1748 124.301 98.6998 120.276 101.125C119.851 101.4 120.226 102.05 120.626 101.8Z" fill="#E8E8E8"/>
<path d="M236.375 251.95C236.375 253.875 238.175 255.275 240.25 256.925C242.2 258.45 245.325 260.4 249.75 261.225C250.475 263.725 251.975 268.55 252.975 268.3C253.8 268.1 254.175 264.225 253.7 261.075C253.525 259.9 253.35 258.8 252.725 257.675C251.25 255.1 249.325 255.95 247.25 253.925C244.65 251.375 245.65 248.025 243.65 246.825C241.075 245.275 236.375 248.8 236.375 251.95Z" fill="#161616"/>
<path d="M236.4 255.7C236.175 257.575 237.826 259.3 239.726 261.325C242.876 264.675 246.125 266.35 248.45 267.2C248.95 270.725 249.85 275.85 250.85 275.825C251.775 275.8 252.75 271.55 252.55 267.85C252.475 266.475 252.425 265.45 251.95 264.325C250.725 261.4 248.55 262.1 246.925 259.625C245.1 256.8 246.65 254.025 245.125 252.3C242.925 249.8 236.8 252.375 236.4 255.7Z" fill="#161616"/>
<path d="M211.95 248.725C211.025 248.625 210.6 250.55 208.925 253.575C208 255.275 205.7 259.45 202.2 261.825C199.45 263.675 197.05 263.7 197.075 264.575C197.1 265.225 198.45 265.65 199.175 265.75C200.95 266 202.275 264.825 202.7 264.45C205.525 262.65 207.75 260.8 209.325 259.35C213.225 255.775 213.675 254.225 213.75 253.075C213.875 251.05 212.925 248.825 211.95 248.725Z" fill="#161616"/>
<path d="M212.025 246.1C213.375 246.825 215.35 247.75 217.8 248.45C219.35 248.875 224.125 250.05 231.425 248.775C239.5 247.35 241.55 244.5 243.75 246.6C246.05 248.8 246.5 254.65 244.775 258.15C243.725 260.275 241.575 261.1 237.3 262.775C233.95 264.075 231.45 265.05 227.85 265.125C223.625 265.225 220.525 264 218.7 263.3C214.9 261.775 211.575 260.45 210.275 256.625C209.725 255.025 209.7 253.475 209.775 252.45C210.55 250.325 211.3 248.2 212.025 246.1Z" fill="#161616"/>
<path d="M237.475 249.425C237.675 247.975 239.35 247.6 240.8 246.675C244.625 244.2 244.1 239.475 246.725 238.825C248.95 238.275 249.9 241.55 252.15 240.925C254.8 240.175 255.55 235.075 256.475 235.425C257.15 235.675 257.55 238.825 256.475 240.8C255.375 242.8 253.075 243.025 250.45 243.275C247.825 243.525 247.625 242.925 246.525 243.525C244.5 244.675 244.875 246.9 242.4 249.275C241 250.625 238.8 251.95 237.875 250.975C237.55 250.625 237.4 249.975 237.475 249.425Z" fill="#161616"/>
<path d="M213.101 251.65C212.176 251.55 211.751 253.475 210.076 256.5C209.151 258.2 206.851 262.375 203.351 264.75C200.601 266.6 198.201 266.625 198.226 267.5C198.251 268.15 199.601 268.575 200.326 268.675C202.101 268.925 203.426 267.75 203.851 267.375C206.676 265.575 208.901 263.725 210.476 262.275C214.376 258.7 214.826 257.15 214.901 256C215.026 253.975 214.076 251.75 213.101 251.65Z" fill="#161616"/>
<path d="M200.225 247.975C200.825 251.725 200.275 252.5 201.2 253.725C202.6 255.6 205.225 255.85 205.675 255.9C207.625 256.1 207.925 255.3 210.025 255.525C212.375 255.775 212.75 256.8 213.925 256.425C215.65 255.875 216.15 253.15 216.3 252.3C216.325 252.225 216.325 252.15 216.325 252.1C216.525 250.425 216.125 248.925 215.575 247.75C212.325 246.35 210.4 244.6 209.225 243.275C207.975 241.85 207.2 240.4 206.525 240.575C205.775 240.775 205.675 242.85 205.7 244.475C204.8 244.725 203.9 244.975 203 245.225C200.675 242.875 199.875 242.7 199.55 242.9C199.025 243.2 199.7 244.6 200.225 247.975Z" fill="#161616"/>
<path d="M204.475 251.325C204.675 252.125 205.425 252.65 206.25 252.6C206.375 252.6 206.375 252.4 206.25 252.4C205.525 252.475 204.85 252 204.675 251.275C204.625 251.175 204.45 251.225 204.475 251.325Z" fill="white"/>
<path d="M204.401 251.275C204.401 251.575 204.401 251.9 204.326 252.2C204.301 252.35 204.251 252.475 204.176 252.6C204.176 252.6 203.826 253.1 203.776 253.025C203.726 252.925 203.551 253.025 203.626 253.125C203.776 253.4 204.151 252.975 204.251 252.85C204.576 252.4 204.601 251.8 204.601 251.275C204.576 251.15 204.401 251.15 204.401 251.275Z" fill="white"/>
<path d="M204.45 251.175C204.4 251.25 204.525 251.2 204.5 251.225C204.425 251.275 204.425 251.175 204.5 251.15C204.575 251.15 204.575 251.25 204.55 251.275C204.525 251.3 204.525 251.3 204.5 251.3C204.475 251.3 204.45 251.3 204.45 251.275V251.25C204.425 251.25 204.4 251.25 204.4 251.225C204.3 251.15 204.2 251.325 204.3 251.375C204.425 251.45 204.65 251.45 204.65 251.25C204.65 251.1 204.45 251 204.325 251.125C204.2 251.25 204.275 251.45 204.425 251.475C204.6 251.525 204.75 251.4 204.75 251.225C204.75 251.075 204.65 250.925 204.475 250.95C204.325 250.975 204.2 251.15 204.275 251.3C204.35 251.425 204.525 251.425 204.625 251.35C204.725 251.275 204.725 251.1 204.6 251.025C204.475 250.95 204.275 251.025 204.275 251.175C204.275 251.35 204.55 251.375 204.625 251.225C204.675 251.15 204.5 251.05 204.45 251.175Z" fill="white"/>
<path d="M202.026 249.85C202.326 249.4 203.001 249.3 203.401 249.675C203.501 249.75 203.626 249.625 203.526 249.55C203.026 249.1 202.226 249.225 201.851 249.775C201.801 249.85 201.976 249.95 202.026 249.85Z" fill="white"/>
<path d="M205.626 249.1C206.001 248.6 206.675 248.45 207.25 248.7C207.35 248.75 207.45 248.6 207.35 248.55C206.675 248.25 205.926 248.45 205.476 249.025C205.401 249.1 205.551 249.175 205.626 249.1Z" fill="white"/>
<path d="M207.125 242C207.45 242.625 207.675 243.3 207.775 244C207.8 244.125 207.975 244.075 207.95 243.95C207.825 243.225 207.6 242.55 207.275 241.9C207.25 241.8 207.075 241.9 207.125 242Z" fill="white"/>
<path d="M206.325 243.975C206.4 244.175 206.526 244.375 206.676 244.525C206.751 244.6 206.876 244.5 206.826 244.4C206.726 244.2 206.676 243.975 206.676 243.75C206.651 243.775 206.6 243.825 206.575 243.85C206.726 243.85 206.876 243.825 207.001 243.825C207.051 243.825 207.101 243.775 207.101 243.7C207.051 243.55 207.026 243.375 206.976 243.225C206.951 243.275 206.926 243.3 206.876 243.35C207.051 243.35 207.201 243.35 207.376 243.35C207.501 243.35 207.501 243.15 207.376 243.15C207.201 243.15 207.051 243.15 206.876 243.15C206.826 243.15 206.775 243.2 206.775 243.275C206.825 243.425 206.851 243.6 206.901 243.75C206.926 243.7 206.951 243.675 207.001 243.625C206.851 243.625 206.701 243.65 206.575 243.65C206.525 243.65 206.476 243.7 206.476 243.75C206.476 244.025 206.525 244.25 206.65 244.5C206.7 244.45 206.751 244.425 206.801 244.375C206.676 244.225 206.551 244.05 206.476 243.85C206.426 243.775 206.275 243.875 206.325 243.975Z" fill="white"/>
<path d="M203.425 251.75C202.925 251.55 202.425 251.3 201.975 251C201.875 250.925 201.775 251.1 201.875 251.15C202.35 251.45 202.85 251.7 203.375 251.925C203.5 251.975 203.55 251.8 203.425 251.75Z" fill="white"/>
<path d="M203.025 252.125C202.75 252.175 202.5 252.25 202.275 252.375C202.175 252.425 202.25 252.6 202.375 252.525C202.6 252.4 202.825 252.325 203.075 252.3C203.175 252.275 203.125 252.1 203.025 252.125Z" fill="white"/>
<path d="M205.851 251.15C206.351 250.75 206.876 250.4 207.426 250.05C207.526 250 207.426 249.825 207.326 249.9C206.751 250.25 206.226 250.625 205.701 251.025C205.626 251.1 205.751 251.225 205.851 251.15Z" fill="white"/>
<path d="M206.276 251.575C206.851 251.425 207.426 251.275 207.976 251.15C208.101 251.125 208.051 250.95 207.926 250.975C207.351 251.125 206.776 251.275 206.226 251.4C206.101 251.425 206.151 251.625 206.276 251.575Z" fill="white"/>
<path d="M203.5 253.25C204.35 252.95 204.55 252.05 204.575 251.25C204.575 251.125 204.4 251.125 204.375 251.25C204.325 251.95 204.175 252.775 203.425 253.05C203.325 253.1 203.375 253.3 203.5 253.25Z" fill="white"/>
<path d="M203.501 253.25C203.976 253.075 204.326 252.675 204.426 252.175C204.451 252.05 204.276 252 204.251 252.125C204.176 252.575 203.901 252.925 203.476 253.075C203.351 253.125 203.401 253.3 203.501 253.25Z" fill="white"/>
<path d="M200.05 244.2C200.625 244.825 201.05 245.525 201.35 246.325C201.4 246.425 201.575 246.4 201.525 246.275C201.225 245.45 200.775 244.725 200.175 244.075C200.1 244 199.975 244.125 200.05 244.2Z" fill="white"/>
<path d="M201.05 245.575C200.9 245.6 200.75 245.6 200.6 245.625C200.525 245.625 200.475 245.725 200.525 245.775C200.625 245.85 200.7 246 200.65 246.125C200.625 246.225 200.525 246.275 200.525 246.375C200.525 246.425 200.55 246.5 200.6 246.525C200.65 246.575 200.75 246.6 200.75 246.65C200.75 246.775 200.95 246.775 200.95 246.65C200.95 246.55 200.9 246.525 200.85 246.45C200.825 246.425 200.75 246.4 200.75 246.375C200.725 246.3 200.8 246.25 200.825 246.2C200.9 246 200.85 245.75 200.675 245.625C200.65 245.675 200.625 245.725 200.6 245.775C200.75 245.75 200.9 245.75 201.05 245.725C201.175 245.75 201.175 245.55 201.05 245.575Z" fill="white"/>
<path d="M228.825 223.1C234.525 224.7 240.225 226.325 245.925 227.925C247.55 229.5 250.075 231.65 253.6 233.4C259.675 236.425 267.025 237.45 267.625 236.025C267.9 235.4 266.35 234 263.25 231.2C260.6 228.825 259.425 228.1 257.55 226.375C256.175 225.1 254.275 223.175 252.3 220.45C250.025 220.425 247.275 220.2 244.225 219.55C239.3 218.475 235.4 216.675 232.7 215.125C231.4 217.8 230.1 220.45 228.825 223.1Z" fill="#161616"/>
<path d="M173.826 159.925C170.001 165.85 172.801 173.225 175.901 181.325C180.326 192.975 187.126 200.675 190.601 204.275C206.151 220.425 225.251 227.325 236.251 230.325C237.376 225.175 238.476 220 239.601 214.85C232.001 210.725 226.401 206.225 222.576 202.725C216.151 196.85 205.401 187.025 200.901 171.775C198.126 162.325 199.876 158.05 195.751 155C190.001 150.8 178.276 153 173.826 159.925Z" fill="#4F4F4F"/>
<path opacity="0.14" d="M198.951 162.725C196.851 166.125 194.201 171.65 194.976 178.025C195.876 185.4 200.876 190.075 212.776 200.575C223.226 209.775 231.901 217.25 237.976 222.425C238.501 219.9 239.001 217.4 239.526 214.875C235.576 212.65 230.451 209.4 224.926 204.85C221.876 202.325 217.426 198.625 212.651 192.775C209.351 188.725 204.926 183.225 201.851 174.85C200.076 170 199.326 165.725 198.951 162.725Z" fill="#6D6C6C"/>
<path opacity="0.14" d="M205.801 183.6C206.476 185.925 207.676 189.275 209.851 192.95C211.751 196.15 214.426 199.65 223.776 207.6C227.501 210.75 232.451 214.775 238.576 219.2C238.926 217.775 239.251 216.35 239.601 214.925C236.151 213.025 233.376 211.225 231.401 209.85C225.276 205.6 221.076 201.575 218.551 199.125C217.001 197.625 215.301 195.95 213.176 193.55C209.876 189.725 207.476 186.225 205.801 183.6Z" fill="#6D6C6C"/>
<path d="M151.025 216.725C154.2 219.575 157.375 222.425 160.55 225.275C157.075 237.875 156.025 244.425 157.425 245C159.1 245.675 164.3 237.625 173.05 220.85C167.4 216.9 161.775 212.95 156.125 209.025C154.4 211.575 152.7 214.15 151.025 216.725Z" fill="#161616"/>
<path d="M173.55 154.25C162.4 162.2 154.175 168.1 150.075 171.025C135.05 181.775 127.525 187.275 126.85 192.7C125.55 203.275 137.525 214.225 140.775 217.2C143.825 220 146.725 221.925 148.775 223.125C150.425 222.775 155 221.625 158.825 217.45C162.175 213.825 163.15 209.85 163.475 208.175C159.25 204.225 155 200.25 150.775 196.3C159.125 192.2 165.975 189.05 170.675 186.95C177.3 183.975 179.625 183.1 183.2 180.575C187.725 177.4 193.75 173.075 195.45 165.625C195.875 163.75 197.025 158.8 194.425 155.3C191.175 150.9 182.675 150.175 173.55 154.25Z" fill="#4F4F4F"/>
<path opacity="0.12" d="M186.25 159.775C187.1 160.375 194.575 165.825 193.325 171.05C193.175 171.625 192.8 172.825 189.3 175.875C184.625 179.975 180.225 182.325 178.025 183.45C173.325 185.875 169.925 187.325 166.6 188.775C162.725 190.45 157.15 192.95 150.35 196.175C154.65 200.15 158.925 204.125 163.225 208.1C163.075 209.25 162.75 210.7 162.1 212.275C161.1 214.725 159.725 216.5 158.725 217.6C157.3 214.875 155.325 211.675 152.6 208.425C148 202.9 143.075 199.35 139.4 197.15C148.4 193.3 160.575 186.725 172.4 175.575C178.15 170.125 182.7 164.675 186.25 159.775Z" fill="#6D6C6C"/>
<path opacity="0.19" d="M192.65 169.975C191.4 168.625 183.375 174.075 179.475 176.675C172.125 181.6 161.35 188.475 146.8 196.8C152.425 200.675 158.05 204.575 163.675 208.45C159.375 204.35 155.05 200.25 150.75 196.15C152.125 195.475 154.45 194.35 157.35 192.975C162.225 190.65 167.475 188.225 174.525 184.925C175.75 184.35 179.35 182.65 183.9 180.1C186.875 178.425 189.8 176.675 191.7 173.25C192.25 172.275 193.2 170.575 192.65 169.975Z" fill="#6D6C6C"/>
<path d="M182.45 106.375C181.2 105.025 178.6 105.575 177.3 105.85C172.825 106.775 170.3 109.45 166.125 113.125C163.875 115.1 160.6 117.825 156.375 120.925C155.125 115.3 153.9 109.7 152.65 104.075C153.15 103.45 153.975 102.225 154.25 100.525C154.4 99.6251 154.775 96.4501 152.6 94.4501C150.2 92.2251 145.85 92.5501 143.85 94.8501C141.825 97.1751 142.875 100.725 143.375 102.425C143.85 104.025 144.575 105.25 145.15 106.05C144.975 107.825 144.8 110.4 144.975 113.5C145.15 116.825 145.35 120.225 146.925 123.975C148.2 127 149.725 130.625 152.95 131.95C156.45 133.4 160.075 131.325 167.15 127.15C178.25 120.6 180.9 115.175 181.525 113.85C182.2 112.425 184.125 108.2 182.45 106.375Z" fill="white" stroke="#161616" stroke-width="2" stroke-miterlimit="10"/>
<path d="M151.875 101.625C151.025 100.9 150.125 100.075 149.825 98.9498C149.7 98.4498 149.6 97.7498 150.525 97.8748C150.75 97.8998 151.075 98.1748 151.25 98.2998C151.775 98.6498 152.25 99.0998 152.675 99.5498C152.85 99.7248 153.1 99.4498 152.95 99.2748C152.4 98.6748 150.175 96.3748 149.5 97.8498C148.825 99.3498 150.65 101.05 151.625 101.85C151.8 102.05 152.05 101.775 151.875 101.625Z" fill="#161616"/>
<path d="M143.526 95.325C143.651 97.15 144.226 99.925 146.676 99.525C146.926 99.475 146.801 99.125 146.576 99.175C144.401 99.525 144.001 96.875 143.901 95.325C143.876 95.1 143.501 95.1 143.526 95.325Z" fill="#161616"/>
<path d="M146.025 93.775C147.1 95.275 147.35 97.075 146.75 98.825C146.675 99.05 147.025 99.15 147.1 98.925C147.725 97.1 147.45 95.15 146.325 93.575C146.2 93.375 145.875 93.575 146.025 93.775Z" fill="#161616"/>
<path d="M148.825 93.1499C149.775 94.8999 149.55 96.9749 148.25 98.4999C148.1 98.6749 148.35 98.9499 148.525 98.7749C149.925 97.1499 150.2 94.8749 149.15 92.9749C149.05 92.7499 148.725 92.9499 148.825 93.1499Z" fill="#161616"/>
<path d="M151.925 94.4251C152.35 95.3751 152.125 96.4501 151.375 97.1501C151.2 97.3251 151.475 97.5751 151.65 97.4251C152.525 96.6001 152.775 95.3251 152.275 94.2251C152.15 94.0001 151.825 94.2001 151.925 94.4251Z" fill="#161616"/>
<path opacity="0.17" d="M145.95 93.3746C146.375 93.2496 146.9 93.0996 147.4 93.2996C148.75 93.8496 149.35 96.6246 148.15 98.0746C147.675 98.6746 147 98.8996 146.575 99.0246C146.6 99.4496 146.625 100.15 146.675 101.025C146.675 101.025 146.8 103.35 146.95 105.325C147.35 110.625 147.75 115.675 149.9 120.925C150.575 122.6 151.725 124.95 153.675 127.6C154.675 127.4 156.7 126.9 159.075 125.9C172.7 120.125 179.55 104.775 181.975 106.025C182.425 106.25 182.8 107.125 182.85 107.275C183.3 108.375 183.075 109.45 182.725 110.6C181.825 113.5 180.45 115.625 180.05 116.225C178.575 118.425 177.175 119.85 176.8 120.225C175.15 121.875 173.675 122.875 170.95 124.625C165.85 127.875 163.3 129.5 161.575 130.2C158.075 131.625 155.1 132.85 152.35 131.55C150.7 130.775 149.875 129.45 148.675 127.45C146.125 123.15 145.65 118.95 145.275 115.05C145.05 112.825 144.9 109.775 145.15 106.125C143.75 103.875 143.2 101.85 142.95 100.575C142.625 98.8996 142.375 97.4996 143.075 95.9746C143.275 95.6746 144.125 93.8996 145.95 93.3746Z" fill="#6D6C6C"/>
<path opacity="0.2" d="M182.9 108.525C182.625 108.4 181.775 109.7 180.875 111.05C179.575 113.025 178.925 114.025 177.85 116.275C174.825 122.625 164.75 127.75 163.45 128.425C161.4 129.45 158.45 130.725 154.65 131.625C152.9 130.025 149.675 126.7 147.85 122C146.85 119.425 146.475 116.875 146.4 116.45C146.125 114.675 146.1 113.3 146.075 111.725C146.05 109.55 146.125 107.65 146.275 106.125C145.725 105.1 145.2 103.925 144.7 102.675C143.85 100.5 143.3 98.4747 142.95 96.6997C142.85 98.0997 142.875 100.175 143.575 102.55C144.025 104.05 144.6 105.275 145.15 106.2C144.675 110.25 144.85 113.625 145.15 116.025C145.15 116.025 145.825 121.575 148.725 127.725C149.2 128.725 149.875 130 151.25 131C153.025 132.275 154.925 132.375 155.525 132.375C156.525 132.4 157.675 132.25 162.25 129.85C166.225 127.775 168.975 126 170 125.325C171.925 124.075 172.875 123.425 173.9 122.625C176 120.95 179.425 118.2 181.525 113.7C182.6 111.35 183.25 108.7 182.9 108.525Z" fill="#6D6C6C"/>
<path d="M184.7 100.475C179.85 103.8 174 109.05 171.55 116.9C169.75 122.675 170.925 126.55 170.675 135.875C170.525 141.2 169.975 148.925 168.025 158.375C169.175 159.6 176.025 166.575 186.575 166.325C193.125 166.175 197.825 163.3 199.825 161.9C198.325 152.5 198.725 145 199.375 139.825C200.55 130.65 203.6 125.325 203.575 114.875C203.575 109.775 202.875 105.6 202.275 102.825C200.95 101.825 198.425 100.2 194.875 99.5C190.125 98.625 186.3 99.85 184.7 100.475Z" fill="white" stroke="#161616" stroke-width="2" stroke-miterlimit="10"/>
<path opacity="0.13" d="M192.126 99.5498C192.176 102 192.176 105.6 191.776 109.9C191.326 115.025 190.276 122.075 185.851 135.85C183.501 143.175 180.076 152.7 175.176 163.65C177.901 165.125 180.326 165.75 181.951 166.025C187.976 167.05 192.851 165.225 195.176 164.325C197.226 163.525 198.826 162.625 199.926 161.95C199.501 159.375 199.051 155.85 198.901 151.6C198.826 149.6 198.701 143.075 200.251 133.975C201.676 125.575 202.801 125.125 203.476 119.55C204.301 112.575 203.326 106.65 202.301 102.6C201.051 101.775 199.101 100.675 196.526 100.05C194.826 99.6498 193.301 99.5498 192.126 99.5498Z" fill="#6D6C6C"/>
<path opacity="0.15" d="M196.351 100.225C196.601 104.9 196.701 110.975 196.176 118.025C195.926 121.475 195.376 128.35 193.626 136C192.051 142.95 188.776 153.5 181.426 165.5C183.251 165.925 185.901 166.325 189.051 166C194.151 165.475 197.851 163.375 199.726 162.1C198.226 151.45 198.926 143.1 199.901 137.35C200.826 131.9 201.901 129.2 202.626 123.275C203.651 114.7 202.926 107.55 202.126 102.75C201.551 102.225 200.601 101.45 199.251 100.875C198.101 100.45 197.076 100.3 196.351 100.225Z" fill="#6D6C6C"/>
<path d="M198.7 103.525C202.3 103.525 207 103.9 212.325 105.3C219.125 107.1 224.35 109.9 227.825 112.15C228.975 115.25 231.075 122.25 229.125 130.65C228.15 134.9 226.45 138.175 225 140.425C224.9 142.975 225.475 144.65 226.05 145.725C226.7 147 227.7 148.15 227.3 149.225C227.1 149.775 226.6 150.1 226.225 150.3C226.2 150.375 225.9 150.95 225.225 151.125C224.45 151.3 223.9 150.8 223.85 150.75C223.7 150.875 223.05 151.5 222.025 151.5C220.9 151.525 220.2 150.8 220.075 150.675C219.85 150.775 219.3 150.925 218.625 150.8C217.7 150.625 217.2 149.975 217.05 149.8C216.525 149.375 215.175 148.1 215.05 146.225C215 145.525 215.15 144.875 215.55 143.9C216.05 142.7 217.075 140.725 219.25 138.65C219.925 135.5 220.425 131.425 220.15 126.7C220 124.275 219.675 122.1 219.275 120.175C215.475 118.775 210.775 117.45 205.3 116.775C203.1 116.5 201 116.375 199.05 116.35C195.725 114.525 194.075 111 194.85 107.95C195.65 105.125 198.225 103.775 198.7 103.525Z" fill="white" stroke="#161616" stroke-width="2" stroke-miterlimit="10"/>
<path d="M216.275 144.25C215.85 146.201 215.8 148.201 217.025 149.876C217.175 150.076 217.5 149.876 217.35 149.676C216.175 148.076 216.225 146.201 216.625 144.35C216.675 144.125 216.325 144 216.275 144.25Z" fill="#161616"/>
<path d="M218.475 145.125C218.5 147 218.8 149.225 220.05 150.7C220.2 150.875 220.475 150.625 220.325 150.425C219.15 149.05 218.875 146.875 218.85 145.125C218.85 144.875 218.475 144.875 218.475 145.125Z" fill="#161616"/>
<path d="M221.125 145.451C221.3 147.326 222.025 149.751 223.7 150.826C223.9 150.951 224.1 150.626 223.9 150.501C222.35 149.501 221.675 147.176 221.5 145.451C221.475 145.201 221.1 145.201 221.125 145.451Z" fill="#161616"/>
<path d="M223.325 145.675C223.625 147.55 224.576 149.2 226.026 150.425C226.201 150.575 226.476 150.325 226.301 150.15C224.876 148.975 224 147.375 223.7 145.575C223.65 145.325 223.3 145.425 223.325 145.675Z" fill="#161616"/>
<path opacity="0.17" d="M195.35 107.15C199.6 106.8 206.875 106.8 215.05 109.925C219.85 111.775 223.575 114.15 226.2 116.175C227.725 130.55 225.575 136.675 223.15 139.55C222.625 140.15 220.55 142.45 220.3 145.75C220.1 148.25 220.975 151.3 222.2 151.475C222.7 151.55 223.175 151.125 223.55 150.7C224.275 151.225 224.825 151.2 225.025 151.15C225.2 151.125 225.45 151.05 226.4 150.325C227.15 149.75 227.525 149.45 227.6 149.3C228.075 148.375 226.775 147.125 225.925 145.5C225.375 144.45 224.825 142.85 224.9 140.5C226.625 137.75 229.875 131.65 229.9 123.4C229.925 118.6 228.825 114.7 227.875 112.125C225.65 110.65 223.675 109.65 222.225 108.975C221.85 108.8 221.8 108.75 215.65 106.475C213.075 105.525 212.55 105.325 211.575 105.1C210.225 104.775 210.15 104.875 207.05 104.35C205.45 104.075 203.85 103.875 202.25 103.6C201.825 103.525 200.225 103.275 198.825 103.7C198.625 103.775 198.15 103.9 197.625 104.25C197.5 104.35 197.125 104.6 196.6 105.175C196.275 105.625 195.8 106.25 195.35 107.15Z" fill="#6D6C6C"/>
<path opacity="0.14" d="M227.625 112.476C228.1 116.901 228.151 120.651 228.101 123.451C228.026 126.976 227.975 129.001 227.325 131.751C226.475 135.376 225 138.576 224.85 138.901C224.075 140.526 223.95 140.526 223.525 141.676C222.925 143.301 221.725 146.476 223.15 148.926C223.325 149.251 224.325 150.976 225.725 150.826C227.025 150.701 227.701 149.001 227.726 148.926C227.125 147.901 226.475 146.576 225.925 145.026C225.45 143.651 225.15 142.376 224.975 141.301C226.425 138.976 228.201 135.551 229.176 131.101C231.001 122.576 228.801 115.576 227.625 112.476Z" fill="#6D6C6C"/>
<path d="M178.851 83.4002C173.351 84.2752 171.701 92.0252 171.526 92.8002C171.151 94.5502 170.176 99.1252 173.201 102.525C176.176 105.875 180.776 105.5 181.351 105.45C182.501 105.35 185.226 104.875 187.301 102.725C190.951 99.0002 190.551 92.4002 187.626 88.2002C187.276 87.7252 183.626 82.6502 178.851 83.4002Z" fill="#303030"/>
<path d="M181.851 93.2754C181.726 94.3504 182.251 94.9004 183.651 97.8254C184.751 100.125 185.476 102.05 185.926 103.275C186.826 103.475 189.201 103.9 191.851 102.775C193.651 102.025 194.801 100.875 195.401 100.175C194.601 98.8754 193.526 96.9504 192.651 94.4754C191.276 90.6754 191.601 89.2004 190.351 88.4504C187.851 87.0254 182.201 90.0504 181.851 93.2754Z" fill="white" stroke="#161616" stroke-width="2" stroke-miterlimit="10"/>
<path d="M177.15 65.6004C175.2 66.9504 174.5 68.9755 173.15 72.9005C171.625 77.3505 170.625 81.2254 170.375 83.9754C170.325 84.3754 170.575 84.7755 170.975 84.9255C171.5 85.1255 172.375 85.1254 172.875 85.2004C172.925 86.4254 173.15 88.1254 173.925 89.9754C175.45 93.6504 178.15 95.7005 179.4 96.5005C180.95 96.6505 184.85 96.8254 188.7 94.4754C191.25 92.9004 192.575 90.9504 192.875 90.4754C194.825 87.5004 195 84.5254 195 83.2504C195.6 83.2004 196.55 83.0505 197.475 82.4255C199.375 81.1505 200.8 78.2004 199.6 76.5754C198.7 75.4004 196.45 75.0754 194.325 76.1254C194.275 75.2004 194.1 73.9254 193.625 72.4504C193.5 72.1004 192.625 69.4004 191 67.5754C187.85 64.0754 181.1 62.8254 177.15 65.6004Z" fill="white" stroke="#161616" stroke-width="2" stroke-miterlimit="10"/>
<path d="M183.425 97.2503C185.9 97.0253 188.125 96.0003 189.9 94.2503C190.25 93.9003 189.7 93.3753 189.375 93.7253C187.75 95.3503 185.725 96.3003 183.425 96.5253C182.95 96.5253 182.925 97.2753 183.425 97.2503Z" fill="#161616"/>
<path d="M183.8 97.8754C186.375 97.1504 188.65 95.8004 190.5 93.8504C190.825 93.5004 190.3 92.9754 189.975 93.3254C188.225 95.1754 186.075 96.4754 183.625 97.1504C183.125 97.2754 183.325 98.0004 183.8 97.8754Z" fill="#161616"/>
<path d="M172.026 75.9502C171.676 75.6252 168.951 72.9502 169.351 69.0252C169.801 64.8502 173.426 62.8502 174.026 62.5252C177.226 60.7752 180.376 61.5002 181.101 61.7002C182.226 61.0002 184.251 59.9502 186.926 59.6252C190.901 59.1252 194 60.4252 195.25 61.0502C196.9 61.5502 199.25 62.5252 201.2 64.6252C203.925 67.5502 203.3 69.9752 206.1 74.9002C207.2 76.8502 207.15 76.2252 211.325 81.8252C215.075 86.8502 216.95 89.4002 217.25 91.2502C217.875 95.3002 215.7 99.5002 213 101.975C207.75 106.775 198.4 106.975 193.95 102.15C190.275 98.1752 191.101 92.0752 191.351 90.1252C191.801 86.8002 193.05 84.2752 193.95 82.8002C194.375 82.8752 195.025 82.9752 195.75 82.8002C197.125 82.5002 198.775 81.3752 199.075 79.5752C199.1 79.4502 199.45 77.0002 197.7 76.0752C196.6 75.5002 195.15 75.7502 194.15 76.7252C192.9 76.3002 190.825 75.4752 188.775 73.7252C186.725 71.9752 185.551 70.1002 184.951 68.9252C184.051 68.5252 182.276 67.9502 180.101 68.2252C175.826 68.7752 173.526 72.2502 173.176 72.8002C172.801 73.8252 172.401 74.8752 172.026 75.9502Z" fill="#303030"/>
<path d="M177.601 78.275C177.526 78.025 177.476 77.8 177.476 77.55C177.476 77.4 177.476 77.25 177.501 77.1C177.526 76.95 177.601 76.875 177.476 76.775C177.301 76.65 177.401 76.9 177.426 77C177.426 77.125 177.426 77.25 177.426 77.4C177.426 77.525 177.426 78.1 177.301 78.175C177.401 78.15 177.501 78.15 177.601 78.125C177.676 78.225 177.701 78.225 177.676 78.125C177.676 78.05 177.651 78 177.651 77.925C177.626 77.775 177.601 77.65 177.601 77.5C177.601 77.225 177.626 76.95 177.776 76.725C178.026 76.3 177.376 75.925 177.126 76.35C176.926 76.7 176.851 77.1 176.851 77.525C176.851 77.875 176.876 78.4 177.101 78.675C177.301 78.95 177.676 78.925 177.901 78.675C178.176 78.375 178.201 77.8 178.226 77.4C178.251 77.05 178.276 76.575 178.051 76.275C177.851 76 177.501 75.95 177.226 76.15C176.601 76.625 176.726 77.85 176.926 78.5C177.001 78.925 177.726 78.725 177.601 78.275Z" fill="#161616"/>
<path d="M175.851 75.0752C177.001 74.1752 178.726 74.4252 179.551 75.6002C179.751 75.9002 180.251 75.6002 180.026 75.3252C178.951 73.8252 176.876 73.5502 175.426 74.6752C175.176 74.9002 175.576 75.3002 175.851 75.0752Z" fill="#161616"/>
<path d="M173.6 88.35C175.2 87.85 176.575 86.95 177.65 85.6999C177.875 85.4249 177.5 85.025 177.25 85.3C176.225 86.5 174.95 87.35 173.45 87.825C173.1 87.9 173.25 88.45 173.6 88.35Z" fill="#161616"/>
<path d="M177.575 80.6999C177.575 80.6249 177.55 80.6499 177.5 80.7999C177.45 80.8249 177.4 80.8249 177.35 80.8499C177.35 80.8499 177.35 80.8499 177.375 80.8499C177.325 80.8249 177.275 80.8249 177.225 80.7999L177.2 80.7749C177.175 80.7249 177.15 80.6999 177.125 80.6499C177.125 80.6749 177.125 80.6749 177.125 80.6249C177.15 80.5749 177.15 80.5249 177.175 80.4749C177.2 80.4499 177.25 80.3999 177.275 80.3749C177.35 80.3749 177.425 80.3499 177.5 80.3499C177.5 80.3499 177.5 80.3499 177.475 80.3499C177.125 80.2749 176.975 80.7999 177.325 80.8999C177.65 80.9749 177.825 80.5749 177.6 80.3499C177.5 80.2499 177.325 80.2499 177.2 80.2999C177.075 80.3749 177.025 80.5249 177.025 80.6749C177 81.0749 177.575 81.0749 177.575 80.6999Z" fill="#161616"/>
<path d="M180.05 78.6253C180.05 78.6253 180.075 78.6253 180.075 78.6003C180.125 78.6003 180.175 78.6003 180.225 78.6003C180.35 78.6253 180.4 78.7753 180.325 78.8753C180.3 78.9003 180.25 78.9503 180.225 78.9753C180.2 78.9753 180.175 79.0003 180.125 79.0003C180.075 78.9753 180.025 78.9753 179.975 78.9503L179.95 78.9253C179.925 78.8753 179.9 78.8503 179.875 78.8003C179.875 78.7253 179.875 78.6753 179.925 78.6253C179.975 78.6003 180 78.5753 180.05 78.5503C180.075 78.5503 180.075 78.5503 180.1 78.5503C179.95 78.5253 179.825 78.7003 179.825 78.8253C179.825 79.0003 179.95 79.0753 180.1 79.1003C180.3 79.1253 180.45 78.9253 180.45 78.7253C180.45 78.5003 180.2 78.3503 180 78.4253C179.575 78.6003 179.95 79.3253 180.325 79.0503C180.45 78.9753 180.5 78.8003 180.425 78.6753C180.375 78.6003 180.175 78.5503 180.05 78.6253Z" fill="#161616"/>
<path d="M180.001 81.325C180.101 81.375 180.101 81.525 180.001 81.575C179.851 81.5 179.726 81.425 179.576 81.325C179.576 81.4 179.576 81.475 179.576 81.55C179.701 81.45 179.801 81.375 179.926 81.275C179.951 81.325 179.951 81.35 179.976 81.375C179.951 81.225 179.851 81.1 179.701 81.1C179.551 81.1 179.401 81.225 179.426 81.375C179.451 81.575 179.576 81.775 179.776 81.8C179.951 81.825 180.126 81.725 180.126 81.525C180.126 81.45 180.126 81.375 180.126 81.3C180.126 81.075 179.876 80.95 179.701 81.05C179.426 81.2 179.426 81.6 179.701 81.775C180.051 81.975 180.326 81.5 180.001 81.325Z" fill="#161616"/>
<path opacity="0.15" d="M184.775 68.8501C185.2 70.2001 185.725 72.1501 186.15 74.5251C187.05 79.5001 187.925 84.0001 186.15 88.5001C184.625 92.4001 181.875 95.0001 179.7 96.5501C181.45 96.4751 183.575 96.2251 185.925 95.5501C187.05 95.2251 188.075 94.8501 189 94.4751C189.35 95.7751 189.7 97.5251 189.7 99.6251C189.7 101.1 189.525 102.4 189.325 103.45C189.8 103.475 190.7 103.475 191.7 103.075C192.6 102.7 193.2 102.175 193.55 101.85C194.075 102.4 194.9 103.1 196 103.775C199.975 106.125 204.125 105.5 205.275 105.3C206.275 105.125 211.4 104.175 214.725 99.5501C215.65 98.2751 217.475 95.7001 217.175 92.1001C216.9 88.7251 214.875 86.5251 214.175 85.8001C213.8 86.7251 212.775 88.8251 210.5 90.4001C210.075 90.7001 206.55 93.0501 202.375 91.9251C198.5 90.9001 195.55 87.2501 195 82.8001C195.375 82.8001 196 82.7751 196.7 82.5001C197.05 82.3501 198.275 81.7751 198.85 80.3501C198.95 80.0751 199.425 78.8751 198.85 77.5751C198.75 77.3501 198.125 75.9501 196.625 75.7251C195.275 75.5251 194.275 76.4501 194.175 76.5751C192.7 76.1001 190.125 75.0751 187.725 72.7501C186.275 71.3751 185.35 69.9501 184.775 68.8501Z" fill="#424242"/>
<path opacity="0.23" d="M196.675 82.4251C195.725 82.2001 194.775 81.9751 193.825 81.7251C193.45 82.2501 192.925 83.0251 192.375 84.0251C191.025 86.4501 190.75 87.9501 190 89.6251C189.4 90.9751 188.325 92.8001 186.325 94.7001C187.475 94.3001 188.625 93.8751 189.775 93.4751C190.325 94.6001 191.225 96.8251 191 99.7001C190.9 101.075 190.575 102.225 190.225 103.075C191.35 102.7 192.475 102.3 193.6 101.925C193.05 101.2 192.3 100.075 191.75 98.5501C190.975 96.3751 191.025 94.5751 191.05 92.9501C191.075 92.2251 191.175 89.9501 192.05 87.1251C192.6 85.4001 193.25 84.0001 193.825 82.9751C194.2 83.0251 194.775 83.0501 195.425 82.9001C195.95 82.7751 196.375 82.6001 196.675 82.4251Z" fill="#6D6C6C"/>
<path opacity="0.25" d="M172.8 89.0254C172.575 89.6004 171.475 92.6004 173.025 95.5754C174.2 97.8504 177.025 100.3 179.925 99.5504C181.875 99.0504 182.925 97.3504 183.275 96.7754C184.225 99.0504 185.175 101.325 186.125 103.6C185.875 103.8 185.475 104.1 184.975 104.375C181.4 106.425 177.45 105.125 177.15 105.025C176.375 104.75 173.95 103.875 172.375 101.4C170.9 99.0504 171.05 96.6754 171.175 94.8504C171.325 92.2254 172.175 90.2254 172.8 89.0254Z" fill="#424242"/>
<path d="M45.9248 150.475C54.3498 150.05 62.3248 153.025 69.8748 156.425C77.5248 159.875 84.9748 163.625 93.0748 165.925C97.8498 167.3 102.75 168.225 107.7 168.8C108.175 168.85 108.175 168.1 107.7 168.05C98.6998 167.025 89.9498 164.625 81.6498 161C74.2248 157.75 67.0498 153.825 59.2498 151.5C54.9248 150.2 50.4498 149.5 45.9248 149.725C45.4248 149.725 45.4248 150.475 45.9248 150.475Z" fill="#161616"/>
<path d="M94.6247 154.775C109.45 161.4 126.1 160.575 141.75 157.825C146.65 156.975 151.525 155.95 156.375 154.9C156.85 154.8 156.65 154.075 156.175 154.175C140.3 157.55 123.875 160.975 107.675 158C103.325 157.2 99.0497 155.925 95.0247 154.125C94.5747 153.95 94.1997 154.6 94.6247 154.775Z" fill="#161616"/>
<path d="M210.425 208.875C221.1 213.025 232.575 209.6 242.675 205.475C248.125 203.25 253.5 200.8 259.125 198.975C264.825 197.15 270.7 195.85 276.65 195.15C283.25 194.375 289.925 194.325 296.55 194.95C297.025 195 297.025 194.25 296.55 194.2C285.125 193.1 273.525 194.1 262.475 197.175C251.25 200.325 241.075 206.5 229.675 209C223.375 210.375 216.725 210.5 210.625 208.15C210.175 207.975 209.975 208.7 210.425 208.875Z" fill="#161616"/>
<path d="M280.35 183.6C294.725 179.375 310.225 179.75 324.375 184.675C324.825 184.825 325.025 184.1 324.575 183.95C310.3 179 294.65 178.625 280.15 182.875C279.7 183 279.9 183.725 280.35 183.6Z" fill="#161616"/>
<path d="M190.149 68.7752C195.524 67.6752 200.899 66.5502 206.374 66.0752C211.874 65.6002 217.274 65.9502 222.674 66.9752C233.024 68.9752 243.099 72.2252 253.649 73.2752C259.424 73.8502 265.249 73.7502 270.949 72.6002C271.424 72.5002 271.224 71.7752 270.749 71.8752C260.124 74.0252 249.299 72.3252 238.874 69.9502C228.499 67.6002 218.349 64.4502 207.574 65.2002C201.624 65.6252 195.774 66.8252 189.949 68.0252C189.474 68.1502 189.674 68.8752 190.149 68.7752Z" fill="#161616"/>
<path d="M224.324 73.2251C240.949 78.6751 258.399 83.4251 276.074 81.4751C280.799 80.9501 285.474 79.9251 289.974 78.3751C290.424 78.2251 290.224 77.5001 289.774 77.6501C273.199 83.4251 255.324 81.3001 238.724 76.8251C233.949 75.5501 229.224 74.0501 224.549 72.5251C224.074 72.3501 223.874 73.0751 224.324 73.2251Z" fill="#161616"/>
</g>
</svg>
